<?xml version="1.0" encoding="utf-8"?>
<!-- Generator: Adobe Illustrator 27.0.0, SVG Export Plug-In . SVG Version: 6.00 Build 0)  -->
<svg version="1.1" id="Layer_1" xmlns="http://www.w3.org/2000/svg" xmlns:xlink="http://www.w3.org/1999/xlink" x="0px" y="0px"
	 viewBox="0 0 700 430" style="enable-background:new 0 0 700 430;" xml:space="preserve">
<style type="text/css">
	.st0{fill:#0B50B9;}
	.st1{fill:#110239;}
	.st2{opacity:0.78;fill:#DCEAFF;}
	.st3{opacity:0.78;}
	.st4{opacity:0.5;fill:#BFDCFF;}
	.st5{fill:#005FBA;}
	.st6{fill:#FB961E;}
	.st7{fill:#FFFFFF;}
	.st8{fill:#FFAE73;}
	.st9{fill:#002897;}
	.st10{fill:#00158B;}
	.st11{fill:#ED057F;}
	.st12{fill:#A21B89;}
	.st13{fill:#F99352;}
	.st14{fill:#1F0757;}
	.st15{fill:#0097DD;}
	.st16{fill:#0072C6;}
	.st17{fill:#00A9E9;}
	.st18{fill:#25468F;}
	.st19{fill:#E8F2FA;}
	.st20{opacity:0.49;}
	.st21{fill:#E5E6ED;}
	.st22{fill:#214D9A;}
	.st23{fill:#CF0E83;}
	.st24{fill:#FFA05E;}
	.st25{fill:#00037F;}
	.st26{fill:#003AA2;}
	.st27{fill:#004DAE;}
	.st28{fill:#0084D1;}
	.st29{fill:#662D91;}
	.st30{fill:#75298F;}
	.st31{fill:#84248D;}
	.st32{fill:#93208B;}
	.st33{fill:#B11787;}
	.st34{fill:#C01285;}
	.st35{fill:#DE0981;}
	.st36{fill:#FDE3F1;}
	.st37{fill:#FBC7E3;}
	.st38{fill:#F9ACD4;}
	.st39{fill:#F790C6;}
	.st40{fill:#F574B8;}
	.st41{fill:#F358AA;}
	.st42{fill:#F13D9B;}
	.st43{fill:#EF218D;}
	.st44{opacity:0.43;}
	.st45{fill:#B6CFFF;}
	.st46{fill:#A9C2FF;}
	.st47{fill:#CEDFFF;}
	.st48{fill:#BBD3FF;}
	.st49{fill:#80A1E6;}
	.st50{opacity:0.5;}
	.st51{opacity:0.42;}
	.st52{fill:#F4F4FF;stroke:#FFFFFF;stroke-width:0.75;stroke-miterlimit:10;}
	.st53{fill:#F4F4FF;}
	.st54{fill:#FA8B79;}
	.st55{opacity:0.1;}
	.st56{fill:#6B98F6;}
	.st57{fill:#F9924F;}
	.st58{fill:#DF851B;}
	.st59{fill:#FCAD50;}
	.st60{fill:#FDC582;}
	.st61{fill:#FEDCB4;}
	.st62{fill:#E3F5FD;}
	.st63{fill:#C6ECFA;}
	.st64{fill:#AAE2F8;}
	.st65{fill:#8ED9F5;}
	.st66{fill:#71CFF3;}
	.st67{fill:#55C6F0;}
	.st68{fill:#39BCEE;}
	.st69{fill:#1CB3EB;}
	.st70{fill:#C6C7D7;}
	.st71{fill:#002987;}
	.st72{clip-path:url(#SVGID_00000175298866119132849450000010785639641258602661_);}
	.st73{fill:#F1F3F4;}
	.st74{fill:#9CC0F9;}
	.st75{fill:#FEF9E8;}
	.st76{fill:#E8EAED;}
	.st77{fill:#FCE8E6;}
	.st78{fill:none;stroke:#9CC0F9;stroke-width:3.7859;stroke-miterlimit:10;}
	.st79{fill:none;stroke:#9CC0F9;stroke-width:1.262;stroke-miterlimit:10;}
	.st80{fill:#2B478B;}
	.st81{opacity:0.32;}
	.st82{opacity:0.2;fill:#ED057F;}
	.st83{opacity:0.5;fill:#ED057F;}
	.st84{opacity:0.1;fill:#110239;}
	.st85{fill:#B3E0FF;}
	.st86{opacity:0.4;}
	.st87{opacity:0.25;fill:#FFFFFF;}
	.st88{opacity:0.5;fill:#FFFFFF;}
	.st89{fill:#7DC3EA;}
	.st90{fill:url(#SVGID_00000046332517668274851360000001950451934166598068_);}
	.st91{fill:url(#SVGID_00000036232134119408950850000013960057989159690936_);}
	.st92{fill:url(#SVGID_00000078026431563992319540000010540032873863435694_);}
	.st93{fill:url(#SVGID_00000010999390105949457630000001681280771248872325_);}
	.st94{fill:url(#SVGID_00000134969621706812619270000005054054639182823842_);}
	.st95{fill:url(#SVGID_00000065758105879837022290000001800977314795249847_);}
	.st96{fill:url(#SVGID_00000133505345429532978330000001503511445081111479_);}
	.st97{fill:url(#SVGID_00000039824929486658282760000007288381867991600044_);}
	.st98{fill:url(#SVGID_00000114071704698022263140000007252580387061522577_);}
	.st99{fill:url(#SVGID_00000124856853254721410000000002777589080619704972_);}
	.st100{fill:url(#SVGID_00000036943131265904151590000016512619862366685834_);}
	.st101{fill:url(#SVGID_00000152259700116108335720000011725220653502027393_);}
	.st102{fill:url(#SVGID_00000025442707843819881090000015370197837161221560_);}
	.st103{fill:url(#SVGID_00000155863954777440057240000014718845751501008051_);}
	.st104{fill:#5793CE;}
	.st105{fill:url(#SVGID_00000027576668803922190150000013666181604301991352_);}
	.st106{fill:url(#SVGID_00000176750439192164469880000011396754636448010145_);}
	.st107{fill:#173D7A;}
	.st108{fill:#396CAA;}
	.st109{opacity:0.3;fill:#06033E;}
	.st110{fill:#D4ECFF;}
	.st111{fill:#FF2C9C;}
	.st112{opacity:0.5;fill:#173D7A;}
	.st113{fill:url(#SVGID_00000077291765782814016050000011412949719642204805_);}
	.st114{fill:url(#SVGID_00000176739293520961205510000006001340448645396119_);}
	.st115{fill:url(#SVGID_00000152226846356673586790000000297287940681764737_);}
	.st116{fill:url(#SVGID_00000110451558566347799890000013124525807432104837_);}
	.st117{fill:url(#SVGID_00000075156241325508553460000015017065032258511515_);}
	.st118{fill:url(#SVGID_00000115507935157880805110000016283262798077907633_);}
</style>
<path class="st2" d="M673.53,205.65c19.76,15.24-2.74,49.91-2.74,49.91s-49.5,9.38-53.49,16.41c-4,7.03,43.88,0.24,43.88,0.24
	c-4.56,14.95-37.33,44.28-37.33,44.28s-44.47-21.12-46.62-13.32c-2.14,7.8,40.33,16.69,40.33,16.69
	c-9.93,12.18-31.53,18.45-31.53,18.45c-33.14,5.29-38.22-37.54-38.22-37.54s-15.57-6.99-37.68-4.73l0,0c0,0-4.25,0.82-10.85,0.7
	l1.57-3.79c1.14,0.11,2.27,0.18,3.37,0.19c0.01,0,0.01,0,0.02,0c0.02,0,0.03,0,0.05,0c0.69-0.02,1.68-0.05,2.89-0.09c0,0,0,0,0,0
	c0,0,0,0,0.01,0c2.75-0.22,4.75-0.31,6.16-0.3c0,0,0.01,0,0.01,0c8.56-0.52,19.9-1.69,23.23-4.22c0,0,0.42,0.66,1.4,1.53
	c-0.45-0.49-0.91-1-1.4-1.53c-11.22-12.25-0.11-45.66,11.08-62.2c11.19-16.55,13.03-6.55,17.28,6.61
	c4.25,13.16-6.38,32.66-5.63,40.03c0.75,7.37,7.64-0.1,11.7-12.53c4.06-12.44-5.5-23.45,0.71-43.69
	c6.2-20.24,48.97-19.92,48.97-19.92c-9.74,11.72-12.3,38.9-8.04,41.74c4.25,2.85,18.56-33.04,22.26-38.03
	C638.61,195.54,653.77,190.41,673.53,205.65z"/>
<path class="st2" d="M326.22,11.36c17.41-22.58,57.03,3.13,57.03,3.13S393.97,71.04,402,75.61c8.04,4.57,0.28-50.14,0.28-50.14
	c17.08,5.21,50.6,42.66,50.6,42.66s-24.13,50.82-15.22,53.26c8.91,2.45,19.07-46.09,19.07-46.09
	c13.92,11.34,21.08,36.02,21.08,36.02c6.04,37.87-42.89,43.67-42.89,43.67s-7.98,17.79-5.41,43.05l0,0c0,0,0.93,4.85,0.8,12.39
	l-4.33-1.79c0.13-1.31,0.2-2.59,0.22-3.85c0-0.01,0-0.02,0-0.02c0-0.02,0-0.04,0-0.05c-0.02-0.79-0.05-1.92-0.1-3.3c0,0,0,0,0-0.01
	c0,0,0,0,0-0.01c-0.25-3.14-0.35-5.42-0.35-7.04c0-0.01,0-0.01,0-0.01c-0.6-9.78-1.93-22.74-4.82-26.54c0,0,0.76-0.48,1.75-1.6
	c-0.56,0.51-1.14,1.04-1.75,1.6c-13.99,12.82-52.17,0.12-71.07-12.66c-18.9-12.79-7.49-14.89,7.55-19.74
	c15.04-4.85,37.31,7.29,45.73,6.43c8.42-0.86-0.11-8.73-14.32-13.37c-14.21-4.64-26.8,6.28-49.92-0.81
	c-23.12-7.09-22.76-55.95-22.76-55.95c13.39,11.13,44.44,14.05,47.69,9.19c3.25-4.86-37.76-21.21-43.45-25.43
	C314.67,51.25,308.81,33.94,326.22,11.36z"/>
<path class="st2" d="M78.99,213.19c-0.14-31.11,51.2-35.53,51.2-35.53s47.14,41.51,57.12,40.05c9.98-1.45-33.37-43.36-33.37-43.36
	c18.2-6.96,72.15,2.81,72.15,2.81s13.28,59.93,22.6,56.06c9.32-3.87-14.47-52.46-14.47-52.46c19.59,0.44,42.29,16.89,42.29,16.89
	c30.58,28.55-7.66,66.35-7.66,66.35s5.05,20.67,24.2,40.7l0,0c0,0,4.06,3.55,9,10.13l-4.93,1.36c-0.77-1.21-1.56-2.37-2.39-3.46
	c0-0.01-0.01-0.02-0.02-0.02c-0.01-0.02-0.02-0.03-0.04-0.05c-0.55-0.67-1.33-1.62-2.3-2.77c0,0,0,0,0,0c0,0,0,0,0-0.01
	c-2.32-2.53-3.94-4.43-5.02-5.83c0,0-0.01-0.01-0.01-0.01c-7.07-8.01-16.9-18.28-21.94-19.62c0,0,0.33-0.92,0.43-2.55
	c-0.14,0.81-0.28,1.66-0.43,2.55c-3.45,20.42-44.83,35.07-69.68,36.74c-24.85,1.66-16.43-7.8-6.73-22.06
	c9.69-14.26,37.01-18.74,43.69-25.12c6.68-6.38-5.95-7.44-21.29-1.91c-15.35,5.53-18.86,23.37-43.52,32.77
	c-24.66,9.4-57.1-32.92-57.1-32.92c18.98,0.6,47.68-17.69,47.22-24.05c-0.46-6.36-46.72,7.05-54.46,7.23
	C95.79,255.27,79.14,244.29,78.99,213.19z"/>
<g class="st3">
	<path class="st4" d="M499.35,164c0,0,43.17-37.82,54.72-81.13c1.54-5.76-5.04-10.26-9.88-6.79c-0.08,0.06-0.16,0.12-0.24,0.18
		C535.77,82.32,518.88,133.52,499.35,164z"/>
	<path class="st4" d="M487.89,176.15c0,0,42.32-64.26,40.22-123.07c-0.13-3.59-3.02-6.58-6.61-6.58c-2.34,0-5.15,1.21-8.19,5.09
		C505.21,61.93,501.75,131.5,487.89,176.15z"/>
</g>
<path class="st5" d="M92.07,331.89c-22.27,0-41.5,15.87-45.38,37.8c-0.03,0.18-0.06,0.36-0.09,0.54
	c-3.22,19.08-1.53,38.87,4.01,57.8h595.41c3.03,0,5.48-2.45,5.48-5.48v-90.66H92.07z"/>
<g>
	<circle class="st5" cx="331.06" cy="145.55" r="99.88"/>
	
		<ellipse transform="matrix(0.2269 -0.9739 0.9739 0.2269 114.1834 434.9448)" class="st7" cx="331.06" cy="145.55" rx="85.2" ry="85.2"/>
	<g>
		<path class="st1" d="M331.16,147.69h-0.03c-0.92,0-1.66-0.74-1.66-1.66V77.65c0-0.92,0.74-1.66,1.66-1.66h0.03
			c0.92,0,1.66,0.74,1.66,1.66v68.38C332.81,146.95,332.07,147.69,331.16,147.69z"/>
		<path class="st1" d="M332.61,146.93l-0.02,0.03c-0.43,0.81-1.44,1.11-2.25,0.67l-40.53-21.8c-0.81-0.43-1.11-1.44-0.67-2.25
			l0.02-0.03c0.43-0.81,1.44-1.11,2.25-0.67l40.53,21.8C332.75,145.12,333.05,146.13,332.61,146.93z"/>
	</g>
</g>
<g>
	<circle class="st6" cx="516.68" cy="92.09" r="56.58"/>
	<circle class="st7" cx="516.68" cy="92.09" r="42.89"/>
	
		<ellipse transform="matrix(0.3203 -0.9473 0.9473 0.3203 263.9463 552.0496)" class="st6" cx="516.68" cy="92.09" rx="30.63" ry="30.63"/>
	
		<ellipse transform="matrix(0.1264 -0.992 0.992 0.1264 360.0262 592.9862)" class="st7" cx="516.68" cy="92.09" rx="21.08" ry="21.08"/>
	<path class="st6" d="M506.95,92.09c0,5.37,4.36,9.73,9.73,9.73c5.37,0,9.73-4.36,9.73-9.73c0-5.37-4.36-9.73-9.73-9.73
		C511.31,82.36,506.95,86.71,506.95,92.09z"/>
</g>
<polygon class="st11" points="580.52,151.39 425.23,151.39 425.23,191.75 362.4,191.75 362.4,232.1 299.57,232.1 299.57,272.46 
	236.74,272.46 236.74,312.82 173.9,312.82 173.9,363.82 580.52,363.82 "/>
<g>
	<g>
		<path class="st6" d="M478.3,23.39c1.23-0.33,5.2-1.74,7.18,5.71c1.89,7.09,3.6,16.57,3.6,16.57s-6.51-7.11-11.01-12.9
			C473.36,26.69,477.12,23.94,478.3,23.39z"/>
		<path class="st1" d="M483.87,29.65l6.05,8.29c1.82,2.5,3.42,5.16,4.77,7.94l22.83,47.18l-27.75-40.11
			c-3.13-4.52-5.52-9.52-7.07-14.8l-1.91-6.48C481.94,31.24,482.99,30.54,483.87,29.65z"/>
		<path class="st6" d="M490.2,46.39c0,0,6.64-12.61,3.4-21.85c-3.24-9.23-11.38,6.33-11.38,6.33L490.2,46.39z"/>
		<path class="st6" d="M490.24,46.32c0,0-14.11-2.02-19.69-10.06c-5.58-8.04,11.8-5.5,11.8-5.5L490.24,46.32z"/>
	</g>
	<g>
		<path class="st8" d="M483.21,51.53c0,0,0.3-2.64,0.94-3.64c0.64-1.01,3.05-1.65,3.21-1.51c0.47,0.46-1.4,2.08-1.47,2.67
			c-0.07,0.6,0.95,0.18,0.46,1.35c-0.41,0.98-1.78,2.26-1.78,2.26L483.21,51.53z"/>
		<path class="st23" d="M484.38,51.23c-0.88-0.69-1.07-0.68-1.07-0.68s-8.14,7.05-8.94,7.68c-0.79,0.63-13.02,4.17-13.02,4.17
			l-1.94,9.94c0,0,16.55-7.99,18.52-9.62c3.27-2.7,7.39-10.24,7.39-10.24S485.07,51.78,484.38,51.23z"/>
		<path class="st17" d="M461.09,146.78c0,0,0.14,3.4,0.79,4.22l9.08,0.05c-0.06-0.35-0.1-1.16-1.36-1.38
			c-1.59-0.28-3.45-1.38-4.41-3.48C464.18,143.99,461.09,146.78,461.09,146.78z"/>
		<path class="st17" d="M443.28,146.29c0,0-0.63,4.51,0.23,4.59c0.11,0.01,3.66,0.07,5.19,0.09c1.8,0.03,4.77-0.03,4.77-0.03
			c0.37,0.02,0.62-0.39,0.43-0.71c-0.21-0.35-0.61-0.73-1.36-0.87c-1.58-0.3-4.21-1.47-5.14-3.58
			C446.42,143.55,443.28,146.29,443.28,146.29z"/>
		<path class="st10" d="M465.81,100.03c0,0-2.52,8.83-9.76,24.17c-7.23,15.34-7.55,22.73-7.55,22.73s-1.1,0.39-2.55,0.23
			c-1.57-0.17-2.68-0.87-2.68-0.87s0.47-18.25,3.89-25.99c3.42-7.74,4.11-28.92,4.11-28.92L465.81,100.03z"/>
		<path class="st9" d="M469.86,92.43c0,0,0.2,13.67-2.16,30.46c-2.37,16.79-1.26,24.6-1.26,24.6s-0.63,0.46-2.56,0.45
			c-2.26-0.01-3.41-0.94-3.41-0.94s-3.39-16.8-2.42-25.2s-4.64-28.84-4.64-28.84L469.86,92.43z"/>
		<path class="st8" d="M458.68,60.43l2.67,1.98l3.86-0.81c-0.05-0.35-0.31-1.81-0.54-3.13c-0.01-0.08-0.03-0.16-0.04-0.23
			c-0.2-1.13-0.37-2.09-0.37-2.09l-3.61-1.8l-1.35-0.67c0,0.02,0.1,1.25,0.12,1.43C459.68,58.27,458.68,60.43,458.68,60.43z"/>
		<path class="st11" d="M451.02,94.12c0.87,4,19.58,2.24,19.33-0.2c-0.01-0.08-0.06-1.21-0.13-2.73c-0.14-3.29-0.36-8.44-0.39-8.84
			c0-0.01,0-0.01,0-0.02c-0.34-3.4-0.66-6.72-0.68-8.89c-0.02-1.88-0.28-3.81-0.62-5.55c-0.32-1.61-0.71-3.08-1.05-4.22
			c-0.24-0.8-0.69-1.51-1.28-2.07c-0.42-0.4-0.91-0.71-1.46-0.93c-0.15-0.06-0.3-0.11-0.45-0.16c-2.2-0.64-5.25-1.43-6.07-1.19
			c-2.24,0.66-3.9,4.59-5.07,9.61C450.96,78.33,450.45,91.52,451.02,94.12z"/>
		<path class="st24" d="M459.7,55.16c0.79,1.52,3.74,2.83,4.98,3.31c-0.01-0.08-0.03-0.16-0.04-0.23c-0.2-1.13-0.37-2.09-0.37-2.09
			l-3.61-1.8C459.86,54.33,459.37,54.53,459.7,55.16z"/>
		<path class="st8" d="M466.01,55.93c0,0-6.51,2.03-7.71-2.04c-1.2-4.07-2.85-6.55,1.25-8.02c4.1-1.47,5.37-0.15,6.11,1.11
			C466.4,48.23,467.68,55.3,466.01,55.93z"/>
		<path class="st14" d="M465.41,46.58c0,0-0.41,4.74-1.4,4.53c-0.98-0.21-1.87-0.36-1.73,1.07c0.14,1.43,1.5,3.08-1.52,3.33
			c-3.02,0.25-7.36-7.54-6.53-9.01C456.63,42.25,468.87,41.39,465.41,46.58z"/>
		<path class="st12" d="M470.23,91.19c-0.14-3.29-0.36-8.44-0.39-8.84c0-0.01,0-0.01,0-0.02l-11.05-6.61
			C458.79,75.72,458.37,91.15,470.23,91.19z"/>
		<path class="st8" d="M479.01,77.37c0,0,2.25-1.52,2.67-1.65c0.43-0.13,1.82-0.28,1.89-0.17c0.06,0.11,0.26,0.45,0.01,0.56
			c-0.24,0.11-0.55,0.07-0.46,0.15c0.09,0.08,1.01-0.36,1.22,0.11c0.21,0.47,0.4,2.07-0.68,2.56c-1.08,0.49-3.74,0.05-3.93,0.1
			C478.12,79.51,479.01,77.37,479.01,77.37z"/>
		<path class="st11" d="M479.03,76.96c0,0-10.96,1.86-11.93,1.39c-1.55-0.75,0.6-11.87,0.6-11.87s0.09-2.52-2.85-3.11
			c-2.56-0.52-5.03,1.4-5.03,1.4s-2.24,2.01-1.96,4.24c0.64,4.94,1.62,14.98,4.93,16.52c4.26,1.99,16.59-5.51,16.59-5.51
			s0.41-0.5,0.35-1.44C479.68,77.75,479.03,76.96,479.03,76.96z"/>
		<path class="st8" d="M486.4,50.26c0,0,0.7-1.39,0.81-1.66c0.11-0.26-0.16-0.21-0.43-0.06c-0.27,0.15-0.64,0.96-1.05,0.86
			C485.4,49.33,486.4,50.26,486.4,50.26z"/>
	</g>
</g>
<g>
	<g>
		<g>
			<path class="st1" d="M508.16,311.59l0.71,73.64c0.04,3.82,1.12,6.04,6.58,6.75c6.8,0.88,8.86-0.32,9.86-2.19
				c1.89-3.51,20.44-73.89,23.51-78.67C551.89,306.32,508.16,311.59,508.16,311.59z"/>
			<path class="st70" d="M577.02,286.23c3.87-0.02,7.27,2.61,8.13,6.38c0.51,2.22,0.9,5.05,0.93,8.56c0.04,4.2-0.28,6.92-1.31,9.22
				c-1.25,2.79-4.09,4.51-7.14,4.62c-14.95,0.54-68.79,2.65-80.01,5.29c-13.07,3.07-56.84,22.5-56.84,22.5l8.35-98.45
				c0,0,40.21,32.59,65.74,37.66C534.72,285.96,564.69,286.28,577.02,286.23z"/>
			<path class="st0" d="M549.64,316.19c-5.56,0.27-11.36,0.56-17.05,0.89c3.57-11.53,2.16-24.72,0.34-32.59
				c5.69,0.54,11.51,0.91,17.1,1.17C552.67,296.88,552.2,307.41,549.64,316.19z"/>
			<path class="st21" d="M398.07,290.3c-0.28,35.59,16.67,64.58,37.86,64.75c21.19,0.17,38.59-28.55,38.87-64.14
				c0.28-35.59-16.67-64.58-37.86-64.75C415.75,225.99,398.35,254.71,398.07,290.3z"/>
			<path class="st1" d="M400.93,290.32c-0.24,30.28,14.18,54.94,32.21,55.08c18.03,0.14,32.83-24.29,33.07-54.57
				c0.24-30.28-14.18-54.94-32.21-55.08C415.97,235.62,401.17,260.05,400.93,290.32z"/>
			<path class="st17" d="M440.47,295.89c-0.77-10.79,6.29-20.08,15.77-20.76c3.24-0.23,6.32,0.63,9.03,2.22
				c0.62,4.32,0.96,8.82,0.93,13.48c-0.06,8-1.17,15.58-3.06,22.42c-1.31,0.48-2.66,0.83-4.1,0.94
				C449.56,314.87,441.25,306.68,440.47,295.89z"/>
		</g>
		<g>
			<g>
				<path class="st7" d="M517.18,197.75c0,0,4.74-0.27,11.16,2.77l-2.99,13.02c0,0-3.07-1.86-7.29-1.6L517.18,197.75z"/>
				<path class="st70" d="M520.32,204.59c-0.03-2.17-0.16-4.34-0.21-6.51c-1.82-0.32-2.92-0.33-2.92-0.33l0.88,14.19
					c1.22-1.86,1.8-1.45,2.04-1.68C520.1,208.38,520.34,206.45,520.32,204.59z"/>
				<path class="st7" d="M491.28,198.43c0,0,16.97-6.67,28.09-4.4l0.73,16.23c0,0-9.86-2.18-23.52,3.8L491.28,198.43z"/>
				
					<rect x="497.28" y="197.28" transform="matrix(0.9447 -0.3281 0.3281 0.9447 -43.8334 175.4175)" class="st1" width="1.46" height="40.7"/>
			</g>
			<path class="st1" d="M523.44,309.82c0,0,2.68,4.32,2.29,5.35c-0.39,1.03-9.7,6.43-10.96,6c-1.25-0.43-1.5-1.91,0.17-3.4
				c1.5-1.34,2.96-1.72,3.97-3.02c0.88-1.14,0-4.07,0-4.07L523.44,309.82z"/>
			<path class="st1" d="M539.09,273.14c0,0-1.86,1.53-3.83,1.27c-1.97-0.26-21.14,1.74-23.11,3.36c-1.97,1.62,6.08,34.07,6.08,34.07
				l6.67-1.11c0,0-2.39-23.72-1.99-23.89c0.4-0.17,10.47-0.13,27.64-0.13c4.19,0,8.86-8.81,3.56-14.96L539.09,273.14z"/>
			<g>
				<g>
					<path class="st8" d="M565.31,269.54c0,0,0.82,3.72,0.64,4.53c-0.18,0.81-1.19,3.56-1.78,4.23c-0.59,0.67-0.5-3.01-0.86-3.6
						c-0.36-0.59-0.22,1.37-0.53,1.52c-0.31,0.15-0.77-1.51-0.97-2.09c-0.21-0.59,0.9-2.58,1.04-4.02
						C562.98,268.65,565.31,269.54,565.31,269.54z"/>
					<path class="st10" d="M540.57,238.24c0.08-4.16,4.84-6.56,8.18-4.07c0.07,0.05,0.14,0.1,0.2,0.16
						c4.98,3.93,14.88,20.98,15.51,22.66c0.63,1.67,1.72,14.6,1.72,14.6s-2.98,0.77-4.21-0.45c0,0-3.49-12.5-4.12-13.17
						c-0.63-0.67-17.61-12.49-17.4-16.28C540.51,240.68,540.54,239.47,540.57,238.24z"/>
				</g>
				<path class="st8" d="M549.53,233.23c0,0-8.04,3.14-12.39,1.41c0,0,1.21-1.3,3.21-2.19c-0.09-0.91-0.15-1.7-0.16-2.36
					c-0.07-1.54-0.01-2.4-0.01-2.4l3.17-2.12l3.01-2.03C545.64,229.85,549.53,233.23,549.53,233.23z"/>
				<path class="st9" d="M553.3,273.43c-3.27,1.57-6.34,2.69-9.84,3.15c-4.13,0.57-9.07-0.2-10.76-0.11
					c-0.17,0.01-0.33-0.05-0.47-0.17c-0.12-0.08-0.38-5.08-0.51-11.37c-0.01-0.25-0.02-0.51-0.01-0.76l0-0.08
					c-0.05-2.46-0.05-5.04-0.02-7.62c0.02-2.01,0.06-3.99,0.14-5.86c0.1-2.33,0.25-4.46,0.47-6.21c0.1-0.8,0.22-1.51,0.35-2.13
					c0.79-3.59,2.78-6.02,4.6-7.79l1.5-1.41c1.56,0.25,3.19,0.11,4.8-0.74c1.76-0.93,3.66-1.93,3.98-1.7
					c2.4,1.63,4.11,5.43,5.13,10.32c0.58,2.81,0.93,5.98,1.02,9.3c0.03,1.03,0.05,2.09,0.03,3.14c0,0.19-0.01,0.39-0.01,0.58
					c-0.08,2.86-0.01,5.56,0.12,7.98c0.17,3.26,0.46,6,0.67,7.93c0.1,0.98,0.18,1.74,0.22,2.29
					C554.74,272.64,553.74,273.21,553.3,273.43z"/>
				<path class="st13" d="M546.22,225.96c0,0-2.23,3.42-6.04,4.13c-0.07-1.54-0.01-2.4-0.01-2.4l3.17-2.12L546.22,225.96z"/>
				<path class="st8" d="M538.82,227.48c0,0,7.3,1.78,8.34-2.71c1.04-4.49,2.69-7.28-1.93-8.61c-4.61-1.33-5.92,0.18-6.64,1.59
					C537.87,219.17,536.95,226.9,538.82,227.48z"/>
				<path class="st14" d="M550.54,216.02c0.07-0.07,0.23-0.12,0.58-0.11c0,0-0.26-0.19-0.63-0.23c-0.04-0.48-0.22-1.35-1.03-1.62
					c0,0,0.42,0.27,0.44,0.78c-0.88-1.05-2.87-1.93-8.57-1.92c-7.51,0.01-5.42,4.98-4.5,5.63c0.92,0.64,3.48-0.73,5.26-0.45
					c1.79,0.28,1.93,2.91,2.51,3.31c0.58,0.4,0.39-0.25,1.25-0.56c0.86-0.31,0.83,1.07,0.52,1.94c-0.31,0.87,0.74,2.13,0.74,2.13
					s0,0,1.24-1.15c1.24-1.15,2.73-6.3,2.29-7.45C550.61,216.23,550.58,216.13,550.54,216.02z"/>
				<path class="st10" d="M545.25,246.07c0,0-6.7,4.14-13.42,4.54c0.1-2.33,0.25-4.46,0.47-6.21L545.25,246.07z"/>
				<g>
					<path class="st8" d="M507.52,236.22c-0.09-0.12-0.95-4.49-3.18-4.4c-1.46,0.06-3.88,0.67-3.44,2.62
						c0.17,0.77,4.3,3.75,4.3,3.75L507.52,236.22z"/>
					<path class="st9" d="M546.91,236.97c3.35,2.47,2.55,7.75-1.42,9.02c-0.08,0.03-0.16,0.05-0.24,0.08
						c-6.09,1.78-25.72-0.02-27.45-0.47c-1.73-0.45-12.91-7.05-12.91-7.05s1.09-2.87,2.81-3.18c0,0,12.21,4.39,13.12,4.26
						c0.91-0.13,20.38-7.13,23.35-4.76C544.95,235.51,545.91,236.24,546.91,236.97z"/>
				</g>
			</g>
		</g>
		<path class="st7" d="M374.06,266.38c-0.37,1.01,2.96,3.15,7.44,4.8c4.48,1.64,8.41,2.16,8.78,1.16c0.37-1.01-2.96-3.15-7.44-4.8
			C378.36,265.9,374.43,265.38,374.06,266.38z"/>
		<path class="st7" d="M382.2,246.23c-0.43,0.98,2.78,3.32,7.15,5.21c4.38,1.9,8.27,2.64,8.7,1.65c0.43-0.98-2.78-3.32-7.15-5.21
			C386.52,245.99,382.63,245.25,382.2,246.23z"/>
		<path class="st7" d="M376.18,320.19c0.32,1.02,4.27,0.71,8.82-0.7c4.56-1.41,7.99-3.39,7.67-4.41c-0.32-1.02-4.27-0.71-8.82,0.7
			C379.29,317.19,375.86,319.17,376.18,320.19z"/>
		<path class="st7" d="M384.46,342c0.4,0.99,4.31,0.36,8.74-1.43c4.42-1.78,7.69-4.03,7.29-5.02c-0.4-0.99-4.31-0.36-8.74,1.43
			C387.32,338.75,384.06,341,384.46,342z"/>
		<path class="st7" d="M371.58,293.54c0.06,1.07,3.96,1.74,8.72,1.49c4.76-0.25,8.58-1.32,8.52-2.39c-0.06-1.07-3.96-1.74-8.73-1.49
			C375.34,291.4,371.52,292.47,371.58,293.54z"/>
	</g>
	<g>
		<polygon class="st1" points="569.57,319.26 568.76,317.23 535.12,317.12 535.89,319.17 		"/>
		<polygon class="st1" points="573.86,330.07 573.04,328.01 539.19,328.06 539.96,330.15 		"/>
		<polygon class="st1" points="564.25,308.5 563.46,306.48 529.82,306.21 530.58,308.25 		"/>
		<polygon class="st1" points="578.22,341.07 577.39,338.98 543.32,339.18 544.1,341.31 		"/>
		<polygon class="st1" points="582.66,352.25 581.82,350.12 547.52,350.5 548.32,352.66 		"/>
		<polygon class="st1" points="587.17,363.62 586.32,361.45 551.79,362.01 552.61,364.21 		"/>
		<polygon class="st1" points="591.76,375.18 590.89,372.98 556.14,373.72 556.97,375.95 		"/>
		<path class="st1" d="M561.75,393.04l0.18-0.01c1.08-0.03,1.82-1.04,1.46-1.99l-32.63-87.65c-0.22-0.58-0.83-0.98-1.52-0.99
			l-0.03,0c-1.07-0.01-1.82,0.91-1.48,1.81l32.47,87.82C560.43,392.66,561.06,393.06,561.75,393.04z"/>
		<path class="st1" d="M595.94,393.04l0.18-0.01c1.08-0.03,1.82-1.04,1.46-1.99l-32.63-87.65c-0.22-0.58-0.83-0.98-1.52-0.99
			l-0.03,0c-1.07-0.01-1.82,0.91-1.48,1.81l32.47,87.82C594.62,392.66,595.25,393.06,595.94,393.04z"/>
	</g>
</g>
<g>
	<path class="st0" d="M548.23,104.7c0,0-5.88,1.47-10.29,4.74c-4.41,3.27-8.98,13.39-9.88,20.5c-0.9,7.11-2.7,12.66,0,16.29
		c2.7,3.63,11.43,4.37,18.95,5.1c7.51,0.74,17.88-1.06,19.97-3.68c2.08-2.61,1.92-22.4-2-29.86
		C561.06,110.33,553.95,104.54,548.23,104.7z"/>
	<path class="st71" d="M558.25,147.26c-1.51-0.5-3.06-1.05-4.31-2.08c-2.68-2.2-4.31-2.86-7.64-2.83c-3.05,0.03-5.99,0.02-8.6-1.71
		c-2.33-1.54-3.63-4.98-3.07-7.68c0.41-1.97,1-3.53,2.21-5.15c1.71-2.27,2.04-3.91,1.43-6.75c-0.73-3.4-0.84-6.3,0.16-9.67
		c0.52-1.74,1.73-3,3.1-4.14c-1.21,0.61-2.45,1.33-3.59,2.18c-4.41,3.27-8.98,13.39-9.88,20.5c-0.9,7.11-2.7,12.66,0,16.29
		c2.7,3.63,11.43,4.37,18.95,5.1c7.51,0.74,17.88-1.06,19.97-3.68c0.4-0.51,0.72-1.67,0.95-3.25
		C565.31,146.99,561.93,148.48,558.25,147.26z"/>
	<path class="st0" d="M547.42,106.17c0,0-6.31-1.53-7.17-6.31c-0.86-4.78,1.65-6.43,3.58-5.33c1.93,1.1,2.24,0.51,3.58-0.33
		c1.35-0.84,3.31,0.51,4.29,1.92c0.98,1.41,1.16-0.24,3.49-0.43c2.33-0.18,3.12,1.96,1.9,4.78
		C555.87,103.29,554.71,106.29,547.42,106.17z"/>
	<g>
		<g>
			<g>
				<path class="st71" d="M554.26,103.48c-1.63,0.42-0.67-1.69-0.93-2.42c-0.43,0.02-0.59,0.73-0.73,1.04
					c-0.31,0.67-1,1.11-1.74,1.1c-1.02-0.01-1.16-1.12-1.59-1.81c-0.18-0.29-0.27-0.28-0.38,0.07c-0.13,0.38,0,0.82-0.36,1.12
					c-0.65,0.55-1.74-0.07-2.24-0.51c-0.55-0.48-0.78-1.27-1.37-1.74c-0.11,0.11-0.15,0.26-0.18,0.41c-0.15,0.69-0.1,2-1.22,1.76
					c-0.95-0.2-1.59-1.76-1.89-2.55c-0.35-0.91-0.68-1.99-0.68-2.98c0-0.43,0.03-0.84,0.09-1.26c0.03-0.24,0.11-0.76,0.23-0.96
					l-0.01,0c-0.91,0.8-1.46,2.48-0.98,5.11c0.73,4.06,5.4,5.78,6.78,6.2c0.24,0.07,0.49,0.11,0.74,0.11
					c5.74,0.02,7.53-1.99,8.65-4.24c0,0-0.01,0.01-0.01,0.01C556.42,101.94,554.84,103.33,554.26,103.48z"/>
			</g>
		</g>
	</g>
	<g>
		<g>
			<path class="st7" d="M550.07,120.36c3.09,0.31,5.89,1.7,5.83,4.79l-5.16-0.09c-0.01-1.17-1.2-1.44-1.96-1.46
				c-0.47-0.01-2.01-0.04-2.03,0.91c-0.04,2.12,9.52,0.09,9.41,6.09c-0.06,3.6-2.91,4.89-6.37,5.08l0.16,3.83l-3.15-0.06l0.26-3.85
				c-3.2-0.39-6.16-1.95-6.1-5.19l5.16,0.09l0,0.11c0,1.42,1.59,1.73,2.4,1.75c0.78,0.01,2.32-0.01,2.34-1.05
				c0.04-2.2-9.51-0.36-9.41-6.17c0.06-3.35,2.68-4.59,5.89-4.81l-0.13-3.86l3.15,0.06L550.07,120.36z"/>
		</g>
	</g>
	<path class="st1" d="M542.82,103.9l-0.57,3.01c0,0,1.61,1.55,6,1.55s6.76-1.55,6.76-1.55l-0.29-2.72
		C554.73,104.19,548.72,105.71,542.82,103.9z"/>
</g>
<g>
	<g>
		<g>
			<path class="st21" d="M309.1,303.84c-0.36-1.2-0.54-1.31-0.54-1.31s-11.2,1.4-13.11,1.27c-1.13-0.07-14.59-4.56-14.59-4.56
				l-8.17,7.84c0,0,20.26,3.34,23.12,3.12c4.72-0.36,11.92-4.53,11.92-4.53S309.38,304.78,309.1,303.84z"/>
		</g>
		<g>
			<path class="st9" d="M278.47,393.28c0,0,0.16,3.8,0.89,4.72l10.14,0.06c-0.07-0.39-0.11-1.3-1.52-1.54
				c-1.77-0.31-3.85-1.54-4.93-3.89C281.93,390.17,278.47,393.28,278.47,393.28z"/>
		</g>
		<g>
			<path class="st9" d="M258.57,392.73c0,0-0.71,5.04,0.25,5.13c0.13,0.01,4.09,0.08,5.8,0.1c2.02,0.03,5.33-0.04,5.33-0.04
				c0.42,0.02,0.69-0.43,0.48-0.79c-0.23-0.39-0.68-0.81-1.52-0.98c-1.77-0.34-4.71-1.64-5.74-4
				C262.08,389.68,258.57,392.73,258.57,392.73z"/>
		</g>
		<g>
			<path class="st28" d="M283.74,341.04c0,0-2.82,9.87-10.9,27.01c-8.08,17.14-8.43,25.4-8.43,25.4s-1.22,0.43-2.85,0.26
				c-1.76-0.19-3-0.97-3-0.97s0.52-20.4,4.34-29.05c3.82-8.65,4.6-32.31,4.6-32.31L283.74,341.04z"/>
		</g>
		<g>
			<path class="st15" d="M288.27,332.55c0,0,0.22,15.28-2.42,34.04c-2.64,18.76-1.41,27.49-1.41,27.49s-0.7,0.51-2.86,0.5
				c-2.52-0.01-3.82-1.05-3.82-1.05s-3.78-18.77-2.7-28.16c1.09-9.39-5.18-32.23-5.18-32.23L288.27,332.55z"/>
		</g>
		<g>
			<path class="st8" d="M282.13,294.46c-0.03,1.2-0.19,2.5-0.67,3.14l-2.69,1.41l-2.98-2.21c0,0,1.09-2.42,0.83-5.97
				c-0.03-0.21-0.13-1.57-0.13-1.6l1.49,0.75l4.05,2.03c0,0,0,0.08,0.03,0.19C282.08,292.59,282.13,293.47,282.13,294.46z"/>
		</g>
		<g>
			<g>
				<path class="st7" d="M267.22,334.44c0.98,4.47,21.88,2.51,21.61-0.22c-0.01-0.09-0.06-1.35-0.14-3.05
					c-0.16-3.68-0.4-9.43-0.43-9.88c0-0.01,0-0.02,0-0.02c-0.38-3.8-0.74-7.51-0.76-9.94c-0.02-2.1-0.31-4.25-0.7-6.21
					c-0.36-1.8-0.79-3.44-1.17-4.71c-0.27-0.9-0.77-1.69-1.43-2.31c-0.47-0.44-1.02-0.8-1.63-1.04c-0.17-0.07-0.33-0.13-0.51-0.18
					c-2.46-0.71-4.94-1.62-5.86-1.35c-2.5,0.73-5.28,5.16-6.59,10.77C267.15,316.79,266.58,331.52,267.22,334.44z"/>
			</g>
		</g>
		<g>
			<path class="st24" d="M282.13,294.46c-1.52-0.61-4.42-2-5.22-3.57c-0.35-0.69,0.19-0.91,1.07-0.91l4.05,2.03
				c0,0,0,0.08,0.03,0.19C282.08,292.59,282.13,293.47,282.13,294.46z"/>
		</g>
		<g>
			<path class="st8" d="M283.98,291.75c0,0-7.27,2.27-8.62-2.28c-1.34-4.55-3.19-7.32,1.4-8.96c4.59-1.64,6.01-0.17,6.82,1.24
				C284.4,283.16,285.83,291.05,283.98,291.75z"/>
		</g>
		<g>
			<path class="st14" d="M283.3,281.31c0,0-0.46,5.3-1.56,5.07c-1.1-0.23-2.09-0.4-1.93,1.2s0.21,3.52-3.16,3.8
				c-3.38,0.28-6.76-8.5-5.83-10.15C273.49,276.47,287.16,275.51,283.3,281.31z"/>
		</g>
		<g>
			<g>
				<path class="st21" d="M288.69,331.16c-0.16-3.68-0.4-9.43-0.43-9.88c0-0.01,0-0.02,0-0.02l-12.35-7.38
					C275.91,313.88,275.43,331.11,288.69,331.16z"/>
			</g>
		</g>
		<g>
			<g>
				<path class="st7" d="M313.39,375.11c-0.28,0.49-0.63,0.97-1.06,1.43c-0.18,0.19-0.35,0.37-0.52,0.56
					c-0.71,0.78-1.38,1.51-2.44,1.98c-1.98,0.88-3.63,0.65-5.72-0.79c-1.84-1.27-3.02-3.32-3.33-5.76
					c-0.14-1.11,0.03-1.98,0.22-2.97l0.06-0.31c0.25-1.32-0.28-2.62-0.79-3.88l-0.09-0.21c-0.21-0.53-0.45-1.01-0.69-1.52
					c-0.17-0.35-0.34-0.71-0.51-1.08c-2.19-4.93,0.22-10.17,2.62-13.7l0.69,0.47c-2.28,3.36-4.58,8.32-2.55,12.89
					c0.16,0.36,0.33,0.71,0.49,1.05c0.24,0.5,0.49,1.02,0.72,1.58l0.09,0.21c0.53,1.31,1.13,2.79,0.84,4.35l-0.06,0.31
					c-0.19,0.97-0.33,1.73-0.21,2.71c0.28,2.2,1.33,4.04,2.97,5.18c1.86,1.28,3.18,1.47,4.9,0.71c0.9-0.4,1.48-1.04,2.16-1.78
					c0.17-0.19,0.35-0.38,0.53-0.57c1.23-1.28,1.65-2.79,2.1-4.39c0.26-0.93,0.53-1.9,0.97-2.84c0.95-2.04,0.98-4.14,0.09-6.63
					l-0.06-0.18c-1.15-3.21-2.05-5.74-1.92-9.27l0.02-0.51c0.1-2.59,0.17-4.3-1.49-6.34c-1.6-1.98-4.02-3.19-5.87-2.94
					c-1.25,0.17-2.2,0.96-2.81,2.35l-0.76-0.34c0.93-2.08,2.39-2.69,3.46-2.84c2.48-0.33,5.18,1.45,6.63,3.25
					c1.86,2.29,1.78,4.32,1.68,6.9l-0.02,0.51c-0.12,3.36,0.76,5.83,1.87,8.96l0.06,0.18c0.97,2.71,0.93,5.01-0.12,7.26
					c-0.41,0.88-0.67,1.81-0.92,2.72C314.32,372.9,314,374.04,313.39,375.11z"/>
			</g>
			<g>
				<path class="st0" d="M322.01,273.34l-31.08,54.37c-0.91,1.59-1.3,3.43-1.13,5.25l1.15,12c0.28,2.87,1.93,5.43,4.43,6.86
					l3.37,1.92c2.5,1.43,5.54,1.56,8.16,0.34l10.93-5.1c1.66-0.78,3.04-2.05,3.95-3.64l31.08-54.37c2.43-4.25,0.96-9.67-3.3-12.11
					l-15.44-8.83C329.86,267.61,324.44,269.09,322.01,273.34z M309.78,339.2c0.31,6.39-7.49,8.51-10.47,2.85
					c-0.21-0.4-0.33-0.84-0.35-1.29c-0.31-6.39,7.49-8.51,10.47-2.85C309.64,338.31,309.76,338.75,309.78,339.2z"/>
				<g>
					<path class="st7" d="M317.55,331.85l-12.09-8.7l1.85-3.24c0.27-0.48,0.54-0.88,0.81-1.22c0.27-0.34,0.57-0.62,0.91-0.87
						c0.34-0.24,0.68-0.39,1.04-0.45c0.36-0.06,0.76-0.02,1.2,0.12c0.26,0.08,0.53,0.2,0.8,0.36c0.2,0.11,0.39,0.24,0.59,0.39
						c1.45,1.07,1.91,2.29,1.38,3.66c0.98-1.19,2.21-1.36,3.71-0.5c0.18,0.1,0.36,0.22,0.55,0.35c1.18,0.84,1.89,1.8,2.11,2.86
						c0.23,1.06-0.01,2.2-0.7,3.42L317.55,331.85z M317.32,328.06l0.42-0.74c0.38-0.67,0.5-1.23,0.35-1.7
						c-0.15-0.47-0.55-0.94-1.21-1.41c-0.17-0.12-0.33-0.23-0.5-0.32c-0.49-0.28-0.91-0.4-1.27-0.35c-0.46,0.06-0.89,0.42-1.28,1.1
						l-0.38,0.66L317.32,328.06z M311.82,324.1l0.37-0.64c0.38-0.66,0.5-1.2,0.36-1.64c-0.13-0.44-0.5-0.87-1.12-1.31
						c-0.1-0.07-0.2-0.14-0.3-0.19c-0.44-0.25-0.83-0.32-1.15-0.18c-0.39,0.16-0.78,0.58-1.17,1.26l-0.22,0.38L311.82,324.1z"/>
					<path class="st7" d="M322.73,322.8l-12.09-8.7l1.83-3.2c0.31-0.54,0.61-1,0.91-1.37c0.3-0.37,0.62-0.68,0.97-0.92
						c0.35-0.24,0.71-0.4,1.08-0.45c0.38-0.06,0.79-0.02,1.23,0.12c0.27,0.08,0.54,0.21,0.82,0.38c0.19,0.11,0.38,0.23,0.58,0.37
						c0.76,0.54,1.31,1.12,1.65,1.73c0.34,0.62,0.47,1.3,0.38,2.05l6.99,2.35l-1.46,2.55l-6.38-2.35l-0.53,0.93l5.47,3.94
						L322.73,322.8z M317.26,315.23l0.36-0.64c0.37-0.64,0.49-1.2,0.36-1.66c-0.12-0.47-0.5-0.93-1.12-1.38
						c-0.15-0.11-0.3-0.2-0.44-0.28c-0.42-0.24-0.78-0.35-1.08-0.32c-0.41,0.04-0.79,0.37-1.14,0.97l-0.45,0.78L317.26,315.23z"/>
					<path class="st7" d="M327.53,314.41l-10.64-11.24l1.6-2.79l13.53,6.18l-1.36,2.38l-2.98-1.45l-1.18,2.07l2.42,2.42
						L327.53,314.41z M325.13,308.22l0.9-1.57l-5.29-2.7L325.13,308.22z"/>
					<path class="st7" d="M332.74,305.29l-12.09-8.7l1.02-1.79l8.04,1.68l-6.38-4.59l1.22-2.13l12.09,8.7l-0.98,1.71l-8.45-1.93
						l6.77,4.88L332.74,305.29z"/>
					<path class="st7" d="M337.74,296.54l-12.09-8.7l1.77-3.1c0.46-0.81,0.92-1.43,1.37-1.86c0.45-0.44,0.93-0.7,1.43-0.79
						c0.5-0.09,1.02-0.04,1.55,0.15c0.28,0.1,0.57,0.25,0.89,0.43c0.29,0.17,0.61,0.37,0.95,0.61l4.36,3.14
						c0.93,0.67,1.61,1.33,2.03,1.98c0.42,0.65,0.6,1.38,0.54,2.19c-0.06,0.81-0.39,1.74-0.98,2.78L337.74,296.54z M337.53,292.76
						l0.32-0.56c0.12-0.21,0.21-0.41,0.27-0.59c0.06-0.18,0.1-0.34,0.11-0.49c0.02-0.14-0.01-0.29-0.07-0.43
						c-0.06-0.15-0.12-0.27-0.19-0.38c-0.07-0.11-0.18-0.23-0.34-0.38c-0.16-0.14-0.31-0.27-0.43-0.37
						c-0.13-0.1-0.31-0.24-0.56-0.41l-4.77-3.43c-0.27-0.19-0.51-0.35-0.73-0.48c-0.15-0.08-0.28-0.14-0.4-0.2
						c-0.31-0.13-0.59-0.13-0.83,0c-0.25,0.14-0.51,0.44-0.78,0.91l-0.31,0.54L337.53,292.76z"/>
				</g>
			</g>
			<g>
				<path class="st7" d="M306.99,342.08c0.06,0.28,0.1,0.56,0.09,0.85c1.52,0.34,3.16,1.38,4.35,2.85c0.65,0.81,1.19,2.14,1.41,3.37
					c0.15,0.82,0.09,1.57,0.12,2.13c0.27-0.09,0.54-0.18,0.81-0.27c-0.04-0.51,0.02-1.19-0.12-1.94c-0.25-1.35-0.83-2.9-1.58-3.82
					C310.93,343.84,308.99,342.44,306.99,342.08z"/>
			</g>
		</g>
		<g>
			<path class="st8" d="M298.4,315.56c0,0,0.91-0.81,1.12-1.37c0.07-0.19,0.69-1.07,1.75-0.99c0.97,0.07,2.69-1.99,2.69-1.99
				c0.25,0.54,1.11,2.59-0.12,3.63c-1.01,0.84-3.43,2.31-4.91,3.27C297.36,319.14,298.4,315.56,298.4,315.56z"/>
		</g>
		<g>
			<g>
				<path class="st7" d="M298.53,315.25c0,0-12.25,2.08-13.33,1.55c-1.73-0.84,0.67-13.27,0.67-13.27s0.1-2.82-3.19-3.48
					c-2.86-0.58-5.62,1.56-5.62,1.56s-2.51,2.24-2.19,4.73c0.71,5.52,1.82,16.74,5.51,18.46c4.76,2.22,18.54-6.15,18.54-6.15
					s0.46-0.56,0.39-1.6C299.25,316.14,298.53,315.25,298.53,315.25z"/>
			</g>
		</g>
		<g>
			<path class="st8" d="M299.32,314.75c0,0,0.42-1.24,0.87-1.77c0.45-0.53,0.64-1.43,0.84-1.13c0.2,0.3-0.16,1.38,0,1.79
				C301.2,314.04,299.32,314.75,299.32,314.75z"/>
		</g>
	</g>
</g>
<g>
	<path class="st6" d="M190.16,222.59c0.09-0.71,0.16-1.42,0.16-2.15c0-0.73-0.06-1.45-0.16-2.15l-3.32-0.52
		c-0.1-0.51-0.25-1-0.41-1.48l2.63-2.12c-0.55-1.34-1.29-2.58-2.16-3.72l-3.15,1.21c-0.34-0.38-0.7-0.74-1.08-1.08l1.21-3.15
		c-1.13-0.87-2.38-1.61-3.72-2.16l-2.12,2.63c-0.48-0.16-0.98-0.3-1.48-0.41l-0.52-3.31c-0.71-0.09-1.42-0.16-2.15-0.16
		c-0.73,0-1.44,0.06-2.15,0.16l-0.52,3.31c-0.51,0.1-1,0.25-1.48,0.41l-2.12-2.63c-1.34,0.55-2.58,1.29-3.72,2.16l1.21,3.15
		c-0.38,0.34-0.74,0.7-1.08,1.08l-3.15-1.21c-0.87,1.13-1.61,2.38-2.16,3.72l2.63,2.12c-0.16,0.48-0.3,0.98-0.41,1.48l-3.32,0.52
		c-0.09,0.71-0.16,1.42-0.16,2.15c0,0.73,0.06,1.45,0.16,2.15l3.32,0.52c0.1,0.51,0.25,1,0.41,1.48l-2.63,2.12
		c0.55,1.34,1.29,2.58,2.16,3.72l3.15-1.21c0.34,0.38,0.7,0.74,1.08,1.08l-1.21,3.15c1.13,0.87,2.38,1.61,3.72,2.16l2.12-2.63
		c0.48,0.16,0.98,0.3,1.48,0.41l0.52,3.32c0.71,0.09,1.42,0.16,2.15,0.16c0.73,0,1.45-0.06,2.15-0.16l0.52-3.32
		c0.51-0.1,1-0.25,1.48-0.41l2.12,2.63c1.34-0.56,2.58-1.29,3.72-2.16l-1.21-3.15c0.38-0.34,0.74-0.7,1.08-1.08l3.15,1.21
		c0.87-1.13,1.61-2.38,2.16-3.72l-2.63-2.12c0.16-0.48,0.3-0.98,0.41-1.48L190.16,222.59z M173.9,229.03
		c-4.75,0-8.59-3.85-8.59-8.59c0-4.75,3.85-8.59,8.59-8.59c4.74,0,8.59,3.85,8.59,8.59C182.5,225.18,178.65,229.03,173.9,229.03z"/>
	<g>
		<path class="st1" d="M173.9,210.78c-5.34,0-9.66,4.33-9.66,9.66c0,5.34,4.33,9.66,9.66,9.66c5.34,0,9.66-4.33,9.66-9.66
			C183.57,215.1,179.24,210.78,173.9,210.78z M173.9,226.45c-3.32,0-6.01-2.69-6.01-6.01c0-3.32,2.69-6.01,6.01-6.01
			c3.32,0,6.01,2.69,6.01,6.01C179.91,223.76,177.22,226.45,173.9,226.45z"/>
	</g>
</g>
<g>
	<path class="st6" d="M616.01,70.81c0.09-0.71,0.16-1.42,0.16-2.15c0-0.73-0.06-1.45-0.16-2.15l-3.32-0.52
		c-0.1-0.51-0.25-1-0.41-1.48l2.63-2.12c-0.55-1.34-1.29-2.58-2.16-3.72l-3.15,1.21c-0.34-0.38-0.7-0.74-1.08-1.08l1.21-3.15
		c-1.13-0.87-2.38-1.61-3.72-2.16l-2.12,2.63c-0.48-0.16-0.98-0.3-1.48-0.41l-0.52-3.31c-0.71-0.09-1.42-0.16-2.15-0.16
		c-0.73,0-1.45,0.06-2.15,0.16l-0.52,3.31c-0.51,0.1-1,0.25-1.48,0.41l-2.12-2.63c-1.34,0.55-2.58,1.29-3.72,2.16l1.21,3.15
		c-0.38,0.34-0.74,0.7-1.08,1.08l-3.15-1.21c-0.87,1.13-1.61,2.38-2.16,3.72l2.63,2.12c-0.16,0.48-0.3,0.98-0.41,1.48l-3.31,0.52
		c-0.09,0.71-0.16,1.42-0.16,2.15c0,0.73,0.06,1.45,0.16,2.15l3.31,0.52c0.1,0.51,0.25,1,0.41,1.48l-2.63,2.12
		c0.55,1.34,1.29,2.58,2.16,3.72l3.15-1.21c0.34,0.38,0.7,0.74,1.08,1.08l-1.21,3.15c1.13,0.87,2.38,1.61,3.72,2.16l2.12-2.63
		c0.48,0.16,0.98,0.3,1.48,0.41l0.52,3.32c0.71,0.09,1.42,0.16,2.15,0.16c0.73,0,1.45-0.06,2.15-0.16l0.52-3.32
		c0.51-0.1,1-0.25,1.48-0.41l2.12,2.63c1.34-0.56,2.58-1.29,3.72-2.16l-1.21-3.15c0.38-0.34,0.74-0.7,1.08-1.08l3.15,1.21
		c0.87-1.13,1.61-2.38,2.16-3.72l-2.63-2.12c0.16-0.48,0.3-0.98,0.41-1.48L616.01,70.81z M599.76,77.25c-4.75,0-8.59-3.85-8.59-8.59
		c0-4.75,3.85-8.59,8.59-8.59c4.74,0,8.59,3.85,8.59,8.59C608.35,73.4,604.5,77.25,599.76,77.25z"/>
	<g>
		<path class="st1" d="M599.76,58.99c-5.34,0-9.66,4.33-9.66,9.66c0,5.34,4.33,9.66,9.66,9.66c5.34,0,9.66-4.33,9.66-9.66
			C609.42,63.32,605.09,58.99,599.76,58.99z M599.76,74.66c-3.32,0-6.01-2.69-6.01-6.01c0-3.32,2.69-6.01,6.01-6.01
			c3.32,0,6.01,2.69,6.01,6.01C605.76,71.97,603.07,74.66,599.76,74.66z"/>
	</g>
</g>
<g>
	<path class="st0" d="M432.12,46.52c0.35-0.69,0.68-1.4,0.95-2.15c0.27-0.75,0.46-1.5,0.63-2.26l-3.21-1.75
		c0.08-0.56,0.12-1.11,0.13-1.67l3.47-1.21c-0.08-1.58-0.38-3.12-0.85-4.6l-3.67,0.09c-0.21-0.51-0.44-1.02-0.71-1.5l2.4-2.78
		c-0.84-1.31-1.84-2.52-3.01-3.58l-3.14,1.92c-0.44-0.34-0.89-0.67-1.37-0.96l0.68-3.59c-0.69-0.35-1.4-0.68-2.15-0.95
		c-0.75-0.27-1.5-0.46-2.26-0.63l-1.75,3.21c-0.56-0.08-1.11-0.11-1.67-0.13l-1.21-3.47c-1.58,0.08-3.12,0.38-4.6,0.85l0.09,3.67
		c-0.51,0.21-1.02,0.44-1.5,0.71l-2.78-2.4c-1.31,0.84-2.52,1.84-3.58,3.01l1.92,3.14c-0.34,0.44-0.67,0.89-0.96,1.37l-3.59-0.68
		c-0.35,0.69-0.68,1.4-0.95,2.15c-0.27,0.75-0.46,1.5-0.63,2.26l3.21,1.75c-0.08,0.56-0.11,1.11-0.13,1.67l-3.47,1.21
		c0.08,1.58,0.38,3.12,0.85,4.6l3.67-0.09c0.21,0.51,0.44,1.01,0.71,1.5l-2.4,2.78c0.84,1.31,1.84,2.52,3.01,3.58l3.14-1.92
		c0.44,0.34,0.89,0.67,1.37,0.96l-0.68,3.59c0.69,0.35,1.4,0.68,2.15,0.95s1.5,0.46,2.26,0.63l1.75-3.21
		c0.56,0.08,1.11,0.11,1.67,0.13l1.21,3.47c1.58-0.08,3.12-0.38,4.6-0.85l-0.09-3.67c0.51-0.21,1.01-0.44,1.5-0.71l2.78,2.4
		c1.31-0.84,2.52-1.84,3.58-3.01l-1.92-3.14c0.34-0.44,0.67-0.89,0.96-1.37L432.12,46.52z M413.1,47.15
		c-4.86-1.74-7.39-7.09-5.65-11.95c1.74-4.86,7.09-7.39,11.95-5.65c4.86,1.74,7.39,7.09,5.65,11.95
		C423.32,46.36,417.97,48.89,413.1,47.15z"/>
	<g>
		<path class="st1" d="M419.8,28.45c-5.47-1.96-11.49,0.89-13.44,6.36c-1.96,5.47,0.89,11.49,6.36,13.44
			c5.47,1.96,11.49-0.89,13.44-6.36C428.11,36.43,425.27,30.41,419.8,28.45z M414.05,44.51c-3.4-1.22-5.17-4.96-3.95-8.36
			c1.22-3.4,4.96-5.17,8.36-3.95c3.4,1.22,5.17,4.96,3.95,8.36C421.19,43.95,417.45,45.72,414.05,44.51z"/>
	</g>
</g>
<g>
	<g>
		<g>
			<path class="st8" d="M303.13,257.68c0.31,0.36,0.35,0.75,0.2,1.18c0,0,0,0,0,0.01c-0.28,0.79-1.22,1.66-2.32,2.54
				c-0.14,0.11-0.26,0.22-0.37,0.31c-0.03,0.02-0.06,0.05-0.08,0.07c-0.02,0.02-0.04,0.04-0.06,0.06c-1.02,0.94-0.64,1.15-2.46,3.06
				c-2.09,2.17-3.52,2.21-3.93,2.01c-0.35-0.17,0.36-1.32,1.13-2.61c0.04-0.06,0.07-0.13,0.11-0.19c0.1-0.17,0.21-0.35,0.31-0.52
				c0.91-1.56,0.68-2.29,0.46-4.61c-0.18-1.88-2.93-10.52-2.93-10.52l4-0.69c0,0,1.2,6.88,2.53,7.94c0.71,0.56,1.5,0.57,2.18,0.99
				c0.05,0.03,0.1,0.06,0.14,0.09C302.42,257.06,302.81,257.33,303.13,257.68z"/>
		</g>
		<g>
			<path class="st15" d="M303.13,257.68c0.31,0.36,0.35,0.75,0.2,1.18c0,0,0,0,0,0.01c-0.35,0.79-1.26,1.66-2.32,2.53
				c-0.14,0.11-0.26,0.22-0.37,0.32c-0.03,0.02-0.06,0.05-0.08,0.07c-0.02,0.02-0.04,0.04-0.06,0.06c-1.02,0.94-0.64,1.15-2.46,3.06
				c-2.09,2.17-3.52,2.21-3.93,2.01c-0.35-0.17,0.36-1.32,1.13-2.61c0.41-0.15,2.29-0.91,3.72-2.74c1.21-1.54,2.03-3.51,2.86-4.72
				c0.09-0.02,0.14-0.03,0.24-0.04C302.42,257.06,302.81,257.33,303.13,257.68z"/>
		</g>
		<g>
			<path class="st8" d="M270.89,255.19c-0.25,1.23-2.01,1.03-3.97,0.55c-1.97-0.48-1.5,0.09-4.29-0.22
				c-2.8-0.31-3.64-1.35-3.73-1.77c-0.08-0.37,1.31-0.5,2.79-0.67c0.19-0.02,0.37-0.04,0.56-0.07c1.67-0.21,2.9-1.29,4.42-2.18
				c1.44-0.84,3.59-4.26,3.59-4.26l3.84,0.3c0,0-2.01,3.06-2.79,4.39c-0.46,0.78-0.43,1.82-0.38,2.61
				C270.95,254.31,270.98,254.75,270.89,255.19z"/>
		</g>
		<g>
			<path class="st15" d="M266.92,255.74c-1.97-0.48-1.5,0.09-4.29-0.22c-2.8-0.31-3.64-1.35-3.73-1.77
				c-0.08-0.37,1.31-0.5,2.79-0.67l0.01,0.03c0,0,1.68,1.19,4.01,1.25c1.9,0.05,3.91-0.5,5.22-0.48c0.03,0.43,0.06,0.88-0.03,1.31
				C270.65,256.42,268.89,256.22,266.92,255.74z"/>
		</g>
		<g>
			<path class="st25" d="M285.59,230.66l3.59,9.65l4.68,12.6c0,0,1.27,0.12,2.49-0.23c1.12-0.32,2.41-1.17,2.41-1.17
				s-1.3-13.53-3.72-21.29c-0.62-1.99-1.32-3.61-2.09-4.51C289.18,221.26,285.59,230.66,285.59,230.66z"/>
		</g>
		<g>
			<path class="st9" d="M289.24,215.34c2.04-0.66,7.37-0.01,13.14,1.04c1.6,0.29,3.2-0.44,4.05-1.83l0,0l14.54-1.14
				c0,0,4.8,10.64,2.17,17.42c-0.39,1-1.23,1.62-2.54,1.64c0,0,0,0,0,0c0,0-8.78,0.01-11.59,0.01c-7.23,0-15.3-4.97-16.34-5.18
				c-1.71-0.34-2.39,3.08-4.1,6.66s-16.06,15.89-16.06,15.89s-2.21,0.02-3.12-0.32c-0.98-0.37-1.34-0.84-1.34-0.84
				S283.94,217.05,289.24,215.34z"/>
		</g>
		<g>
			<path class="st14" d="M306.51,194.53c5.18,2.85,15.68,8.76,15.73,8.72c0,0,3.86,1.45,6.05,0c3.65-2.42,5.61-8.95-1.07-14.56
				c-3.33-2.8-5.69-3.48-6.05-7.95c-0.2-2.43-3.54-10.49-9.08-9.68c-0.44,0.07-0.89,0.09-1.34,0.08c-0.64-0.02-1.7,0.08-2.78,0.72
				C304.85,173.72,298.75,193.43,306.51,194.53z"/>
		</g>
		<g>
			<path class="st8" d="M310.85,192.1c-0.02,0.01,2.55,0.89,4.27,0.13c1.62-0.71,2.84-3.37,2.82-3.38c-0.74-0.03-1.54-0.68-2.16-4.9
				l-0.31,0.11l-5.26,1.89c0,0,0.38,1.69,0.63,3.3C311.02,190.62,311.14,191.91,310.85,192.1z"/>
		</g>
		<g>
			<path class="st57" d="M310.19,185.97c0,0,0.21,0.91,0.52,2.61c3.02-0.54,4.32-2.87,4.75-4.51L310.19,185.97z"/>
		</g>
		<g>
			<path class="st8" d="M309.4,187.65c0,0,7.2-0.97,6.53-5.44c-0.67-4.48-0.19-7.62-4.82-7.19c-4.63,0.43-5.26,2.27-5.4,3.82
				C305.57,180.38,307.51,187.78,309.4,187.65z"/>
		</g>
		<g>
			<path class="st14" d="M305.98,176.38c0,0,4.61,3.97,7.75,4.29c3.14,0.32,4.32-0.69,4.32-0.69s-1.85-1.53-2.96-4.01
				c-0.33-0.73-1.02-1.23-1.82-1.3C311.03,174.48,306.78,174.39,305.98,176.38z"/>
		</g>
		<g>
			<path class="st14" d="M308.86,176.02c0,0-1.54,1.49-2.03,2.6c-0.47,1.07-0.61,3.62-0.24,4.63c0,0-2.4-4.67-1.04-6.94
				C306.99,173.91,308.86,176.02,308.86,176.02z"/>
		</g>
		<g>
			<path class="st15" d="M304.78,202.71c0.22,14.58,0.06,11.53,1.65,12.92c0.38,0.33,1.46,0.53,2.89,0.63
				c4.47,0.3,12.33-0.44,12.63-1.27c1.03-2.86,0.3-3.75,1.16-8.12c0.09-0.47,0.2-0.97,0.33-1.52c0.72-3.01,1.42-4.03-1.13-8.86
				c-2.31-4.37-4.71-7.93-4.92-7.8c-6.09,3.61-6.58,0.58-6.58,0.58S304.68,195.6,304.78,202.71z"/>
		</g>
		<g>
			<path class="st9" d="M289.18,240.31l4.68,12.6c0,0,1.27,0.12,2.49-0.23c1.12-0.32,2.41-1.17,2.41-1.17s-1.3-13.53-3.72-21.29
				L289.18,240.31z"/>
		</g>
		<g>
			<path class="st15" d="M310.82,189.27c0,0-6.27,1.06-7,3.76c-0.74,2.7-3.16,19.07-3.16,19.07s1.77,1.73,3.24,0.25
				c1.47-1.47,4.63-15.32,4.63-15.32L310.82,189.27z"/>
		</g>
		<g>
			<path class="st28" d="M309.32,216.26c4.47,0.3,12.33-0.44,12.63-1.27c1.03-2.86,0.3-3.75,1.16-8.12l-2.16-6.07
				c0,0,0.36,6.76-1.64,8.54c-1.99,1.78-8.16,3.43-9.13,4.92C309.72,214.97,309.41,215.68,309.32,216.26z"/>
		</g>
		<g>
			<path class="st8" d="M314.45,213.41c0,0-4.41-0.98-5.12-0.59c-0.71,0.39-2.45,1.82-2.67,2.31c-0.22,0.5,1.58-0.38,2.17-0.53
				c0.38-0.1,1.38,0.25,1.87,0.41c2.08,0.69,3.36,0.34,3.36,0.34L314.45,213.41z"/>
		</g>
		<g>
			<path class="st15" d="M317.4,188.69c0,0,5.92,0.36,7.97,3.22c2.89,4.03,8.61,21.18,5.33,23.47c-3.7,2.58-16.82,0.67-16.82,0.67
				s-0.44-2.04,0.17-3.03c0.61-0.99,10.48-2.58,10.94-3.04c0.46-0.46-5.7-8.89-5.7-10.25S317.4,188.69,317.4,188.69z"/>
		</g>
		<g>
			<path class="st8" d="M309.11,214.05c0,0-0.92,1.19-1.23,1.33c-0.3,0.14-0.5,0.11-0.5,0.11l0.62-1.12L309.11,214.05z"/>
		</g>
		<g>
			<path class="st8" d="M309.32,212.82l-2.69,1.3c0,0,0.11,0.19,0.45,0.17c0.33-0.02,1.17-0.32,1.17-0.32L309.32,212.82z"/>
		</g>
	</g>
	<g>
		<g>
			<polygon class="st1" points="286.38,215.89 314.45,215.89 314.45,216.51 286.63,216.51 			"/>
		</g>
		<g>
			<polygon class="st1" points="307.88,216.51 286.63,216.51 280.23,200.61 301.46,200.61 			"/>
		</g>
		<g>
			<path class="st19" d="M291.99,208.56c-0.16-0.56,0.16-1.01,0.72-1.01s1.14,0.45,1.3,1.01c0.16,0.56-0.16,1.01-0.72,1.01
				C292.74,209.57,292.15,209.12,291.99,208.56z"/>
		</g>
	</g>
</g>
</svg>
