<?xml version="1.0" encoding="utf-8"?>
<!-- Generator: Adobe Illustrator 27.0.0, SVG Export Plug-In . SVG Version: 6.00 Build 0)  -->
<svg version="1.1" id="Layer_1" xmlns="http://www.w3.org/2000/svg" xmlns:xlink="http://www.w3.org/1999/xlink" x="0px" y="0px"
	 viewBox="0 0 700 430" style="enable-background:new 0 0 700 430;" xml:space="preserve">
<style type="text/css">
	.st0{fill:#0B50B9;}
	.st1{fill:#110239;}
	.st2{opacity:0.78;fill:#DCEAFF;}
	.st3{opacity:0.78;}
	.st4{opacity:0.5;fill:#BFDCFF;}
	.st5{fill:#005FBA;}
	.st6{fill:#FB961E;}
	.st7{fill:#FFFFFF;}
	.st8{fill:#FFAE73;}
	.st9{fill:#002897;}
	.st10{fill:#00158B;}
	.st11{fill:#ED057F;}
	.st12{fill:#A21B89;}
	.st13{fill:#F99352;}
	.st14{fill:#1F0757;}
	.st15{fill:#0097DD;}
	.st16{fill:#0072C6;}
	.st17{fill:#00A9E9;}
	.st18{fill:#25468F;}
	.st19{fill:#E8F2FA;}
	.st20{opacity:0.49;}
	.st21{fill:#E5E6ED;}
	.st22{fill:#214D9A;}
	.st23{fill:#CF0E83;}
	.st24{fill:#FFA05E;}
	.st25{fill:#00037F;}
	.st26{fill:#003AA2;}
	.st27{fill:#004DAE;}
	.st28{fill:#0084D1;}
	.st29{fill:#662D91;}
	.st30{fill:#75298F;}
	.st31{fill:#84248D;}
	.st32{fill:#93208B;}
	.st33{fill:#B11787;}
	.st34{fill:#C01285;}
	.st35{fill:#DE0981;}
	.st36{fill:#FDE3F1;}
	.st37{fill:#FBC7E3;}
	.st38{fill:#F9ACD4;}
	.st39{fill:#F790C6;}
	.st40{fill:#F574B8;}
	.st41{fill:#F358AA;}
	.st42{fill:#F13D9B;}
	.st43{fill:#EF218D;}
	.st44{opacity:0.43;}
	.st45{fill:#B6CFFF;}
	.st46{fill:#A9C2FF;}
	.st47{fill:#CEDFFF;}
	.st48{fill:#BBD3FF;}
	.st49{fill:#80A1E6;}
	.st50{opacity:0.5;}
	.st51{opacity:0.42;}
	.st52{fill:#F4F4FF;stroke:#FFFFFF;stroke-width:0.75;stroke-miterlimit:10;}
	.st53{fill:#F4F4FF;}
	.st54{fill:#FA8B79;}
	.st55{opacity:0.1;}
	.st56{fill:#6B98F6;}
	.st57{fill:#F9924F;}
	.st58{fill:#DF851B;}
	.st59{fill:#FCAD50;}
	.st60{fill:#FDC582;}
	.st61{fill:#FEDCB4;}
	.st62{fill:#E3F5FD;}
	.st63{fill:#C6ECFA;}
	.st64{fill:#AAE2F8;}
	.st65{fill:#8ED9F5;}
	.st66{fill:#71CFF3;}
	.st67{fill:#55C6F0;}
	.st68{fill:#39BCEE;}
	.st69{fill:#1CB3EB;}
	.st70{fill:#C6C7D7;}
	.st71{fill:#002987;}
	.st72{clip-path:url(#SVGID_00000154386219028233637510000017674203794048439709_);}
	.st73{fill:#F1F3F4;}
	.st74{fill:#9CC0F9;}
	.st75{fill:#FEF9E8;}
	.st76{fill:#E8EAED;}
	.st77{fill:#FCE8E6;}
	.st78{fill:none;stroke:#9CC0F9;stroke-width:3.7859;stroke-miterlimit:10;}
	.st79{fill:none;stroke:#9CC0F9;stroke-width:1.262;stroke-miterlimit:10;}
	.st80{fill:#2B478B;}
	.st81{opacity:0.32;}
	.st82{opacity:0.2;fill:#ED057F;}
	.st83{opacity:0.5;fill:#ED057F;}
	.st84{opacity:0.1;fill:#110239;}
	.st85{fill:#B3E0FF;}
	.st86{opacity:0.4;}
	.st87{opacity:0.25;fill:#FFFFFF;}
	.st88{opacity:0.5;fill:#FFFFFF;}
	.st89{fill:#7DC3EA;}
	.st90{fill:url(#SVGID_00000080897015119981899540000015521405732990664857_);}
	.st91{fill:url(#SVGID_00000090254921747017708540000003304910301547984516_);}
	.st92{fill:url(#SVGID_00000064320629750330918840000005334716728639784892_);}
	.st93{fill:url(#SVGID_00000119078615421828805350000000842116751664288147_);}
	.st94{fill:url(#SVGID_00000145743151874831824980000001430694928563009417_);}
	.st95{fill:url(#SVGID_00000047750224087054663950000001309303964628586123_);}
	.st96{fill:url(#SVGID_00000023249613679615490770000003855868541262758048_);}
	.st97{fill:url(#SVGID_00000172436203946880075810000000319586826645114285_);}
	.st98{fill:url(#SVGID_00000106834761951307540530000001056173118876537745_);}
	.st99{fill:url(#SVGID_00000136370912972554820600000000380264505208519582_);}
	.st100{fill:url(#SVGID_00000088118737636925166380000015103182805950646422_);}
	.st101{fill:url(#SVGID_00000047020587379573306860000010094504325419192453_);}
	.st102{fill:url(#SVGID_00000074406113240002531730000016546912981599015829_);}
	.st103{fill:url(#SVGID_00000182521611652512015510000006073453425283810952_);}
	.st104{fill:#5793CE;}
	.st105{fill:url(#SVGID_00000039824457566406606070000003560508090005006737_);}
	.st106{fill:url(#SVGID_00000096760386733628881140000011154948992213606316_);}
	.st107{fill:#173D7A;}
	.st108{fill:#396CAA;}
	.st109{opacity:0.3;fill:#06033E;}
	.st110{fill:#D4ECFF;}
	.st111{fill:#FF2C9C;}
	.st112{opacity:0.5;fill:#173D7A;}
	.st113{fill:url(#SVGID_00000045592413343521200460000007787272650188962996_);}
	.st114{fill:url(#SVGID_00000155848078158577046770000010222613416069480367_);}
	.st115{fill:url(#SVGID_00000076594468719569791900000010675725670418301832_);}
	.st116{fill:url(#SVGID_00000133504151438824588700000014404740002865239959_);}
	.st117{fill:url(#SVGID_00000176745352982700277170000004806488530154480545_);}
	.st118{fill:url(#SVGID_00000172433142473991115650000000580253830554116535_);}
</style>
<g>
	<g>
		<g class="st44">
			<g>
				<g>
					<path class="st45" d="M117.66,367.28c0,0-8.5-9.91-0.52-16.21c0,0,5.82-3.53,10.57-3.24c0,0-6.73,11.28-4.55,12.4
						c2.18,1.12,6.59-13.11,6.59-13.11s13.25-1.29,17.51,0.76c0,0-11.33,9.27-8.94,9.82c2.39,0.55,14.62-8.55,14.62-8.55
						s12.33,2.1,11.68,9.62c-0.66,7.52-4.91,9.85-6.78,9.65c-1.87-0.2-12.79-4.37-13.03-2.84c-0.24,1.53,6.34,6.53,10.94,6.77
						c0,0-8.7,9.59-14.47,6.82c-5.78-2.77-6.27-7.15-9.87-8.8c-3.6-1.65-6.68-1.64-5.19,0.04c1.49,1.68,8.01,3.31,10.07,6.95
						c2.06,3.64,3.91,6.1-2.07,5.2c-5.98-0.9-15.7-5.27-16.12-10.28C117.66,367.28,117.66,367.28,117.66,367.28z"/>
				</g>
				<g>
					<g>
						<path class="st45" d="M158.56,358.99c0,0-33.5-1.29-40.9,8.29c0,0-1.64,4.9-6.67,9.36l-0.78,2.14c0,0,5.8-6.12,7.88-6.49
							C118.09,372.29,114.84,360.42,158.56,358.99z"/>
					</g>
					<g>
						<path class="st45" d="M110.99,376.64c0,0-7.19,5.32-7.69,14.82l1.31,0.12c0,0,2.3-9.82,6.45-13.67
							C115.21,374.07,110.99,376.64,110.99,376.64z"/>
					</g>
				</g>
			</g>
			<g>
				<g>
					<path class="st46" d="M87.96,354.82c0,0,13.51-7.57,7.21-17.84c0,0-5.05-6.31-10.45-7.93c0,0,2.88,15.32,0,15.68
						c-2.88,0.36-1.98-17.3-1.98-17.3s-14.24-6.85-19.82-6.31c0,0,8.83,14.96,5.95,14.6c-2.88-0.36-12.79-15.5-12.79-15.5
						s-14.6-2.7-16.94,5.95c-2.34,8.65,1.44,12.97,3.6,13.52c2.16,0.54,16.04,0.36,15.68,2.16c-0.36,1.8-9.73,4.68-14.96,3.06
						c0,0,5.77,14.24,13.33,13.51c7.57-0.72,9.91-5.41,14.6-5.77c4.69-0.36,8.11,0.9,5.77,2.16c-2.34,1.26-10.27,0.41-14.06,3.63
						c-3.78,3.22-6.85,5.2,0.18,6.64c7.03,1.44,19.64,0.54,22.16-4.87C87.96,354.82,87.96,354.82,87.96,354.82z"/>
				</g>
				<g>
					<g>
						<path class="st46" d="M45.79,328.87c0,0,37.84,12.25,42.17,25.95c0,0-0.18,6.13,3.6,13.15v2.7c0,0-3.96-9.19-6.13-10.45
							C85.44,360.22,93.91,348.33,45.79,328.87z"/>
					</g>
					<g>
						<path class="st46" d="M91.56,367.97c0,0,5.84,8.86,2.51,19.65l-1.5-0.4c0,0,1.46-11.88-1.6-17.86
							C87.92,363.38,91.56,367.97,91.56,367.97z"/>
					</g>
				</g>
			</g>
			<g>
				<g>
					<path class="st47" d="M109.46,344.38c0,0-17.82-9.98-9.5-23.52c0,0,6.65-8.31,13.78-10.45c0,0-3.8,20.19,0,20.67
						c3.8,0.48,2.61-22.8,2.61-22.8s18.77-9.03,26.13-8.31c0,0-11.64,19.72-7.84,19.24c3.8-0.48,16.87-20.43,16.87-20.43
						s19.24-3.56,22.33,7.84c3.09,11.4-1.9,17.1-4.75,17.82c-2.85,0.71-21.14,0.48-20.67,2.85c0.48,2.38,12.83,6.18,19.72,4.04
						c0,0-7.6,18.77-17.58,17.82c-9.98-0.95-13.06-7.13-19.24-7.6c-6.18-0.47-10.69,1.19-7.6,2.85c3.09,1.66,13.54,0.54,18.53,4.79
						c4.99,4.24,9.03,6.85-0.24,8.75c-9.26,1.9-25.89,0.71-29.22-6.41C109.46,344.38,109.46,344.38,109.46,344.38z"/>
				</g>
				<g>
					<g>
						<path class="st47" d="M165.04,310.17c0,0-49.88,16.15-55.58,34.21c0,0,0.24,8.08-4.75,17.34v3.56c0,0,5.23-12.11,8.08-13.78
							C112.79,351.51,101.62,335.83,165.04,310.17z"/>
					</g>
					<g>
						<path class="st47" d="M104.71,361.72c0,0-7.69,11.68-3.31,25.9l1.98-0.53c0,0-1.92-15.66,2.1-23.54
							C109.51,355.67,104.71,361.72,104.71,361.72z"/>
					</g>
				</g>
			</g>
			<g>
				<path class="st48" d="M108.86,418.46c19.27,0,34.9-15.62,34.9-34.9H73.96C73.96,402.83,89.59,418.46,108.86,418.46z"/>
			</g>
			<g>
				<path class="st48" d="M144.24,420.23H73.48l0,0c0-2.38,1.93-4.31,4.31-4.31h62.15C142.31,415.93,144.24,417.86,144.24,420.23
					L144.24,420.23z"/>
			</g>
			<g>
				<rect x="72.82" y="383.56" class="st49" width="71.74" height="1.07"/>
			</g>
		</g>
		<g class="st44">
			<g class="st50">
				<path class="st46" d="M222.05,135.79c0,0-4.72-39.51-24.96-63.08c-2.69-3.13-7.84-1.14-7.75,2.99c0,0.07,0,0.14,0.01,0.21
					C189.61,82.96,212.28,112.68,222.05,135.79z"/>
			</g>
			<g class="st50">
				<path class="st46" d="M224.51,147.1c0,0-20.17-49.38-54.63-71.22c-2.1-1.33-4.95-0.85-6.36,1.2c-0.92,1.34-1.33,3.42-0.3,6.68
					C165.98,92.45,204.4,121.68,224.51,147.1z"/>
			</g>
		</g>
		<g class="st44">
			<g>
				<path class="st47" d="M475.78,134.55c0,0-18.06-11.12-8.85-24.82c0,0,7.26-8.34,14.75-10.26c0,0-4.81,20.79-0.89,21.45
					c3.92,0.66,3.69-23.56,3.69-23.56s19.86-8.56,27.48-7.51c0,0-12.93,19.96-8.96,19.63c3.97-0.33,18.38-20.48,18.38-20.48
					s20.12-2.87,22.84,9.1c2.72,11.97-2.71,17.67-5.7,18.29c-2.99,0.62-21.96-0.41-21.57,2.07c0.39,2.49,13.05,6.96,20.29,5.04
					c0,0-8.7,19.15-19.01,17.74c-10.31-1.41-13.25-7.96-19.64-8.72c-6.39-0.76-11.15,0.77-8.01,2.63
					c3.13,1.86,14.03,1.15,19.03,5.76c5,4.62,9.07,7.5-0.62,9.08c-9.7,1.57-26.9-0.37-30.05-7.91
					C475.78,134.55,475.78,134.55,475.78,134.55z"/>
			</g>
			<g>
				<g>
					<path class="st47" d="M534.94,101.43c0,0-52.47,14.62-59.16,33.12c0,0-0.1,8.39-5.68,17.79l-0.15,3.7
						c0,0,5.94-12.35,8.97-13.95C478.93,142.09,468.01,125.33,534.94,101.43z"/>
				</g>
				<g>
					<path class="st47" d="M470.1,152.34c0,0-8.49,11.79-4.54,26.74l2.08-0.47c0,0-1.32-16.34,3.19-24.34
						C475.35,146.27,470.1,152.34,470.1,152.34z"/>
				</g>
			</g>
		</g>
		<g class="st44">
			<g>
				<path class="st47" d="M402.69,134.1c0,0-30.33,2.68-31.47-20.98c0,0,1.21-15.83,8.19-24.46c0,0,12.29,28.07,17.37,25.46
					c5.08-2.61-15.95-30.29-15.95-30.29s15.53-26.89,25.2-32.2c0,0,2.23,34.07,6.52,30.29c4.28-3.78,3.61-39.34,3.61-39.34
					s20.71-20.56,34.1-9.11c13.39,11.45,12.03,22.67,9.12,25.94c-2.91,3.27-25.64,18.35-23.06,20.88
					c2.58,2.53,20.99-3.17,27.68-11.6c0,0,6.41,29.51-6.68,36.72c-13.09,7.21-22.08,2.2-30.09,6.81c-8.01,4.61-12.17,10.45-6.97,9.9
					c5.2-0.55,17.14-10.71,26.85-9.68c9.71,1.03,16.88,0.86,7.07,10.98c-9.82,10.13-31.3,22.64-41.38,16.66
					C402.69,134.1,402.69,134.1,402.69,134.1z"/>
			</g>
			<g>
				<g>
					<path class="st47" d="M442.42,45.25c0,0-47.88,61.83-39.73,88.86c0,0,7.08,9.75,8.72,25.35l2.99,4.39
						c0,0-3.74-19.32-1.63-23.76C412.78,140.09,385.85,130.16,442.42,45.25z"/>
				</g>
				<g>
					<path class="st47" d="M411.42,159.46c0,0,0.34,20.86,17.7,34.69l1.99-2.32c0,0-15.53-17.68-17.19-30.77
						C412.25,147.97,411.42,159.46,411.42,159.46z"/>
				</g>
			</g>
		</g>
		<g>
			<path class="st27" d="M346.9,222.96l-15.62,185.68c0,0-1.64,11.26,6.74,11.28c13.77,0.03,68.52,0,68.52,0s-10.36-2.34-10.23-7.61
				c0.15-6.21,18.25-191.1,18.25-191.1L346.9,222.96z"/>
		</g>
		<g>
			<path class="st27" d="M411.69,416.54c-2.71,0.01-55.71,0.1-69.12-0.07c-5.84-0.07-6.87-5.19-6.91-8.51
				c-0.02-1.59,0.18-2.76,0.18-2.76l0.41-4.83l1.04-12.3l0.91-10.87l1.17-13.96l0.99-11.79l11.1-131.94l67.65-1.76
				c0,0-7.62,77.37-13.02,133.69c-0.6,6.28-1.18,12.29-1.7,17.91c-0.17,1.79-0.34,3.55-0.5,5.25c-0.5,5.33-0.96,10.22-1.36,14.54
				c-0.21,2.28-0.4,4.39-0.58,6.33c-0.69,7.6-1.09,12.45-1.1,13.37c0,0.54,0.04,1.04,0.13,1.5
				C402.09,416.27,410.67,416.54,411.69,416.54z"/>
		</g>
		<g>
			<polygon class="st5" points="182.6,121.84 220.64,274.63 225.85,295.56 243.56,366.72 572.7,366.72 507.4,121.84 			"/>
		</g>
		<g>
			<polygon class="st9" points="182.6,121.84 177.33,123.6 236.55,372.04 243.56,366.72 			"/>
		</g>
		<g>
			<polygon class="st27" points="236.55,372.04 563.67,372.04 572.7,366.72 243.56,366.72 			"/>
		</g>
		<g>
			
				<rect x="351.43" y="416.54" transform="matrix(-1 -1.224647e-16 1.224647e-16 -1 773.6797 836.444)" class="st5" width="70.82" height="3.37"/>
		</g>
		<g class="st51">
			
				<rect x="351.43" y="416.54" transform="matrix(-1 -1.224647e-16 1.224647e-16 -1 773.6797 836.444)" class="st15" width="70.82" height="3.37"/>
		</g>
		<g>
			<polygon class="st5" points="404.25,372.04 403.88,374.61 337.28,388.07 338.19,377.2 338.62,372.04 			"/>
		</g>
		<g>
			<path class="st5" d="M411.69,416.54c-2.71,0.01-55.71,0.1-69.12-0.07c-5.84-0.07-6.87-5.19-6.91-8.51l66.29-12.47
				c-0.69,7.6-1.09,12.45-1.1,13.37c0,0.54,0.04,1.04,0.13,1.5C402.09,416.27,410.67,416.54,411.69,416.54z"/>
		</g>
		<g>
			<polygon class="st27" points="182.6,121.84 507.4,121.84 560.1,318.65 231.6,318.65 			"/>
		</g>
		<g>
			<polygon class="st9" points="544.78,310.12 240.67,310.12 229.8,266.83 225.6,250.08 223.88,243.25 212.71,198.75 212.14,196.44 
				206.23,172.92 203.59,162.4 201.34,153.42 199.5,146.1 196.05,132.38 495.79,132.38 499.57,146.1 501.58,153.42 504.06,162.4 
				506.96,172.92 526.07,242.24 526.07,242.25 527.69,248.12 528.44,250.85 541.64,298.7 			"/>
		</g>
		<g>
			<polygon class="st9" points="424.25,302.28 267.78,302.28 259.18,260.14 255.86,246.89 254.5,241.48 245.66,206.29 
				245.21,204.46 240.54,185.85 238.45,177.53 236.66,170.43 235.21,164.64 232.48,153.78 385.59,153.78 			"/>
		</g>
		<g>
			<g>
				<g>
					<path class="st14" d="M608.51,211.47c0.02-0.44,0.36-5.16,7.55-5.41c0,0-3.54,0.42-4.15,1.98c0,0,2.41-1.92,4.37-1.3
						c1.96,0.62,3.11,4.05,3.12,5.18s-1.08,4.77-2.32,5.08c-0.47,0.12-1.01,0.09-1.51,0c0.33,0.52,0.66,1.09,0.97,1.72
						c2.87,5.89-0.09,11.65-2.52,11.01c-1.56-0.41-2,2.25-2,2.25l-15.14-12.26C596.88,219.74,602.44,208.24,608.51,211.47z"/>
				</g>
			</g>
			<g>
				<path class="st8" d="M567.25,285.13c1.27,1.12,4.62-2.73,5.09-3.24c0.02-0.05,0.05-0.07,0.05-0.07l-1.02-2.85
					c0,0-4.4-0.17-5.13,0.56C565.5,280.27,565.87,283.94,567.25,285.13z"/>
			</g>
			<g>
				<path class="st9" d="M603.24,385.03l3.22,1.2c0,0,13.97-19.37,15.69-36.41c0.31-3.04-0.32-9.49-0.08-10.87
					c0.11-0.64,0.25-1.42,0.4-2.3c0.45-2.6,1.08-6.16,1.79-10.21c1.64-9.33,3.77-21.25,5.43-30.02l-0.87-0.28l-9.37-3.02l-1.94-6.15
					l-6.98-1.84c0,0-1.56,3.05-2.95,17.46c-0.26,1.89-0.49,3.97-0.67,6.23c-0.54,6.9-0.58,15.46,0.66,25.24
					c0.32,2.5,1.65,12.35,1.49,15.4C608.35,363.37,603.24,385.03,603.24,385.03z"/>
			</g>
			<g>
				<path class="st10" d="M606.9,308.8l15.16,30.13c0.11-0.64,0.25-1.42,0.4-2.3c0.45-2.6,1.08-6.16,1.79-10.21
					c1.64-9.33,3.77-21.25,5.43-30.02l-0.87-0.28l-9.37-3.02l-1.94-6.15l-6.98-1.84c0,0-1.56,3.05-2.95,17.46
					C607.31,304.46,607.08,306.54,606.9,308.8z"/>
			</g>
			<g>
				<path class="st9" d="M613.57,288.98l0.35-3.01c5.88,1.56,21.59-4.36,21.59-4.36s5.7,5.01,4.95,17.01
					c-0.36,5.86-1.03,30.75-1.73,38.11c-0.25,2.67,1.48,9.54,2.18,11.39c6.83,18.21-1.05,40.64-1.05,40.64l-2.05-0.83
					c0,0-12.95-46.94-14.28-51.92c-2.52-9.4-4.56-21.63-5.91-31.07C617.42,304.94,613.57,288.98,613.57,288.98z"/>
			</g>
			<g>
				<path class="st8" d="M609.11,254.06c10.11,0.55,7.89-14.51,7.27-14.44c-1.24-0.65-3.46-3.78-4.74-9.03l-0.44,0.2l-7.29,3.43
					c0,0,0.77,2.37,1.35,4.64c0.45,1.78,0.77,3.49,0.5,3.97c-0.57,0.23-0.92,0.38-0.92,0.38s0,0,0,0.01
					C604.76,243.42,606.41,253.92,609.11,254.06z"/>
			</g>
			<g>
				<path class="st13" d="M603.91,234.23c0,0,0.78,2.37,1.35,4.64c4.26-1.19,5.56-5.67,5.95-8.07L603.91,234.23z"/>
			</g>
			<g>
				<path class="st8" d="M603.01,236.74c0,0,10.2-2.36,8.63-8.69c-1.57-6.33-1.31-10.9-7.88-9.66c-6.58,1.24-7.24,3.97-7.23,6.21
					C596.53,226.84,600.32,237.19,603.01,236.74z"/>
			</g>
			<g>
				<g>
					<path class="st14" d="M595.95,221.01c1.1-2.29,2.39-2.17,3.19-1.76c4.79-4.43,9.49-0.81,9.49-0.81
						c1.81,4.37,5.73,6.16,5.73,6.16s-1.57,1.6-6.11,1.57c-1.39-0.01-2.78-0.65-4.05-1.53c2.45,2.47,5.32,3.97,5.32,3.97
						c-5.68-1.09-9.5-7.67-9.89-8.37c-0.48,0.71-1.4,2.23-1.48,3.5c-0.11,1.74,0.49,5.11-0.5,5.24
						C597.66,228.97,594.31,224.45,595.95,221.01z"/>
				</g>
			</g>
			<g>
				<path class="st10" d="M627.95,390.42h16.2c0,0,0.39-2.47-0.46-4.34c-0.81-1.8-2.08-2.61-1.78-4.79
					c-1.03,1.06-2.71,2.25-5.05,1.93c-0.29,0.47-1.85,2.95-2.81,3.64C633,387.63,628.28,387.36,627.95,390.42z"/>
			</g>
			<g>
				<path class="st10" d="M593.18,390.42h16.2c0,0,0.61-2.58-0.46-4.34c-0.94-1.56-0.58-2.44,0.12-3.73
					c-0.73,0.3-1.68,0.57-2.73,0.51c-0.81-0.05-1.66-0.41-2.41-0.85c-0.7,0.79-3.68,4.18-4.61,4.85
					C598.22,387.63,593.5,387.36,593.18,390.42z"/>
			</g>
			<g>
				<path class="st15" d="M635.81,262.47c-0.87-2.82-1.77-5.54-2.68-8.04c-2.07-5.69-3.39-8.65-4.51-10.95
					c-2.13-4.37-11.63-4.1-11.63-4.1c-1.83,6.6-6.86,10.71-6.86,10.71c-2.68-1.58-4.68-7.11-4.68-7.11l-5.87,3.12l0,0l0,0
					c-0.02,0.02-1.82,1.08-3.4,5.64c-2.36,6.78-6.18,16.4-8.83,19.35c-0.62,0.68-2.43,1.72-4.63,2.83v0
					c-0.05,0.07-0.08,0.11-0.11,0.11c0.14,0.32,0.78,1.85,1.81,3.4c0.84,1.26,1.94,2.53,3.24,3.19c1-0.48,2.8-1.19,3.57-1.66
					c2.76-1.69,6.88-4.12,10.1-9.26l0.9,12.07l1.62,21.84c2.5,0.78,4.88,1.38,7.13,1.85c0.15-1.83,0.74-4.02,0.74-4.02
					c-0.03,1.15,1.32,3.35,2.11,4.54c20.74,3.32,30.46-5.72,30.46-5.72C643.48,292.25,639.99,276.05,635.81,262.47z"/>
			</g>
			<g>
				<path class="st5" d="M614.88,238.16c0,0,1.73,0.12,2.1,1.22c0,0-2.25,9.06-6.86,10.71L614.88,238.16z"/>
			</g>
			<g>
				<path class="st5" d="M610.12,250.1c0,0-4.4-7.95-4.39-9.02c0,0-1.67,1.48-1.56,2.59C604.16,243.66,607.87,249.6,610.12,250.1z"
					/>
			</g>
			<g>
				<path class="st28" d="M621.93,246.87c-0.12,0.43-9.12,21.91-17.18,29.83c-3.53,3.47,7.72,2.47,7.82,1.82
					C612.68,277.88,621.93,246.87,621.93,246.87z"/>
			</g>
			<g>
				<path class="st28" d="M602.5,282.45l0.77,12.12c24.59-5.71,22.53-44.88,22.53-44.88l-12.35,25.5l-10.84,7.08
					C602.61,282.28,602.57,282.34,602.5,282.45z"/>
			</g>
			<g>
				<path class="st46" d="M582.57,273.99c0.01,0.03,0.02,0.04,0.03,0.04c-0.01-0.02-0.02-0.03-0.02-0.05
					C582.56,273.94,582.55,273.94,582.57,273.99z"/>
			</g>
			<g>
				<g>
					<g>
						<path class="st6" d="M594.73,257.3l4.9,21.82c0.78,3.48-1.85,6.29-5.88,6.29H476.18c-4.03,0-7.92-2.82-8.7-6.29l-4.9-21.82
							c-0.03-0.13-0.06-0.26-0.07-0.4c-0.51-3.29,2.08-5.89,5.95-5.89h117.57c3.87,0,7.62,2.6,8.59,5.89
							C594.67,257.03,594.7,257.16,594.73,257.3z"/>
					</g>
				</g>
				<g>
					<g>
						<g>
							<g>
								<g>
									<polygon class="st7" points="476.44,275.58 475.29,275.58 472.24,262 473.39,262 									"/>
								</g>
							</g>
							<g>
								<g>
									<polygon class="st7" points="484.39,267.6 476.12,267.6 475.26,263.76 483.52,263.76 									"/>
								</g>
							</g>
							<g>
								<g>
									<polygon class="st7" points="488.24,273.11 477.36,273.11 476.5,269.27 487.37,269.27 									"/>
								</g>
							</g>
						</g>
						<g>
							<g>
								<g>
									<polygon class="st7" points="502.87,275.58 501.71,275.58 498.67,262 499.82,262 									"/>
								</g>
							</g>
							<g>
								<g>
									<polygon class="st7" points="504.63,267.6 496.37,267.6 495.51,263.76 503.77,263.76 									"/>
								</g>
							</g>
							<g>
								<g>
									<polygon class="st7" points="507.18,273.11 496.3,273.11 495.44,269.27 506.31,269.27 									"/>
								</g>
							</g>
						</g>
						<g>
							<g>
								<g>
									<polygon class="st7" points="529.3,275.58 528.15,275.58 525.1,262 526.25,262 									"/>
								</g>
							</g>
							<g>
								<g>
									<polygon class="st7" points="524.88,267.6 516.62,267.6 515.75,263.76 524.02,263.76 									"/>
								</g>
							</g>
							<g>
								<g>
									<polygon class="st7" points="526.11,273.11 515.24,273.11 514.37,269.27 525.25,269.27 									"/>
								</g>
							</g>
						</g>
						<g>
							<g>
								<g>
									<polygon class="st7" points="546.21,263.1 532.63,263.1 532.37,261.94 545.95,261.94 									"/>
								</g>
							</g>
							<g>
								<g>
									<polygon class="st7" points="538.48,264.18 540.33,272.44 536.49,272.44 534.64,264.18 									"/>
								</g>
							</g>
							<g>
								<g>
									<polygon class="st7" points="543.99,264.18 546.43,275.05 542.58,275.05 540.14,264.18 									"/>
								</g>
							</g>
						</g>
						<g>
							<g>
								<g>
									<polygon class="st7" points="567.58,269.36 554,269.36 553.74,268.21 567.32,268.21 									"/>
								</g>
							</g>
							<g>
								<g>
									<polygon class="st7" points="558.55,264.66 560.4,272.92 556.56,272.92 554.71,264.66 									"/>
								</g>
							</g>
							<g>
								<g>
									<polygon class="st7" points="563.77,263.35 566.21,274.23 562.36,274.23 559.92,263.35 									"/>
								</g>
							</g>
						</g>
						<g>
							<g>
								<g>
									<polygon class="st7" points="588.96,275.68 575.39,275.68 575.13,274.53 588.7,274.53 									"/>
								</g>
							</g>
							<g>
								<g>
									<polygon class="st7" points="578.71,265.09 580.56,273.35 576.72,273.35 574.87,265.09 									"/>
								</g>
							</g>
							<g>
								<g>
									<polygon class="st7" points="583.63,262.47 586.07,273.35 582.23,273.35 579.79,262.47 									"/>
								</g>
							</g>
						</g>
					</g>
				</g>
			</g>
			<g>
				<g>
					<path class="st8" d="M582.92,283.46c1.34-0.01,3.45-0.1,4.68-0.57c0,0-3.91-0.06-3.08-1.29c0.15-0.22,2.09-0.05,4.26-0.05
						c0.89,0,3.09,1.22,2.97,1.27c1.57-0.21,3-0.51,3.46-0.61c0.12-0.02,0.17-0.05,0.17-0.05l1.39,4.04c0,0-0.29,0.07-0.8,0.17
						c-1.29,0.32-3.94,1-6.45,1.97c-3.5,1.39-6.08-0.34-7.25-1.56c-0.74-0.77-1.33-1.8-1.29-2.54
						C581.03,283.43,582.1,283.47,582.92,283.46z"/>
				</g>
				<g>
					<path class="st8" d="M592.34,283.77l0.85,3.11c0,0,1.07-0.2,2.78-0.51c0.51-0.1,0.8-0.17,0.8-0.17
						c1.36-0.27,2.99-0.63,4.77-1.02h0.03c3.04-0.73,6.45-1.61,9.32-2.58c0.26-0.09,0.51-0.18,0.76-0.27
						c1.7-0.63-1.58-9.24-3.07-8.17c-0.39,0.29-0.82,0.58-1.26,0.88c-2.46,1.67-5.6,3.53-8.38,5.1c-1.36,0.78-2.65,1.49-3.72,2.07
						C593.49,283.16,592.34,283.77,592.34,283.77z"/>
				</g>
				<g>
					<path class="st5" d="M607.32,275.04c0,0-0.18,5.88,5.33,8.75c6.37-2.3,9.77-11.79,12.4-18.32c0.36-0.9,0.71-1.8,1.05-2.68
						c1.22-3.26,2.19-6.47,2.78-9.25c0.36-1.65-6.72-10-7.62-8.03c-1.39,3.14-2.85,7.2-4.21,11.24c-0.76,2.21-1.49,4.43-2.21,6.47
						c-0.41,1.24-0.83,2.41-1.22,3.48c-0.76,2.05-1.44,3.7-2.04,4.75c-0.39,0.68-1.51,1.63-2.99,2.7
						C608.18,274.44,607.76,274.74,607.32,275.04z"/>
				</g>
			</g>
		</g>
		<g>
			<polygon class="st25" points="499.57,146.1 199.5,146.1 196.05,132.38 495.79,132.38 			"/>
		</g>
		<g>
			<g>
				<path class="st17" d="M214.7,139.37c0.39,1.23-0.39,2.23-1.74,2.24c-1.35,0.01-2.76-0.98-3.15-2.21
					c-0.39-1.23,0.39-2.23,1.74-2.24C212.9,137.15,214.31,138.14,214.7,139.37z"/>
			</g>
			<g>
				<path class="st17" d="M224.82,139.3c0.39,1.23-0.39,2.23-1.74,2.24c-1.35,0.01-2.76-0.98-3.15-2.21
					c-0.39-1.23,0.39-2.23,1.74-2.24C223.02,137.08,224.43,138.07,224.82,139.3z"/>
			</g>
			<g>
				<path class="st17" d="M234.94,139.23c0.39,1.23-0.39,2.23-1.74,2.24c-1.35,0.01-2.76-0.98-3.15-2.21
					c-0.39-1.23,0.39-2.23,1.74-2.24C233.14,137.01,234.55,138,234.94,139.23z"/>
			</g>
		</g>
		<g>
			<path class="st15" d="M238.45,177.53c0,0,35.32,0.13,60.93,19.77c25.61,19.64,21.92,37.25,43.17,41.67
				c34.83,7.24,13.21-29.93,58.43-26.07l23.27,89.38H267.78l-11.92-55.39L238.45,177.53z"/>
		</g>
		<g>
			<path class="st7" d="M350.61,240.23c-2.4,0-5.09-0.32-8.13-0.95c-11.73-2.44-16.05-9.02-21.53-17.35
				c-4.54-6.9-10.18-15.49-21.77-24.38c-7.28-5.58-20.11-13.09-39.94-17.19c-11.86-2.45-20.71-2.51-20.8-2.51l0-0.64
				c0.09,0,9,0.06,20.93,2.53c11.01,2.28,26.92,7.13,40.2,17.31c11.68,8.95,17.36,17.59,21.92,24.54
				c5.6,8.53,9.65,14.69,21.12,17.07c16.33,3.39,20.02-3.02,24.3-10.46c4.77-8.28,10.17-17.66,34.09-15.62l-0.05,0.64
				c-23.52-2.01-28.81,7.18-33.48,15.3c-2.16,3.76-4.21,7.31-7.83,9.51C357.2,239.5,354.25,240.23,350.61,240.23z"/>
		</g>
		<g>
			<path class="st11" d="M246.69,210.19l8.98,35.78l12.11,56.31h156.47l-7.89-29.24c0,0-23.16-12.91-54.57-1.66
				c-31.41,11.25-66.19,0.87-68.42-24.44C290.84,218.4,264.62,204.66,246.69,210.19z"/>
		</g>
		<g>
			<path class="st7" d="M286.23,227.11c-8.99-13.91-25.58-20.9-39.44-16.62l-0.19-0.62c14.13-4.36,31.02,2.74,40.17,16.89
				L286.23,227.11z"/>
		</g>
		<g>
			<g>
				
					<rect x="339.67" y="236.43" transform="matrix(0.9947 0.1028 -0.1028 0.9947 26.3704 -33.9028)" class="st7" width="5.11" height="5.11"/>
			</g>
			<g>
				
					<rect x="344.84" y="195.81" transform="matrix(0.2033 -0.9791 0.9791 0.2033 40.5066 528.8857)" class="st7" width="0.85" height="87.49"/>
			</g>
			<g>
				<path class="st7" d="M300.97,230.5c0.08-0.81,0.8-1.39,1.61-1.31c0.81,0.08,1.39,0.8,1.31,1.61c-0.08,0.81-0.8,1.39-1.61,1.31
					C301.47,232.03,300.89,231.31,300.97,230.5z"/>
			</g>
			<g>
				<path class="st7" d="M386.63,248.3c0.08-0.81,0.8-1.39,1.61-1.31c0.81,0.08,1.39,0.8,1.31,1.61c-0.08,0.81-0.8,1.39-1.61,1.31
					C387.14,249.82,386.55,249.1,386.63,248.3z"/>
			</g>
		</g>
		<g>
			<g>
				
					<rect x="279.49" y="184.17" transform="matrix(0.7276 0.686 -0.686 0.7276 204.9173 -142.6165)" class="st7" width="5.11" height="5.11"/>
			</g>
			<g>
				
					<rect x="281.07" y="165.55" transform="matrix(0.7057 -0.7085 0.7085 0.7057 -48.9776 254.178)" class="st7" width="0.85" height="41"/>
			</g>
			<g>
				<path class="st7" d="M265.83,170.65c0.51-0.63,1.44-0.73,2.06-0.22c0.63,0.51,0.73,1.44,0.22,2.06
					c-0.51,0.63-1.44,0.73-2.06,0.21C265.41,172.21,265.31,171.28,265.83,170.65z"/>
			</g>
			<g>
				<path class="st7" d="M294.88,199.59c0.51-0.63,1.43-0.73,2.06-0.22s0.73,1.44,0.22,2.06c-0.51,0.63-1.44,0.73-2.06,0.22
					C294.46,201.15,294.36,200.22,294.88,199.59z"/>
			</g>
		</g>
		<g>
			<g>
				
					<rect x="377.45" y="212.68" transform="matrix(0.3908 -0.9205 0.9205 0.3908 33.3854 480.911)" class="st7" width="5.11" height="5.11"/>
			</g>
			<g>
				
					<rect x="367.02" y="214.75" transform="matrix(0.4162 -0.9093 0.9093 0.4162 26.2391 471.2212)" class="st7" width="26.15" height="0.85"/>
			</g>
			<g>
				<path class="st7" d="M374.19,228.46c-0.77-0.26-1.18-1.09-0.92-1.86c0.26-0.77,1.09-1.18,1.86-0.92
					c0.77,0.26,1.18,1.09,0.92,1.86C375.79,228.31,374.95,228.72,374.19,228.46z"/>
			</g>
			<g>
				<path class="st7" d="M385.07,204.67c-0.77-0.26-1.18-1.09-0.92-1.86c0.26-0.77,1.09-1.18,1.86-0.92
					c0.77,0.26,1.18,1.09,0.92,1.86C386.67,204.52,385.83,204.94,385.07,204.67z"/>
			</g>
		</g>
		<g>
			<g>
				<g>
					<path class="st7" d="M406.3,162.03l7.95,32.87c0.34,1.41-0.99,2.55-2.96,2.55h-81.81c-1.98,0-3.86-1.14-4.2-2.55l-7.95-32.87
						c-0.34-1.41,0.99-2.55,2.96-2.55h81.81C404.08,159.48,405.96,160.62,406.3,162.03z"/>
				</g>
			</g>
			<g>
				<g>
					<g>
						<polygon class="st27" points="338.07,181.26 329.37,181.26 327.26,172.55 335.97,172.55 						"/>
					</g>
					<g>
						<polygon class="st27" points="343.48,185.61 334.77,185.61 332.67,176.9 341.37,176.9 						"/>
					</g>
				</g>
				<g>
					<g>
						<polygon class="st27" points="358.4,181.26 349.69,181.26 347.59,172.55 356.29,172.55 						"/>
					</g>
					<g>
						<g>
							<polygon class="st17" points="363.81,185.61 355.1,185.61 352.99,176.9 361.7,176.9 							"/>
						</g>
						<g>
							<path class="st27" d="M364.27,185.98h-9.45l-2.29-9.45h9.45L364.27,185.98z M355.38,185.24h7.96l-1.93-7.96h-7.96
								L355.38,185.24z"/>
						</g>
					</g>
				</g>
				<g>
					<g>
						<polygon class="st17" points="378.72,181.26 370.02,181.26 367.91,172.55 376.62,172.55 						"/>
					</g>
					<g>
						<path class="st27" d="M379.19,181.63h-9.45l-2.29-9.45h9.45L379.19,181.63z M370.3,180.89h7.96l-1.93-7.96h-7.96L370.3,180.89
							z"/>
					</g>
					<g>
						<polygon class="st17" points="384.13,185.61 375.42,185.61 373.32,176.9 382.02,176.9 						"/>
					</g>
					<g>
						<path class="st27" d="M384.59,185.98h-9.45l-2.29-9.45h9.45L384.59,185.98z M375.71,185.24h7.96l-1.93-7.96h-7.96
							L375.71,185.24z"/>
					</g>
					<g>
						<g>
							<polygon class="st27" points="379.18,181.61 374.06,181.61 372.83,176.53 377.96,176.53 							"/>
						</g>
					</g>
				</g>
				<g>
					<g>
						<g>
							<polygon class="st27" points="399.05,181.26 390.34,181.26 388.24,172.55 396.94,172.55 							"/>
						</g>
					</g>
					<g>
						<g>
							<polygon class="st27" points="404.46,185.61 395.75,185.61 393.64,176.9 402.35,176.9 							"/>
						</g>
					</g>
					<g>
						<g>
							<polygon class="st17" points="398.8,181.05 394.82,181.05 393.86,177.09 397.85,177.09 							"/>
						</g>
					</g>
				</g>
			</g>
		</g>
		<g>
			<g>
				<path class="st17" d="M179.98,265.82h-30.15c-4.02,0-8-3.26-8.89-7.28l-22.68-102.41c-0.89-4.02,1.65-7.28,5.67-7.28h30.15
					c4.02,0,8,3.26,8.89,7.28l22.68,102.41C186.54,262.56,184,265.82,179.98,265.82z"/>
			</g>
			<g>
				<g>
					<rect x="121.77" y="171.88" class="st52" width="44.71" height="0.19"/>
				</g>
			</g>
			<g>
				<g>
					<rect x="127.11" y="196.01" class="st52" width="44.71" height="0.19"/>
				</g>
			</g>
			<g>
				<g>
					<rect x="132.46" y="220.14" class="st52" width="44.71" height="0.19"/>
				</g>
			</g>
			<g>
				<path class="st7" d="M149.12,164.77c0.06-0.52-2.25-9.4-2.25-9.4l8.19,6.64l-4.03-0.14L149.12,164.77z"/>
			</g>
			<g>
				<g>
					<g>
						<path class="st53" d="M173.81,255.33h-15.88l-3.51-15.86h15.88L173.81,255.33z M158.64,254.45h14.07l-3.12-14.09h-14.07
							L158.64,254.45z"/>
					</g>
				</g>
			</g>
			<g>
				<polygon class="st11" points="162.4,246.31 147.43,246.31 144.11,231.34 159.09,231.34 				"/>
			</g>
			<g>
				<g>
					
						<rect x="154.63" y="246.76" transform="matrix(0.6143 -0.7891 0.7891 0.6143 -131.9179 224.9168)" class="st11" width="18.98" height="1.28"/>
				</g>
			</g>
			<g>
				<g>
					<path class="st53" d="M128.96,164.77c0.06-0.52-2.25-9.4-2.25-9.4l8.19,6.64l-4.03-0.14L128.96,164.77z"/>
				</g>
				<g>
					<g>
						<g>
							<polygon class="st53" points="132.13,182.36 130.93,182.36 130.45,180.2 138.64,180.2 139.1,182.27 137.89,182.27 
								137.7,181.41 131.92,181.41 							"/>
						</g>
					</g>
					<g>
						<g>
							<polygon class="st53" points="136.79,187.62 135.58,187.62 134.07,180.81 135.28,180.81 							"/>
						</g>
					</g>
					<g>
						<g>
							<polygon class="st53" points="137.88,188.05 134.69,188.05 134.42,186.84 137.61,186.84 							"/>
						</g>
					</g>
				</g>
				<g>
					<g>
						<polygon class="st53" points="154.21,188.8 153.12,188.02 158.87,178.96 159.96,179.75 						"/>
					</g>
				</g>
				<g>
					<g>
						<g>
							<path class="st53" d="M140.38,209.89c-2.3,0-4.59-1.87-5.1-4.18c-0.51-2.3,0.95-4.18,3.25-4.18c2.3,0,4.59,1.87,5.1,4.18
								C144.14,208.02,142.69,209.89,140.38,209.89z M138.78,202.64c-1.69,0-2.77,1.38-2.39,3.07c0.38,1.69,2.06,3.07,3.75,3.07
								c1.69,0,2.77-1.38,2.39-3.07C142.16,204.02,140.47,202.64,138.78,202.64z"/>
						</g>
					</g>
					<g>
						<g>
							<path class="st53" d="M148.33,213.52c-0.14,0-0.3-0.06-0.43-0.17l-5.55-4.68c-0.26-0.22-0.33-0.57-0.16-0.78
								c0.17-0.21,0.52-0.21,0.78,0.01l5.55,4.68c0.26,0.22,0.33,0.57,0.16,0.78C148.6,213.47,148.47,213.52,148.33,213.52z"/>
						</g>
					</g>
				</g>
				<g>
					<polygon class="st53" points="160.36,201.16 162.43,204.94 166.41,204.94 163.71,207.28 165.78,211.06 162.04,208.72 
						159.34,211.06 159.73,207.28 155.99,204.94 159.97,204.94 					"/>
				</g>
			</g>
		</g>
		<g>
			<g>
				<path class="st54" d="M544.69,168.03c0,0,0.11,5.96-0.79,5.85c-0.89-0.11-2.11-5-2.12-4.93c-0.01,0.07,0.4,5.14-0.72,5.39
					c-1.12,0.25-2.27-5.37-2.27-5.37s0.76,4.82-0.04,4.95c-0.79,0.13-2.04-4.55-2.36-4.56c-0.33-0.01,1.05,4.01,0.09,4.21
					c-0.96,0.2-3.12-5.45-2.39-6.17c0.73-0.72,1.86,0.05,1.86,0.05s1.4-1.04,2.48-0.45c0,0,2.52-0.5,3.28,0.61
					C541.72,167.63,543.29,166.27,544.69,168.03z"/>
			</g>
			<g>
				<g>
					<g>
						<path class="st7" d="M560.96,145.19l20.46,73.76c0.88,3.16-1.12,5.71-4.46,5.71H438.88c-3.34,0-6.75-2.56-7.63-5.71
							l-20.46-73.76c-0.88-3.16,1.12-5.72,4.46-5.72h138.08C556.67,139.47,560.09,142.03,560.96,145.19z"/>
					</g>
				</g>
				<g>
					<g class="st55">
						<polygon class="st15" points="453.57,178.47 435.74,178.47 430.8,160.63 448.63,160.63 						"/>
					</g>
					<g>
						<polygon class="st9" points="447.99,174.1 438.9,174.1 436.37,165 445.47,165 						"/>
					</g>
					<g>
						
							<rect x="431.18" y="168.85" transform="matrix(0.5856 -0.8106 0.8106 0.5856 45.7909 428.6743)" class="st11" width="22" height="1.4"/>
					</g>
					<g>
						<g>
							<polygon class="st17" points="440.88,168.8 423.05,168.8 418.1,150.96 435.94,150.96 							"/>
						</g>
					</g>
				</g>
				<g>
					<g>
						<g>
							<polygon class="st11" points="451.01,199.51 436.68,199.51 432.7,185.17 447.04,185.17 							"/>
						</g>
					</g>
					<g>
						<g>
							<polygon class="st23" points="465.22,199.51 450.88,199.51 446.9,185.17 461.24,185.17 							"/>
						</g>
					</g>
					<g>
						<g>
							<polygon class="st33" points="479.55,199.51 465.22,199.51 461.24,185.17 475.58,185.17 							"/>
						</g>
					</g>
				</g>
				<g>
					<path class="st11" d="M551.94,157.12h-75.1c-1.03,0-2.11-0.84-2.4-1.88l0,0c-0.29-1.03,0.32-1.88,1.36-1.88h75.1
						c1.03,0,2.11,0.84,2.4,1.88l0,0C553.58,156.27,552.97,157.12,551.94,157.12z"/>
				</g>
				<g>
					<path class="st17" d="M554.57,166.59h-75.1c-1.03,0-2.11-0.84-2.4-1.88l0,0c-0.29-1.03,0.32-1.88,1.36-1.88h75.1
						c1.03,0,2.11,0.84,2.4,1.88l0,0C556.21,165.75,555.6,166.59,554.57,166.59z"/>
				</g>
				<g>
					<path class="st56" d="M554.57,166.59h-75.1c-1.03,0-2.11-0.84-2.4-1.88l0,0c-0.29-1.03,0.32-1.88,1.36-1.88h75.1
						c1.03,0,2.11,0.84,2.4,1.88l0,0C556.21,165.75,555.6,166.59,554.57,166.59z"/>
				</g>
				<g>
					<g>
						<path class="st9" d="M464.07,152.48h2.26c1.19,0,2.06,0.64,2.33,1.62c0.23,0.83-0.13,1.33-0.78,1.54l1.9,1.92h-1.05
							l-1.75-1.77h-1.1l0.49,1.77h-0.89L464.07,152.48z M466.97,154.99c0.64,0,0.95-0.33,0.8-0.86c-0.15-0.54-0.62-0.84-1.28-0.84
							h-1.3l0.47,1.7H466.97z"/>
					</g>
					<g>
						<path class="st9" d="M466.68,164.59c-0.39-1.42,0.36-2.62,1.89-2.62c0.88,0,1.5,0.25,2.14,0.69l-0.38,0.67
							c-0.48-0.33-0.93-0.54-1.57-0.54c-0.93,0-1.42,0.82-1.14,1.8c0.29,1.04,1.19,1.81,2.23,1.81c0.48,0,0.87-0.15,1.12-0.38
							l-0.26-0.95h-1.3l-0.21-0.78h2.16l0.59,2.13c-0.38,0.43-1,0.79-1.9,0.79C468.45,167.22,467.09,166.09,466.68,164.59z"/>
					</g>
					<g>
						<path class="st9" d="M469.52,172.11h2.28c0.58,0,1.08,0.16,1.45,0.45c0.29,0.22,0.48,0.5,0.58,0.86
							c0.17,0.61-0.09,0.93-0.41,1.13c0.65,0.2,1.16,0.54,1.35,1.25c0.25,0.91-0.36,1.39-1.49,1.39h-2.35L469.52,172.11z
							 M472.2,174.24c0.57,0,0.89-0.22,0.76-0.7c-0.11-0.4-0.5-0.64-1.07-0.64h-1.28l0.37,1.35H472.2z M473.06,176.39
							c0.61,0,0.91-0.24,0.78-0.71c-0.12-0.43-0.53-0.68-1.23-0.68h-1.41l0.39,1.39H473.06z"/>
					</g>
				</g>
			</g>
		</g>
		<g>
			<g>
				<g>
					<path class="st8" d="M274.76,154.14c-0.4,0.46-0.45,0.97-0.25,1.51c0,0,0,0.01,0,0.01c0.36,1.01,1.57,2.13,2.96,3.25
						c0.18,0.14,0.34,0.28,0.48,0.4c0.04,0.03,0.07,0.06,0.11,0.1c0.03,0.02,0.06,0.05,0.08,0.07c1.3,1.2,0.81,1.48,3.15,3.91
						c2.67,2.78,4.51,2.83,5.03,2.57c0.44-0.22-0.46-1.69-1.45-3.34c-0.05-0.08-0.1-0.16-0.15-0.24c-0.13-0.22-0.26-0.44-0.4-0.66
						c-1.17-1.99-0.87-2.93-0.59-5.89c0.22-2.41,3.75-13.46,3.75-13.46l-5.11-0.88c0,0-1.54,8.8-3.24,10.15
						c-0.91,0.72-1.92,0.73-2.8,1.27c-0.06,0.04-0.12,0.08-0.18,0.11C275.67,153.35,275.16,153.69,274.76,154.14z"/>
				</g>
				<g>
					<path class="st15" d="M274.76,154.14c-0.4,0.46-0.45,0.97-0.25,1.51c0,0,0,0.01,0,0.01c0.45,1,1.62,2.12,2.97,3.24
						c0.18,0.15,0.33,0.28,0.47,0.41c0.04,0.03,0.07,0.06,0.11,0.1c0.03,0.02,0.06,0.05,0.08,0.07c1.3,1.2,0.81,1.48,3.15,3.91
						c2.67,2.78,4.51,2.83,5.03,2.57c0.44-0.22-0.46-1.69-1.45-3.34c-0.52-0.19-2.93-1.17-4.76-3.51c-1.55-1.98-2.6-4.49-3.65-6.04
						c-0.12-0.02-0.18-0.03-0.3-0.06C275.67,153.35,275.16,153.69,274.76,154.14z"/>
				</g>
				<g>
					<path class="st8" d="M316,150.95c0.32,1.58,2.57,1.32,5.08,0.7c2.51-0.61,1.92,0.12,5.49-0.28c3.58-0.4,4.66-1.73,4.77-2.26
						c0.1-0.47-1.67-0.64-3.57-0.86c-0.24-0.03-0.48-0.06-0.72-0.09c-2.14-0.27-3.71-1.65-5.65-2.78c-1.84-1.07-4.59-5.45-4.59-5.45
						l-4.91,0.39c0,0,2.57,3.91,3.57,5.61c0.59,1,0.55,2.32,0.48,3.34C315.92,149.83,315.89,150.39,316,150.95z"/>
				</g>
				<g>
					<path class="st15" d="M321.08,151.65c2.51-0.61,1.92,0.12,5.49-0.28c3.58-0.4,4.66-1.73,4.77-2.26
						c0.1-0.47-1.67-0.64-3.57-0.86l-0.02,0.04c0,0-2.15,1.52-5.12,1.59c-2.43,0.06-5-0.64-6.67-0.61
						c-0.04,0.56-0.07,1.12,0.04,1.68C316.32,152.53,318.57,152.27,321.08,151.65z"/>
				</g>
				<g>
					<path class="st1" d="M297.2,119.58l-4.59,12.34l-5.99,16.12c0,0-1.63,0.16-3.18-0.29c-1.43-0.41-3.08-1.5-3.08-1.5
						s1.66-17.3,4.76-27.24c0.79-2.55,1.69-4.61,2.67-5.77C292.61,107.55,297.2,119.58,297.2,119.58z"/>
				</g>
				<g>
					<path d="M297.2,119.58l-4.59,12.34l-5.99,16.12c0,0-1.63,0.16-3.18-0.29c-1.43-0.41-3.08-1.5-3.08-1.5s1.66-17.3,4.76-27.24
						c0.79-2.55,1.69-4.61,2.67-5.77C292.61,107.55,297.2,119.58,297.2,119.58z"/>
				</g>
				<g>
					<path class="st1" d="M292.53,99.97c-2.61-0.84-9.42-0.01-16.81,1.32c-2.04,0.37-4.1-0.56-5.18-2.34l0,0l-18.6-1.45
						c0,0-6.14,13.61-2.78,22.28c0.49,1.27,1.58,2.07,3.25,2.1c0,0,0,0,0,0c0,0,11.24,0.02,14.83,0.02c9.25,0,19.57-6.36,20.91-6.62
						c2.19-0.44,3.06,3.93,5.25,8.53c2.19,4.59,20.55,20.33,20.55,20.33s2.82,0.03,3.99-0.41c1.25-0.47,1.71-1.08,1.71-1.08
						S299.31,102.16,292.53,99.97z"/>
				</g>
				<g>
					<path class="st14" d="M268.57,44.35c-1.38-0.82-2.73-0.95-3.55-0.92c-0.57,0.02-1.15-0.02-1.72-0.1
						c-7.1-1.04-11.37,9.27-11.62,12.38c-0.46,5.72-3.49,6.59-7.74,10.17c-8.54,7.18-6.03,15.53-1.37,18.63c2.8,1.86,7.74,0,7.74,0
						c0.07,0.05,13.5-7.51,20.13-11.16C280.36,71.94,272.56,46.73,268.57,44.35z"/>
				</g>
				<g>
					<path class="st8" d="M264.89,70.25c0.03,0.02-3.26,1.14-5.46,0.17c-2.07-0.91-3.63-4.32-3.6-4.32
						c0.94-0.04,1.97-0.87,2.77-6.26l0.4,0.14l6.74,2.42c0,0-0.49,2.16-0.8,4.22C264.66,68.35,264.52,70,264.89,70.25z"/>
				</g>
				<g>
					<path class="st57" d="M265.73,62.4c0,0-0.27,1.17-0.66,3.34c-3.87-0.7-5.53-3.68-6.07-5.77L265.73,62.4z"/>
				</g>
				<g>
					<path class="st8" d="M266.73,64.55c0,0-9.21-1.24-8.36-6.96c0.86-5.73,0.25-9.74,6.17-9.2c5.92,0.55,6.73,2.9,6.91,4.88
						C271.63,55.25,269.15,64.72,266.73,64.55z"/>
				</g>
				<g>
					<path class="st14" d="M271.12,50.13c0,0-5.9,5.08-9.91,5.49c-4.01,0.41-5.53-0.88-5.53-0.88s2.36-1.96,3.79-5.13
						c0.42-0.93,1.31-1.58,2.33-1.66C264.66,47.71,270.09,47.59,271.12,50.13z"/>
				</g>
				<g>
					<path class="st14" d="M267.43,49.68c0,0,1.97,1.91,2.59,3.32c0.6,1.37,0.78,4.63,0.3,5.93c0,0,3.07-5.98,1.33-8.88
						C269.82,46.97,267.43,49.68,267.43,49.68z"/>
				</g>
				<g>
					<path class="st15" d="M272.64,83.82c-0.28,18.65-0.08,14.75-2.12,16.52c-0.49,0.43-1.87,0.68-3.69,0.8
						c-5.72,0.38-15.77-0.56-16.16-1.62c-1.32-3.66-0.39-4.79-1.49-10.39c-0.11-0.6-0.26-1.24-0.42-1.94
						c-0.92-3.85-1.81-5.15,1.44-11.33c2.95-5.6,6.02-10.14,6.3-9.98c7.79,4.62,8.42,0.74,8.42,0.74S272.78,74.72,272.64,83.82z"/>
				</g>
				<g>
					<path class="st1" d="M292.61,131.92l-5.99,16.12c0,0-1.63,0.16-3.18-0.29c-1.43-0.41-3.08-1.5-3.08-1.5s1.66-17.3,4.76-27.24
						L292.61,131.92z"/>
				</g>
				<g>
					<path class="st15" d="M264.93,66.62c0,0,8.02,1.36,8.96,4.81c0.94,3.45,4.04,24.4,4.04,24.4s-2.26,2.21-4.14,0.32
						c-1.88-1.88-5.92-19.6-5.92-19.6L264.93,66.62z"/>
				</g>
				<g>
					<path class="st28" d="M266.84,101.15c-5.72,0.38-15.77-0.56-16.16-1.62c-1.32-3.66-0.39-4.79-1.49-10.39l2.76-7.77
						c0,0-0.46,8.65,2.1,10.93c2.55,2.28,10.44,4.39,11.68,6.29C266.33,99.5,266.72,100.41,266.84,101.15z"/>
				</g>
				<g>
					<path class="st8" d="M260.28,97.51c0,0,5.64-1.26,6.55-0.76c0.91,0.5,3.14,2.32,3.41,2.96c0.28,0.63-2.03-0.48-2.78-0.68
						c-0.49-0.13-1.76,0.31-2.4,0.52c-2.66,0.89-4.29,0.43-4.29,0.43L260.28,97.51z"/>
				</g>
				<g>
					<path class="st15" d="M256.5,65.88c0,0-7.58,0.47-10.2,4.12c-3.69,5.15-11.02,27.1-6.82,30.02c4.73,3.3,21.51,0.86,21.51,0.86
						s0.56-2.61-0.22-3.87c-0.78-1.26-13.41-3.3-13.99-3.89c-0.58-0.58,7.29-11.37,7.29-13.12C254.08,78.26,256.5,65.88,256.5,65.88
						z"/>
				</g>
				<g>
					<path class="st8" d="M267.11,98.32c0,0,1.18,1.53,1.57,1.71c0.39,0.18,0.64,0.14,0.64,0.14l-0.8-1.43L267.11,98.32z"/>
				</g>
				<g>
					<path class="st8" d="M266.84,96.75l3.44,1.67c0,0-0.15,0.24-0.57,0.22c-0.42-0.02-1.49-0.41-1.49-0.41L266.84,96.75z"/>
				</g>
			</g>
			<g>
				<g>
					<polygon class="st25" points="296.19,100.68 260.28,100.68 260.28,101.47 295.87,101.47 					"/>
				</g>
				<g>
					<polygon class="st25" points="268.68,101.47 295.87,101.47 304.05,81.13 276.9,81.13 					"/>
				</g>
				<g>
					<path class="st19" d="M289.01,91.3c0.21-0.72-0.21-1.29-0.92-1.29s-1.46,0.58-1.67,1.29c-0.21,0.72,0.21,1.29,0.92,1.29
						C288.05,92.59,288.8,92.01,289.01,91.3z"/>
				</g>
			</g>
		</g>
		<g>
			
				<rect x="284.65" y="226.41" transform="matrix(0.7544 0.6564 -0.6564 0.7544 220.1987 -132.0025)" class="st7" width="3.7" height="3.7"/>
		</g>
		<g>
			<g>
				<g>
					<path class="st58" d="M250.65,274.95c-0.56-1.85-0.83-2.01-0.83-2.01s-17.29,2.16-20.22,1.97c-1.74-0.11-22.5-7.04-22.5-7.04
						l-12.61,12.09c0,0,31.27,5.15,35.67,4.81c7.28-0.56,18.4-6.99,18.4-6.99S251.09,276.4,250.65,274.95z"/>
				</g>
			</g>
			<g>
				<path class="st9" d="M203.4,412.95c0,0,0.24,5.86,1.37,7.28l15.65,0.09c-0.11-0.6-0.18-2-2.34-2.38c-2.73-0.48-5.95-2.38-7.6-6
					C208.73,408.15,203.4,412.95,203.4,412.95z"/>
			</g>
			<g>
				<path class="st9" d="M172.68,412.11c0,0-1.09,7.78,0.39,7.92c0.2,0.02,6.31,0.12,8.95,0.16c3.11,0.05,8.22-0.06,8.22-0.06
					c0.64,0.03,1.06-0.67,0.74-1.22c-0.36-0.61-1.04-1.26-2.35-1.51c-2.73-0.52-7.27-2.53-8.86-6.17
					C178.1,407.4,172.68,412.11,172.68,412.11z"/>
			</g>
			<g>
				<path class="st28" d="M211.53,332.35c0,0-4.35,15.23-16.82,41.67c-12.47,26.44-13.01,39.19-13.01,39.19s-1.89,0.67-4.39,0.4
					c-2.71-0.29-4.62-1.5-4.62-1.5s0.81-31.47,6.7-44.82c5.89-13.34,7.09-49.86,7.09-49.86L211.53,332.35z"/>
			</g>
			<g>
				<path class="st15" d="M218.52,319.25c0,0,0.35,23.58-3.73,52.53c-4.08,28.95-2.17,42.41-2.17,42.41s-1.08,0.79-4.41,0.77
					c-3.89-0.02-5.89-1.62-5.89-1.62s-5.84-28.96-4.16-43.45c1.67-14.49-8-49.72-8-49.72L218.52,319.25z"/>
			</g>
			<g>
				<path class="st8" d="M209.04,260.47c-0.04,1.85-0.29,3.86-1.03,4.85l-4.15,2.18l-4.6-3.41c0,0,1.69-3.74,1.27-9.21
					c-0.04-0.33-0.21-2.43-0.21-2.47l2.3,1.15l6.25,3.12c0,0,0,0.12,0.04,0.29C208.96,257.6,209.04,258.95,209.04,260.47z"/>
			</g>
			<g>
				<path class="st6" d="M186.04,322.16c1.51,6.89,33.76,3.87,33.34-0.34c-0.02-0.14-0.1-2.09-0.22-4.71
					c-0.24-5.68-0.62-14.55-0.67-15.24c0-0.01,0-0.02,0-0.04c-0.58-5.86-1.14-11.59-1.17-15.33c-0.03-3.25-0.48-6.56-1.07-9.58
					c-0.55-2.78-1.22-5.3-1.81-7.27c-0.41-1.39-1.18-2.6-2.2-3.56c-0.73-0.68-1.57-1.23-2.51-1.6c-0.26-0.11-0.52-0.2-0.78-0.27
					c-3.79-1.1-7.62-2.5-9.04-2.09c-3.85,1.13-8.14,7.96-10.17,16.61C185.93,294.93,185.05,317.67,186.04,322.16z"/>
			</g>
			<g>
				<path class="st24" d="M209.04,260.47c-2.34-0.95-6.82-3.08-8.06-5.51c-0.53-1.07,0.29-1.4,1.64-1.4l6.25,3.12
					c0,0,0,0.12,0.04,0.29C208.96,257.6,209.04,258.95,209.04,260.47z"/>
			</g>
			<g>
				<path class="st8" d="M211.89,256.31c0,0-11.22,3.5-13.3-3.52c-2.07-7.02-4.92-11.3,2.16-13.83c7.08-2.53,9.27-0.27,10.53,1.91
					C212.55,243.04,214.75,255.22,211.89,256.31z"/>
			</g>
			<g>
				<path class="st14" d="M210.84,240.19c0,0-0.72,8.17-2.41,7.82c-1.69-0.35-3.22-0.62-2.98,1.85c0.25,2.46,0.33,5.42-4.88,5.86
					c-5.21,0.44-10.43-13.11-9-15.66C195.71,232.72,216.81,231.24,210.84,240.19z"/>
			</g>
			<g>
				<g>
					<path class="st58" d="M219.16,317.11c-0.24-5.68-0.62-14.55-0.67-15.24c0-0.01,0-0.02,0-0.04l-19.05-11.39
						C199.44,290.44,198.7,317.03,219.16,317.11z"/>
				</g>
			</g>
			<g>
				<g>
					<g>
						<path class="st14" d="M284.89,226.83l3.43,2.99c0,0-5.88,6.3-5.34,12.93l-8.79,7.42l-7.27-6.33l6.08-10.09
							C273,233.74,279.53,233.5,284.89,226.83z"/>
					</g>
					<g>
						<path class="st7" d="M275.96,237.6c0.71-0.81,1.94-0.9,2.76-0.19c0.81,0.71,0.9,1.94,0.19,2.76c-0.71,0.81-1.94,0.9-2.76,0.19
							C275.33,239.65,275.25,238.42,275.96,237.6z"/>
					</g>
					<g>
						
							<rect x="281.06" y="226.38" transform="matrix(0.7543 0.6565 -0.6565 0.7543 222.97 -127.2055)" class="st7" width="0.75" height="15.8"/>
					</g>
				</g>
				<g>
					
						<rect x="264.94" y="246.7" transform="matrix(0.7544 0.6564 -0.6564 0.7544 228.9818 -116.1908)" class="st5" width="9.65" height="2.42"/>
				</g>
				<g>
					<path class="st14" d="M193,336.49l-0.35-0.31c-1.91-1.66-2.11-4.56-0.45-6.48l73.13-84.05l7.28,6.33l-73.13,84.05
						C197.81,337.95,194.91,338.15,193,336.49z"/>
				</g>
			</g>
			<g>
				<path class="st8" d="M234.15,293.03c0,0,1.41-1.25,1.73-2.11c0.11-0.3,1.07-1.66,2.71-1.53c1.49,0.11,4.15-3.07,4.15-3.07
					c0.39,0.84,1.72,4-0.19,5.59c-1.56,1.3-5.3,3.56-7.57,5.05C232.54,298.55,234.15,293.03,234.15,293.03z"/>
			</g>
			<g>
				<path class="st6" d="M234.34,292.56c0,0-18.9,3.21-20.57,2.4c-2.67-1.3,1.04-20.47,1.04-20.47s0.16-4.35-4.92-5.37
					c-4.41-0.89-8.67,2.41-8.67,2.41s-3.87,3.46-3.38,7.3c1.1,8.51,2.8,25.83,8.5,28.49c7.35,3.42,28.6-9.49,28.6-9.49
					s0.71-0.87,0.61-2.48C235.46,293.93,234.34,292.56,234.34,292.56z"/>
			</g>
			<g>
				<path class="st8" d="M251.44,276.32c0,0,4.77-1.74,4.35-4.18c-0.42-2.44-1.91-2.13-2.8-1.29
					C252.09,271.69,252.58,276.01,251.44,276.32z"/>
			</g>
			<g>
				<path class="st8" d="M235.56,291.78c0,0,0.65-1.91,1.34-2.73c0.69-0.82,0.99-2.21,1.3-1.75c0.32,0.46-0.25,2.12,0,2.75
					C238.46,290.69,235.56,291.78,235.56,291.78z"/>
			</g>
		</g>
		<g>
			<rect x="572.7" y="390.42" class="st11" width="85.45" height="29.68"/>
		</g>
	</g>
	<g>
		<polygon class="st17" points="493.89,199.51 479.55,199.51 475.58,185.17 489.91,185.17 		"/>
	</g>
	<g>
		<polygon class="st15" points="508.23,199.51 493.89,199.51 489.91,185.17 504.25,185.17 		"/>
	</g>
	<g>
		<polygon class="st28" points="522.56,199.51 508.23,199.51 504.25,185.17 518.59,185.17 		"/>
	</g>
	<g>
		<polygon class="st16" points="536.9,199.51 522.56,199.51 518.59,185.17 532.92,185.17 		"/>
	</g>
	<g>
		<polygon class="st27" points="551.24,199.51 536.9,199.51 532.92,185.17 547.26,185.17 		"/>
	</g>
	<g>
		<polygon class="st6" points="454.99,213.84 440.65,213.84 436.68,199.51 451.01,199.51 		"/>
	</g>
	<g>
		<g>
			<polygon class="st59" points="469.19,213.84 454.86,213.84 450.88,199.51 465.22,199.51 			"/>
		</g>
	</g>
	<g>
		<polygon class="st60" points="483.53,213.84 469.19,213.84 465.22,199.51 479.55,199.51 		"/>
	</g>
	<g>
		<g>
			<polygon class="st61" points="497.87,213.84 483.53,213.84 479.55,199.51 493.89,199.51 			"/>
		</g>
	</g>
	<g>
		<path class="st6" d="M557.2,176.07h-75.1c-1.03,0-2.11-0.84-2.4-1.88l0,0c-0.29-1.03,0.32-1.88,1.36-1.88h75.1
			c1.03,0,2.11,0.84,2.4,1.88l0,0C558.84,175.22,558.23,176.07,557.2,176.07z"/>
	</g>
</g>
</svg>
