<?xml version="1.0" encoding="UTF-8"?><svg xmlns="http://www.w3.org/2000/svg" viewBox="0 0 700 430"><defs><style>.cls-1{mix-blend-mode:multiply;}.cls-1,.cls-2{fill:#e8a398;}.cls-3,.cls-4{fill:#df851b;}.cls-5{fill:#fb961e;}.cls-6{fill:#fff;}.cls-7{fill:#110239;}.cls-8{stroke-dasharray:0 0 1.3 1.3;}.cls-8,.cls-9,.cls-10,.cls-11,.cls-12,.cls-13,.cls-14,.cls-15,.cls-16{fill:none;stroke:#fff;}.cls-8,.cls-10,.cls-11,.cls-12,.cls-13,.cls-14,.cls-15,.cls-16{stroke-miterlimit:10;}.cls-8,.cls-10,.cls-14{stroke-width:.33px;}.cls-4{opacity:.4;}.cls-9{mix-blend-mode:screen;opacity:.3;stroke-linejoin:round;stroke-width:3.67px;}.cls-9,.cls-16{stroke-linecap:round;}.cls-17{fill:#ed057f;}.cls-11{stroke-width:.75px;}.cls-18{isolation:isolate;}.cls-19{fill:#e8f2fa;}.cls-20{fill:#cedfff;}.cls-12{stroke-width:2.01px;}.cls-13{stroke-width:1.04px;}.cls-21{fill:#005fba;}.cls-22{fill:#f7931e;}.cls-14{stroke-dasharray:0 0 1.35 1.35;}.cls-23{fill:#004dae;}.cls-24{fill:#e6edfc;}.cls-25,.cls-26{opacity:.43;}.cls-26{fill:#a9c2ff;}.cls-27{fill:#0072c6;}.cls-28{fill:#002897;}.cls-15{stroke-width:.52px;}.cls-29{fill:#ffae73;}.cls-30{fill:#0097dd;}.cls-16{stroke-width:.26px;}</style></defs><g class="cls-18"><g id="Layer_1"><g><g><g class="cls-25"><path class="cls-20" d="M617.06,345.27c-2.04,9-3.43,18.01-3.29,27.1,.1,6.68,.91,15.22,2.42,24.55H77.12c-10.34-30.85-5.14-66.42,16.87-91.7,13.28-15.22,29.51-27.72,37.42-46.79,8.57-20.7,8.5-44.49,9.45-66.52,0-.07,.01-.16,.01-.25,2.05-46.76,5.19-96.93,57.07-113.86,4.66-1.9,9.49-3.43,14.52-4.54,10.09-2.22,20.93-2.8,32.54-1.42,22.76,2.75,43.44,14.07,64.72,22.6,21.28,8.56,45.52,14.37,66.86,5.96,17.43-6.87,29.9-22.01,43.75-34.66,19.53-17.85,43.89-31.68,70.3-33.61,41.19-2.97,74.12,25.94,76.22,66.9,.73,14.07-.88,28.15-.37,42.21,1.67,47.97,49.71,70.42,63.28,113.23,9.39,29.62-5.68,59.98-12.71,90.8Z"/></g><path class="cls-26" d="M528.91,351.15c0,16.05-2.37,31.57-6.76,46.19H215.08c-4.4-14.62-6.76-30.13-6.76-46.19,0-88.53,71.76-160.3,160.3-160.3s160.3,71.76,160.3,160.3Z"/><g><g><path class="cls-7" d="M113.39,89.87V251.94c0,3.52,2.35,6.37,5.25,6.37h225.61c2.91,0,5.26-2.85,5.26-6.37V89.87c0-3.51-2.35-6.36-5.26-6.36H118.64c-2.9,0-5.25,2.85-5.25,6.36Z"/><path class="cls-5" d="M113.39,89.87v11.61h236.12v-11.61c0-3.51-2.35-6.36-5.26-6.36H118.64c-2.9,0-5.25,2.85-5.25,6.36Z"/></g><g><path class="cls-6" d="M274.01,120.25c0,1.89-.77,3.6-1.99,4.84-1.22,1.24-2.9,2.01-4.74,2l-78.13-.29c-3.99-.01-7.24-3.12-7.23-6.89,0-1.89,.83-3.6,2.15-4.84,1.32-1.24,3.13-2.01,5.13-2l78.13,.29c3.69,.01,6.69,3.11,6.68,6.89Z"/><path class="cls-17" d="M274.01,120.25c0,1.89-.77,3.6-1.99,4.84-1.22,1.24-2.9,2.01-4.74,2l-14.14-.05,.05-13.73,14.14,.05c3.69,.01,6.69,3.11,6.68,6.89Z"/><g><path class="cls-6" d="M265.06,122.71c-.17,0-.35-.01-.52-.04-.92-.14-1.74-.63-2.29-1.39-1.14-1.56-.81-3.75,.75-4.89h0c1.56-1.14,3.75-.81,4.89,.75,1.14,1.56,.81,3.75-.75,4.89-.61,.45-1.33,.68-2.08,.68Zm-1.73-5.86c-1.3,.95-1.58,2.79-.63,4.09,.46,.63,1.14,1.04,1.91,1.16,.77,.12,1.54-.07,2.17-.53,1.3-.95,1.58-2.79,.63-4.09-.95-1.3-2.79-1.58-4.09-.63h0Z"/><rect class="cls-6" x="260.26" y="120.14" width=".58" height="4.78" transform="translate(205.03 -159.99) rotate(53.7)"/><path class="cls-6" d="M257.29,124.92h0c-.17-.23-.12-.55,.11-.72l2.27-1.67c.23-.17,.55-.12,.72,.11h0c.17,.23,.12,.55-.11,.72l-2.27,1.67c-.23,.17-.55,.12-.72-.11Z"/></g></g><g><rect class="cls-6" x="206.73" y="139.16" width="26.04" height="26.04" rx="3.39" ry="3.39"/><g><path class="cls-27" d="M210.05,159.76l5.06-9.12c.59-1.06,2.08-1.16,2.8-.18l2.92,3.98c.62,.85,1.86,.91,2.57,.14h0c.74-.8,2.03-.7,2.62,.22l3.15,4.86c.72,1.11-.08,2.57-1.4,2.57h-16.27c-1.27,0-2.07-1.36-1.46-2.47Z"/><path class="cls-27" d="M220.04,146.37c0-1.1,.89-1.99,1.99-1.99s1.99,.89,1.99,1.99-.89,1.99-1.99,1.99-1.99-.89-1.99-1.99Z"/></g></g><g><path class="cls-6" d="M242.55,141.52h17.71c2.3,0,4.17,1.87,4.17,4.17v17.71c0,2.3-1.87,4.17-4.17,4.17h-17.71c-2.3,0-4.17-1.87-4.17-4.17v-17.71c0-2.3,1.87-4.17,4.17-4.17Z" transform="translate(-18.58 35.4) rotate(-7.77)"/><g><path class="cls-27" d="M242.82,163.35l3.78-9.72c.44-1.13,1.9-1.43,2.75-.55l3.43,3.55c.73,.76,1.97,.65,2.57-.21h0c.62-.9,1.92-.96,2.63-.14l3.78,4.39c.86,1,.27,2.56-1.04,2.73l-16.12,2.2c-1.26,.17-2.24-1.07-1.78-2.25Z"/><path class="cls-27" d="M250.91,148.74c-.15-1.09,.61-2.09,1.7-2.24,1.09-.15,2.09,.61,2.24,1.7,.15,1.09-.61,2.09-1.7,2.24-1.09,.15-2.09-.61-2.24-1.7Z"/></g></g><path class="cls-30" d="M192.57,166.23h-1.43c-.13,0-.23-.11-.23-.23s.11-.23,.23-.23h1.42c.13,0,.24,.11,.24,.23s-.1,.23-.23,.23Zm-2.85,0h-1.42c-.13,0-.23-.11-.23-.23s.11-.23,.23-.23h1.42c.13,0,.23,.11,.23,.23s-.11,.23-.23,.23Zm-2.84,0h-1.42c-.13,0-.23-.11-.23-.23s.11-.23,.23-.23h1.42c.13,0,.23,.11,.23,.23s-.11,.23-.23,.23Zm-2.84,0h-1.42c-.13,0-.23-.11-.23-.23s.11-.23,.23-.23h1.42c.13,0,.23,.11,.23,.23s-.11,.23-.23,.23Zm-2.84,0h-1.42c-.13,0-.23-.11-.23-.23s.11-.23,.23-.23h1.42c.13,0,.23,.11,.23,.23s-.11,.23-.23,.23Zm-2.84,0h-1.42c-.13,0-.23-.11-.23-.23s.11-.23,.23-.23h1.42c.13,0,.23,.11,.23,.23s-.11,.23-.23,.23Zm-2.84,0h-1.42c-.13,0-.23-.11-.23-.23s.11-.23,.23-.23h1.42c.13,0,.23,.11,.23,.23s-.11,.23-.23,.23Zm-2.84,0h-1.42c-.13,0-.23-.11-.23-.23s.11-.23,.23-.23h1.42c.13,0,.23,.11,.23,.23s-.11,.23-.23,.23Zm-2.84,0h-1.42c-.13,0-.23-.11-.23-.23s.11-.23,.23-.23h1.42c.13,0,.23,.11,.23,.23s-.11,.23-.23,.23Zm-2.84,0h-1.42c-.13,0-.23-.11-.23-.23s.11-.23,.23-.23h1.42c.13,0,.23,.11,.23,.23s-.11,.23-.23,.23Zm-2.84,0h-1.42c-.13,0-.23-.11-.23-.23s.11-.23,.23-.23h1.42c.13,0,.23,.11,.23,.23s-.11,.23-.23,.23Zm-2.84,0h-1.42c-.13,0-.23-.11-.23-.23s.11-.23,.23-.23h1.42c.13,0,.23,.11,.23,.23s-.11,.23-.23,.23Zm-2.84,0h-1.42c-.13,0-.23-.11-.23-.23s.11-.23,.23-.23h1.42c.13,0,.23,.11,.23,.23s-.11,.23-.23,.23Zm-2.84,0h-1.42c-.13,0-.23-.11-.23-.23s.11-.23,.23-.23h1.42c.13,0,.23,.11,.23,.23s-.11,.23-.23,.23Zm-2.84,0h-1.42c-.13,0-.23-.11-.23-.23s.11-.23,.23-.23h1.42c.13,0,.23,.11,.23,.23s-.11,.23-.23,.23Zm-2.84,0h-1.42c-.13,0-.23-.11-.23-.23s.11-.23,.23-.23h1.42c.13,0,.23,.11,.23,.23s-.11,.23-.23,.23Zm-2.84,0h-1.42c-.13,0-.23-.11-.23-.23s.11-.23,.23-.23h1.42c.13,0,.23,.11,.23,.23s-.11,.23-.23,.23Zm-2.84,0h-1.26c-.06,0-.11,0-.17,0-.13,0-.23-.12-.22-.25,0-.13,.12-.23,.25-.22,.05,0,.09,0,.14,0h1.26c.13,0,.23,.11,.23,.23s-.11,.23-.23,.23Zm49.57-.41c-.08,0-.15-.04-.19-.1-.07-.11-.05-.25,.06-.33,.36-.24,.63-.58,.79-.98,.05-.12,.19-.18,.31-.13,.12,.05,.18,.19,.13,.31-.2,.49-.53,.9-.96,1.19-.04,.03-.09,.04-.13,.04Zm-52.29-.08c-.05,0-.1-.02-.14-.05-.42-.32-.72-.75-.89-1.25-.04-.12,.03-.26,.15-.3,.12-.04,.26,.03,.3,.15,.14,.41,.39,.76,.73,1.03,.1,.08,.12,.23,.04,.33-.05,.06-.12,.09-.19,.09Zm53.34-2.4c-.13,0-.23-.11-.23-.23v-1.42c0-.13,.11-.23,.23-.23s.23,.11,.23,.23v1.42c0,.13-.11,.23-.23,.23Zm-54.28-.14c-.13,0-.23-.11-.23-.23v-1.42c0-.13,.11-.23,.23-.23s.23,.11,.23,.23v1.42c0,.13-.11,.23-.23,.23Zm54.28-2.69c-.13,0-.23-.11-.23-.23v-1.42c0-.13,.11-.23,.23-.23s.23,.11,.23,.23v1.42c0,.13-.11,.23-.23,.23Zm-54.28-.14c-.13,0-.23-.11-.23-.23v-1.42c0-.13,.11-.23,.23-.23s.23,.11,.23,.23v1.42c0,.13-.11,.23-.23,.23Zm54.28-2.69c-.13,0-.23-.11-.23-.23v-1.42c0-.13,.11-.23,.23-.23s.23,.11,.23,.23v1.42c0,.13-.11,.23-.23,.23Zm-54.28-.14c-.13,0-.23-.11-.23-.23v-1.42c0-.13,.11-.23,.23-.23s.23,.11,.23,.23v1.42c0,.13-.11,.23-.23,.23Zm54.28-2.69c-.13,0-.23-.11-.23-.23v-1.42c0-.13,.11-.23,.23-.23s.23,.11,.23,.23v1.42c0,.13-.11,.23-.23,.23Zm-54.28-.14c-.13,0-.23-.11-.23-.23v-1.42c0-.13,.11-.23,.23-.23s.23,.11,.23,.23v1.42c0,.13-.11,.23-.23,.23Zm54.28-2.69c-.13,0-.23-.11-.23-.23v-1.42c0-.13,.11-.23,.23-.23s.23,.11,.23,.23v1.42c0,.13-.11,.23-.23,.23Zm-54.28-.14c-.13,0-.23-.11-.23-.23v-1.42c0-.13,.11-.23,.23-.23s.23,.11,.23,.23v1.42c0,.13-.11,.23-.23,.23Zm54.28-2.69c-.13,0-.23-.11-.23-.23v-1.42c0-.13,.11-.23,.23-.23s.23,.11,.23,.23v1.42c0,.13-.11,.23-.23,.23Zm-54.28-.14c-.13,0-.23-.11-.23-.23v-1.42c0-.13,.11-.23,.23-.23s.23,.11,.23,.23v1.42c0,.13-.11,.23-.23,.23Zm54.28-2.69c-.13,0-.23-.11-.23-.23v-1.42c0-.13,.11-.23,.23-.23s.23,.11,.23,.23v1.42c0,.13-.11,.23-.23,.23Zm-54.28-.14c-.13,0-.23-.11-.23-.23v-1.42c0-.13,.11-.23,.23-.23s.23,.11,.23,.23v1.42c0,.13-.11,.23-.23,.23Zm54.28-2.69c-.13,0-.23-.11-.23-.23v-1.42c0-.13,.11-.23,.23-.23s.23,.11,.23,.23v1.42c0,.13-.11,.23-.23,.23Zm-54.28-.14c-.13,0-.23-.11-.23-.23v-1.42c0-.13,.11-.23,.23-.23s.23,.11,.23,.23v1.42c0,.13-.11,.23-.23,.23Zm54.28-2.69c-.13,0-.23-.11-.23-.23v-1.42c0-.13,.11-.23,.23-.23s.23,.11,.23,.23v1.42c0,.13-.11,.23-.23,.23Zm-54.28-.14c-.13,0-.23-.11-.23-.23v-1.42c0-.13,.11-.23,.23-.23s.23,.11,.23,.23v1.42c0,.13-.11,.23-.23,.23Zm54.28-2.69c-.13,0-.23-.11-.23-.23v-.64c0-.24-.04-.47-.11-.69-.04-.12,.02-.26,.15-.3,.12-.04,.26,.02,.3,.15,.09,.27,.14,.55,.14,.84v.64c0,.13-.11,.23-.23,.23Zm-54.28-.14c-.13,0-.23-.11-.23-.23v-.5c0-.34,.06-.67,.19-.99,.05-.12,.19-.18,.31-.13,.12,.05,.18,.19,.13,.31-.1,.26-.16,.53-.16,.81v.5c0,.13-.11,.23-.23,.23Zm53.34-2.4s-.1-.02-.14-.05c-.34-.26-.75-.42-1.18-.44-.13,0-.23-.12-.22-.25,0-.13,.12-.23,.25-.22,.52,.03,1.02,.22,1.44,.54,.1,.08,.12,.23,.04,.33-.05,.06-.12,.09-.19,.09Zm-52.28-.08c-.08,0-.15-.04-.19-.1-.07-.11-.04-.25,.06-.33,.43-.29,.94-.45,1.47-.45h0c.13,0,.23,.1,.23,.23,0,.13-.1,.24-.23,.24-.43,0-.85,.13-1.2,.37-.04,.03-.09,.04-.13,.04Zm49.56-.41h-1.42c-.13,0-.23-.11-.23-.23s.11-.23,.23-.23h1.42c.13,0,.23,.11,.23,.23s-.11,.23-.23,.23Zm-2.84,0h-1.42c-.13,0-.23-.11-.23-.23s.11-.23,.23-.23h1.42c.13,0,.23,.11,.23,.23s-.11,.23-.23,.23Zm-2.84,0h-1.42c-.13,0-.23-.11-.23-.23s.11-.23,.23-.23h1.42c.13,0,.23,.11,.23,.23s-.11,.23-.23,.23Zm-2.84,0h-1.42c-.13,0-.23-.11-.23-.23s.11-.23,.23-.23h1.42c.13,0,.23,.11,.23,.23s-.11,.23-.23,.23Zm-2.84,0h-1.42c-.13,0-.23-.11-.23-.23s.11-.23,.23-.23h1.42c.13,0,.23,.11,.23,.23s-.11,.23-.23,.23Zm-2.84,0h-1.42c-.13,0-.23-.11-.23-.23s.11-.23,.23-.23h1.42c.13,0,.23,.11,.23,.23s-.11,.23-.23,.23Zm-2.84,0h-1.42c-.13,0-.23-.11-.23-.23s.11-.23,.23-.23h1.42c.13,0,.23,.11,.23,.23s-.11,.23-.23,.23Zm-2.84,0h-1.42c-.13,0-.23-.11-.23-.23s.11-.23,.23-.23h1.42c.13,0,.23,.11,.23,.23s-.11,.23-.23,.23Zm-2.84,0h-1.42c-.13,0-.23-.11-.23-.23s.11-.23,.23-.23h1.42c.13,0,.23,.11,.23,.23s-.11,.23-.23,.23Zm-2.84,0h-1.42c-.13,0-.23-.11-.23-.23s.11-.23,.23-.23h1.42c.13,0,.23,.11,.23,.23s-.11,.23-.23,.23Zm-2.84,0h-1.42c-.13,0-.23-.11-.23-.23s.11-.23,.23-.23h1.42c.13,0,.23,.11,.23,.23s-.11,.23-.23,.23Zm-2.84,0h-1.42c-.13,0-.23-.11-.23-.23s.11-.23,.23-.23h1.42c.13,0,.23,.11,.23,.23s-.11,.23-.23,.23Zm-2.84,0h-1.42c-.13,0-.23-.11-.23-.23s.11-.23,.23-.23h1.42c.13,0,.23,.11,.23,.23s-.11,.23-.23,.23Zm-2.84,0h-1.42c-.13,0-.23-.11-.23-.23s.11-.23,.23-.23h1.42c.13,0,.23,.11,.23,.23s-.11,.23-.23,.23Zm-2.84,0h-1.42c-.13,0-.23-.11-.23-.23s.11-.23,.23-.23h1.42c.13,0,.23,.11,.23,.23s-.11,.23-.23,.23Zm-2.84,0h-1.42c-.13,0-.23-.11-.23-.23s.11-.23,.23-.23h1.42c.13,0,.23,.11,.23,.23s-.11,.23-.23,.23Zm-2.84,0h-1.42c-.13,0-.23-.11-.23-.23s.11-.23,.23-.23h1.42c.13,0,.23,.11,.23,.23s-.11,.23-.23,.23Z"/><g><rect class="cls-6" x="133.84" y="138.81" width="54.28" height="31.46" rx="3.95" ry="3.95"/><path class="cls-17" d="M154.85,148.3v12.48c0,.78,.87,1.25,1.52,.82l9.49-6.24c.59-.39,.59-1.25,0-1.64l-9.49-6.24c-.65-.43-1.52,.04-1.52,.82Z"/></g><g><path class="cls-19" d="M332.41,110.92h-9.7c-.41,0-.74-.33-.74-.74h0c0-.41,.33-.74,.74-.74h9.7c.41,0,.74,.33,.74,.74h0c0,.41-.33,.74-.74,.74Z"/><path class="cls-19" d="M332.41,113.82h-9.7c-.41,0-.74-.33-.74-.74h0c0-.41,.33-.74,.74-.74h9.7c.41,0,.74,.33,.74,.74h0c0,.41-.33,.74-.74,.74Z"/><path class="cls-19" d="M332.41,116.79h-9.7c-.41,0-.74-.33-.74-.74h0c0-.41,.33-.74,.74-.74h9.7c.41,0,.74,.33,.74,.74h0c0,.41-.33,.74-.74,.74Z"/></g><path class="cls-6" d="M158.34,115.05h-23.1c-.54,0-.98-.44-.98-.98h0c0-.54,.44-.98,.98-.98h23.1c.54,0,.98,.44,.98,.98h0c0,.54-.44,.98-.98,.98Z"/><g><rect class="cls-6" x="138.76" y="118.96" width="17.07" height="1.97" rx=".93" ry=".93"/><path class="cls-6" d="M134.44,119.95c0-.54,.44-.98,.98-.98s.98,.44,.98,.98-.44,.98-.98,.98-.98-.44-.98-.98Z"/></g></g><path class="cls-22" d="M336.99,180.93h-1.34c-.12,0-.22-.14-.22-.32s.1-.32,.22-.32h1.33c.12,0,.23,.14,.23,.32s-.09,.32-.22,.32Zm-2.67,0h-1.33c-.12,0-.22-.14-.22-.32s.1-.32,.22-.32h1.33c.12,0,.22,.14,.22,.32s-.1,.32-.22,.32Zm-2.66,0h-1.33c-.12,0-.22-.14-.22-.32s.1-.32,.22-.32h1.33c.12,0,.22,.14,.22,.32s-.1,.32-.22,.32Zm-2.66,0h-1.33c-.12,0-.22-.14-.22-.32s.1-.32,.22-.32h1.33c.12,0,.22,.14,.22,.32s-.1,.32-.22,.32Zm-2.66,0h-1.33c-.12,0-.22-.14-.22-.32s.1-.32,.22-.32h1.33c.12,0,.22,.14,.22,.32s-.1,.32-.22,.32Zm-2.66,0h-1.33c-.12,0-.22-.14-.22-.32s.1-.32,.22-.32h1.33c.12,0,.22,.14,.22,.32s-.1,.32-.22,.32Zm-2.66,0h-1.33c-.12,0-.22-.14-.22-.32s.1-.32,.22-.32h1.33c.12,0,.22,.14,.22,.32s-.1,.32-.22,.32Zm-2.66,0h-1.33c-.12,0-.22-.14-.22-.32s.1-.32,.22-.32h1.33c.12,0,.22,.14,.22,.32s-.1,.32-.22,.32Zm-2.66,0h-1.33c-.12,0-.22-.14-.22-.32s.1-.32,.22-.32h1.33c.12,0,.22,.14,.22,.32s-.1,.32-.22,.32Zm-2.66,0h-1.33c-.12,0-.22-.14-.22-.32s.1-.32,.22-.32h1.33c.12,0,.22,.14,.22,.32s-.1,.32-.22,.32Zm-2.66,0h-1.33c-.12,0-.22-.14-.22-.32s.1-.32,.22-.32h1.33c.12,0,.22,.14,.22,.32s-.1,.32-.22,.32Zm-2.66,0h-1.33c-.12,0-.22-.14-.22-.32s.1-.32,.22-.32h1.33c.12,0,.22,.14,.22,.32s-.1,.32-.22,.32Zm-2.66,0h-1.33c-.12,0-.22-.14-.22-.32s.1-.32,.22-.32h1.33c.12,0,.22,.14,.22,.32s-.1,.32-.22,.32Zm-2.66,0h-1.33c-.12,0-.22-.14-.22-.32s.1-.32,.22-.32h1.33c.12,0,.22,.14,.22,.32s-.1,.32-.22,.32Zm-2.66,0h-1.33c-.12,0-.22-.14-.22-.32s.1-.32,.22-.32h1.33c.12,0,.22,.14,.22,.32s-.1,.32-.22,.32Zm-2.66,0h-1.06c-.1,0-.2,0-.29-.02-.12-.02-.21-.18-.19-.35,.01-.17,.13-.3,.25-.28,.08,.01,.16,.02,.24,.02h1.06c.12,0,.22,.14,.22,.32s-.1,.32-.22,.32Zm41.2-.55c-.07,0-.14-.05-.18-.14-.07-.15-.04-.34,.06-.44,.34-.32,.6-.77,.75-1.31,.05-.16,.18-.24,.29-.17,.11,.07,.17,.25,.12,.41-.19,.65-.5,1.2-.91,1.59-.04,.04-.08,.05-.12,.05Zm-43.74-.22c-.05,0-.1-.02-.14-.08-.38-.46-.65-1.05-.78-1.73-.03-.17,.03-.34,.15-.39,.12-.05,.24,.05,.27,.22,.11,.55,.33,1.04,.64,1.42,.09,.11,.1,.31,.03,.45-.04,.07-.11,.11-.17,.11Zm44.74-3.09c-.12,0-.22-.14-.22-.32v-1.9c0-.18,.1-.32,.22-.32s.22,.14,.22,.32v1.9c0,.18-.1,.32-.22,.32Zm-45.54-.37c-.12,0-.22-.14-.22-.32v-1.9c0-.18,.1-.32,.22-.32s.22,.14,.22,.32v1.9c0,.18-.1,.32-.22,.32Zm45.54-3.43c-.12,0-.22-.14-.22-.32v-1.9c0-.18,.1-.32,.22-.32s.22,.14,.22,.32v1.9c0,.18-.1,.32-.22,.32Zm-45.54-.37c-.12,0-.22-.14-.22-.32v-1.9c0-.18,.1-.32,.22-.32s.22,.14,.22,.32v1.9c0,.18-.1,.32-.22,.32Zm45.54-3.43c-.12,0-.22-.14-.22-.32v-1.9c0-.18,.1-.32,.22-.32s.22,.14,.22,.32v1.9c0,.18-.1,.32-.22,.32Zm-45.54-.37c-.12,0-.22-.14-.22-.32v-1.9c0-.18,.1-.32,.22-.32s.22,.14,.22,.32v1.9c0,.18-.1,.32-.22,.32Zm45.54-3.43c-.12,0-.22-.14-.22-.32v-1.9c0-.18,.1-.32,.22-.32s.22,.14,.22,.32v1.9c0,.18-.1,.32-.22,.32Zm-45.54-.37c-.12,0-.22-.14-.22-.32v-1.9c0-.18,.1-.32,.22-.32s.22,.14,.22,.32v1.9c0,.18-.1,.32-.22,.32Zm45.54-3.43c-.12,0-.22-.14-.22-.32v-1.9c0-.18,.1-.32,.22-.32s.22,.14,.22,.32v1.9c0,.18-.1,.32-.22,.32Zm-45.54-.37c-.12,0-.22-.14-.22-.32v-1.9c0-.18,.1-.32,.22-.32s.22,.14,.22,.32v1.9c0,.18-.1,.32-.22,.32Zm45.54-3.43c-.12,0-.22-.14-.22-.32v-1.9c0-.18,.1-.32,.22-.32s.22,.14,.22,.32v1.9c0,.18-.1,.32-.22,.32Zm-45.54-.37c-.12,0-.22-.14-.22-.32v-1.9c0-.18,.1-.32,.22-.32s.22,.14,.22,.32v1.9c0,.18-.1,.32-.22,.32Zm45.54-3.43c-.12,0-.22-.14-.22-.32v-1.9c0-.18,.1-.32,.22-.32s.22,.14,.22,.32v1.9c0,.18-.1,.32-.22,.32Zm-45.54-.37c-.12,0-.22-.14-.22-.32v-1.9c0-.18,.1-.32,.22-.32s.22,.14,.22,.32v1.9c0,.18-.1,.32-.22,.32Zm45.54-3.43c-.12,0-.22-.14-.22-.32v-1.9c0-.18,.1-.32,.22-.32s.22,.14,.22,.32v1.9c0,.18-.1,.32-.22,.32Zm-45.54-.37c-.12,0-.22-.14-.22-.32v-1.9c0-.18,.1-.32,.22-.32s.22,.14,.22,.32v1.9c0,.18-.1,.32-.22,.32Zm45.54-3.43c-.12,0-.22-.14-.22-.32v-1.9c0-.18,.1-.32,.22-.32s.22,.14,.22,.32v1.9c0,.18-.1,.32-.22,.32Zm-45.54-.37c-.12,0-.22-.14-.22-.32v-1.9c0-.18,.1-.32,.22-.32s.22,.14,.22,.32v1.9c0,.18-.1,.32-.22,.32Zm45.54-3.43c-.12,0-.22-.14-.22-.32v-1.9c0-.18,.1-.32,.22-.32s.22,.14,.22,.32v1.9c0,.18-.1,.32-.22,.32Zm-45.54-.37c-.12,0-.22-.14-.22-.32v-1.9c0-.18,.1-.32,.22-.32s.22,.14,.22,.32v1.9c0,.18-.1,.32-.22,.32Zm45.54-3.43c-.12,0-.22-.14-.22-.32v-1.9c0-.18,.1-.32,.22-.32s.22,.14,.22,.32v1.9c0,.18-.1,.32-.22,.32Zm-45.54-.37c-.12,0-.22-.14-.22-.32v-1.9c0-.18,.1-.32,.22-.32s.22,.14,.22,.32v1.9c0,.18-.1,.32-.22,.32Zm45.45-3.42c-.1,0-.19-.09-.21-.23-.11-.55-.33-1.04-.64-1.42-.09-.11-.11-.31-.03-.45,.08-.13,.22-.15,.31-.04,.38,.46,.65,1.05,.78,1.72,.03,.17-.03,.34-.15,.39-.02,0-.04,.01-.06,.01Zm-45.28-.35s-.06,0-.09-.02c-.11-.07-.17-.25-.12-.41,.19-.65,.51-1.2,.92-1.59,.1-.1,.24-.06,.31,.09,.07,.15,.04,.34-.06,.44-.34,.32-.6,.77-.75,1.3-.04,.12-.12,.2-.21,.2Zm43.36-1.97h-.03c-.08-.02-.16-.02-.24-.02h-1.07c-.12,0-.22-.14-.22-.32s.1-.32,.22-.32h1.07c.1,0,.19,0,.29,.02,.12,.02,.21,.18,.2,.35-.01,.16-.11,.28-.22,.28Zm-2.66-.02h-1.33c-.12,0-.22-.14-.22-.32s.1-.32,.22-.32h1.33c.12,0,.22,.14,.22,.32s-.1,.32-.22,.32Zm-2.66,0h-1.33c-.12,0-.22-.14-.22-.32s.1-.32,.22-.32h1.33c.12,0,.22,.14,.22,.32s-.1,.32-.22,.32Zm-2.66,0h-1.33c-.12,0-.22-.14-.22-.32s.1-.32,.22-.32h1.33c.12,0,.22,.14,.22,.32s-.1,.32-.22,.32Zm-2.66,0h-1.33c-.12,0-.22-.14-.22-.32s.1-.32,.22-.32h1.33c.12,0,.22,.14,.22,.32s-.1,.32-.22,.32Zm-2.66,0h-1.33c-.12,0-.22-.14-.22-.32s.1-.32,.22-.32h1.33c.12,0,.22,.14,.22,.32s-.1,.32-.22,.32Zm-2.66,0h-1.33c-.12,0-.22-.14-.22-.32s.1-.32,.22-.32h1.33c.12,0,.22,.14,.22,.32s-.1,.32-.22,.32Zm-2.66,0h-1.33c-.12,0-.22-.14-.22-.32s.1-.32,.22-.32h1.33c.12,0,.22,.14,.22,.32s-.1,.32-.22,.32Zm-2.66,0h-1.33c-.12,0-.22-.14-.22-.32s.1-.32,.22-.32h1.33c.12,0,.22,.14,.22,.32s-.1,.32-.22,.32Zm-2.66,0h-1.33c-.12,0-.22-.14-.22-.32s.1-.32,.22-.32h1.33c.12,0,.22,.14,.22,.32s-.1,.32-.22,.32Zm-2.66,0h-1.33c-.12,0-.22-.14-.22-.32s.1-.32,.22-.32h1.33c.12,0,.22,.14,.22,.32s-.1,.32-.22,.32Zm-2.66,0h-1.33c-.12,0-.22-.14-.22-.32s.1-.32,.22-.32h1.33c.12,0,.22,.14,.22,.32s-.1,.32-.22,.32Zm-2.66,0h-1.33c-.12,0-.22-.14-.22-.32s.1-.32,.22-.32h1.33c.12,0,.22,.14,.22,.32s-.1,.32-.22,.32Zm-2.66,0h-1.33c-.12,0-.22-.14-.22-.32s.1-.32,.22-.32h1.33c.12,0,.22,.14,.22,.32s-.1,.32-.22,.32Zm-2.66,0h-1.33c-.12,0-.22-.14-.22-.32s.1-.32,.22-.32h1.33c.12,0,.22,.14,.22,.32s-.1,.32-.22,.32Zm-2.66,0h-1.33c-.12,0-.22-.14-.22-.32s.1-.32,.22-.32h1.33c.12,0,.22,.14,.22,.32s-.1,.32-.22,.32Z"/><g><g><path class="cls-30" d="M284.82,53.43v81.3c0,1.77,1.18,3.2,2.63,3.2h113.17c1.46,0,2.64-1.43,2.64-3.2V53.43c0-1.76-1.18-3.19-2.64-3.19h-113.17c-1.45,0-2.63,1.43-2.63,3.19Z"/><path class="cls-21" d="M284.82,53.43v5.82h118.44v-5.82c0-1.76-1.18-3.19-2.64-3.19h-113.17c-1.45,0-2.63,1.43-2.63,3.19Z"/></g><g><polygon class="cls-6" points="367.93 114.5 320.15 114.5 320.46 113.96 344.03 73.12 367.62 113.96 367.93 114.5"/><path class="cls-6" d="M367.93,114.5c0,1.84-10.69,3.33-23.9,3.33s-23.88-1.49-23.88-3.33c0-.19,.1-.37,.31-.54,1.81-1.59,11.69-2.8,23.58-2.8s21.78,1.21,23.59,2.8c.2,.18,.31,.35,.31,.54Z"/><path class="cls-24" d="M367.93,114.5c0,1.84-10.69,3.33-23.9,3.33v-44.71l23.59,40.84c.2,.18,.31,.35,.31,.54Z"/></g></g><g><g><path class="cls-30" d="M557.61,240.22v49.09c0,1.07,.71,1.93,1.59,1.93h68.34c.88,0,1.59-.86,1.59-1.93v-49.09c0-1.06-.71-1.93-1.59-1.93h-68.34c-.88,0-1.59,.86-1.59,1.93Z"/><path class="cls-21" d="M557.61,240.22v3.52h71.52v-3.52c0-1.06-.71-1.93-1.59-1.93h-68.34c-.88,0-1.59,.86-1.59,1.93Z"/></g><g><g><polyline class="cls-10" points="616.91 280.03 616.91 280.68 616.26 280.68"/><line class="cls-8" x1="614.95" y1="280.68" x2="571.33" y2="280.68"/><polyline class="cls-10" points="570.68 280.68 570.03 280.68 570.03 280.03"/><line class="cls-14" x1="570.03" y1="278.67" x2="570.03" y2="254.96"/><polyline class="cls-10" points="570.03 254.29 570.03 253.64 570.68 253.64"/><line class="cls-8" x1="571.98" y1="253.64" x2="615.6" y2="253.64"/><polyline class="cls-10" points="616.26 253.64 616.91 253.64 616.91 254.29"/><line class="cls-14" x1="616.91" y1="255.64" x2="616.91" y2="279.35"/></g><g><rect class="cls-6" x="615.49" y="252.67" width="2.32" height="2.32"/><rect class="cls-6" x="615.49" y="279.44" width="2.32" height="2.32"/></g><g><rect class="cls-6" x="568.94" y="252.67" width="2.32" height="2.32"/><rect class="cls-6" x="568.94" y="279.44" width="2.32" height="2.32"/></g></g><circle class="cls-17" cx="601.61" cy="267.21" r="7.86"/><circle class="cls-6" cx="593.37" cy="267.21" r="7.86"/><circle class="cls-5" cx="584.61" cy="267.21" r="7.86"/></g><g><rect class="cls-17" x="480.9" y="25" width="75.34" height="187.63"/><line class="cls-11" x1="518.57" y1="38.39" x2="518.57" y2="199.24"/><line class="cls-11" x1="489.28" y1="71.04" x2="547.85" y2="71.04"/><line class="cls-11" x1="489.28" y1="113.75" x2="547.85" y2="113.75"/><line class="cls-11" x1="489.28" y1="156.46" x2="547.85" y2="156.46"/><line class="cls-11" x1="489.28" y1="199.17" x2="547.85" y2="199.17"/><line class="cls-11" x1="489.28" y1="38.46" x2="547.85" y2="38.46"/><g><polygon class="cls-13" points="499.7 46.35 497.6 62.18 503.41 57.86 510.83 57.8 499.7 46.35"/><polygon class="cls-6" points="531.35 46.35 529.26 62.18 535.07 57.86 542.49 57.8 531.35 46.35"/><g><path class="cls-6" d="M504.48,88.1h6.26c.36,0,.64,.29,.64,.64v2.16h-7.55v-2.16c0-.36,.29-.64,.64-.64Z" transform="translate(211.96 -332.72) rotate(45)"/><path class="cls-6" d="M507.96,96.34l1.12-2.95-5.37-5.37-2.95,1.12c-.57,.21-1.01,.68-1.21,1.27l-3.31,10.19,5.13-5.13c-.16-.26-.12-.61,.11-.84,.27-.27,.72-.27,.98,0s.27,.72,0,.99c-.22,.22-.56,.26-.82,.11l-5.13,5.13h0l10.18-3.32c.59-.19,1.05-.63,1.27-1.21Z"/></g><g><g><path class="cls-6" d="M537.34,88.1h6.26c.36,0,.64,.29,.64,.64v2.16h-7.55v-2.16c0-.36,.29-.64,.64-.64Z" transform="translate(221.58 -355.96) rotate(45)"/><path class="cls-6" d="M540.82,96.34l1.12-2.95-5.37-5.37-2.95,1.12c-.57,.21-1.01,.68-1.21,1.27l-3.31,10.19,5.13-5.13c-.16-.26-.12-.61,.11-.84,.27-.27,.72-.27,.98,0s.27,.72,0,.99c-.22,.22-.56,.26-.82,.11l-5.13,5.13h0l10.18-3.32c.59-.19,1.05-.63,1.27-1.21Z"/></g><path class="cls-16" d="M528.88,100.94s-2.15,.74-2.92-1.2c-1.41-3.54,4.02-9.76-.24-8.56"/></g><g><path class="cls-15" d="M527.59,137.03h6.8v5.97c0,.46-.37,.83-.83,.83h-5.14c-.46,0-.83-.37-.83-.83v-5.97h0Z" transform="translate(254.82 -334.34) rotate(45)"/><rect class="cls-6" x="531.54" y="128.92" width="10.14" height="11.8" rx=".91" ry=".91" transform="translate(252.5 -339.95) rotate(45)"/></g><rect class="cls-15" x="496.16" y="129.54" width="12.37" height="12.37"/><g><rect class="cls-6" x="499.2" y="173.2" width="5.86" height="12.23" transform="translate(273.87 -302.53) rotate(45)"/><polygon class="cls-6" points="494.07 187.24 494.07 187.24 495.28 182.02 499.42 186.16 494.07 187.24"/><path class="cls-6" d="M505.29,172.28h5.07c.22,0,.39,.18,.39,.39v2.27h-5.86v-2.27c0-.22,.18-.39,.39-.39Z" transform="translate(271.5 -308.24) rotate(45)"/></g><path class="cls-6" d="M534.32,175.54h-3.86v-1.39h9.39v1.39h-3.88v11.29h-1.66v-11.29Z"/></g></g><g><rect class="cls-17" x="81.47" y="154.3" width="64.57" height="38.05" rx="1.71" ry="1.71"/><path class="cls-6" d="M141.36,178.27v9.7h-55.22l11.19-11.39c2.83-2.88,7.42-3.01,10.41-.3l5.94,5.38,9.5-10.1c2.83-3.01,7.57-3.17,10.59-.35l7.59,7.06Z"/><circle class="cls-6" cx="102.61" cy="165.06" r="3.64"/></g><g><rect class="cls-20" x="127.5" y="31.87" width="64.57" height="38.05" rx="1.71" ry="1.71"/><path class="cls-6" d="M187.4,55.84v9.7h-55.22l11.19-11.39c2.83-2.88,7.42-3.01,10.41-.3l5.94,5.38,9.5-10.1c2.83-3.01,7.57-3.17,10.59-.35l7.59,7.06Z"/><circle class="cls-6" cx="148.65" cy="42.63" r="3.64"/></g><g><path class="cls-26" d="M159.68,379.88c-1.05-2.41-5.25-11.65-6.28-17.5-1.03-5.85-4.21-10.6-4.3-13.52-.09-2.92,4.71-4.64,5.96-10.64,1.26-6,3.77-15.79,5.33-15.49,1.56,.3,2.62,11.04,4.1,13.7,1.48,2.65,5.48,5.94,2.38,9.76-3.1,3.82-1.44,8.38,1.4,12.37s-5.21,8.95-4.42,14.38c.79,5.42-.71,12.72-.71,12.72l-3.47-5.77Z"/><path class="cls-6" d="M161.07,367.96c-.24,0-.44-.18-.47-.42-.39-3.57-1.48-6.3-2.35-8.49-.69-1.73-1.28-3.22-1.34-4.62-.07-1.71,.9-3.05,1.83-4.34,.86-1.19,1.76-2.43,1.97-4.06,.45-3.4-2.62-10.95-2.65-11.03-.1-.24,.02-.52,.26-.62,.24-.1,.52,.02,.62,.26,.13,.32,3.19,7.86,2.72,11.51-.24,1.86-1.25,3.26-2.14,4.49-.91,1.26-1.7,2.36-1.65,3.75,.05,1.24,.59,2.59,1.27,4.31,.89,2.24,2,5.04,2.41,8.74,.03,.26-.16,.49-.42,.52-.02,0-.04,0-.05,0Z"/><path class="cls-26" d="M151.68,378.08c-1.16-.52-1.54-6.85-3.66-7.8-2.13-.95-3.66-3.9-4.37-6.97s-6.97-4.37-8.15-7.68c-1.18-3.31,2.36-5.67,2.13-8.74-.24-3.07-2.84-7.44-.95-9.45,1.89-2.01,5.2,4.96,6.97,6.38,1.77,1.42,5.2,2.95,4.25,5.55-.95,2.6,.35,6.85,6.5,9.22,6.14,2.36,10.16,25.28-2.72,19.49Z"/><path class="cls-6" d="M152.63,367.21c-.2,0-.38-.13-.45-.33-1.21-3.69-3.11-5.15-5.31-6.84-1.14-.87-2.31-1.77-3.45-3.04-3.44-3.81-1.83-10.43-1.76-10.71,.06-.25,.32-.41,.57-.34,.25,.06,.41,.32,.34,.57-.02,.06-1.55,6.42,1.55,9.85,.93,1.03,2.04,1.94,3.33,2.92,2.23,1.71,4.33,3.32,5.63,7.29,.08,.25-.05,.52-.3,.6-.05,.02-.1,.02-.15,.02Z"/><path class="cls-26" d="M163.14,378.79c.32-.95,.63-5.04,2.84-5.99,2.21-.95,4.41-1.58,6.14-4.41,1.73-2.84,0-7.25,1.89-10.24,1.89-2.99,6.14-.16,8.35-3.15,2.21-2.99-2.68-8.19-.95-10.4,1.73-2.21,4.1-8.19,1.73-8.98-2.36-.79-8.98,3.47-10.71,7.25-1.73,3.78-5.2,5.99-5.99,8.98-.79,2.99-3.31,4.57-3.94,7.56-.63,2.99,.32,7.56-.79,10.87-1.1,3.31,1.42,8.51,1.42,8.51Z"/><path class="cls-7" d="M168.78,395.8h-19.79c-1.42,0-2.6-1.12-2.65-2.55l-.84-21.08h26.78l-.84,21.08c-.06,1.42-1.23,2.55-2.65,2.55Z"/><path class="cls-6" d="M167.55,367.42s-.02,0-.04,0c-.26-.02-.46-.25-.44-.51,.6-8.17,3.43-12.61,6.41-16.18,2.27-2.72,3.67-7.96,3.69-8.01,.07-.25,.32-.41,.58-.34,.25,.07,.4,.33,.34,.58-.06,.22-1.47,5.49-3.87,8.37-2.88,3.45-5.62,7.74-6.19,15.64-.02,.25-.23,.44-.47,.44Z"/></g><g><rect class="cls-21" x="89.89" y="267.63" width="88.65" height="29.69"/><g><circle class="cls-6" cx="109.46" cy="282.99" r="6.7"/><circle class="cls-30" cx="125.96" cy="282.99" r="6.7"/><circle class="cls-23" cx="142.46" cy="282.99" r="6.7"/><circle class="cls-28" cx="158.96" cy="282.99" r="6.7"/></g></g><g><path class="cls-29" d="M378.16,242.44c-27.8,1.11-77.33,143.63-57.98,146.38,26.08,18.08,102.97-139.18,57.98-146.38Z"/><path class="cls-5" d="M380.37,236.78l-.25,35.02-.53,69.09s-.55,.89-1.52,2.49c-.25,.39-.5,.83-.8,1.3-.89,1.41-1.99,3.21-3.26,5.31l-15.66-10.54-29.79-20.05c7.63-19.67,15.52-38.67,21.1-49.04,14.83-27.6,30.7-33.58,30.7-33.58Z"/><path class="cls-3" d="M380.12,271.8l-.53,69.09s-.55,.89-1.52,2.49c-.25,.39-.5,.8-.8,1.3-.89,1.41-1.99,3.21-3.26,5.31l-15.66-10.54c.55-19.47,.25-28.13,0-43.26-.28-16.01,4.95-36.76,4.95-36.76,0,0,8.46,6.2,16.82,12.36Z"/><g><polygon class="cls-29" points="450.09 241.48 427.31 258.57 411.07 244.08 411.07 222.23 443.55 196.75 444.12 200.64 445.81 212.27 450.09 241.48"/><path class="cls-1" d="M445.81,212.27c-19.53,16.04-32.63,15.15-34.75,15.53-.12,.01-.18,.03-.18,.03l.18-.16,30.28-26.85s1.2-.16,2.78-.18l1.69,11.63Z"/><g><path class="cls-29" d="M446.35,201.33s-6.02,13.43-20.03,20.26c-6.57,3.21-14.02,7.55-21.62,6.06-6.71-1.32-10.25-7.99-13.11-13.52-2.79-5.39-4.08-11.46-4.09-17.52-.01-6.53,.34-12.86-1.07-19.29-1.11-5.07-2.74-11.42,.3-16.16,3.94-6.14,34.61-13.78,34.61-13.78l18.06,9.96,13.66,9.03-6.71,34.96Z"/><path class="cls-7" d="M405.02,162.09s.93,4.98,6.14,7.18c0,0-9.84,1.16-15.74-3.24,0,0,2.78,4.28,5.09,4.98,0,0-12.27,.58-16.21-3.94l1.39,7.76s-7.18-7.18-7.06-15.86c.08-6.16,2.85-11.82,4.74-17.55,1.24-3.77,3.06-8.02,6.75-9.99,9.84-5.23,21.79-4.36,32.24-1.68,8.32,2.13,16.9,5.04,23.59,10.61,17.77,14.78,10.9,47.44-1.02,63.8,0,0-1.47-14.97-1.7-19.6s-4.4-5.79-4.28-3.59c.12,2.2-.24,13.01-2.55,12.89s-3.22-19.02-8.77-22.96c-5.56-3.94-18.08-5.1-22.59-8.8Z"/></g></g><path class="cls-5" d="M519.26,397.06h-151.81c-3.84-47.34-8.95-121.06-4.78-136.36,4.79-17.59,14.2-24.74,28.57-27.83,4.34-.92,14.59-2.02,19.85-2.37,4.43,24.15,37.67,.48,37.67,.48,0,0,7.96,.79,13.72,1.16,13.47,.83,36.63,5.21,41.28,25.18,2.25,9.66,4.91,34.85,7.74,63.35,1.58,16.1,3.21,33.26,4.85,49.28,.98,9.6,1.94,18.78,2.91,27.1Z"/><path class="cls-3" d="M475.26,286.61s20.81,58.25,23.15,65.28c2.34,7.03,1.04,12.76-9.37,17.18-10.41,4.43,16.4,12.5,16.92,10.93s35.14-31.76,33.06-33.58c-2.08-1.82-63.76-59.81-63.76-59.81Z"/><path class="cls-2" d="M484.53,248.23c-18.54,20.75,49.44,155.45,64.88,143.46,31.13-6.17-28.42-170.78-64.88-143.46Z"/><path class="cls-29" d="M545.23,317.01s22.39,56.23,12.76,68.73c-9.63,12.5-102,19.63-102,19.63l-3.96-25.36s64.17-15.75,64.36-16.73-15.62-28.7-15.62-28.7l44.45-17.57Z"/><path class="cls-29" d="M559.89,379.38c-.06,4.45-2.8,8.47-6.66,10.69-30.14,17.35-163.53,19.54-159.78,10.16-.19-7.17,166.89-54.3,166.44-20.85Z"/><path class="cls-5" d="M499.81,338.1v-.03c-9.49-17.29-21.41-40.19-24.56-51.45,0,0-20.83-42.82-5.34-49.87,2.07-.94,6.44-2.46,8.57-1.94,15.85,3.84,32.39,15.3,43.54,31.42,7.44,10.73,17.34,30.4,25.56,50.98,0,0,.03,.03,.03,.06l-47.8,20.83Z"/><g><path d="M299.15,390.12h106.99v6.67h-102.24c-2.63,0-4.76-2.13-4.76-4.76v-1.91h0Z" transform="translate(705.29 786.92) rotate(180)"/><path class="cls-7" d="M214.02,396.79h137.29l-13.17-84.39c-.38-2.45-2.49-4.25-4.96-4.25h-127.12c-3.08,0-5.44,2.75-4.96,5.8l12.93,82.84Z"/></g><path class="cls-29" d="M357.44,410.9c.22-.67,10.88-22.2,22.86-24.2,11.99-2,28.41,4,30.63,4s7.33-.44,7.33-.44l3.55,14.21s-9.43-.11-10.77,1.44c-1.33,1.55-1.89,3.77-6.88,3.77s-10.1-4.66-16.2-4.66-10.54,7.1-15.98,7.1-14.54-1.22-14.54-1.22Z"/></g><g><rect class="cls-30" x="74.83" y="395.69" width="589.5" height="8.25"/><rect class="cls-21" x="86.3" y="403.93" width="564.06" height="16"/><rect class="cls-28" x="484.7" y="403.93" width="165.66" height="16"/><rect class="cls-23" x="474.26" y="395.69" width="190.07" height="8.25"/></g></g><g><rect class="cls-17" x="129.83" y="207.93" width="24.81" height="2.11" rx=".7" ry=".7"/><g><path class="cls-30" d="M141.93,217.28h-11.38c-.4,0-.72-.32-.72-.72h0c0-.4,.32-.72,.72-.72h11.38c.4,0,.72,.32,.72,.72h0c0,.4-.32,.72-.72,.72Z"/><g><path class="cls-30" d="M130.3,212.83h20.54c.26,0,.47,.21,.47,.47v.49c0,.26-.21,.47-.47,.47h-20.54c-.26,0-.47-.21-.47-.47v-.49c0-.26,.21-.47,.47-.47Z"/><path class="cls-30" d="M153.75,212.83h19.11c.26,0,.47,.21,.47,.47v.49c0,.26-.21,.47-.47,.47h-19.11c-.26,0-.47-.21-.47-.47v-.49c0-.26,.21-.47,.47-.47Z"/><path class="cls-30" d="M156.13,217.28h-11.38c-.4,0-.72-.32-.72-.72h0c0-.4,.32-.72,.72-.72h11.38c.4,0,.72,.32,.72,.72h0c0,.4-.32,.72-.72,.72Z"/></g></g><rect class="cls-17" x="157.92" y="207.93" width="24.81" height="2.11" rx=".7" ry=".7"/></g><g><rect class="cls-5" x="129.83" y="223.78" width="24.81" height="2.1" rx=".7" ry=".7"/><g><path class="cls-30" d="M141.93,233.13h-11.38c-.4,0-.72-.32-.72-.72h0c0-.4,.32-.72,.72-.72h11.38c.4,0,.72,.32,.72,.72h0c0,.4-.32,.72-.72,.72Z"/><g><path class="cls-30" d="M130.3,228.68h20.54c.26,0,.47,.21,.47,.47v.49c0,.26-.21,.47-.47,.47h-20.54c-.26,0-.47-.21-.47-.47v-.49c0-.26,.21-.47,.47-.47Z"/><path class="cls-30" d="M153.75,228.68h19.11c.26,0,.47,.21,.47,.47v.49c0,.26-.21,.47-.47,.47h-19.11c-.26,0-.47-.21-.47-.47v-.49c0-.26,.21-.47,.47-.47Z"/><path class="cls-30" d="M156.13,233.13h-11.38c-.4,0-.72-.32-.72-.72h0c0-.4,.32-.72,.72-.72h11.38c.4,0,.72,.32,.72,.72h0c0,.4-.32,.72-.72,.72Z"/></g></g><rect class="cls-5" x="157.92" y="223.78" width="24.81" height="2.1" rx=".7" ry=".7"/></g><path class="cls-30" d="M334.59,230.38h-1.81c-.16,0-.3-.13-.3-.3s.13-.3,.3-.3h1.79c.16,0,.3,.13,.3,.3s-.13,.3-.29,.3Zm-3.6,0h-1.79c-.16,0-.3-.13-.3-.3s.13-.3,.3-.3h1.79c.16,0,.3,.13,.3,.3s-.13,.3-.3,.3Zm-3.58,0h-1.79c-.16,0-.3-.13-.3-.3s.13-.3,.3-.3h1.79c.16,0,.3,.13,.3,.3s-.13,.3-.3,.3Zm-3.58,0h-1.79c-.16,0-.3-.13-.3-.3s.13-.3,.3-.3h1.79c.16,0,.3,.13,.3,.3s-.13,.3-.3,.3Zm-3.58,0h-1.79c-.16,0-.3-.13-.3-.3s.13-.3,.3-.3h1.79c.16,0,.3,.13,.3,.3s-.13,.3-.3,.3Zm-3.58,0h-1.79c-.16,0-.3-.13-.3-.3s.13-.3,.3-.3h1.79c.16,0,.3,.13,.3,.3s-.13,.3-.3,.3Zm-3.58,0h-1.79c-.16,0-.3-.13-.3-.3s.13-.3,.3-.3h1.79c.16,0,.3,.13,.3,.3s-.13,.3-.3,.3Zm-3.58,0h-1.79c-.16,0-.3-.13-.3-.3s.13-.3,.3-.3h1.79c.16,0,.3,.13,.3,.3s-.13,.3-.3,.3Zm-3.58,0h-1.79c-.16,0-.3-.13-.3-.3s.13-.3,.3-.3h1.79c.16,0,.3,.13,.3,.3s-.13,.3-.3,.3Zm-3.58,0h-1.73s-.05,0-.08,0c-.16,0-.29-.15-.28-.31,0-.16,.14-.29,.31-.28,.02,0,.03,0,.05,0h1.73c.16,0,.3,.13,.3,.3s-.13,.3-.3,.3Zm33.44-1.14h0c-.16,0-.29-.14-.29-.31v-1.78c0-.16,.13-.3,.3-.3s.3,.13,.3,.3v1.8c0,.16-.14,.29-.3,.29Zm-36.34-.05c-.16,0-.3-.13-.3-.3v-1.79c0-.16,.13-.3,.3-.3s.3,.13,.3,.3v1.79c0,.16-.13,.3-.3,.3Zm36.34-3.54c-.16,0-.3-.13-.3-.3v-1.79c0-.16,.13-.3,.3-.3s.3,.13,.3,.3v1.79c0,.16-.13,.3-.3,.3Zm-36.34-.05c-.16,0-.3-.13-.3-.3v-1.79c0-.16,.13-.3,.3-.3s.3,.13,.3,.3v1.79c0,.16-.13,.3-.3,.3Zm36.34-3.54c-.16,0-.3-.13-.3-.3v-1.79c0-.16,.13-.3,.3-.3s.3,.13,.3,.3v1.79c0,.16-.13,.3-.3,.3Zm-36.34-.05c-.16,0-.3-.13-.3-.3v-1.75s0-.04,0-.06c0-.16,.14-.29,.31-.28,.16,0,.29,.14,.28,.31v1.78c0,.16-.13,.3-.3,.3Zm35.22-2.92h-1.79c-.16,0-.3-.13-.3-.3s.13-.3,.3-.3h1.74s.05,0,.07,0c.16,0,.29,.15,.28,.31,0,.16-.14,.28-.3,.28Zm-3.59,0h-1.79c-.16,0-.3-.13-.3-.3s.13-.3,.3-.3h1.79c.16,0,.3,.13,.3,.3s-.13,.3-.3,.3Zm-3.58,0h-1.79c-.16,0-.3-.13-.3-.3s.13-.3,.3-.3h1.79c.16,0,.3,.13,.3,.3s-.13,.3-.3,.3Zm-3.58,0h-1.79c-.16,0-.3-.13-.3-.3s.13-.3,.3-.3h1.79c.16,0,.3,.13,.3,.3s-.13,.3-.3,.3Zm-3.58,0h-1.79c-.16,0-.3-.13-.3-.3s.13-.3,.3-.3h1.79c.16,0,.3,.13,.3,.3s-.13,.3-.3,.3Zm-3.58,0h-1.79c-.16,0-.3-.13-.3-.3s.13-.3,.3-.3h1.79c.16,0,.3,.13,.3,.3s-.13,.3-.3,.3Zm-3.58,0h-1.79c-.16,0-.3-.13-.3-.3s.13-.3,.3-.3h1.79c.16,0,.3,.13,.3,.3s-.13,.3-.3,.3Zm-3.58,0h-1.79c-.16,0-.3-.13-.3-.3s.13-.3,.3-.3h1.79c.16,0,.3,.13,.3,.3s-.13,.3-.3,.3Zm-3.58,0h-1.79c-.16,0-.3-.13-.3-.3s.13-.3,.3-.3h1.79c.16,0,.3,.13,.3,.3s-.13,.3-.3,.3Zm-3.58,0h-1.79c-.16,0-.3-.13-.3-.3s.13-.3,.29-.3h1.79c.16,0,.3,.13,.3,.3s-.13,.3-.3,.3Z"/><path class="cls-30" d="M334.59,246.93h-1.81c-.16,0-.3-.13-.3-.3s.13-.3,.3-.3h1.79c.16,0,.3,.13,.3,.3s-.13,.3-.29,.3Zm-3.6,0h-1.79c-.16,0-.3-.13-.3-.3s.13-.3,.3-.3h1.79c.16,0,.3,.13,.3,.3s-.13,.3-.3,.3Zm-3.58,0h-1.79c-.16,0-.3-.13-.3-.3s.13-.3,.3-.3h1.79c.16,0,.3,.13,.3,.3s-.13,.3-.3,.3Zm-3.58,0h-1.79c-.16,0-.3-.13-.3-.3s.13-.3,.3-.3h1.79c.16,0,.3,.13,.3,.3s-.13,.3-.3,.3Zm-3.58,0h-1.79c-.16,0-.3-.13-.3-.3s.13-.3,.3-.3h1.79c.16,0,.3,.13,.3,.3s-.13,.3-.3,.3Zm-3.58,0h-1.79c-.16,0-.3-.13-.3-.3s.13-.3,.3-.3h1.79c.16,0,.3,.13,.3,.3s-.13,.3-.3,.3Zm-3.58,0h-1.79c-.16,0-.3-.13-.3-.3s.13-.3,.3-.3h1.79c.16,0,.3,.13,.3,.3s-.13,.3-.3,.3Zm-3.58,0h-1.79c-.16,0-.3-.13-.3-.3s.13-.3,.3-.3h1.79c.16,0,.3,.13,.3,.3s-.13,.3-.3,.3Zm-3.58,0h-1.79c-.16,0-.3-.13-.3-.3s.13-.3,.3-.3h1.79c.16,0,.3,.13,.3,.3s-.13,.3-.3,.3Zm-3.58,0h-1.73s-.05,0-.08,0c-.16,0-.29-.15-.28-.31,0-.16,.14-.29,.31-.28,.02,0,.03,0,.05,0h1.73c.16,0,.3,.13,.3,.3s-.13,.3-.3,.3Zm33.44-1.14h0c-.16,0-.29-.14-.29-.31v-1.78c0-.16,.13-.3,.3-.3s.3,.13,.3,.3v1.8c0,.16-.14,.29-.3,.29Zm-36.34-.05c-.16,0-.3-.13-.3-.3v-1.79c0-.16,.13-.3,.3-.3s.3,.13,.3,.3v1.79c0,.16-.13,.3-.3,.3Zm36.34-3.54c-.16,0-.3-.13-.3-.3v-1.79c0-.16,.13-.3,.3-.3s.3,.13,.3,.3v1.79c0,.16-.13,.3-.3,.3Zm-36.34-.05c-.16,0-.3-.13-.3-.3v-1.79c0-.16,.13-.3,.3-.3s.3,.13,.3,.3v1.79c0,.16-.13,.3-.3,.3Zm36.34-3.54c-.16,0-.3-.13-.3-.3v-1.79c0-.16,.13-.3,.3-.3s.3,.13,.3,.3v1.79c0,.16-.13,.3-.3,.3Zm-36.34-.05c-.16,0-.3-.13-.3-.3v-1.75s0-.04,0-.06c0-.16,.14-.29,.31-.28,.16,0,.29,.14,.28,.31v1.78c0,.16-.13,.3-.3,.3Zm35.22-2.92h-1.79c-.16,0-.3-.13-.3-.3s.13-.3,.3-.3h1.74s.05,0,.07,0c.16,0,.29,.15,.28,.31,0,.16-.14,.28-.3,.28Zm-3.59,0h-1.79c-.16,0-.3-.13-.3-.3s.13-.3,.3-.3h1.79c.16,0,.3,.13,.3,.3s-.13,.3-.3,.3Zm-3.58,0h-1.79c-.16,0-.3-.13-.3-.3s.13-.3,.3-.3h1.79c.16,0,.3,.13,.3,.3s-.13,.3-.3,.3Zm-3.58,0h-1.79c-.16,0-.3-.13-.3-.3s.13-.3,.3-.3h1.79c.16,0,.3,.13,.3,.3s-.13,.3-.3,.3Zm-3.58,0h-1.79c-.16,0-.3-.13-.3-.3s.13-.3,.3-.3h1.79c.16,0,.3,.13,.3,.3s-.13,.3-.3,.3Zm-3.58,0h-1.79c-.16,0-.3-.13-.3-.3s.13-.3,.3-.3h1.79c.16,0,.3,.13,.3,.3s-.13,.3-.3,.3Zm-3.58,0h-1.79c-.16,0-.3-.13-.3-.3s.13-.3,.3-.3h1.79c.16,0,.3,.13,.3,.3s-.13,.3-.3,.3Zm-3.58,0h-1.79c-.16,0-.3-.13-.3-.3s.13-.3,.3-.3h1.79c.16,0,.3,.13,.3,.3s-.13,.3-.3,.3Zm-3.58,0h-1.79c-.16,0-.3-.13-.3-.3s.13-.3,.3-.3h1.79c.16,0,.3,.13,.3,.3s-.13,.3-.3,.3Zm-3.58,0h-1.79c-.16,0-.3-.13-.3-.3s.13-.3,.29-.3h1.79c.16,0,.3,.13,.3,.3s-.13,.3-.3,.3Z"/><path class="cls-30" d="M183.66,247.11h-1.79c-.16,0-.3-.13-.3-.3s.13-.3,.3-.3h1.78c.16,0,.3,.13,.3,.3s-.13,.3-.29,.3Zm-3.57,0h-1.78c-.16,0-.3-.13-.3-.3s.13-.3,.3-.3h1.78c.16,0,.3,.13,.3,.3s-.13,.3-.3,.3Zm-3.55,0h-1.78c-.16,0-.3-.13-.3-.3s.13-.3,.3-.3h1.78c.16,0,.3,.13,.3,.3s-.13,.3-.3,.3Zm-3.55,0h-1.78c-.16,0-.3-.13-.3-.3s.13-.3,.3-.3h1.78c.16,0,.3,.13,.3,.3s-.13,.3-.3,.3Zm-3.55,0h-1.78c-.16,0-.3-.13-.3-.3s.13-.3,.3-.3h1.78c.16,0,.3,.13,.3,.3s-.13,.3-.3,.3Zm-3.55,0h-1.78c-.16,0-.3-.13-.3-.3s.13-.3,.3-.3h1.78c.16,0,.3,.13,.3,.3s-.13,.3-.3,.3Zm-3.55,0h-1.78c-.16,0-.3-.13-.3-.3s.13-.3,.3-.3h1.78c.16,0,.3,.13,.3,.3s-.13,.3-.3,.3Zm-3.55,0h-1.78c-.16,0-.3-.13-.3-.3s.13-.3,.3-.3h1.78c.16,0,.3,.13,.3,.3s-.13,.3-.3,.3Zm-3.55,0h-1.78c-.16,0-.3-.13-.3-.3s.13-.3,.3-.3h1.78c.16,0,.3,.13,.3,.3s-.13,.3-.3,.3Zm-3.55,0h-1.78c-.16,0-.3-.13-.3-.3s.13-.3,.3-.3h1.78c.16,0,.3,.13,.3,.3s-.13,.3-.3,.3Zm-3.55,0h-1.78c-.16,0-.3-.13-.3-.3s.13-.3,.3-.3h1.78c.16,0,.3,.13,.3,.3s-.13,.3-.3,.3Zm-3.55,0h-1.78c-.16,0-.3-.13-.3-.3s.13-.3,.3-.3h1.78c.16,0,.3,.13,.3,.3s-.13,.3-.3,.3Zm-3.55,0h-1.78c-.16,0-.3-.13-.3-.3s.13-.3,.3-.3h1.78c.16,0,.3,.13,.3,.3s-.13,.3-.3,.3Zm-3.55,0h-1.78c-.16,0-.3-.13-.3-.3s.13-.3,.3-.3h1.78c.16,0,.3,.13,.3,.3s-.13,.3-.3,.3Zm-3.55,0h-1.78c-.16,0-.3-.13-.3-.3s.13-.3,.3-.3h1.78c.16,0,.3,.13,.3,.3s-.13,.3-.3,.3Zm-3.55,0h-1.42c-.13,0-.26,0-.39-.02-.16-.02-.28-.17-.26-.33,.02-.16,.17-.28,.33-.26,.11,.01,.21,.02,.32,.02h1.42c.16,0,.3,.13,.3,.3s-.13,.3-.3,.3Zm54.99-.51c-.1,0-.19-.05-.25-.13-.09-.14-.06-.32,.08-.41,.45-.3,.8-.72,1-1.22,.06-.15,.24-.22,.39-.16,.15,.06,.22,.24,.16,.39-.25,.61-.67,1.12-1.22,1.49-.05,.03-.11,.05-.17,.05Zm-58.38-.21c-.07,0-.14-.02-.19-.07-.5-.43-.86-.99-1.04-1.62-.05-.16,.05-.32,.2-.37,.16-.05,.32,.05,.37,.2,.15,.52,.44,.98,.86,1.33,.12,.11,.14,.29,.03,.42-.06,.07-.14,.1-.23,.1Zm59.72-2.89c-.16,0-.3-.13-.3-.3v-1.78c0-.16,.13-.3,.3-.3s.3,.13,.3,.3v1.78c0,.16-.13,.3-.3,.3Zm-60.78-.35c-.16,0-.3-.13-.3-.3v-1.78c0-.16,.13-.3,.3-.3s.3,.13,.3,.3v1.78c0,.16-.13,.3-.3,.3Zm60.78-3.21c-.16,0-.3-.13-.3-.3v-1.78c0-.16,.13-.3,.3-.3s.3,.13,.3,.3v1.78c0,.16-.13,.3-.3,.3Zm-60.78-.35c-.16,0-.3-.13-.3-.3v-1.78c0-.16,.13-.3,.3-.3s.3,.13,.3,.3v1.78c0,.16-.13,.3-.3,.3Zm60.78-3.21c-.16,0-.3-.13-.3-.3v-1.78c0-.16,.13-.3,.3-.3s.3,.13,.3,.3v1.78c0,.16-.13,.3-.3,.3Zm-60.78-.35c-.16,0-.3-.13-.3-.3v-1.78c0-.16,.13-.3,.3-.3s.3,.13,.3,.3v1.78c0,.16-.13,.3-.3,.3Zm60.78-3.21c-.16,0-.3-.13-.3-.3v-1.78c0-.16,.13-.3,.3-.3s.3,.13,.3,.3v1.78c0,.16-.13,.3-.3,.3Zm-60.78-.35c-.16,0-.3-.13-.3-.3v-1.78c0-.16,.13-.3,.3-.3s.3,.13,.3,.3v1.78c0,.16-.13,.3-.3,.3Zm60.78-3.21c-.16,0-.3-.13-.3-.3v-1.78c0-.16,.13-.3,.3-.3s.3,.13,.3,.3v1.78c0,.16-.13,.3-.3,.3Zm-60.78-.35c-.16,0-.3-.13-.3-.3v-1.78c0-.16,.13-.3,.3-.3s.3,.13,.3,.3v1.78c0,.16-.13,.3-.3,.3Zm60.78-3.21c-.16,0-.3-.13-.3-.3v-1.78c0-.16,.13-.3,.3-.3s.3,.13,.3,.3v1.78c0,.16-.13,.3-.3,.3Zm-60.78-.35c-.16,0-.3-.13-.3-.3v-1.78c0-.16,.13-.3,.3-.3s.3,.13,.3,.3v1.78c0,.16-.13,.3-.3,.3Zm60.78-3.21c-.16,0-.3-.13-.3-.3v-1.78c0-.16,.13-.3,.3-.3s.3,.13,.3,.3v1.78c0,.16-.13,.3-.3,.3Zm-60.78-.35c-.16,0-.3-.13-.3-.3v-1.78c0-.16,.13-.3,.3-.3s.3,.13,.3,.3v1.78c0,.16-.13,.3-.3,.3Zm60.78-3.21c-.16,0-.3-.13-.3-.3v-1.78c0-.16,.13-.3,.3-.3s.3,.13,.3,.3v1.78c0,.16-.13,.3-.3,.3Zm-60.78-.35c-.16,0-.3-.13-.3-.3v-1.78c0-.16,.13-.3,.3-.3s.3,.13,.3,.3v1.78c0,.16-.13,.3-.3,.3Zm60.78-3.21c-.16,0-.3-.13-.3-.3v-1.78c0-.16,.13-.3,.3-.3s.3,.13,.3,.3v1.78c0,.16-.13,.3-.3,.3Zm-60.78-.35c-.16,0-.3-.13-.3-.3v-1.78c0-.16,.13-.3,.3-.3s.3,.13,.3,.3v1.78c0,.16-.13,.3-.3,.3Zm60.78-3.21c-.16,0-.3-.13-.3-.3v-1.78c0-.16,.13-.3,.3-.3s.3,.13,.3,.3v1.78c0,.16-.13,.3-.3,.3Zm-60.78-.35c-.16,0-.3-.13-.3-.3v-1.78c0-.16,.13-.3,.3-.3s.3,.13,.3,.3v1.78c0,.16-.13,.3-.3,.3Zm60.78-3.21c-.16,0-.3-.13-.3-.3v-1.78c0-.16,.13-.3,.3-.3s.3,.13,.3,.3v1.78c0,.16-.13,.3-.3,.3Zm-60.78-.35c-.16,0-.3-.13-.3-.3v-1.78c0-.16,.13-.3,.3-.3s.3,.13,.3,.3v1.78c0,.16-.13,.3-.3,.3Zm60.66-3.2c-.13,0-.25-.08-.29-.21-.15-.52-.45-.98-.86-1.33-.12-.11-.14-.29-.03-.42,.11-.13,.29-.14,.42-.03,.5,.43,.86,.98,1.05,1.61,.05,.16-.05,.32-.2,.37-.03,0-.06,.01-.08,.01Zm-60.43-.33s-.08,0-.11-.02c-.15-.06-.22-.24-.16-.39,.25-.61,.68-1.12,1.22-1.48,.14-.09,.32-.05,.41,.08,.09,.14,.05,.32-.08,.41-.45,.3-.8,.72-1,1.22-.05,.11-.16,.18-.27,.18Zm57.87-1.84s-.02,0-.03,0c-.1-.01-.21-.02-.32-.02h-1.42c-.16,0-.3-.13-.3-.3s.13-.3,.3-.3h1.42c.13,0,.26,0,.39,.02,.16,.02,.28,.17,.26,.33-.02,.15-.15,.26-.29,.26Zm-3.55-.02h-1.78c-.16,0-.3-.13-.3-.3s.13-.3,.3-.3h1.78c.16,0,.3,.13,.3,.3s-.13,.3-.3,.3Zm-3.55,0h-1.78c-.16,0-.3-.13-.3-.3s.13-.3,.3-.3h1.78c.16,0,.3,.13,.3,.3s-.13,.3-.3,.3Zm-3.55,0h-1.78c-.16,0-.3-.13-.3-.3s.13-.3,.3-.3h1.78c.16,0,.3,.13,.3,.3s-.13,.3-.3,.3Zm-3.55,0h-1.78c-.16,0-.3-.13-.3-.3s.13-.3,.3-.3h1.78c.16,0,.3,.13,.3,.3s-.13,.3-.3,.3Zm-3.55,0h-1.78c-.16,0-.3-.13-.3-.3s.13-.3,.3-.3h1.78c.16,0,.3,.13,.3,.3s-.13,.3-.3,.3Zm-3.55,0h-1.78c-.16,0-.3-.13-.3-.3s.13-.3,.3-.3h1.78c.16,0,.3,.13,.3,.3s-.13,.3-.3,.3Zm-3.55,0h-1.78c-.16,0-.3-.13-.3-.3s.13-.3,.3-.3h1.78c.16,0,.3,.13,.3,.3s-.13,.3-.3,.3Zm-3.55,0h-1.78c-.16,0-.3-.13-.3-.3s.13-.3,.3-.3h1.78c.16,0,.3,.13,.3,.3s-.13,.3-.3,.3Zm-3.55,0h-1.78c-.16,0-.3-.13-.3-.3s.13-.3,.3-.3h1.78c.16,0,.3,.13,.3,.3s-.13,.3-.3,.3Zm-3.55,0h-1.78c-.16,0-.3-.13-.3-.3s.13-.3,.3-.3h1.78c.16,0,.3,.13,.3,.3s-.13,.3-.3,.3Zm-3.55,0h-1.78c-.16,0-.3-.13-.3-.3s.13-.3,.3-.3h1.78c.16,0,.3,.13,.3,.3s-.13,.3-.3,.3Zm-3.55,0h-1.78c-.16,0-.3-.13-.3-.3s.13-.3,.3-.3h1.78c.16,0,.3,.13,.3,.3s-.13,.3-.3,.3Zm-3.55,0h-1.78c-.16,0-.3-.13-.3-.3s.13-.3,.3-.3h1.78c.16,0,.3,.13,.3,.3s-.13,.3-.3,.3Zm-3.55,0h-1.78c-.16,0-.3-.13-.3-.3s.13-.3,.3-.3h1.78c.16,0,.3,.13,.3,.3s-.13,.3-.3,.3Zm-3.55,0h-1.77c-.16,0-.3-.13-.3-.3s.13-.3,.29-.3h1.78c.16,0,.3,.13,.3,.3s-.13,.3-.3,.3Z"/><path class="cls-19" d="M333.31,195.98h-32.95c-.77,0-1.4-.63-1.4-1.4h0c0-.77,.63-1.4,1.4-1.4h32.95c.77,0,1.4,.63,1.4,1.4h0c0,.77-.63,1.4-1.4,1.4Z"/><path class="cls-19" d="M333.31,209.9h-32.95c-.77,0-1.4-.63-1.4-1.4h0c0-.77,.63-1.4,1.4-1.4h32.95c.77,0,1.4,.63,1.4,1.4h0c0,.77-.63,1.4-1.4,1.4Z"/><path class="cls-19" d="M333.31,202.94h-39.41c-.77,0-1.4-.63-1.4-1.4h0c0-.77,.63-1.4,1.4-1.4h39.41c.77,0,1.4,.63,1.4,1.4h0c0,.77-.63,1.4-1.4,1.4Z"/><g><rect class="cls-6" x="210.74" y="207.82" width="64.57" height="38.05" rx="1.71" ry="1.71"/><path class="cls-17" d="M270.63,231.8v9.7h-55.22l11.19-11.39c2.83-2.88,7.42-3.01,10.41-.3l5.94,5.38,9.5-10.1c2.83-3.01,7.57-3.17,10.59-.35l7.59,7.06Z"/><circle class="cls-17" cx="231.88" cy="218.59" r="3.64"/></g><g><path class="cls-5" d="M491.91,122.89c-7.95,8.66-21.41,9.24-30.08,1.29-4.78-4.38-7.09-10.44-6.88-16.45,.18-4.89,2.02-9.74,5.59-13.63,7.95-8.66,21.42-9.24,30.08-1.29,5.49,5.04,7.73,12.3,6.61,19.15-.65,3.95-2.42,7.76-5.32,10.93Z"/><path class="cls-9" d="M485.79,94.12c-3.76-2.34-9.52-4.37-16.09-1.27"/><path class="cls-7" d="M460.67,130.66l-.4,.44c-1.32,1.44-3.55,1.53-4.99,.21s-1.53-3.55-.21-4.99l.4-.44,5.2,4.78Z"/><path class="cls-7" d="M450.66,125.66h15.42v.23c0,2.4-1.94,4.34-4.34,4.34h-6.74c-2.4,0-4.34-1.94-4.34-4.34v-.23h0Z" transform="translate(207.22 -276.28) rotate(42.55)"/><g><g><line class="cls-12" x1="476.97" y1="112.89" x2="464.33" y2="123.9"/><line class="cls-12" x1="472.94" y1="112.6" x2="477.01" y2="116.34"/><path class="cls-12" d="M476.83,113.01c.86-.94,2.33-1,3.27-.14s1,2.33,.14,3.27-2.33,1-3.27,.14"/></g><g><line class="cls-12" x1="471.79" y1="108.13" x2="461.9" y2="121.67"/><path class="cls-4" d="M491.91,122.89c-7.95,8.66-21.41,9.24-30.08,1.29-4.78-4.38-7.09-10.44-6.88-16.45,19.92,24.81,39.77,6.71,42.28,4.23-.65,3.95-2.42,7.76-5.32,10.93Z"/><line class="cls-12" x1="472.98" y1="112.64" x2="468.35" y2="108.39"/><path class="cls-12" d="M471.68,108.28c.86-.94,.8-2.41-.14-3.27-.94-.86-2.41-.8-3.27,.14s-.8,2.41,.14,3.27"/></g></g><path class="cls-7" d="M451.57,121.59h20.33v1.03c0,2.4-1.95,4.35-4.35,4.35h-11.64c-2.4,0-4.35-1.95-4.35-4.35v-1.03h0Z" transform="translate(205.63 -279.52) rotate(42.55)"/></g></g></g></g></svg>