<?xml version="1.0" encoding="utf-8"?>
<!-- Generator: Adobe Illustrator 26.3.1, SVG Export Plug-In . SVG Version: 6.00 Build 0)  -->
<svg version="1.1" id="Layer_1" xmlns="http://www.w3.org/2000/svg" xmlns:xlink="http://www.w3.org/1999/xlink" x="0px" y="0px"
	 viewBox="0 0 420 258" style="enable-background:new 0 0 420 258;" xml:space="preserve">
<style type="text/css">
	.st0{opacity:0.43;}
	.st1{fill:#CEDFFF;}
	.st2{fill:#0B50B9;}
	.st3{fill:#110239;}
	.st4{opacity:0.78;fill:#DCEAFF;}
	.st5{opacity:0.78;}
	.st6{opacity:0.5;fill:#BFDCFF;}
	.st7{fill:#005FBA;}
	.st8{fill:#FB961E;}
	.st9{fill:#FFFFFF;}
	.st10{fill:#FFAE73;}
	.st11{fill:#002897;}
	.st12{fill:#00158B;}
	.st13{fill:#ED057F;}
	.st14{fill:#A21B89;}
	.st15{fill:#F99352;}
	.st16{fill:#1F0757;}
	.st17{fill:#0097DD;}
	.st18{fill:#0072C6;}
	.st19{fill:#00A9E9;}
	.st20{fill:#25468F;}
	.st21{fill:#E8F2FA;}
	.st22{opacity:0.49;}
	.st23{fill:#E5E6ED;}
	.st24{fill:#214D9A;}
	.st25{fill:#CF0E83;}
	.st26{fill:#FFA05E;}
	.st27{fill:#00037F;}
	.st28{fill:#003AA2;}
	.st29{fill:#004DAE;}
	.st30{fill:#0084D1;}
	.st31{fill:#662D91;}
	.st32{fill:#75298F;}
	.st33{fill:#84248D;}
	.st34{fill:#93208B;}
	.st35{fill:#B11787;}
	.st36{fill:#C01285;}
	.st37{fill:#DE0981;}
	.st38{fill:#FDE3F1;}
	.st39{fill:#FBC7E3;}
	.st40{fill:#F9ACD4;}
	.st41{fill:#F790C6;}
	.st42{fill:#F574B8;}
	.st43{fill:#F358AA;}
	.st44{fill:#F13D9B;}
	.st45{fill:#EF218D;}
	.st46{fill:#B6CFFF;}
	.st47{fill:#A9C2FF;}
	.st48{fill:#BBD3FF;}
	.st49{fill:#80A1E6;}
	.st50{opacity:0.5;}
	.st51{opacity:0.42;}
	.st52{fill:#F4F4FF;stroke:#FFFFFF;stroke-width:0.75;stroke-miterlimit:10;}
	.st53{fill:#F4F4FF;}
	.st54{fill:#FA8B79;}
	.st55{opacity:0.1;}
	.st56{fill:#6B98F6;}
	.st57{fill:#F9924F;}
	.st58{fill:#DF851B;}
	.st59{fill:#FCAD50;}
	.st60{fill:#FDC582;}
	.st61{fill:#FEDCB4;}
	.st62{fill:#E3F5FD;}
	.st63{fill:#C6ECFA;}
	.st64{fill:#AAE2F8;}
	.st65{fill:#8ED9F5;}
	.st66{fill:#71CFF3;}
	.st67{fill:#55C6F0;}
	.st68{fill:#39BCEE;}
	.st69{fill:#1CB3EB;}
	.st70{fill:#C6C7D7;}
	.st71{fill:#002987;}
	.st72{clip-path:url(#SVGID_00000134240620292439048330000002690471314155858855_);}
	.st73{fill:#F1F3F4;}
	.st74{fill:#9CC0F9;}
	.st75{fill:#FEF9E8;}
	.st76{fill:#E8EAED;}
	.st77{fill:#FCE8E6;}
	.st78{fill:none;stroke:#9CC0F9;stroke-width:3.7859;stroke-miterlimit:10;}
	.st79{fill:none;stroke:#9CC0F9;stroke-width:1.262;stroke-miterlimit:10;}
	.st80{fill:#2B478B;}
	.st81{opacity:0.32;}
	.st82{opacity:0.2;fill:#ED057F;}
	.st83{opacity:0.5;fill:#ED057F;}
	.st84{opacity:0.1;fill:#110239;}
	.st85{opacity:0.18;fill:#005FBA;}
	.st86{fill:#666666;}
	.st87{fill:#373737;}
	.st88{fill-rule:evenodd;clip-rule:evenodd;fill:#666666;}
	.st89{fill:#808080;}
	.st90{fill:#B3B3B3;}
	.st91{opacity:0.4;}
	.st92{opacity:0.25;fill:#FFFFFF;}
	.st93{opacity:0.5;fill:#FFFFFF;}
	.st94{opacity:0.37;fill:#0097DD;}
	.st95{fill:url(#SVGID_00000124849295119790307090000008566428992743410580_);}
	.st96{fill:url(#SVGID_00000147938894352015389920000003248056588728768183_);}
	.st97{fill:url(#SVGID_00000089538477873239507490000014275093164315243167_);}
	.st98{fill:url(#SVGID_00000133528371822918367350000005528914255438152374_);}
	.st99{fill:url(#SVGID_00000065055063721163717920000011106986927266170290_);}
	.st100{fill:url(#SVGID_00000130622689028505885790000009445705476022692273_);}
	.st101{fill:#5793CE;}
	.st102{fill:#D4ECFF;}
	.st103{fill:#FF2C9C;}
	.st104{fill:url(#SVGID_00000038375622452127730420000014371265177839125937_);}
	.st105{fill:url(#SVGID_00000040559479854076807950000013665918785256427139_);}
	.st106{fill:url(#SVGID_00000101812284447728269080000009710592781169071773_);}
	.st107{clip-path:url(#SVGID_00000029726133408669982570000013664445503854229923_);}
	.st108{fill:url(#SVGID_00000107589738159356854950000015592855816302745748_);}
	.st109{fill:url(#SVGID_00000059292364725625660760000004538453963757421991_);}
	.st110{fill:url(#SVGID_00000133523156770704671000000008344627407703173547_);}
	.st111{fill:url(#SVGID_00000155830253176388072570000006857009949179480752_);}
	.st112{fill:url(#SVGID_00000103973079188111768280000016614271229041098157_);}
	.st113{fill:url(#SVGID_00000054267511735995163820000013050019697416148141_);}
	.st114{fill:#7DC3EA;}
	.st115{fill:url(#SVGID_00000180366214347359071560000010398631995983298959_);}
	.st116{fill:url(#SVGID_00000125597010592029384080000017518232501928635817_);}
	.st117{fill:url(#SVGID_00000124133386081188600240000009479796850173357998_);}
	.st118{fill:url(#SVGID_00000153666633459226618240000008614447373951053459_);}
	.st119{opacity:0.43;fill:#CEDFFF;}
	.st120{opacity:0.43;fill:#A9C2FF;}
	.st121{opacity:0.12;fill:#606060;}
	.st122{fill:#FF912B;}
	.st123{fill:#F7931E;}
	.st124{fill:#E6EDFC;}
	.st125{fill:none;stroke:#FFFFFF;stroke-width:0.3254;stroke-miterlimit:10;}
	.st126{fill:none;stroke:#FFFFFF;stroke-width:0.3254;stroke-miterlimit:10;stroke-dasharray:1.3021,1.3021;}
	.st127{fill:none;stroke:#FFFFFF;stroke-width:0.3254;stroke-miterlimit:10;stroke-dasharray:1.3548,1.3548;}
	.st128{fill:none;stroke:#FFFFFF;stroke-width:0.75;stroke-miterlimit:10;}
	.st129{fill:none;stroke:#FFFFFF;stroke-width:1.0422;stroke-miterlimit:10;}
	.st130{fill:none;stroke:#C8D0FC;stroke-width:0.2605;stroke-miterlimit:10;}
	.st131{fill:none;stroke:#FFFFFF;stroke-width:0.2605;stroke-linecap:round;stroke-miterlimit:10;}
	.st132{fill:none;stroke:#FFFFFF;stroke-width:0.5211;stroke-miterlimit:10;}
	.st133{fill:#E8A398;}
	.st134{fill:none;stroke:#E8B1C3;stroke-width:1.9735;stroke-miterlimit:10;}
	
		.st135{opacity:0.3;fill:none;stroke:#FFFFFF;stroke-width:3.6666;stroke-linecap:round;stroke-linejoin:round;stroke-miterlimit:10;}
	.st136{fill:none;stroke:#FFFFFF;stroke-width:2.0116;stroke-miterlimit:10;}
	.st137{opacity:0.4;fill:#DF851B;}
	.st138{fill:#E6E1F9;}
	.st139{fill:none;stroke:#E6E1F9;stroke-width:1.2443;stroke-miterlimit:10;}
	.st140{fill:#00D9E0;}
	.st141{opacity:0.5;fill:#00D9E0;}
	.st142{fill:#00EDED;}
	.st143{opacity:0.5;fill:#AD86F7;}
	.st144{fill:#641CA0;}
	.st145{fill:#AD86F7;}
	.st146{fill:none;stroke:#FFFFFF;stroke-width:0.6221;stroke-miterlimit:10;}
	.st147{fill:#F4C4B3;}
	.st148{fill:#28BAAD;}
	.st149{fill:#00204E;}
	.st150{opacity:0.17;fill:#FFFFFF;}
	.st151{fill:none;stroke:#FFFFFF;stroke-width:0.702;stroke-miterlimit:10;}
	.st152{opacity:0.17;}
	.st153{fill:#F20574;}
	.st154{fill:#30A8F2;}
	.st155{fill:#F9FBFC;}
	.st156{opacity:0.3;}
	.st157{opacity:0.28;}
	.st158{fill:#FFC194;}
	.st159{fill:none;stroke:#FFFFFF;stroke-width:1.0182;stroke-miterlimit:10;}
	.st160{fill:none;stroke:#FFFFFF;stroke-width:1.8415;stroke-miterlimit:10;}
	.st161{fill:#444A7C;}
	.st162{fill:#F4A9A2;}
	.st163{opacity:0.15;fill:#FFFFFF;}
	.st164{opacity:0.3;fill:#FFFFFF;}
	.st165{fill:#007DCB;}
	.st166{opacity:0.5;fill:#F4A9A2;}
	.st167{fill:none;stroke:#E8B1C3;stroke-width:2.0936;stroke-miterlimit:10;}
	.st168{fill:#759BE0;}
	.st169{fill:#AEC3FF;}
	.st170{opacity:0.7;fill:#759BE0;}
	.st171{fill:#94B0ED;}
	.st172{fill:#D2E0FF;}
	.st173{fill:#FFB27D;}
	.st174{fill:#E8945B;}
	.st175{opacity:0.17;fill:#C0D4FF;}
	.st176{fill:#EBF3FA;}
	.st177{fill:#ED975D;}
	.st178{fill:#FCA56B;}
	.st179{fill:#A6D9F1;}
	.st180{fill:#E69D43;}
	.st181{fill:#CA5F00;}
	.st182{fill:#D6716B;}
	.st183{fill:#AA443E;}
	.st184{fill:#EE9849;}
	.st185{fill:#A6C7F9;}
	.st186{fill:#D2E4FF;}
	.st187{fill:#F3F9FF;}
	.st188{fill:#A8D29F;}
	.st189{fill:#82B378;}
	.st190{fill:#163560;}
	.st191{fill:#E37970;}
	.st192{fill:#D68D5D;}
	.st193{fill:#80BDCC;}
	.st194{fill:#E7F1FD;}
	.st195{fill:#5F9AA8;}
	.st196{fill:#C45446;}
	.st197{fill:#739AF0;}
	.st198{fill:#4A75CB;}
	.st199{fill:#E49963;}
	.st200{fill:#1C468A;}
	.st201{clip-path:url(#SVGID_00000030461369651819339150000001346083063035830436_);}
	.st202{fill:#D9935C;}
	.st203{fill:#B84C42;}
	.st204{fill:#B74B42;}
	.st205{fill:#E58638;}
	.st206{fill:#CC7C46;}
	.st207{fill:none;stroke:#031F4C;stroke-width:0.5748;stroke-miterlimit:10;}
	.st208{fill:#E8C4B3;}
	.st209{fill:#67B375;}
	.st210{fill:#FFB27B;}
	.st211{fill:#FF985B;}
	.st212{fill:#C5E0FB;}
	.st213{fill:#A4CFF3;}
	.st214{fill:#FFAE74;}
	.st215{opacity:0.36;fill:#00037F;}
	.st216{fill:#E7F2F9;}
	.st217{fill:#FFBF92;}
	.st218{opacity:0.53;}
	.st219{fill:#AAC9F5;}
	.st220{fill:#CDE0FB;}
	.st221{fill:#C0D8FB;}
	.st222{fill:#AFCDFB;}
	.st223{fill:#D2E3FC;}
	.st224{fill:#DCEAFF;}
	.st225{fill:#77A4E5;}
	.st226{opacity:0.43;fill:#DCEAFF;}
	.st227{fill:#FFB93E;}
	.st228{fill:#E2810E;}
	.st229{opacity:0.42;fill:#002897;}
	.st230{clip-path:url(#SVGID_00000085954315578086205600000007216542593185747851_);}
	.st231{fill:#88ADD8;}
	.st232{fill:#98B9EA;}
	.st233{opacity:0.08;fill:#FFFFFF;}
	.st234{opacity:0.26;fill:#002897;}
	.st235{opacity:0.5;fill:#A9C2FF;}
	.st236{opacity:0.3;fill:#A9C2FF;}
	.st237{fill:#F6FBFF;}
	.st238{fill:#F48F4E;}
	.st239{opacity:0.42;fill:#DF851B;}
	.st240{fill:#BDD1F9;}
	.st241{opacity:0.96;fill:#CEDFFF;}
	.st242{fill:#FFA412;}
	.st243{opacity:0.5;fill:#E2810E;}
	.st244{opacity:0.29;fill:#0097DD;}
	.st245{opacity:0.71;}
	.st246{clip-path:url(#SVGID_00000101071655091556181520000003344443275226821289_);}
	.st247{fill:none;stroke:#9CC0F9;stroke-width:4.7939;stroke-miterlimit:10;}
	.st248{fill:none;stroke:#9CC0F9;stroke-width:1.598;stroke-miterlimit:10;}
	.st249{fill:#73B471;}
	.st250{fill:#FF9D5D;}
</style>
<g>
	<g>
		<g>
			<g>
				<path class="st4" d="M319.27,124.22c0,0-7.61-10.09,0.47-15.69c0,0,5.84-3.05,10.41-2.49c0,0-7.18,10.49-5.14,11.71
					c2.03,1.22,7.16-12.27,7.16-12.27s12.88-0.44,16.87,1.79c0,0-11.5,8.27-9.23,8.95c2.27,0.68,14.64-7.38,14.64-7.38
					s11.79,2.77,10.7,10c-1.09,7.23-5.33,9.22-7.13,8.91c-1.79-0.31-12.1-4.99-12.42-3.53c-0.32,1.46,5.73,6.69,10.16,7.2
					c0,0-8.98,8.74-14.39,5.72c-5.42-3.02-5.63-7.29-9.01-9.1c-3.38-1.81-6.35-1.99-5.02-0.28c1.34,1.71,7.54,3.68,9.31,7.32
					c1.77,3.64,3.41,6.13-2.31,4.9c-5.72-1.23-14.85-6.04-14.96-10.91C319.27,124.22,319.27,124.22,319.27,124.22z"/>
				<g>
					<path class="st9" d="M359.27,118.68c0,0-32.28-3.27-40.01,5.54c0,0-1.88,4.63-7.01,8.64l-0.89,2.02c0,0,5.98-5.56,8.01-5.79
						C319.38,129.09,316.95,117.43,359.27,118.68z"/>
					<path class="st209" d="M312.26,132.86c0,0-7.27,4.7-8.32,13.85l1.25,0.19c0,0,2.81-9.35,7.05-12.81
						C316.48,130.63,312.26,132.86,312.26,132.86z"/>
				</g>
			</g>
			<g>
				<path class="st4" d="M281.93,100.11c0,0-16.87-9.45-9-22.27c0,0,6.3-7.87,13.05-9.9c0,0-3.6,19.12,0,19.57
					c3.6,0.45,2.47-21.6,2.47-21.6s17.77-8.55,24.75-7.87c0,0-11.02,18.67-7.42,18.22c3.6-0.45,15.97-19.35,15.97-19.35
					s18.22-3.37,21.15,7.42c2.92,10.8-1.8,16.2-4.5,16.87c-2.7,0.67-20.02,0.45-19.57,2.7c0.45,2.25,12.15,5.85,18.67,3.82
					c0,0-7.2,17.77-16.65,16.87c-9.45-0.9-12.37-6.75-18.22-7.2c-5.85-0.45-10.12,1.12-7.2,2.7c2.92,1.57,12.82,0.52,17.55,4.53
					c4.72,4.02,8.55,6.49-0.22,8.29c-8.77,1.8-24.52,0.67-27.67-6.07C281.93,100.11,281.93,100.11,281.93,100.11z"/>
				<g>
					<path class="st9" d="M334.57,67.71c0,0-47.24,15.3-52.64,32.39c0,0,0.23,7.65-4.5,16.42v3.37c0,0,4.95-11.47,7.65-13.05
						C285.08,106.86,274.51,92.01,334.57,67.71z"/>
					<path class="st209" d="M277.43,116.53c0,0-7.29,11.06-3.13,24.53l1.87-0.5c0,0-1.82-14.83,1.99-22.29
						C281.98,110.8,277.43,116.53,277.43,116.53z"/>
				</g>
			</g>
			<g>
				<path class="st4" d="M192.96,104.95c0,0,19.63-8.31,12.56-23.32c0,0-5.95-9.39-13.1-12.43c0,0,1.63,21.39-2.37,21.45
					c-4,0.06-0.09-23.97-0.09-23.97s-18.44-11.52-26.16-11.63c0,0,9.82,21.8,5.93,20.87c-3.89-0.93-15.16-23.14-15.16-23.14
					s-19.56-5.91-24.07,5.57c-4.51,11.48,0.01,17.97,2.89,19.03c2.88,1.07,21.89,2.92,21.12,5.33c-0.77,2.41-14.02,4.94-20.93,1.93
					c0,0,5.73,20.35,16.2,20.51c10.46,0.16,14.38-5.9,20.84-5.68c6.46,0.22,10.96,2.46,7.56,3.83s-14.11-0.99-19.78,2.84
					c-5.66,3.83-10.15,6.08-0.76,9.11c9.4,3.04,26.79,3.71,31.06-3.3C192.96,104.95,192.96,104.95,192.96,104.95z"/>
				<g>
					<path class="st9" d="M139.2,63.07c0,0,49.92,22.49,53.76,41.88c0,0-1.17,8.35,2.94,18.54l-0.41,3.7c0,0-4.03-13.17-6.8-15.23
						C188.69,111.96,202.08,96.97,139.2,63.07z"/>
					<path class="st209" d="M195.9,123.49c0,0,6.64,13.01,0.46,27.26l-1.99-0.78c0,0,3.79-16.03,0.52-24.67
						C191.61,116.66,195.9,123.49,195.9,123.49z"/>
				</g>
			</g>
			<path class="st4" d="M152.69,153.17c-3.47-5.01-3.86-9.67-3.86-9.67s9.6-6.89,3.94-14.14c0,0-4.36-4.35-8.6-5.12
				c0,0,3.49,11.37,1.34,11.89c-2.16,0.52-2.98-12.95-2.98-12.95s-11.38-3.98-15.57-3.09c0,0,7.97,10.59,5.76,10.56
				c-2.22-0.03-11.02-10.66-11.02-10.66s-11.3-0.8-12.34,5.96c-1.04,6.76,2.2,9.71,3.89,9.94c1.69,0.23,12.19-1.1,12.07,0.3
				c-0.12,1.4-6.98,4.38-11.08,3.6c0,0,5.59,10.3,11.27,9.11c5.68-1.19,7.05-4.95,10.57-5.62c3.52-0.67,6.23-0.01,4.56,1.15
				c-1.67,1.16-7.75,1.19-10.35,3.95c-2.59,2.76-4.75,4.53,0.7,5.02c5.45,0.49,14.94-1.27,16.39-5.58c0.06-0.19,0.12-0.37,0.18-0.54
				c-0.08,0.35-0.18,0.54-0.18,0.54c1.05,0.46,2.83,3.03,4.09,5.01c0.19,0.34,0.47,0.81,0.89,1.44c0,0,0,0,0,0
				c0.17,0.29,0.31,0.52,0.41,0.69c2.41,4.49,2.33,12.72,2.33,12.72l1.17,0.18C157.87,159.39,152.69,153.17,152.69,153.17z"/>
			<g>
				<path class="st3" d="M88.52,37.95c-0.09-0.52-1.31-6.08-9.91-5.13c0,0,4.28-0.11,5.28,1.64c0,0-3.2-1.87-5.42-0.8
					c-2.23,1.07-3,5.36-2.82,6.71c0.18,1.35,2.11,5.49,3.64,5.65c0.58,0.06,1.22-0.07,1.79-0.26c-0.3,0.67-0.59,1.41-0.85,2.22
					c-2.4,7.5,2.12,13.84,4.9,12.67c1.78-0.75,2.77,2.33,2.77,2.33l15.89-17.19C103.78,45.78,95.18,33.05,88.52,37.95z"/>
				<path class="st3" d="M109.22,245.03l-3.87,1.44c0,0-16.79-23.29-18.86-43.77c-0.37-3.66-0.25-7.2,0.55-10.47
					c0,0-0.16-0.94-0.45-2.59c-0.13-0.77-0.3-1.7-0.48-2.77c-0.55-3.13-1.3-7.41-2.16-12.28c-1.98-11.21-4.53-25.55-6.52-36.08
					l1.04-0.33l11.27-3.64l2.33-7.4l8.39-2.21c0,0,1.87,3.67,3.55,20.99c0.31,2.27,0.59,4.78,0.8,7.5c0.65,8.29,0.7,18.58-0.8,30.34
					c-0.39,3.01-0.87,6.12-1.47,9.31c-0.44,2.34-0.51,5.53-0.32,9.2C103.07,219,109.22,245.03,109.22,245.03z"/>
				<path d="M104.82,153.4L86.6,189.63c-0.13-0.77-0.3-1.7-0.48-2.77c-0.55-3.13-1.3-7.41-2.16-12.28
					c-1.98-11.21-4.53-25.55-6.52-36.08l1.04-0.33l11.27-3.64l2.33-7.4l8.39-2.21c0,0,1.87,3.67,3.55,20.99
					C104.33,148.18,104.61,150.68,104.82,153.4z"/>
				<path class="st3" d="M96.81,129.57l-0.42-3.62c-7.07,1.88-25.95-5.25-25.95-5.25s-6.85,6.02-5.95,20.44
					c0.44,7.04,1.24,36.96,2.08,45.81c0.3,3.21,0.57,5.49,0.68,6.4c0,0,0,0.01,0,0.01c0.03,0.28-0.06,0.54-0.21,0.78
					c-1.23,2.09-2.25,4.27-3.09,6.5c-8.22,21.89,1.27,48.85,1.27,48.85l2.46-0.99c0,0,5.4-30,9.78-43.26
					c0.74-2.25,1.46-4.02,2.11-5.07c1.91-3.08,3.67-8.1,5.28-14.08c3.03-11.3,5.48-26.01,7.1-37.36
					C92.17,148.76,96.81,129.57,96.81,129.57z"/>
				<path class="st210" d="M108.2,100.57c0.14,0.14,0.27,0.28,0.44,0.42c6.04,5.63,14.17,10.6,18.53,11.7
					c2.86,0.73,9.17-0.25,14.42-1.33c3.49-0.69,6.53-1.45,7.79-1.75c0.4-0.09,0.62-0.16,0.62-0.16l-0.55-3.54
					c0,0-3.14-0.25-7.05-0.69c-5.44-0.64-12.33-1.62-14.09-2.66c-4.09-2.43-11.28-12.64-17.04-19.05c-0.3-0.35-0.6-0.69-0.9-1.02
					c-0.22-0.24-0.43-0.48-0.65-0.71c-0.04-0.05-0.1-0.12-0.17-0.16c-0.27-0.25-0.49-0.49-0.71-0.7c-0.01-0.03-0.05-0.04-0.08-0.07
					c-1.02-1.03-2.82-2.28-2.82-2.28c-1.01-0.57-1.84-0.69-2.42-0.2c0,0-0.75,0.74-1.49,2.13c-0.16,0.29-0.31,0.61-0.46,0.96
					c-0.12,0.19-0.18,0.39-0.24,0.6c-0.49,1.28-0.84,2.9-0.78,4.78c0.05,1.42,0.32,2.99,0.95,4.73
					C102.49,94.41,105.03,97.57,108.2,100.57z"/>
				<path class="st210" d="M102.94,85.66c-2.05,1.34-4.6,2.41-7.78,3.06c-11.93,2.4-16.19-7.74-17.7-14.66
					c1.64-0.88,3.17-1.04,4.05-1.12c0.86-0.08,1.76-0.12,2.51-0.13c1.36-0.98,3.46-5.1,4.08-11.56l0.55,0.17l9.27,2.82
					c0,0-0.51,2.96-0.8,5.76c-0.22,2.19-0.31,4.29,0.09,4.81c0.72,0.18,1.16,0.29,1.16,0.29s0,0,0,0.01
					C98.5,75.31,101.08,79.84,102.94,85.66z"/>
				<path class="st13" d="M107.09,93.12c-0.06,0.25-0.12,0.5-0.2,0.76c-2.09,7-3.79,34.99-3.79,34.99c1.11,3.5-19.23,4.21-30.44,2.6
					c-4.08-0.59-6.95-1.48-7.15-2.66c-2.01-4.52,2.9-12.97,5.74-17.27c0.36-0.54,0.66-1.11,0.91-1.69c0.64-1.48,0.95-3.09,0.89-4.71
					c-0.09-2.22-0.28-4.37-0.51-6.39c-0.43-3.81-1.01-7.13-1.32-9.48c0,0,0,0,0,0c0.59-0.59,1.16-1.13,1.7-1.65
					c0.82-0.8,1.53-1.54,2.03-2.25c0.55-0.78,0.86-1.54,0.79-2.34c-0.05-0.61-0.16-1.22-0.31-1.82c-0.07-0.29-0.15-0.57-0.24-0.86
					c-0.91-2.98-2.59-5.57-2.59-5.57c3.04-1.78,8.89-1.83,8.89-1.83s0.04,0.32,0.11,0.84c0.28,2.1,1.08,7.48,1.9,8.4
					c1.02,1.15,17.2,4.47,17.76,2.63c0.55-1.81-2.79-9.42-2.91-9.71c0-0.01,0-0.01,0-0.01c5.18,1.23,7.43,2.62,7.53,2.7
					c0,0,0,0-0.01,0C103.09,80.25,108.57,86.41,107.09,93.12z"/>
				<path class="st211" d="M97.92,64.22c0,0-0.51,2.95-0.8,5.76c-5.28-0.68-7.59-5.79-8.47-8.58L97.92,64.22z"/>
				<path class="st210" d="M99.43,67.06c0,0-12.54-1.05-11.77-8.85c0.77-7.8-0.33-13.19,7.71-12.85c8.04,0.34,9.3,3.47,9.67,6.13
					C105.42,54.16,102.71,67.13,99.43,67.06z"/>
				<path class="st3" d="M105.11,47.12c-1.7-2.54-3.21-2.17-4.1-1.55c-6.47-4.45-11.43,0.67-11.43,0.67
					c-1.4,5.51-5.75,8.31-5.75,8.31s2.14,1.64,7.54,0.81c1.65-0.25,3.2-1.25,4.56-2.51c-2.49,3.36-5.64,5.64-5.64,5.64
					c6.57-2.28,9.97-10.76,10.32-11.66c0.7,0.76,2.05,2.4,2.37,3.91c0.43,2.05,0.3,6.16,1.5,6.15
					C104.45,56.89,107.66,50.93,105.11,47.12z"/>
				<path class="st210" d="M161.06,105.45c-1.25,1.2-2.52,4.18-6.38,4.13c-2.76-0.02-5.55,0.29-6.9,0.45
					c-0.53,0.09-0.83,0.13-0.83,0.13l-0.14-4.38c0,0,0.06,0.01,0.18-0.02c0.93-0.14,5.67-0.87,7.55-2.11
					c2.11-1.41,7.03-0.1,7.03-0.1S162.32,104.28,161.06,105.45z"/>
				<path class="st13" d="M79.52,251.52H60.05c0,0-0.47-2.97,0.55-5.22c0.97-2.16,2.5-3.14,2.14-5.76c1.24,1.27,3.25,2.7,6.07,2.32
					c0.34,0.56,2.23,3.55,3.38,4.38C73.45,248.16,79.13,247.83,79.52,251.52z"/>
				<path class="st13" d="M121.32,251.52h-19.47c0,0-0.73-3.11,0.55-5.22c1.13-1.87,0.7-2.93-0.14-4.48
					c0.88,0.36,2.02,0.69,3.28,0.62c0.97-0.06,2-0.5,2.9-1.02c0.84,0.96,4.43,5.02,5.55,5.83
					C115.25,248.16,120.93,247.83,121.32,251.52z"/>
				<path class="st25" d="M75.33,112.12c-0.77,4.88-4.3,14.67-2.66,19.34c-4.08-0.59-6.95-1.48-7.15-2.66
					c-2.01-4.52,2.9-12.97,5.74-17.27c0.36-0.54,0.66-1.11,0.91-1.69c0.64-1.48,0.95-3.09,0.89-4.71c-0.09-2.22-0.28-4.37-0.51-6.39
					C72.56,98.74,76.15,106.94,75.33,112.12z"/>
				<path class="st13" d="M102.88,79.21c0.14,4.34,3.27,16.24,4.01,14.67c0.85-1.79,4.14-8.6,5.69-8.85
					c-0.08-0.31-6.41-7.31-6.69-7.23C105.9,77.79,104.18,78.32,102.88,79.21z"/>
				<g>
					<path class="st210" d="M73.03,140.71l-3.23,2.15c0,0-0.82-1.02-2.11-2.65c-0.39-0.49-0.59-0.79-0.59-0.79
						c-1.02-1.32-2.21-2.94-3.52-4.69l-0.02-0.02c-2.18-3.06-4.58-6.55-6.41-9.7c-1.27-2.23-2.27-4.3-2.75-5.93
						c-0.05-0.16-0.08-0.31-0.12-0.49c-0.95-4.12,0.79-12.31,3.56-20.29c0.38-1.1,0.78-2.19,1.17-3.25
						c1.47-3.92,3.13-7.6,4.79-10.57c0.97-1.79,1.95-3.35,2.88-4.51c0.32-0.42,0.63-0.81,0.96-1.14c0.18-0.2,0.36-0.4,0.53-0.58
						c1.94,0.16,6.01,0.93,9.03,4.42c-0.05,0.18-0.11,0.37-0.16,0.55c-1.22,3.94-3.11,8.78-5.06,13.51c-1.06,2.6-2.15,5.19-3.1,7.62
						c-0.6,1.45-1.15,2.84-1.64,4.12c-0.93,2.45-1.62,4.49-1.89,5.91c-0.19,0.93,0.08,2.67,0.58,4.81
						c0.86,3.73,2.49,8.76,4.01,13.03c0.62,1.78,1.23,3.44,1.74,4.82C72.48,139.25,73.03,140.71,73.03,140.71z"/>
					<path class="st13" d="M74.44,94.99c-3.23-4.87-12.47-6.96-12.47-6.96C67.19,71.47,80.89,73,80.89,73S75.9,90.22,74.44,94.99z"
						/>
					<path class="st210" d="M69.8,142.86c0,0,0.85,1.25,0.94,2.15c0.09,0.9,0.9,3.89,1.94,4.84c1.04,0.95,3.41,2.85,3.75,2.56
						c0.33-0.28,1.29-2.52,0.4-4.1c-0.4-0.71-0.95-2.7-1.67-3.18c-0.87-0.59-2.14-4.41-2.14-4.41L69.8,142.86z"/>
					<path class="st210" d="M73.05,141.19c0,0,2.57,1.3,2.92,2.35c0.35,1.04,1.78,3.15,1.64,3.39c-0.16,0.26-2.39-1.16-3.15-2.46
						C73.69,143.18,73.05,141.19,73.05,141.19z"/>
				</g>
			</g>
			<g>
				<path class="st58" d="M134.17,129.06l94.06-56.31c5.19-3.11,11.66-3.11,16.85,0l94.06,56.31l0,91.78l-204.97-10.28V129.06z"/>
				<rect x="151.81" y="88.4" class="st7" width="169.68" height="146.64"/>
				<g class="st152">
					<g>
						<path class="st9" d="M156.99,94.8c0-0.96,0.78-1.74,1.74-1.74c0.96,0,1.74,0.78,1.74,1.74c0,0.96-0.78,1.74-1.74,1.74
							C157.77,96.54,156.99,95.76,156.99,94.8z"/>
						<path class="st9" d="M312.72,94.8c0-0.96,0.78-1.74,1.74-1.74c0.96,0,1.74,0.78,1.74,1.74c0,0.96-0.78,1.74-1.74,1.74
							C313.5,96.54,312.72,95.76,312.72,94.8z"/>
						<g>
							<rect x="158.73" y="94.61" class="st9" width="155.73" height="0.38"/>
						</g>
						<g>
							<rect x="158.54" y="94.1" class="st9" width="0.38" height="155.73"/>
						</g>
						<g>
							<rect x="314.34" y="94.1" class="st9" width="0.38" height="155.73"/>
						</g>
					</g>
				</g>
				<g>
					<polygon class="st8" points="339.14,128.81 339.14,251.52 134.17,251.52 134.17,128.81 236.65,190.17 					"/>
					<path class="st58" d="M134.17,251.52l93.88-67.31c5.14-3.69,12.06-3.69,17.21,0l93.88,67.31H134.17z"/>
				</g>
				<g class="st152">
					<g>
						<path class="st9" d="M271.72,135.59H203.9c-0.65,0-1.18-0.53-1.18-1.18l0,0c0-0.65,0.53-1.18,1.18-1.18h67.82
							c0.65,0,1.18,0.53,1.18,1.18l0,0C272.9,135.06,272.37,135.59,271.72,135.59z"/>
						<g>
							<path class="st9" d="M210.71,141.77h-19.12c-0.65,0-1.18-0.53-1.18-1.18l0,0c0-0.65,0.53-1.18,1.18-1.18h19.12
								c0.65,0,1.18,0.53,1.18,1.18l0,0C211.89,141.23,211.36,141.77,210.71,141.77z"/>
							<path class="st9" d="M239.55,141.77h-23.1c-0.65,0-1.18-0.53-1.18-1.18l0,0c0-0.65,0.53-1.18,1.18-1.18h23.1
								c0.65,0,1.18,0.53,1.18,1.18l0,0C240.73,141.23,240.2,141.77,239.55,141.77z"/>
							<path class="st9" d="M284.03,141.77h-39.94c-0.65,0-1.18-0.53-1.18-1.18l0,0c0-0.65,0.53-1.18,1.18-1.18h39.94
								c0.65,0,1.18,0.53,1.18,1.18l0,0C285.21,141.23,284.68,141.77,284.03,141.77z"/>
						</g>
						<g>
							<path class="st9" d="M239.7,148.94h-37.15c-0.65,0-1.18-0.53-1.18-1.18l0,0c0-0.65,0.53-1.18,1.18-1.18h37.15
								c0.65,0,1.18,0.53,1.18,1.18l0,0C240.88,148.41,240.35,148.94,239.7,148.94z"/>
							<path class="st9" d="M273.06,148.94H243.8c-0.65,0-1.18-0.53-1.18-1.18l0,0c0-0.65,0.53-1.18,1.18-1.18h29.26
								c0.65,0,1.18,0.53,1.18,1.18l0,0C274.25,148.41,273.71,148.94,273.06,148.94z"/>
						</g>
					</g>
				</g>
				<path class="st150" d="M250.13,163.53c-2.23,1.86-4.63,3.4-7.14,4.81c0.21-0.67,0.39-1.36,0.36-1.98
					c-0.05-0.85-0.72-1.22-1.4-1.58c-0.17-0.09-0.33-0.18-0.48-0.27c0.26-0.26,0.4-0.62,0.22-1.01c-0.29-0.64-1.09-0.54-1.36,0.06
					c-0.05,0.11-0.08,0.22-0.09,0.32c-0.11-0.06-0.19-0.12-0.26-0.21c0.41-0.77,0.8-1.56,1.16-2.36c0.08-0.18-0.02-0.39-0.17-0.5
					c-0.6-0.45-1.41-0.3-1.89,0.26c-0.57,0.67-0.43,1.69-0.15,2.45c0.02,0.05,0.04,0.11,0.06,0.16c-0.53,0.95-1.1,1.88-1.72,2.78
					c-0.06-0.06-0.12-0.12-0.17-0.17c-0.16-0.16-0.33-0.36-0.48-0.58c0.28-0.73,0.46-1.5,0.53-2.31c0.03-0.36-0.33-0.53-0.63-0.42
					c-0.83,0.31-1.27,1.15-1.17,2.01c0.04,0.3,0.13,0.58,0.27,0.84c-0.18,0.4-0.4,0.79-0.66,1.16c-0.17,0.24-0.05,0.49,0.15,0.6
					c-0.27,0.9-0.64,1.83-1.26,2.48c-0.51,0.53-1.46,0.93-2.08,0.3c-0.39-0.4-0.44-1.07-0.5-1.59c-0.13-1.3-0.23-2.65-0.18-3.96
					c0.02-0.62,0.09-1.25,0.3-1.84c0.13-0.36,0.32-0.92,0.49-0.29c0.09,0.31-0.03,0.78-0.06,1.1c-0.06,0.56,0.81,0.62,0.87,0.07
					c0.07-0.66,0.36-2.03-0.38-2.44c-0.61-0.34-1.18,0.15-1.46,0.66c-1.02,1.84-0.62,4.37-0.46,6.36c0.12,1.59,0.72,3.55,2.75,3.04
					c1.92-0.48,2.62-2.89,3.06-4.55c0.03-0.1,0.02-0.2-0.01-0.28c0.01-0.01,0.02-0.03,0.02-0.04c0.08,0.08,0.16,0.16,0.24,0.24
					c0.11,0.1,0.22,0.21,0.33,0.32c-0.2,0.28-0.41,0.56-0.62,0.83c-0.12,0.15-0.08,0.39,0.03,0.53c0.64,0.78,1.8,0.2,1.78-0.75
					c-0.01-0.22-0.06-0.42-0.15-0.6c0.61-0.87,1.17-1.77,1.7-2.69c0.27,0.27,0.62,0.44,1.04,0.42c0.03,0,0.06-0.01,0.09-0.01
					c0.22,0.24,0.5,0.43,0.76,0.58c0.25,0.14,0.53,0.23,0.75,0.41c0.41,0.34,0.29,0.72,0.2,1.2c-0.12,0.63-0.32,1.26-0.5,1.88
					c-0.88,0.5-1.74,1.14-2.03,2.15c-0.27,0.92-0.03,1.89,0.76,2.46c0.24,0.17,0.55,0.03,0.65-0.22c0.49-1.22,0.94-2.45,1.32-3.7
					c0.01-0.04,0.02-0.08,0.04-0.12c0.77-0.44,1.58-0.83,2.35-1.28c2.03-1.2,3.95-2.57,5.77-4.08
					C251.14,163.83,250.57,163.17,250.13,163.53z M239.56,162.37c-0.01-0.35,0.18-0.99,0.58-0.98c-0.18,0.39-0.37,0.78-0.56,1.17
					C239.57,162.5,239.56,162.43,239.56,162.37z M240.67,172.43c-0.37-0.69,0.16-1.53,0.76-2.09
					C241.19,171.04,240.94,171.74,240.67,172.43z"/>
			</g>
			<g class="st50">
				<polygon class="st212" points="48.93,156.53 53.58,168.99 32.76,176.76 28.11,164.29 40.85,166.64 				"/>
				<path class="st213" d="M28.11,164.29l20.82-7.76l-6.74,9.76c-0.53,0.77-1.48,1.13-2.39,0.9L28.11,164.29z"/>
			</g>
			<g class="st50">
				<polygon class="st212" points="398.1,81.28 391.57,105.76 350.69,94.85 357.22,70.37 374.4,88.07 				"/>
				<path class="st213" d="M357.22,70.37l40.88,10.91L376.88,89c-1.67,0.61-3.55,0.12-4.71-1.23L357.22,70.37z"/>
			</g>
			<g>
				<g>
					<g>
						<path class="st13" d="M32.58,210.59C32.58,210.59,32.58,210.59,32.58,210.59c-0.99,0-1.95-0.02-2.85-0.04
							c-0.1,0-0.19-0.09-0.18-0.19c0-0.1,0.09-0.19,0.19-0.18c0.9,0.02,1.86,0.04,2.84,0.04c0.1,0,0.19,0.09,0.19,0.19
							C32.77,210.5,32.68,210.59,32.58,210.59z M35.43,210.56c-0.1,0-0.19-0.08-0.19-0.19c0-0.1,0.08-0.19,0.19-0.19
							c0.91-0.02,1.87-0.04,2.85-0.07c0.11-0.01,0.19,0.08,0.2,0.18c0,0.1-0.08,0.19-0.18,0.2
							C37.3,210.52,36.34,210.55,35.43,210.56C35.43,210.56,35.43,210.56,35.43,210.56z M26.89,210.42c0,0-0.01,0-0.01,0
							c-1-0.06-1.96-0.14-2.84-0.23c-0.1-0.01-0.18-0.1-0.17-0.21c0.01-0.1,0.1-0.18,0.21-0.17c0.88,0.09,1.83,0.17,2.83,0.23
							c0.1,0.01,0.18,0.1,0.18,0.2C27.07,210.34,26.99,210.42,26.89,210.42z M41.12,210.38c-0.1,0-0.18-0.08-0.19-0.18
							c0-0.1,0.08-0.19,0.18-0.2c0.91-0.04,1.87-0.09,2.84-0.15c0.1,0,0.19,0.07,0.2,0.18c0.01,0.1-0.07,0.19-0.18,0.2
							C43,210.29,42.04,210.34,41.12,210.38C41.13,210.38,41.12,210.38,41.12,210.38z M46.81,210.05c-0.1,0-0.18-0.08-0.19-0.18
							c-0.01-0.1,0.07-0.19,0.18-0.2c0.93-0.06,1.88-0.13,2.84-0.2c0.1-0.01,0.2,0.07,0.2,0.17c0.01,0.1-0.07,0.2-0.17,0.2
							c-0.96,0.07-1.91,0.14-2.84,0.2C46.82,210.05,46.81,210.05,46.81,210.05z M21.24,209.8c-0.01,0-0.02,0-0.03,0
							c-1.05-0.19-1.99-0.41-2.79-0.67c-0.1-0.03-0.16-0.14-0.12-0.24c0.03-0.1,0.14-0.16,0.24-0.12c0.79,0.25,1.71,0.47,2.74,0.66
							c0.1,0.02,0.17,0.12,0.15,0.22C21.41,209.73,21.33,209.8,21.24,209.8z M52.49,209.62c-0.1,0-0.18-0.07-0.19-0.17
							c-0.01-0.1,0.07-0.2,0.17-0.2c0.94-0.08,1.88-0.16,2.84-0.25c0.11-0.01,0.2,0.07,0.21,0.17c0.01,0.1-0.07,0.2-0.17,0.21
							c-0.96,0.09-1.9,0.17-2.84,0.25C52.5,209.62,52.5,209.62,52.49,209.62z M58.17,209.1c-0.1,0-0.18-0.07-0.19-0.17
							c-0.01-0.1,0.07-0.2,0.17-0.21c0.94-0.09,1.88-0.19,2.83-0.28c0.1-0.01,0.2,0.07,0.21,0.17c0.01,0.1-0.07,0.2-0.17,0.21
							c-0.95,0.1-1.9,0.19-2.84,0.28C58.18,209.1,58.17,209.1,58.17,209.1z M63.83,208.52c-0.1,0-0.18-0.07-0.19-0.17
							c-0.01-0.1,0.06-0.2,0.17-0.21c0.94-0.1,1.88-0.21,2.83-0.31c0.1-0.01,0.2,0.06,0.21,0.17c0.01,0.1-0.06,0.2-0.17,0.21
							c-0.95,0.11-1.89,0.21-2.83,0.31C63.85,208.52,63.84,208.52,63.83,208.52z M15.91,207.93c-0.04,0-0.08-0.01-0.11-0.04
							c-0.55-0.4-0.95-0.85-1.18-1.35c-0.17-0.36-0.31-0.72-0.42-1.07c-0.03-0.1,0.02-0.21,0.12-0.24c0.1-0.03,0.21,0.02,0.24,0.12
							c0.1,0.33,0.24,0.68,0.4,1.02c0.21,0.43,0.56,0.84,1.06,1.2c0.08,0.06,0.1,0.18,0.04,0.26
							C16.02,207.9,15.97,207.93,15.91,207.93z M69.49,207.89c-0.09,0-0.18-0.07-0.19-0.17c-0.01-0.1,0.06-0.2,0.17-0.21
							c0.94-0.11,1.88-0.22,2.83-0.34c0.1-0.01,0.2,0.06,0.21,0.17c0.01,0.1-0.06,0.2-0.17,0.21c-0.95,0.11-1.89,0.23-2.83,0.34
							C69.51,207.88,69.5,207.89,69.49,207.89z M75.15,207.2c-0.09,0-0.18-0.07-0.19-0.17c-0.01-0.1,0.06-0.2,0.16-0.21
							c0.94-0.12,1.88-0.24,2.82-0.36c0.1-0.01,0.2,0.06,0.21,0.16c0.01,0.1-0.06,0.2-0.16,0.21c-0.94,0.12-1.88,0.24-2.82,0.36
							C75.16,207.2,75.16,207.2,75.15,207.2z M80.78,206.47c-0.09,0-0.18-0.07-0.19-0.16c-0.01-0.1,0.06-0.2,0.16-0.21
							c0.94-0.12,1.88-0.25,2.82-0.38c0.11-0.01,0.2,0.06,0.21,0.16c0.01,0.1-0.06,0.2-0.16,0.21c-0.94,0.13-1.88,0.25-2.82,0.38
							C80.8,206.47,80.79,206.47,80.78,206.47z M86.44,205.71c-0.09,0-0.17-0.07-0.19-0.16c-0.01-0.1,0.06-0.2,0.16-0.21
							c0.94-0.13,1.88-0.26,2.82-0.39c0.1-0.02,0.2,0.06,0.21,0.16c0.01,0.1-0.06,0.2-0.16,0.21c-0.94,0.13-1.88,0.26-2.82,0.39
							C86.45,205.71,86.45,205.71,86.44,205.71z M92.08,204.91c-0.09,0-0.17-0.07-0.19-0.16c-0.01-0.1,0.06-0.2,0.16-0.21
							c0.94-0.14,1.88-0.27,2.82-0.41c0.1-0.02,0.2,0.06,0.21,0.16c0.02,0.1-0.06,0.2-0.16,0.22c-0.94,0.14-1.88,0.27-2.82,0.41
							C92.1,204.91,92.09,204.91,92.08,204.91z M97.71,204.09c-0.09,0-0.17-0.07-0.19-0.16c-0.02-0.1,0.06-0.2,0.16-0.22
							c0.94-0.14,1.88-0.28,2.82-0.42c0.1-0.02,0.2,0.06,0.22,0.16c0.02,0.1-0.06,0.2-0.16,0.22c-0.94,0.14-1.87,0.28-2.82,0.42
							C97.73,204.09,97.72,204.09,97.71,204.09z M103.35,203.23c-0.09,0-0.17-0.07-0.19-0.16c-0.02-0.1,0.06-0.2,0.16-0.22
							c0.94-0.14,1.88-0.29,2.81-0.44c0.1-0.02,0.2,0.05,0.22,0.16c0.02,0.1-0.05,0.2-0.16,0.22c-0.93,0.15-1.87,0.29-2.82,0.44
							C103.37,203.23,103.36,203.23,103.35,203.23z M14.19,202.8c-0.01,0-0.03,0-0.04,0c-0.1-0.02-0.17-0.12-0.15-0.22
							c0.18-0.9,0.61-1.78,1.27-2.59c0.07-0.08,0.19-0.09,0.27-0.03c0.08,0.07,0.09,0.19,0.03,0.27c-0.62,0.77-1.02,1.58-1.19,2.43
							C14.36,202.74,14.28,202.8,14.19,202.8z M108.97,202.36c-0.09,0-0.17-0.07-0.19-0.16c-0.02-0.1,0.05-0.2,0.16-0.22
							c0.94-0.15,1.88-0.3,2.81-0.45c0.1-0.02,0.2,0.05,0.22,0.16c0.02,0.1-0.05,0.2-0.16,0.22c-0.93,0.15-1.87,0.3-2.81,0.45
							C108.99,202.36,108.98,202.36,108.97,202.36z M114.6,201.46c-0.09,0-0.17-0.07-0.19-0.16c-0.02-0.1,0.05-0.2,0.16-0.22
							c0.95-0.15,1.88-0.31,2.81-0.46c0.1-0.02,0.2,0.05,0.22,0.16c0.02,0.1-0.05,0.2-0.16,0.22c-0.93,0.15-1.87,0.3-2.81,0.46
							C114.62,201.46,114.61,201.46,114.6,201.46z M120.22,200.53c-0.09,0-0.17-0.07-0.19-0.16c-0.02-0.1,0.05-0.2,0.16-0.22
							c0.95-0.16,1.89-0.31,2.81-0.47c0.1-0.02,0.2,0.05,0.22,0.16c0.02,0.1-0.05,0.2-0.16,0.22c-0.92,0.15-1.86,0.31-2.81,0.47
							C120.24,200.53,120.23,200.53,120.22,200.53z M125.84,199.59c-0.09,0-0.17-0.07-0.19-0.16c-0.02-0.1,0.05-0.2,0.16-0.22
							c0.95-0.16,1.89-0.32,2.81-0.48c0.1-0.02,0.2,0.05,0.22,0.15c0.02,0.1-0.05,0.2-0.15,0.22c-0.92,0.16-1.86,0.32-2.81,0.48
							C125.86,199.59,125.85,199.59,125.84,199.59z M131.46,198.63c-0.09,0-0.17-0.06-0.19-0.16c-0.02-0.1,0.05-0.2,0.15-0.22
							c0.96-0.17,1.89-0.33,2.81-0.49c0.1-0.02,0.2,0.05,0.22,0.15c0.02,0.1-0.05,0.2-0.15,0.22c-0.91,0.16-1.85,0.32-2.81,0.49
							C131.48,198.63,131.47,198.63,131.46,198.63z M17.52,198.4c-0.06,0-0.12-0.03-0.16-0.08c-0.06-0.09-0.04-0.2,0.05-0.26
							c0.72-0.5,1.55-0.98,2.49-1.44c0.09-0.05,0.21-0.01,0.25,0.09c0.05,0.09,0.01,0.21-0.09,0.25c-0.92,0.45-1.74,0.92-2.44,1.41
							C17.6,198.39,17.56,198.4,17.52,198.4z M137.07,197.64c-0.09,0-0.17-0.06-0.19-0.16c-0.02-0.1,0.05-0.2,0.15-0.22
							c0.97-0.17,1.91-0.34,2.81-0.5c0.1-0.02,0.2,0.05,0.22,0.15c0.02,0.1-0.05,0.2-0.15,0.22c-0.9,0.16-1.84,0.33-2.81,0.5
							C137.1,197.64,137.09,197.64,137.07,197.64z M142.69,196.64c-0.09,0-0.17-0.06-0.19-0.16c-0.02-0.1,0.05-0.2,0.15-0.22
							c0.99-0.18,1.93-0.35,2.81-0.51c0.1-0.02,0.2,0.05,0.22,0.15c0.02,0.1-0.05,0.2-0.15,0.22c-0.88,0.16-1.82,0.33-2.81,0.51
							C142.71,196.64,142.7,196.64,142.69,196.64z M22.61,195.86c-0.08,0-0.15-0.05-0.18-0.12c-0.04-0.1,0.01-0.21,0.11-0.24
							c0.84-0.31,1.75-0.62,2.72-0.9c0.1-0.03,0.21,0.03,0.24,0.13c0.03,0.1-0.03,0.21-0.13,0.24c-0.95,0.28-1.86,0.59-2.69,0.9
							C22.65,195.85,22.63,195.86,22.61,195.86z M148.3,195.61c-0.09,0-0.17-0.06-0.19-0.16c-0.02-0.1,0.05-0.2,0.15-0.22
							c1.07-0.2,2.01-0.37,2.81-0.52c0.1-0.02,0.2,0.05,0.22,0.15c0.02,0.1-0.05,0.2-0.15,0.22c-0.8,0.15-1.74,0.33-2.81,0.52
							C148.33,195.61,148.32,195.61,148.3,195.61z M153.93,194.56c-0.09,0-0.17-0.06-0.19-0.15c-0.02-0.1,0.05-0.2,0.15-0.22
							c0.19-0.04,0.3-0.06,0.33-0.06c0.11-0.03,0.23,0.07,0.23,0.18c0,0.16-0.02,0.16-0.49,0.25
							C153.95,194.56,153.94,194.56,153.93,194.56z M28.06,194.21c-0.09,0-0.16-0.06-0.18-0.14c-0.02-0.1,0.04-0.2,0.14-0.23
							c0.89-0.22,1.83-0.43,2.79-0.63c0.1-0.02,0.2,0.05,0.22,0.15c0.02,0.1-0.05,0.2-0.15,0.22c-0.96,0.2-1.89,0.41-2.78,0.62
							C28.09,194.21,28.08,194.21,28.06,194.21z M33.65,193.06c-0.09,0-0.17-0.07-0.19-0.16c-0.02-0.1,0.05-0.2,0.15-0.22
							c0.91-0.16,1.86-0.31,2.82-0.45c0.11-0.02,0.2,0.06,0.21,0.16c0.02,0.1-0.06,0.2-0.16,0.21c-0.96,0.14-1.91,0.29-2.81,0.44
							C33.67,193.06,33.66,193.06,33.65,193.06z M39.3,192.24c-0.09,0-0.18-0.07-0.19-0.17c-0.01-0.1,0.06-0.2,0.17-0.21
							c0.93-0.11,1.89-0.22,2.84-0.31c0.1-0.01,0.2,0.07,0.21,0.17c0.01,0.1-0.07,0.2-0.17,0.21c-0.95,0.09-1.9,0.2-2.83,0.31
							C39.31,192.24,39.3,192.24,39.3,192.24z M44.98,191.68c-0.1,0-0.18-0.08-0.19-0.18c-0.01-0.1,0.07-0.2,0.17-0.2
							c1.76-0.14,2.86-0.18,2.87-0.18c0.11-0.01,0.19,0.08,0.2,0.18c0,0.1-0.08,0.19-0.18,0.2c-0.01,0-1.1,0.05-2.86,0.18
							C44.99,191.68,44.98,191.68,44.98,191.68z"/>
					</g>
				</g>
				<g>
					<polygon class="st25" points="160.27,204.55 183.63,191.31 162.32,192.57 163.96,196.17 159.56,201.04 					"/>
					<polygon class="st13" points="183.63,191.31 159.15,195.79 141.32,208.18 					"/>
					<polygon class="st13" points="162.32,192.57 183.63,191.31 161.34,184.77 					"/>
				</g>
			</g>
			<g>
				<g>
					<polygon class="st58" points="286.66,30.56 313.19,34.76 295.73,22.47 294.77,26.31 288.29,27.38 					"/>
					<polygon class="st8" points="313.19,34.76 291.24,23.02 269.57,21.59 					"/>
					<polygon class="st8" points="295.73,22.47 313.19,34.76 299.82,15.76 					"/>
				</g>
			</g>
			<g id="girl_2_1_">
				<path class="st3" d="M366.99,138.04c0,0-5.41,0.38-9.4,10.12c-4.03,9.82,4.98,9.73,1.95,15.99c-3.03,6.26,4.37,9.99,6.62,15.12
					c2.25,5.12,13.57,17.49,14.47,23.13c0.9,5.64,10.97-5.86,10.97-5.86s10.24-10.92,6.57-17.26c-6.05-10.46-0.81-12.73-1-18.57
					C396.96,154.86,385.88,131.85,366.99,138.04z"/>
				<path class="st214" d="M364.05,172.99c0,0-20.94,9.13-24.92,8.95c-3.98-0.17-28.49-7.47-28.49-7.47l0.62,4.22
					c0,0,18.92,10.88,25.53,11.5c6.51,0.61,28.77-5.84,30.92-7.21C369.87,181.62,370.3,174.37,364.05,172.99z"/>
				<path class="st210" d="M362.36,182.99c1.92,1.34,4.34,2.44,7.37,3.14c11.36,2.62,15.71-6.97,17.34-13.56
					c-1.55-0.89-3.01-1.08-3.85-1.18c-0.82-0.1-1.68-0.16-2.4-0.2c-1.27-0.98-3.18-4.97-3.6-11.18l-0.53,0.14l-8.95,2.45
					c0,0,0.41,2.85,0.61,5.53c0.16,2.1,0.43,3.33,0.03,3.82c-0.7,0.15-1.37,1.04-1.37,1.04s0,0,0,0.01
					C366.89,173.2,364.3,177.47,362.36,182.99z"/>
				<path class="st211" d="M367.74,162.6c0,0,0.41,2.84,0.61,5.53c5.07-0.51,7.42-5.34,8.34-7.98L367.74,162.6z"/>
				<path class="st210" d="M366.23,165.27c0,0,12.03-0.66,11.51-8.15c-0.53-7.49,0.67-12.62-7.04-12.51c-7.71,0.11-9,3.07-9.43,5.61
					C360.84,152.76,363.08,165.25,366.23,165.27z"/>
				<path class="st17" d="M390.5,207.46c1.09-5.56,4.63-27.75,1.09-34.9c-1.27-2.57-6.27-2.8-11.75-2.57
					c-1.7,1.1-8.2,5.26-10.87,4.74c-0.03-0.01-0.08-0.02-0.15-0.04c-1.26-0.31-1.48-1.99-0.43-2.75c0,0-2.96,0.53-6.33,1.16
					c-1.9,0.36-7.04,3.01-7.04,3.01s2.59,4.67,6.4,6.28c-0.65,5.8,0.32,8.36,6.33,21.75c5.08,11.32-0.69,21.52-0.69,21.52
					s29.93,24.06,30.09,11.81C397.28,228.27,389.11,214.56,390.5,207.46z"/>
				<path class="st27" d="M365.57,251.84c-1.63-0.18-3.09-1.07-4-2.44c-0.14-0.22-0.3-0.45-0.46-0.7
					c-3.41-5.16-4.73-20.95-12.39-37.77c-1.87-4.1-8.57-4.83-10.39-9.46c0,0-4.5-15.01,8.61-15.45
					c13.1-0.44,35.09,41.76,35.44,46.18C382.7,236.49,391.03,254.71,365.57,251.84z"/>
				<path class="st3" d="M313.5,251.5h18.65c0,0,0.7-2.97-0.53-5c-1.08-1.79-0.67-2.81,0.13-4.29c-0.84,0.35-1.94,0.66-3.14,0.59
					c-0.93-0.05-1.91-0.48-2.77-0.98c-0.8,0.92-4.24,4.81-5.31,5.58C319.31,248.28,313.88,247.97,313.5,251.5z"/>
				<path class="st30" d="M388.53,178.38c0,0,2.43,22.08-13.31,26.71c-15.74,4.63-20.21-20.32-7.5-22.11
					C380.43,181.19,388.53,178.38,388.53,178.38z"/>
				<path class="st27" d="M337.9,190.36c-1.12,8.42-5.51,34.99-13.24,47.95c-2.49,4.18,6.28,6.52,6.33,6.51
					c1.18-0.31,3.14-2.18,4.04-3c6.28-5.66,19.03-21.68,19.03-34.53c0-6.26,0.11-18.23-4.45-21.27
					C346.8,184.15,338.34,187.02,337.9,190.36z"/>
				<path class="st11" d="M376.69,251.5c0,0-0.69-0.96-1.9-2.79c-1.43-2.17-3.02-6.45-4.95-11.93c-2.02-5.75-4.42-12.83-7.42-20.19
					c-0.93-2.27-1.91-4.57-2.95-6.87c-1.87-4.1-7-3.53-8.83-8.16c0,0-7.13-16.05,5.97-16.49c13.1-0.44,38,42.94,39.43,47.14
					C397.62,236.8,405.26,255.9,376.69,251.5z"/>
				<path class="st3" d="M327.19,251.5h18.65c0,0,0.7-2.97-0.53-5c-1.08-1.79-0.67-2.81,0.13-4.29c-0.84,0.35-1.94,0.66-3.14,0.59
					c-0.93-0.05-1.91-0.48-2.77-0.98c-0.8,0.92-4.24,4.81-5.31,5.58C333,248.28,327.57,247.97,327.19,251.5z"/>
				<path class="st215" d="M369.85,236.78c-2.02-5.75-4.42-12.83-7.42-20.19c0.78-5.58,2.47-10.46,5.31-12.43
					C367.74,204.16,374.63,225.51,369.85,236.78z"/>
				<path class="st11" d="M348.78,189.76c-1.12,8.42-2.7,35.58-10.44,48.55c-2.49,4.18,6.28,6.52,6.33,6.51
					c1.18-0.31,3.14-2.18,4.04-3c6.28-5.66,19.03-21.68,19.03-34.53c0-6.26-7.35-17.73-11.91-20.77
					C353.03,184.65,349.23,186.42,348.78,189.76z"/>
				<path class="st216" d="M325.69,167.69c0,0-0.95-2.43-2.69-2.27c-1.74,0.16-17.53,2.27-17.53,2.27s1.84,0.44,2.53,1.65
					l7.28,21.46h18.68L325.69,167.69z"/>
				<path class="st217" d="M387.07,172.57c0,0-26.47,9.75-30.44,9.55c-2.57-0.13-23.94-7.64-23.94-7.64l-1.92,3.63
					c0,0,20.8,13.37,26.51,13.3c11.29-0.13,30.33-7.06,32.48-8.42C391.91,181.62,393.32,173.94,387.07,172.57z"/>
				<path class="st217" d="M332.69,174.47c0,0-1.92-2.95-3.83-3.04c-1.91-0.09-5.21,1.3-6.34,1.52c-1.13,0.22-4.34,1.26-3.39,2.82
					c0.95,1.56,5.38,1.91,7.29,1.56c1.91-0.35,4.34,0.76,4.34,0.76L332.69,174.47z"/>
				<path class="st217" d="M329.38,171.53c0,0-3.04-1.39-3.91-1.65c-0.87-0.26-0.69,0-0.43,0.83s1.82,1.61,1.82,1.87
					S329.38,171.53,329.38,171.53z"/>
				<path class="st17" d="M373.43,177.37c0,0,2.37,7.49,10.5,9.2c0,0,13.43-4.14,6.74-13.28
					C390.67,173.29,384.06,168.38,373.43,177.37z"/>
				<path class="st9" d="M305.47,167.69c0,0-1.75,0.67-0.43,2.95l17.07-2.28c0,0-0.59-2.64,0.75-2.93L305.47,167.69z"/>
				<path class="st214" d="M311.59,173.29c0.41-1.62,0.38-2.01-0.54-3.01c-0.61-0.65-1.53,0.97-2.01,1.95
					c-0.18-0.43-0.48-1.14-0.58-1.17c-0.15-0.05,0.2,2.18,0.2,2.18l0,0c-0.01,0.09-0.01,0.19-0.01,0.28l0,0c0,0-0.74,3.28,2.49,5.05
					l-0.62-1.81C310.9,176.7,311.18,174.94,311.59,173.29z"/>
				<path class="st3" d="M365.77,146.26c0,0,2.54-0.89,3.77,1.7c1.23,2.59,1.62,8.79,6.55,9.29c4.93,0.51,5.12-10.5,5.12-10.5
					l-12.33-4.87l-6.51,4.11L365.77,146.26z"/>
				<path class="st3" d="M365.77,146.26c0,0-2.78,0.06-3.41,2.4c-0.63,2.34,0.36,6.7-1.18,7.02c-1.54,0.32-2.94-7.27,0.04-9.74
					C364.19,143.48,365.77,146.26,365.77,146.26z"/>
			</g>
			<path class="st210" d="M147.72,105.65c0,0,2.78-1.05,3.1-1.78c0.32-0.73,1.23-1.04,2.34-1.55c1.11-0.51,1.77-1.42,1.93-1.3
				c0.16,0.13,0.19,0.76-0.25,1.23c-0.44,0.47-2.32,3.79-3.02,4.17C151.1,106.81,147.72,105.65,147.72,105.65z"/>
			<g>
				<path class="st3" d="M184.08,244.27h-37.51c-1.37,0-2.48-1.11-2.48-2.48v-11.82c0-1.37,1.11-2.48,2.48-2.48h37.51
					c1.37,0,2.48,1.11,2.48,2.48v11.82C186.55,243.17,185.44,244.27,184.08,244.27z"/>
				<g>
					<path class="st9" d="M175.8,231.67h-26.6c-0.3,0-0.54-0.24-0.54-0.54l0,0c0-0.3,0.24-0.54,0.54-0.54h26.6
						c0.3,0,0.54,0.24,0.54,0.54l0,0C176.34,231.43,176.09,231.67,175.8,231.67z"/>
					<path class="st9" d="M153.91,234h-4.72c-0.3,0-0.54-0.24-0.54-0.54l0,0c0-0.3,0.24-0.54,0.54-0.54h4.72
						c0.3,0,0.54,0.24,0.54,0.54l0,0C154.45,233.76,154.21,234,153.91,234z"/>
					<path class="st9" d="M168.77,234h-13c-0.3,0-0.54-0.24-0.54-0.54l0,0c0-0.3,0.24-0.54,0.54-0.54h13c0.3,0,0.54,0.24,0.54,0.54
						l0,0C169.31,233.76,169.07,234,168.77,234z"/>
				</g>
				<g>
					<path class="st9" d="M175.8,238.32h-26.6c-0.3,0-0.54-0.24-0.54-0.54l0,0c0-0.3,0.24-0.54,0.54-0.54h26.6
						c0.3,0,0.54,0.24,0.54,0.54l0,0C176.34,238.07,176.09,238.32,175.8,238.32z"/>
					<path class="st9" d="M158.85,240.64h-9.66c-0.3,0-0.54-0.24-0.54-0.54l0,0c0-0.3,0.24-0.54,0.54-0.54h9.66
						c0.3,0,0.54,0.24,0.54,0.54l0,0C159.39,240.4,159.15,240.64,158.85,240.64z"/>
					<path class="st9" d="M170.6,240.64h-9.66c-0.3,0-0.54-0.24-0.54-0.54l0,0c0-0.3,0.24-0.54,0.54-0.54h9.66
						c0.3,0,0.54,0.24,0.54,0.54l0,0C171.14,240.4,170.89,240.64,170.6,240.64z"/>
				</g>
			</g>
		</g>
	</g>
	<path class="st9" d="M267.94,108.71h-61.87c-0.9,0-1.63-0.73-1.63-1.63l0,0c0-0.9,0.74-1.63,1.63-1.63h61.87
		c0.9,0,1.63,0.74,1.63,1.63l0,0C269.57,107.98,268.84,108.71,267.94,108.71z"/>
	<path class="st9" d="M283.87,115.27h-93.74c-0.9,0-1.63-0.74-1.63-1.63l0,0c0-0.9,0.73-1.63,1.63-1.63h93.74
		c0.9,0,1.63,0.73,1.63,1.63l0,0C285.51,114.53,284.77,115.27,283.87,115.27z"/>
	<g>
		<g>
			<g>
				<path class="st8" d="M284.51,19.53c-0.41-0.28-0.85-0.57-1.31-0.87l0.29-0.44c0.47,0.3,0.91,0.59,1.32,0.88L284.51,19.53z"/>
			</g>
			<g>
				<path class="st8" d="M200.26,80.21l-0.14-0.51c1-0.28,1.99-0.6,2.96-0.95l0.18,0.5C202.27,79.6,201.27,79.93,200.26,80.21z
					 M206.18,78.1l-0.21-0.48c0.95-0.41,1.9-0.86,2.81-1.34l0.24,0.47C208.1,77.22,207.14,77.68,206.18,78.1z M211.77,75.2
					l-0.28-0.45c0.88-0.54,1.75-1.12,2.59-1.71l0.31,0.43C213.54,74.07,212.66,74.65,211.77,75.2z M216.88,71.54l-0.34-0.41
					c0.79-0.66,1.57-1.35,2.32-2.07l0.36,0.38C218.47,70.17,217.68,70.88,216.88,71.54z M221.41,67.19l-0.39-0.35
					c0.69-0.75,1.36-1.55,2.01-2.37l0.41,0.33C222.79,65.62,222.11,66.43,221.41,67.19z M225.33,62.28l-0.43-0.31
					c0.59-0.83,1.17-1.7,1.73-2.59l0.45,0.28C226.51,60.56,225.93,61.44,225.33,62.28z M228.7,56.98l-0.46-0.26
					c0.5-0.86,0.99-1.76,1.51-2.73l0.47,0.25C229.69,55.21,229.2,56.11,228.7,56.98z M266.86,52.37c-1-0.07-2.05-0.2-3.13-0.4
					l0.09-0.52c1.06,0.2,2.1,0.33,3.07,0.39L266.86,52.37z M270.03,52.34l-0.06-0.53c1.26-0.14,2.24-0.44,2.83-0.87l0.31,0.43
					C272.44,51.86,271.4,52.19,270.03,52.34z M231.65,51.44l-0.47-0.24c0.48-0.95,0.94-1.88,1.39-2.8l0.47,0.23
					C232.59,49.55,232.13,50.49,231.65,51.44z M260.66,51.25c-1.01-0.29-2.01-0.62-2.99-1l0.19-0.49c0.96,0.37,1.95,0.7,2.95,0.98
					L260.66,51.25z M254.78,48.98c-0.95-0.47-1.88-0.99-2.75-1.54L252.3,47c0.86,0.54,1.77,1.05,2.71,1.52L254.78,48.98z
					 M273.27,48.4c-0.25-0.8-0.71-1.72-1.36-2.74l0.45-0.28c0.67,1.06,1.15,2.02,1.41,2.86L273.27,48.4z M234.41,45.81l-0.47-0.23
					c0.48-0.96,0.94-1.9,1.42-2.8l0.47,0.25C235.35,43.92,234.89,44.86,234.41,45.81z M249.45,45.62c-0.1-0.08-0.2-0.16-0.3-0.25
					c-0.7-0.57-1.39-1.2-2.05-1.87l0.38-0.37c0.65,0.65,1.32,1.27,2.01,1.84c0.1,0.08,0.19,0.16,0.29,0.24L249.45,45.62z
					 M270.07,43.16c-0.63-0.76-1.33-1.54-2.09-2.3l0.38-0.37c0.77,0.78,1.48,1.56,2.12,2.34L270.07,43.16z M245,41.15
					c-0.65-0.81-1.27-1.66-1.86-2.55l0.44-0.29c0.57,0.87,1.19,1.72,1.83,2.51L245,41.15z M237.34,40.3l-0.46-0.27
					c0.59-0.99,1.15-1.86,1.71-2.65l0.43,0.31C238.46,38.46,237.91,39.31,237.34,40.3z M265.71,38.74
					c-0.79-0.68-1.61-1.34-2.43-1.94l0.31-0.42c0.83,0.61,1.66,1.27,2.46,1.97L265.71,38.74z M241.53,35.89
					c-0.13-0.25-0.26-0.49-0.39-0.74c-0.05,0.05-0.11,0.11-0.16,0.16l-0.38-0.37c0.1-0.1,0.2-0.2,0.29-0.3
					c-0.26-0.53-0.5-1.06-0.73-1.6l0.49-0.21c0.2,0.48,0.42,0.95,0.64,1.43c0.56-0.52,1.13-0.97,1.73-1.36l0.29,0.44
					c-0.62,0.41-1.2,0.87-1.78,1.42c0.15,0.3,0.3,0.59,0.46,0.88L241.53,35.89z M260.7,35.06c-0.91-0.56-1.83-1.06-2.73-1.48
					l0.23-0.48c0.91,0.44,1.85,0.94,2.77,1.51L260.7,35.06z M255.1,32.41c-1.02-0.34-2.02-0.59-2.99-0.75l0.08-0.52
					c1,0.16,2.03,0.42,3.07,0.77L255.1,32.41z M246.05,32.02l-0.16-0.5c0.41-0.13,0.83-0.24,1.26-0.33c0.6-0.12,1.23-0.2,1.87-0.23
					l0.03,0.53c-0.61,0.03-1.22,0.11-1.79,0.22C246.85,31.79,246.44,31.9,246.05,32.02z M239.08,30.08
					c-0.32-1.02-0.58-2.05-0.79-3.06l0.52-0.1c0.2,0.99,0.46,2,0.77,3L239.08,30.08z M237.86,23.89c-0.04-0.54-0.06-1.07-0.06-1.58
					c0-0.54,0.02-1.07,0.06-1.58l0.53,0.04c-0.04,0.5-0.06,1.02-0.06,1.54c0,0.5,0.02,1.02,0.06,1.55L237.86,23.89z M238.93,17.74
					l-0.51-0.15c0.31-1.07,0.74-2.05,1.28-2.92l0.45,0.28C239.64,15.78,239.23,16.72,238.93,17.74z M280.54,17.06
					c-0.9-0.51-1.82-1-2.75-1.45l0.23-0.47c0.94,0.46,1.87,0.95,2.78,1.47L280.54,17.06z M274.95,14.32
					c-0.95-0.4-1.93-0.77-2.91-1.11l0.17-0.5c0.99,0.34,1.97,0.72,2.94,1.12L274.95,14.32z M242.12,12.64l-0.34-0.4
					c0.78-0.67,1.69-1.24,2.7-1.71l0.22,0.48C243.73,11.45,242.86,12,242.12,12.64z M269.07,12.27l-0.31-0.09
					c-0.75-0.21-1.66-0.46-2.71-0.72l0.13-0.51c1.05,0.27,1.97,0.52,2.72,0.73l0.31,0.09L269.07,12.27z M263.02,10.75
					c-1.05-0.23-2.08-0.42-3.06-0.59l0.09-0.52c0.99,0.16,2.03,0.36,3.09,0.59L263.02,10.75z M247.61,10.05l-0.12-0.52
					c0.97-0.22,2.02-0.37,3.13-0.46l0.04,0.53C249.58,9.68,248.55,9.83,247.61,10.05z M256.87,9.74c-1.08-0.11-2.12-0.18-3.1-0.21
					L253.78,9c0.99,0.03,2.05,0.1,3.14,0.21L256.87,9.74z"/>
			</g>
			<g>
				<path class="st8" d="M195.54,81.31l-0.09-0.52c0.47-0.08,0.98-0.19,1.54-0.3L197.1,81C196.54,81.12,196.02,81.22,195.54,81.31z"
					/>
			</g>
		</g>
	</g>
	<g>
		<path class="st3" d="M228.99,34.18l8.84,19.49l-32.56,14.76l-8.84-19.49c5.15-2.26,10.35-4.57,15.58-6.94
			C217.74,39.4,223.41,36.79,228.99,34.18z"/>
		<path class="st150" d="M196.42,48.94l32.56-14.76l-9.74,16.41c-0.77,1.29-2.26,1.98-3.74,1.72L196.42,48.94z"/>
	</g>
</g>
</svg>
