<?xml version="1.0" encoding="utf-8"?>
<!-- Generator: Adobe Illustrator 26.3.1, SVG Export Plug-In . SVG Version: 6.00 Build 0)  -->
<svg version="1.1" id="Layer_1" xmlns="http://www.w3.org/2000/svg" xmlns:xlink="http://www.w3.org/1999/xlink" x="0px" y="0px"
	 viewBox="0 0 420 258" style="enable-background:new 0 0 420 258;" xml:space="preserve">
<style type="text/css">
	.st0{opacity:0.43;}
	.st1{fill:#CEDFFF;}
	.st2{fill:#0B50B9;}
	.st3{fill:#110239;}
	.st4{opacity:0.78;fill:#DCEAFF;}
	.st5{opacity:0.78;}
	.st6{opacity:0.5;fill:#BFDCFF;}
	.st7{fill:#005FBA;}
	.st8{fill:#FB961E;}
	.st9{fill:#FFFFFF;}
	.st10{fill:#FFAE73;}
	.st11{fill:#002897;}
	.st12{fill:#00158B;}
	.st13{fill:#ED057F;}
	.st14{fill:#A21B89;}
	.st15{fill:#F99352;}
	.st16{fill:#1F0757;}
	.st17{fill:#0097DD;}
	.st18{fill:#0072C6;}
	.st19{fill:#00A9E9;}
	.st20{fill:#25468F;}
	.st21{fill:#E8F2FA;}
	.st22{opacity:0.49;}
	.st23{fill:#E5E6ED;}
	.st24{fill:#214D9A;}
	.st25{fill:#CF0E83;}
	.st26{fill:#FFA05E;}
	.st27{fill:#00037F;}
	.st28{fill:#003AA2;}
	.st29{fill:#004DAE;}
	.st30{fill:#0084D1;}
	.st31{fill:#662D91;}
	.st32{fill:#75298F;}
	.st33{fill:#84248D;}
	.st34{fill:#93208B;}
	.st35{fill:#B11787;}
	.st36{fill:#C01285;}
	.st37{fill:#DE0981;}
	.st38{fill:#FDE3F1;}
	.st39{fill:#FBC7E3;}
	.st40{fill:#F9ACD4;}
	.st41{fill:#F790C6;}
	.st42{fill:#F574B8;}
	.st43{fill:#F358AA;}
	.st44{fill:#F13D9B;}
	.st45{fill:#EF218D;}
	.st46{fill:#B6CFFF;}
	.st47{fill:#A9C2FF;}
	.st48{fill:#BBD3FF;}
	.st49{fill:#80A1E6;}
	.st50{opacity:0.5;}
	.st51{opacity:0.42;}
	.st52{fill:#F4F4FF;stroke:#FFFFFF;stroke-width:0.75;stroke-miterlimit:10;}
	.st53{fill:#F4F4FF;}
	.st54{fill:#FA8B79;}
	.st55{opacity:0.1;}
	.st56{fill:#6B98F6;}
	.st57{fill:#F9924F;}
	.st58{fill:#DF851B;}
	.st59{fill:#FCAD50;}
	.st60{fill:#FDC582;}
	.st61{fill:#FEDCB4;}
	.st62{fill:#E3F5FD;}
	.st63{fill:#C6ECFA;}
	.st64{fill:#AAE2F8;}
	.st65{fill:#8ED9F5;}
	.st66{fill:#71CFF3;}
	.st67{fill:#55C6F0;}
	.st68{fill:#39BCEE;}
	.st69{fill:#1CB3EB;}
	.st70{fill:#C6C7D7;}
	.st71{fill:#002987;}
	.st72{clip-path:url(#SVGID_00000050658344048660176520000003237674935515229075_);}
	.st73{fill:#F1F3F4;}
	.st74{fill:#9CC0F9;}
	.st75{fill:#FEF9E8;}
	.st76{fill:#E8EAED;}
	.st77{fill:#FCE8E6;}
	.st78{fill:none;stroke:#9CC0F9;stroke-width:3.7859;stroke-miterlimit:10;}
	.st79{fill:none;stroke:#9CC0F9;stroke-width:1.262;stroke-miterlimit:10;}
	.st80{fill:#2B478B;}
	.st81{opacity:0.32;}
	.st82{opacity:0.2;fill:#ED057F;}
	.st83{opacity:0.5;fill:#ED057F;}
	.st84{opacity:0.1;fill:#110239;}
	.st85{opacity:0.18;fill:#005FBA;}
	.st86{fill:#666666;}
	.st87{fill:#373737;}
	.st88{fill-rule:evenodd;clip-rule:evenodd;fill:#666666;}
	.st89{fill:#808080;}
	.st90{fill:#B3B3B3;}
	.st91{opacity:0.4;}
	.st92{opacity:0.25;fill:#FFFFFF;}
	.st93{opacity:0.5;fill:#FFFFFF;}
	.st94{opacity:0.37;fill:#0097DD;}
	.st95{fill:url(#SVGID_00000011004320320617741590000005545937499159863197_);}
	.st96{fill:url(#SVGID_00000178917391451744695670000017992006173339934633_);}
	.st97{fill:url(#SVGID_00000044865375632580046590000004819075433918070962_);}
	.st98{fill:url(#SVGID_00000094607199493332442010000015027946109475375250_);}
	.st99{fill:url(#SVGID_00000049224303468694512270000010629154570660617890_);}
	.st100{fill:url(#SVGID_00000173882322898517458150000001441174296937083532_);}
	.st101{fill:#5793CE;}
	.st102{fill:#D4ECFF;}
	.st103{fill:#FF2C9C;}
	.st104{fill:url(#SVGID_00000090293730799300015250000009892039373040338568_);}
	.st105{fill:url(#SVGID_00000090260647257278743630000002390629543351562415_);}
	.st106{fill:url(#SVGID_00000117678856842270553780000018336572848898946477_);}
	.st107{clip-path:url(#SVGID_00000095329312180587174070000013246448271444040331_);}
	.st108{fill:url(#SVGID_00000037668880722348585170000005142092225391206273_);}
	.st109{fill:url(#SVGID_00000127005250759606765100000000846308583158923187_);}
	.st110{fill:url(#SVGID_00000126309905952071639300000006310042698110716801_);}
	.st111{fill:url(#SVGID_00000080904041664596997920000015095302594147877030_);}
	.st112{fill:url(#SVGID_00000118390584468182490540000018258638895274788534_);}
	.st113{fill:url(#SVGID_00000009569031147124799400000017191197951776814225_);}
	.st114{fill:#7DC3EA;}
	.st115{fill:url(#SVGID_00000138540599047605613420000014024204490055310995_);}
	.st116{fill:url(#SVGID_00000052783384756250547830000005977722990625930375_);}
	.st117{fill:url(#SVGID_00000023266354273852362820000010292947797865502374_);}
	.st118{fill:url(#SVGID_00000155125099757357040670000007046784926926891922_);}
	.st119{opacity:0.43;fill:#CEDFFF;}
	.st120{opacity:0.43;fill:#A9C2FF;}
	.st121{opacity:0.12;fill:#606060;}
	.st122{fill:#FF912B;}
	.st123{fill:#F7931E;}
	.st124{fill:#E6EDFC;}
	.st125{fill:none;stroke:#FFFFFF;stroke-width:0.3254;stroke-miterlimit:10;}
	.st126{fill:none;stroke:#FFFFFF;stroke-width:0.3254;stroke-miterlimit:10;stroke-dasharray:1.3021,1.3021;}
	.st127{fill:none;stroke:#FFFFFF;stroke-width:0.3254;stroke-miterlimit:10;stroke-dasharray:1.3548,1.3548;}
	.st128{fill:none;stroke:#FFFFFF;stroke-width:0.75;stroke-miterlimit:10;}
	.st129{fill:none;stroke:#FFFFFF;stroke-width:1.0422;stroke-miterlimit:10;}
	.st130{fill:none;stroke:#C8D0FC;stroke-width:0.2605;stroke-miterlimit:10;}
	.st131{fill:none;stroke:#FFFFFF;stroke-width:0.2605;stroke-linecap:round;stroke-miterlimit:10;}
	.st132{fill:none;stroke:#FFFFFF;stroke-width:0.5211;stroke-miterlimit:10;}
	.st133{fill:#E8A398;}
	.st134{fill:none;stroke:#E8B1C3;stroke-width:1.9735;stroke-miterlimit:10;}
	
		.st135{opacity:0.3;fill:none;stroke:#FFFFFF;stroke-width:3.6666;stroke-linecap:round;stroke-linejoin:round;stroke-miterlimit:10;}
	.st136{fill:none;stroke:#FFFFFF;stroke-width:2.0116;stroke-miterlimit:10;}
	.st137{opacity:0.4;fill:#DF851B;}
	.st138{fill:#E6E1F9;}
	.st139{fill:none;stroke:#E6E1F9;stroke-width:1.2443;stroke-miterlimit:10;}
	.st140{fill:#00D9E0;}
	.st141{opacity:0.5;fill:#00D9E0;}
	.st142{fill:#00EDED;}
	.st143{opacity:0.5;fill:#AD86F7;}
	.st144{fill:#641CA0;}
	.st145{fill:#AD86F7;}
	.st146{fill:none;stroke:#FFFFFF;stroke-width:0.6221;stroke-miterlimit:10;}
	.st147{fill:#F4C4B3;}
	.st148{fill:#28BAAD;}
	.st149{fill:#00204E;}
	.st150{opacity:0.17;fill:#FFFFFF;}
	.st151{fill:none;stroke:#FFFFFF;stroke-width:0.702;stroke-miterlimit:10;}
	.st152{opacity:0.17;}
	.st153{fill:#F20574;}
	.st154{fill:#30A8F2;}
	.st155{fill:#F9FBFC;}
	.st156{opacity:0.3;}
	.st157{opacity:0.28;}
	.st158{fill:#FFC194;}
	.st159{fill:none;stroke:#FFFFFF;stroke-width:1.0182;stroke-miterlimit:10;}
	.st160{fill:none;stroke:#FFFFFF;stroke-width:1.8415;stroke-miterlimit:10;}
	.st161{fill:#444A7C;}
	.st162{fill:#F4A9A2;}
	.st163{opacity:0.15;fill:#FFFFFF;}
	.st164{opacity:0.3;fill:#FFFFFF;}
	.st165{fill:#007DCB;}
	.st166{opacity:0.5;fill:#F4A9A2;}
	.st167{fill:none;stroke:#E8B1C3;stroke-width:2.0936;stroke-miterlimit:10;}
	.st168{fill:#759BE0;}
	.st169{fill:#AEC3FF;}
	.st170{opacity:0.7;fill:#759BE0;}
	.st171{fill:#94B0ED;}
	.st172{fill:#D2E0FF;}
	.st173{fill:#FFB27D;}
	.st174{fill:#E8945B;}
	.st175{opacity:0.17;fill:#C0D4FF;}
	.st176{fill:#EBF3FA;}
	.st177{fill:#ED975D;}
	.st178{fill:#FCA56B;}
	.st179{fill:#A6D9F1;}
	.st180{fill:#E69D43;}
	.st181{fill:#CA5F00;}
	.st182{fill:#D6716B;}
	.st183{fill:#AA443E;}
	.st184{fill:#EE9849;}
	.st185{fill:#A6C7F9;}
	.st186{fill:#D2E4FF;}
	.st187{fill:#F3F9FF;}
	.st188{fill:#A8D29F;}
	.st189{fill:#82B378;}
	.st190{fill:#163560;}
	.st191{fill:#E37970;}
	.st192{fill:#D68D5D;}
	.st193{fill:#80BDCC;}
	.st194{fill:#E7F1FD;}
	.st195{fill:#5F9AA8;}
	.st196{fill:#C45446;}
	.st197{fill:#739AF0;}
	.st198{fill:#4A75CB;}
	.st199{fill:#E49963;}
	.st200{fill:#1C468A;}
	.st201{clip-path:url(#SVGID_00000001654285698392746820000002888701174185096092_);}
	.st202{fill:#D9935C;}
	.st203{fill:#B84C42;}
	.st204{fill:#B74B42;}
	.st205{fill:#E58638;}
	.st206{fill:#CC7C46;}
	.st207{fill:none;stroke:#031F4C;stroke-width:0.5748;stroke-miterlimit:10;}
	.st208{fill:#E8C4B3;}
	.st209{fill:#67B375;}
	.st210{fill:#FFB27B;}
	.st211{fill:#FF985B;}
	.st212{fill:#C5E0FB;}
	.st213{fill:#A4CFF3;}
	.st214{fill:#FFAE74;}
	.st215{opacity:0.36;fill:#00037F;}
	.st216{fill:#E7F2F9;}
	.st217{fill:#FFBF92;}
	.st218{opacity:0.53;}
	.st219{fill:#AAC9F5;}
	.st220{fill:#CDE0FB;}
	.st221{fill:#C0D8FB;}
	.st222{fill:#AFCDFB;}
	.st223{fill:#D2E3FC;}
	.st224{fill:#DCEAFF;}
	.st225{fill:#77A4E5;}
	.st226{opacity:0.43;fill:#DCEAFF;}
	.st227{fill:#FFB93E;}
	.st228{fill:#E2810E;}
	.st229{opacity:0.42;fill:#002897;}
	.st230{clip-path:url(#SVGID_00000116202349877102602910000014232436515989806997_);}
	.st231{fill:#88ADD8;}
	.st232{fill:#98B9EA;}
	.st233{opacity:0.08;fill:#FFFFFF;}
	.st234{opacity:0.26;fill:#002897;}
	.st235{opacity:0.5;fill:#A9C2FF;}
	.st236{opacity:0.3;fill:#A9C2FF;}
	.st237{fill:#F6FBFF;}
	.st238{fill:#F48F4E;}
	.st239{opacity:0.42;fill:#DF851B;}
	.st240{fill:#BDD1F9;}
	.st241{opacity:0.96;fill:#CEDFFF;}
	.st242{fill:#FFA412;}
	.st243{opacity:0.5;fill:#E2810E;}
	.st244{opacity:0.29;fill:#0097DD;}
	.st245{opacity:0.71;}
	.st246{clip-path:url(#SVGID_00000161613908337877487330000001309268575531080125_);}
	.st247{fill:none;stroke:#9CC0F9;stroke-width:4.7939;stroke-miterlimit:10;}
	.st248{fill:none;stroke:#9CC0F9;stroke-width:1.598;stroke-miterlimit:10;}
	.st249{fill:#73B471;}
	.st250{fill:#FF9D5D;}
</style>
<g>
	<g>
		<g class="st81">
			<polygon class="st169" points="41.38,19.25 75.49,156.27 80.16,175.04 96.05,238.86 391.22,238.86 332.66,19.25 			"/>
			<polygon class="st168" points="41.38,19.25 36.65,20.83 89.76,243.63 96.05,238.86 			"/>
			<polygon class="st168" points="89.76,243.63 383.11,243.63 391.21,238.86 96.05,238.86 			"/>
			<polygon class="st171" points="225.71,194.4 96.05,238.86 80.16,175.04 			"/>
			<polygon class="st172" points="41.38,19.25 332.66,19.25 379.56,195.75 85.33,195.75 			"/>
			<polygon class="st171" points="379.72,195.75 377.28,195.75 357.31,119.56 331.65,21.62 45,21.62 88.42,195.75 85.32,195.78 
				41.38,19.25 333.66,19 333.92,19.97 359.58,118.44 			"/>
			<polygon class="st169" points="380.16,197.45 377.81,197.76 357.31,119.56 359.58,118.44 			"/>
		</g>
		<g>
			<path class="st235" d="M160.76,178.89c0,0,24.02-10.17,15.37-28.52c0,0-7.28-11.49-16.03-15.21c0,0,1.99,26.17-2.9,26.24
				c-4.89,0.07-0.12-29.32-0.12-29.32s-22.56-14.1-32.01-14.23c0,0,12.01,26.67,7.25,25.53c-4.76-1.14-18.55-28.31-18.55-28.31
				s-23.93-7.23-29.45,6.82c-5.52,14.04,0.01,21.98,3.53,23.29c3.52,1.31,26.78,3.57,25.84,6.52c-0.94,2.95-17.15,6.04-25.6,2.36
				c0,0,7.02,24.89,19.82,25.09c12.8,0.19,17.59-7.21,25.5-6.95c7.91,0.26,13.41,3.01,9.25,4.69c-4.15,1.68-17.27-1.21-24.2,3.47
				c-6.93,4.68-12.42,7.43-0.93,11.15c11.5,3.71,32.78,4.54,38-4.04C160.76,178.89,160.76,178.89,160.76,178.89z"/>
			<g>
				<path class="st9" d="M94.98,127.66c0,0,61.07,27.51,65.77,51.24c0,0-1.44,10.22,3.6,22.68l-0.5,4.52c0,0-4.93-16.12-8.32-18.63
					C155.53,187.48,171.91,169.14,94.98,127.66z"/>
			</g>
		</g>
	</g>
	<g>
		<path class="st3" d="M226.75,228h-72.51c-7.34,0-13.34-6-13.34-13.34V54.61c0-7.34,6-13.34,13.34-13.34h72.51
			c7.34,0,13.34,6,13.34,13.34v160.05C240.09,222,234.09,228,226.75,228z"/>
		<g>
			<path class="st7" d="M235.18,55.57v156.88c0,5.32-4.32,9.68-9.6,9.68h-70.16c-5.28,0-9.6-4.35-9.6-9.68V55.57
				c0-5.32,4.32-9.68,9.6-9.68h70.16C230.85,45.9,235.18,50.25,235.18,55.57z"/>
		</g>
		<g class="st245">
			<defs>
				<path id="SVGID_00000089531822781085625340000009567526771285904512_" class="st245" d="M235.18,55.47v156.62
					c0,5.31-4.33,9.66-9.61,9.66h-70.22c-5.29,0-9.61-4.35-9.61-9.66V55.47c0-5.31,4.33-9.66,9.61-9.66h70.22
					C230.85,45.82,235.18,50.16,235.18,55.47z"/>
			</defs>
			<clipPath id="SVGID_00000142148699373031724050000007302562209649979068_">
				<use xlink:href="#SVGID_00000089531822781085625340000009567526771285904512_"  style="overflow:visible;"/>
			</clipPath>
			<g style="clip-path:url(#SVGID_00000142148699373031724050000007302562209649979068_);">
				<g>
					<path class="st73" d="M125.18,118.81c-0.88,0.18-1.76-0.29-2-1.06l-2.89-9.34c-0.24-0.79,0.26-1.61,1.12-1.84
						c0.64-0.16,1.28,0.01,1.7,0.39l-4.96-12.75l-0.69,0.43c-0.15,0.09-0.31,0.16-0.48,0.21l-0.09,0.02l-0.18,0.03l-10.49,1.13
						l0.23,6.27l5.1-0.59c0.24-0.03,0.48-0.01,0.71,0.05l3.21,0.89c0.88,0.25,1.38,1.09,1.11,1.88c-0.17,0.48-0.59,0.85-1.13,1
						c-0.32,0.08-0.65,0.08-0.97-0.01l-2.86-0.79l-4.66,0.53l2.29,7.59c0,0,4.9-1.57,4.9-1.57c0.93-0.25,1.84,0.16,2.14,0.91
						c0.15,0.38,0.13,0.78-0.06,1.15c-0.19,0.36-0.53,0.64-0.95,0.77l-5.14,1.65l0.45,1.47l7.43-2.1c0.92-0.24,1.83,0.19,2.1,0.98
						c0.13,0.38,0.09,0.79-0.11,1.15c-0.21,0.36-0.56,0.62-0.98,0.74l-8.65,2.45c-0.09,0.65-0.21,1.39-0.33,2.18l2.73,0.3
						c0.92,0.1,1.57,0.86,1.46,1.68c-0.08,0.59-0.55,1.09-1.19,1.26c-0.22,0.06-0.45,0.08-0.68,0.05l-2.83-0.32
						c-0.28,1.5-0.55,2.78-0.82,3.8l8.86,2.67l6.12,4.63l-2.25-13.7c-0.16-0.98,0.52-1.93,1.58-2.21c0.1-0.03,0.21-0.05,0.31-0.06
						c0.59-0.08,1.18,0.06,1.66,0.38c0.48,0.32,0.79,0.79,0.88,1.32l2.26,13.8l2.06-0.6l2.81-0.75l-1.21-17.43L125.18,118.81z"/>
					<polygon class="st73" points="103.55,105.45 91.63,105.09 91.89,115.84 107.25,117.71 					"/>
					<path class="st73" d="M92.01,120.62l14.7,1.64c0.08-0.52,0.16-1.04,0.24-1.55l-14.99-1.82L92.01,120.62z"/>
					<polygon class="st73" points="102.87,96.1 91.4,96.1 91.55,102.08 103.11,102.44 					"/>
					<path class="st73" d="M106.11,93.01l9.78-1.06l1.11-0.7l-0.23-0.58l-1.99-3.71l-7.78-17.39l-7.3-0.11l-1.74,15.84l6.2-0.08
						c0.91-0.01,1.67,0.64,1.7,1.45L106.11,93.01z"/>
					<polygon class="st73" points="98.98,153.09 96.53,147.5 95.92,130.63 89.07,128.98 111.12,195.81 111.18,195.8 					"/>
					<polygon class="st73" points="144.85,205.44 141.92,194.35 121.74,199.4 126.21,210.38 					"/>
					<polygon class="st73" points="156.52,202.34 152.51,194.24 151.72,191.9 146.24,193.27 149.14,204.3 					"/>
					<path class="st73" d="M86.15,120.15l1.8,5.45l10.82,2.6l1.54-0.04l0.01,0.42l4.84,1.16c0.25-0.78,0.59-2.13,1.04-4.5
						l-16.04-1.79c-0.82-0.09-1.45-0.72-1.47-1.46l-0.42-16.99l-3.19-0.1L86.15,120.15z"/>
					<path class="st74" d="M131.51,139.44l-8.04,2.34l-8.13-6.15l-8.77-2.64c-0.28,0.06-0.57,0.06-0.84-0.01l-5.29-1.27l0.54,14.96
						l2.27,5.18l12.24,42.86l34.29-8.58l-15.94-47.32L131.51,139.44z"/>
					<path class="st73" d="M84.86,101.88l3.33,0.1l-0.18-7.35c-0.01-0.4,0.16-0.8,0.48-1.09c0.19-0.18,0.44-0.31,0.72-0.39
						c0.16-0.04,0.32-0.06,0.48-0.06l13.06,0l-0.18-4.83L83.92,88.5L84.86,101.88z"/>
					<path class="st73" d="M161.49,212.41l-3.15-6.37l-8.17,2.17l1.38,5.24c0.14,0.52,0.04,1.05-0.27,1.51l-3.93,5.75
						c-0.29,0.42-0.74,0.73-1.27,0.87c-0.61,0.16-1.26,0.08-1.8-0.21c-1.05-0.58-1.38-1.82-0.74-2.76l3.45-5.04l-1.11-4.22
						l-20.42,5.42c-1.13,0.3-2.33-0.24-2.74-1.23l-5.31-13.04l-4.39,1.1l3.56,10.79l36.2,16.7L161.49,212.41z"/>
					<path class="st73" d="M271.89,83.67l12.94,44l8.13-8.39L281.94,87c-0.3-0.89,0.11-1.84,1-2.31l2.44-1.29L274.1,51.46
						c-0.13-0.37-0.14-0.77-0.02-1.15l0.86-2.79l-9.24,2C267.4,58.74,269.48,70.22,271.89,83.67z"/>
					<polygon class="st73" points="289.44,149.31 298.4,150.28 315.66,147.73 310.81,133.02 288.09,139.52 					"/>
					<path class="st73" d="M289.19,86.04l-2.45,1.3l9.68,28.38l6.47-6.68l-20.25-61.35l-2.93-0.56l-1.14,3.69l11.62,32.89
						C290.5,84.6,290.09,85.56,289.19,86.04z"/>
					<path class="st73" d="M281.2,43.31l-2.62-7.93c-0.03-0.09-0.07-0.16-0.1-0.25l1.57,7.96L281.2,43.31z"/>
					<path class="st73" d="M249.77,37.83c0.08,0.32,0.06,0.66-0.04,0.98l-2.26,6.84l2.88,4.65c0.2,0.33,0.3,0.7,0.28,1.07
						l-0.69,12.04c-0.04,0.63-0.41,1.21-0.99,1.56l-11.35,6.84c-0.18,0.11-0.37,0.19-0.57,0.25c0,0-29.1,8.42-29.1,8.42
						c-0.66,0.17-1.31,0.1-1.85-0.2l-2.69-1.47l6.2,9.44c0.11,0.16,0.19,0.34,0.24,0.53l0.69,2.42l1.46-3.31
						c0.17-0.39,0.47-0.72,0.86-0.94l17.61-10.25c0.18-0.11,0.38-0.19,0.58-0.24c0.1-0.03,0.2-0.05,0.3-0.06l10.79-1.47
						c0.13-0.02,0.25-0.02,0.37-0.02l12.49,0.17l8.51-0.27c-3.95-21.85-8.58-47.05-9.97-53.49c-0.91,0.13-1.83,0.3-2.74,0.55
						l-4.45,1.18L249.77,37.83z"/>
					<polygon class="st74" points="185.64,206.29 177.35,185.48 156.03,190.82 156.74,192.9 167.07,213.81 179.36,227.41 
						182.93,234.54 194,231.61 					"/>
					<polygon class="st73" points="308.9,127.25 305.15,115.88 288.45,133.1 					"/>
					<path class="st75" d="M264.97,45.55l10.57-2.28l-3.36-17c-3.3-2.69-7.45-4.46-11.9-5.03C261.07,24.84,262.43,31.8,264.97,45.55
						z"/>
					<polygon class="st73" points="155.14,128.52 153.28,121.11 136.7,123.56 137.4,133.63 					"/>
					<path class="st73" d="M265.31,84.82l-1.09-6.04l-9.19,0.29l-0.17,0l2.9,15.99c0.02,0.1,0.03,0.2,0.03,0.3l0.17,16.68
						l4.86,11.42l12.63,10.03l3.83,2.25l0.91-0.26L265.31,84.82z"/>
					<polygon class="st73" points="281.6,141.38 277.93,142.43 243.19,141.18 241.51,150.2 260.98,151.17 282.72,149.29 					"/>
					<path class="st75" d="M282.73,153.32l-21.49,1.86c-0.11,0.01-0.23,0.01-0.34,0.01l-17.48-0.87l3.25,4.08
						c0.09,0.12,0.17,0.24,0.23,0.36l4.74,9.73l13.57,18.89c0.67,0.93,0.37,2.17-0.67,2.77l-4.42,2.56l1.2,13.2l2.64,7.13
						l12.66-3.36L282.73,153.32z"/>
					<path class="st73" d="M257,206.94c-0.06-0.15-0.09-0.31-0.11-0.47l-1.33-14.63c-0.07-0.74,0.32-1.44,1.01-1.85l3.67-2.13
						l-12.46-17.35c-0.07-0.09-0.12-0.18-0.17-0.28l-4.72-9.69l-5.92-7.42l-0.09-0.2c-0.04-0.06-0.1-0.17-0.14-0.3
						c-0.05-0.17-0.07-0.31-0.08-0.41c0,0,0,0,0,0c-0.01,0-0.03-0.12-0.02-0.28l0.01-0.15c0,0,0.01-0.06,0.02-0.08l2-10.72l-0.07,0
						l-8.66,2.6l-48.85,39.37l8.79,22.06l8.4,25.42l61.39-16.29L257,206.94z"/>
					<path class="st73" d="M266.36,230.92c-0.06-0.15-0.09-0.31-0.11-0.47l-1.33-14.63c-0.07-0.74,0.32-1.44,1.01-1.85l3.67-2.13
						l-12.46-17.35c-0.07-0.09-0.12-0.18-0.17-0.28l-4.72-9.69l-5.92-7.42l-0.09-0.2c-0.04-0.06-0.1-0.17-0.14-0.3
						c-0.05-0.17-0.07-0.31-0.08-0.41c0,0,0,0,0,0c-0.01,0-0.03-0.12-0.02-0.28l0.01-0.15c0,0,0.01-0.06,0.02-0.08l2-10.72l-0.07,0
						l-8.66,2.6l-48.85,39.37l8.79,22.06l8.4,25.42l61.39-16.29L266.36,230.92z"/>
					<polygon class="st76" points="136.11,115.03 136.42,119.54 152.3,117.19 150.87,111.51 131.7,53.44 112.49,58.54 					"/>
					<polygon class="st73" points="125.99,115.55 126.42,115.46 124.16,109.64 					"/>
					<path class="st73" d="M298.81,154.29c-0.21,0.03-0.43,0.04-0.64,0.01l-8.71-0.95l-5.89,54.49l26.3-6.98
						c11.84-3.14,18.61-14.3,15.1-24.92l-8.03-24.33L298.81,154.29z"/>
					<path class="st73" d="M175.45,229.41l-11.34-12.56l-8.26,15.81c-0.26,0.49-0.73,0.87-1.3,1.05c0,0-0.01,0-0.01,0
						c-0.64,0.17-1.22,0.12-1.74-0.12l-34.46-15.9l3.97,12.02c3.51,10.62,15.95,16.68,27.79,13.54l28.49-7.56L175.45,229.41z"/>
					<path class="st73" d="M80.46,87.04l-0.01-0.03l2.51-18.88c-6.58,4.98-9.64,13.14-7.04,21.02l5.96,18.05L80.46,87.04z"/>
					<path class="st73" d="M84.03,85.49l10.57-0.13l1.92-17.56c0.07-0.61,0.54-1.12,1.19-1.3c0.16-0.04,0.33-0.06,0.5-0.06
						l9.96,0.15c0.67,0.01,1.27,0.38,1.53,0.94l8.16,18.23l2.02,3.78l9.83,25.25l1.39-0.29l-22.92-54.81l-17.17,4.55
						c-1.55,0.41-3.01,0.97-4.38,1.64L84.03,85.49z"/>
					<path class="st73" d="M198.03,70.66l0.68,1.03c0.25,0.05,0.48,0.13,0.69,0.24l8.14,4.45l27.82-8.05l10.16-6.13l0.6-10.46
						L244,48.32l-15.53,4.75l-32.94,9.73L198.03,70.66z"/>
					<polygon class="st73" points="242.04,24.16 232.94,26.58 236.31,38.25 238.76,45.68 243.23,44.32 245.28,38.15 					"/>
					<path class="st73" d="M232,39.32l-0.28-0.96l-27.59,7.55c0.07,0.39,0.02,0.79-0.16,1.15c-0.26,0.53-0.76,0.93-1.37,1.1
						l-10.75,3.08l2.45,7.69l32.75-9.67l7.48-2.29L232,39.32z"/>
					<polygon class="st77" points="174.69,179.9 170.05,170.8 156.24,132.42 138.12,137.64 154.09,185.06 					"/>
					<path class="st77" d="M253.32,95.55l-0.22-1.24l-32.46,8.91l0.28,0.22c0.1,0.07,0.2,0.17,0.3,0.28l15.03,17.28
						c0.17,0.2,0.3,0.42,0.38,0.66l4.43,13.43l31.09,1.12l-12.7-10.08c-0.27-0.21-0.48-0.48-0.61-0.78l-5.2-12.22
						c-0.09-0.22-0.14-0.46-0.15-0.69L253.32,95.55z"/>
					<polygon class="st73" points="250.32,79 242.61,78.9 232.48,80.28 215.88,89.94 212.72,97.1 216.63,100.12 252.37,90.31 					
						"/>
					<polygon class="st73" points="182.45,118.23 160.37,128.84 160.69,131.13 160.5,131.19 174.24,169.4 178.23,177.21 
						217.73,145.38 200.26,144.31 192.45,136.94 188.45,120.26 					"/>
					<path class="st73" d="M135.99,52.3l7.98,24.18l11.67-1.72l12.9-1.57l2.85,8.62l-4.29,1.14l-1.76-5.32l-9.03,1.1l-11.06,1.64
						l9.95,30.14l3.65,14.52l23.29-11.18l10.18,3.44l4.25,17.72l5.74,5.42l20.06,1.23l4.14-3.33l9.97-3l-4.01-12.16l-14.63-16.82
						l-9.32-7.21c0,0-0.11-0.12-0.13-0.15c-0.12-0.12-0.22-0.26-0.3-0.4c-0.04-0.07-0.07-0.13-0.1-0.2l-0.08-0.19l-2.32-8.16
						l-11.54-17.56c-0.09-0.14-0.17-0.3-0.23-0.47l-10.28-32.31L135.99,52.3z"/>
					<path class="st73" d="M190.62,47.39l8.28-2.37c-0.08-0.4-0.03-0.82,0.16-1.19c0.26-0.53,0.77-0.93,1.39-1.09l30.15-8.25
						l-1.95-6.76l-40.83,10.83L190.62,47.39z"/>
				</g>
				<path class="st247" d="M140.24,49.29l8.75,21.21l2.06,6.25l4.78,9.19l2.7,8.17l2.83,13.89l3.81,11.54l2.7,8.17l8.11,19.28
					l8.11,19.28l8.57,11.84c0,0,6.71,9.72,7.18,11.16c0.48,1.44,3.81,11.54,3.81,11.54l8.63,10.26l7.15,7.51l8.87,3.92l5.97,5.73"/>
				<path class="st248" d="M249.27,18.62l6.35,34.56l1.39,10.09c0,0,1.86,6.82,2,9.58c0.13,2.75,0.38,11.75,1.01,13.67
					c0.63,1.92,2.67,10.45,3.83,13.97c1.16,3.53,2.96,8.97,2.96,8.97l4.73,11.99l2.68,6.96l5.06,7.31l1.93,4.43l8.25,15.59
					l6.26,15.42l2,9.58l2.29,8.11l2.92,10.03l0.38,11.75"/>
				<polyline class="st248" points="196.53,183.62 202.94,187.15 209.26,188.61 215.17,188.87 224.14,190.41 231.71,191.28 
					236.84,193.57 241.16,198.7 243.57,205.12 245.96,209.72 250.21,211.99 251.48,215.83 253.18,220.09 				"/>
				<path class="st248" d="M175.05,36.39c0,0,3.43,12.16,3.37,13.74s-2.81,6.5-2.81,6.5s-1.66-0.61-2.44,1.43
					c-0.79,2.04-1.52,5.11-0.56,5.38c0.96,0.27,3.5,0.9,3.5,0.9l1.96-0.26l1.79,1.88c0,0,1.04,0.51,0.32,0.96
					c-0.72,0.45-0.43-0.41-1.45,0.91c-1.02,1.32-2.39,2.46-2.39,2.46l1.71,1.64l2.01,0.78c0,0,1.67-2.01,2.46,0.39
					c0.79,2.4,0.92,3.68-1.3,4.01c-2.22,0.33-2.75-2.15-3.3,0.61c-0.55,2.76-0.37,5.06-0.37,5.06l3.32,1.21l0.26,2.55l-2.36,1.67
					c0,0-1.88,0.5-2.6,0.95c-0.72,0.45-3.25,1.65-3.25,1.65l-1.38,3.76c0,0-2.42,3.26-2.03,4.46c0.4,1.2-0.72,4.9-0.75,5.69
					c-0.03,0.79-1.19,3.45-1.19,3.45l0.86,5.26l-1.84,4.15l-0.55,2.76l3.44,9.54l2.56,2.46c0,0,2.37,2.77,3.38,4.07
					c1.01,1.3,3.43,5.1,3.43,5.1s0.13,1.27,1.43,4.33c1.3,3.05,2.65,7.14,2.65,7.14l-0.46,7.44"/>
			</g>
		</g>
		<path class="st3" d="M205.06,51.73h-29.14c-2.44,0-4.43-2-4.43-4.43v-0.5c0-2.44,2-4.43,4.43-4.43h29.14c2.44,0,4.43,2,4.43,4.43
			v0.5C209.5,49.73,207.5,51.73,205.06,51.73z"/>
	</g>
	<g>
		<path class="st3" d="M89.7,134.07H72.58c-7.25,0-13.19-5.93-13.19-13.19v-18.21c0-7.25,5.93-13.19,13.19-13.19H89.7
			c7.25,0,13.18,5.93,13.18,13.18v18.21C102.89,128.14,96.96,134.07,89.7,134.07z"/>
		<g>
			<path class="st9" d="M93.74,111.87c0,7.25-5.88,13.13-13.13,13.13s-13.13-5.88-13.13-13.13c0-7.25,5.88-13.13,13.13-13.13
				c0.82,0,1.63,0.08,2.42,0.22c-1.64,5.97-3.82,13.89-3.96,14.38c0.27-0.43,8.26-4.01,13.71-6.42
				C93.4,108.44,93.74,110.12,93.74,111.87z"/>
			<path class="st8" d="M93.51,105.48c-4.82,2.12-12.8,5.68-13.05,6.08c0.14-0.47,2.35-8.49,3.82-13.87
				C88.37,98.82,91.74,101.7,93.51,105.48z"/>
		</g>
	</g>
	<g>
		<path class="st8" d="M152.81,67.81H98.16c-4.03,0-7.33-3.3-7.33-7.33V34.22c0-4.03,3.3-7.33,7.33-7.33h54.65
			c4.03,0,7.33,3.3,7.33,7.33v26.25C160.15,64.51,156.85,67.81,152.81,67.81z"/>
		<g>
			<g>
				<g>
					<path class="st9" d="M122.23,60.58H96.6v-8.16h25.63V60.58z M96.91,60.26h25v-7.53h-25V60.26z"/>
				</g>
				<g>
					<rect x="98.45" y="54.61" class="st9" width="9.91" height="0.65"/>
					<rect x="109.41" y="54.61" class="st9" width="7.03" height="0.65"/>
					<rect x="98.45" y="56.46" class="st9" width="5.47" height="0.65"/>
					<rect x="104.85" y="56.46" class="st9" width="7.03" height="0.65"/>
					<rect x="112.61" y="56.46" class="st9" width="7.03" height="0.65"/>
				</g>
			</g>
		</g>
		<g>
			<g>
				<g>
					<path class="st9" d="M152.79,60.58h-25.63v-8.16h25.63V60.58z M127.47,60.26h25v-7.53h-25V60.26z"/>
				</g>
				<g>
					<rect x="129.01" y="54.61" class="st9" width="9.91" height="0.65"/>
					<rect x="139.97" y="54.61" class="st9" width="7.03" height="0.65"/>
					<rect x="129.01" y="56.46" class="st9" width="5.47" height="0.65"/>
					<rect x="135.41" y="56.46" class="st9" width="7.03" height="0.65"/>
					<rect x="143.17" y="56.46" class="st9" width="7.03" height="0.65"/>
				</g>
			</g>
		</g>
		<g>
			<g>
				<g>
					<g>
						<path class="st9" d="M139.65,48.91H98.94c-1.14,0-2.07-0.93-2.07-2.07v0c0-1.14,0.93-2.07,2.07-2.07h40.72
							c1.14,0,2.07,0.93,2.07,2.07v0C141.72,47.99,140.8,48.91,139.65,48.91z"/>
					</g>
				</g>
			</g>
		</g>
		<g>
			<g>
				<path class="st3" d="M124.3,39.87H98.94c-1.29,0-2.34-1.05-2.34-2.34v0c0-1.29,1.05-2.34,2.34-2.34h25.36
					c1.29,0,2.34,1.05,2.34,2.34v0C126.64,38.82,125.59,39.87,124.3,39.87z"/>
			</g>
		</g>
	</g>
	<g>
		<path class="st7" d="M104.41,216.52H62.29c-3.94,0-7.17-3.23-7.17-7.17V171.6c0-3.94,3.23-7.17,7.17-7.17h42.12
			c3.94,0,7.17,3.23,7.17,7.17v37.75C111.58,213.29,108.35,216.52,104.41,216.52z"/>
		<g>
			<g>
				<g>
					<path class="st9" d="M103.57,207.62H62.99v-12.91h40.58V207.62z M63.48,207.12h39.58V195.2H63.48V207.12z"/>
				</g>
				<g>
					<rect x="65.93" y="198.18" class="st9" width="15.7" height="1.02"/>
					<rect x="83.28" y="198.18" class="st9" width="11.14" height="1.02"/>
					<rect x="65.93" y="201.1" class="st9" width="8.66" height="1.02"/>
					<rect x="76.05" y="201.1" class="st9" width="11.14" height="1.02"/>
					<rect x="88.35" y="201.1" class="st9" width="11.14" height="1.02"/>
				</g>
			</g>
		</g>
		<g>
			<path class="st153" d="M65.35,190.76L65.35,190.76c-1.17,0-2.12-0.95-2.12-2.12V187c0-1.17,0.95-2.12,2.12-2.12h0
				c1.17,0,2.12,0.95,2.12,2.12v1.65C67.47,189.82,66.52,190.76,65.35,190.76z"/>
			<path class="st153" d="M72.6,190.76L72.6,190.76c-1.17,0-2.12-0.95-2.12-2.12v-5.55c0-1.17,0.95-2.12,2.12-2.12h0
				c1.17,0,2.12,0.95,2.12,2.12v5.55C74.72,189.82,73.77,190.76,72.6,190.76z"/>
			<path class="st9" d="M79.85,190.76L79.85,190.76c-1.17,0-2.12-0.95-2.12-2.12v-8.75c0-1.17,0.95-2.12,2.12-2.12h0
				c1.17,0,2.12,0.95,2.12,2.12v8.75C81.97,189.82,81.02,190.76,79.85,190.76z"/>
			<path class="st153" d="M87.1,190.76L87.1,190.76c-1.17,0-2.12-0.95-2.12-2.12v-6.15c0-1.17,0.95-2.12,2.12-2.12l0,0
				c1.17,0,2.12,0.95,2.12,2.12v6.15C89.22,189.82,88.27,190.76,87.1,190.76z"/>
			<path class="st153" d="M94.35,190.76L94.35,190.76c-1.17,0-2.12-0.95-2.12-2.12v-11.68c0-1.17,0.95-2.12,2.12-2.12l0,0
				c1.17,0,2.12,0.95,2.12,2.12v11.68C96.47,189.82,95.52,190.76,94.35,190.76z"/>
			<path class="st17" d="M101.6,190.76L101.6,190.76c-1.17,0-2.12-0.95-2.12-2.12v-14.52c0-1.17,0.95-2.12,2.12-2.12h0
				c1.17,0,2.12,0.95,2.12,2.12v14.52C103.72,189.82,102.77,190.76,101.6,190.76z"/>
		</g>
	</g>
	<g>
		<g>
			<path class="st153" d="M180,106.44c0,7.84,13.2,20.36,13.2,20.36s13.2-12.53,13.2-20.36s-5.91-14.19-13.2-14.19
				S180,98.61,180,106.44z M185.42,105.61c0-4.28,3.49-7.78,7.78-7.78c4.3,0,7.78,3.49,7.78,7.78c0,4.3-3.47,7.78-7.78,7.78
				C188.91,113.39,185.42,109.91,185.42,105.61z"/>
		</g>
		<path class="st176" d="M185.42,105.61c0-4.29,3.48-7.78,7.78-7.78s7.78,3.48,7.78,7.78c0,4.29-3.48,7.78-7.78,7.78
			S185.42,109.9,185.42,105.61z"/>
	</g>
	<g>
		<g>
			<path class="st8" d="M206.54,168.93c0,3.84,6.46,9.97,6.46,9.97s6.46-6.13,6.46-9.97c0-3.84-2.89-6.95-6.46-6.95
				C209.43,161.99,206.54,165.1,206.54,168.93z M209.19,168.52c0-2.1,1.71-3.81,3.81-3.81c2.11,0,3.81,1.71,3.81,3.81
				c0,2.11-1.7,3.81-3.81,3.81C210.9,172.33,209.19,170.63,209.19,168.52z"/>
		</g>
		<path class="st176" d="M209.19,168.52c0-2.1,1.7-3.81,3.81-3.81c2.1,0,3.81,1.7,3.81,3.81s-1.7,3.81-3.81,3.81
			C210.89,172.33,209.19,170.63,209.19,168.52z"/>
	</g>
	<g>
		<g>
			<g>
				<path class="st153" d="M158.37,179.43c0,4.71,7.93,12.24,7.93,12.24s7.93-7.53,7.93-12.24s-3.55-8.53-7.93-8.53
					S158.37,174.72,158.37,179.43z M161.63,178.93c0-2.58,2.1-4.67,4.67-4.67c2.59,0,4.67,2.1,4.67,4.67c0,2.59-2.09,4.67-4.67,4.67
					C163.73,183.61,161.63,181.52,161.63,178.93z"/>
			</g>
		</g>
		<path class="st176" d="M161.63,178.93c0-2.58,2.09-4.67,4.67-4.67s4.67,2.09,4.67,4.67s-2.09,4.67-4.67,4.67
			S161.63,181.52,161.63,178.93z"/>
	</g>
	<g>
		<g>
			<g>
				<path class="st235" d="M283.25,192.08c0,0,4.89-5.74,0.27-9.36c0,0-3.37-2.02-6.11-1.85c0,0,3.9,6.5,2.65,7.15
					c-1.25,0.65-3.83-7.56-3.83-7.56s-7.65-0.72-10.11,0.47c0,0,6.56,5.33,5.18,5.65c-1.38,0.32-8.46-4.91-8.46-4.91
					s-7.11,1.23-6.72,5.58c0.39,4.34,2.85,5.67,3.93,5.56c1.08-0.12,7.38-2.55,7.52-1.66c0.14,0.88-3.65,3.78-6.3,3.93
					c0,0,5.04,5.52,8.37,3.91c3.33-1.61,3.61-4.14,5.68-5.1c2.08-0.96,3.85-0.96,3,0.01c-0.86,0.97-4.62,1.92-5.8,4.03
					c-1.18,2.11-2.24,3.53,1.2,3c3.45-0.53,9.05-3.07,9.29-5.97C283.25,192.08,283.25,192.08,283.25,192.08z"/>
				<g>
					<path class="st9" d="M259.63,187.37c0,0,19.33-0.81,23.62,4.71c0,0,0.95,2.83,3.87,5.39l0.46,1.23c0,0-3.36-3.52-4.56-3.73
						C283.01,194.97,284.86,188.11,259.63,187.37z"/>
					<path class="st249" d="M287.11,197.47c0,0,4.16,3.06,4.47,8.54l-0.75,0.07c0,0-1.34-5.67-3.75-7.88
						C284.68,195.99,287.11,197.47,287.11,197.47z"/>
				</g>
			</g>
			<g>
				<path class="st235" d="M309.17,176.95c0,0-7.81-4.34-4.19-10.28c0,0,2.9-3.65,6.02-4.6c0,0-1.64,8.85,0.03,9.05
					c1.66,0.2,1.11-9.99,1.11-9.99s8.2-3.98,11.43-3.68c0,0-5.07,8.65-3.41,8.44c1.66-0.21,7.36-8.97,7.36-8.97s8.42-1.59,9.79,3.4
					c1.37,4.99-0.81,7.49-2.06,7.81c-1.25,0.32-9.26,0.24-9.05,1.28c0.21,1.04,5.63,2.69,8.64,1.74c0,0-3.3,8.23-7.67,7.83
					c-4.37-0.4-5.73-3.1-8.44-3.3c-2.7-0.2-4.68,0.53-3.32,1.26c1.35,0.72,5.93,0.22,8.12,2.07c2.19,1.85,3.96,2.99-0.09,3.83
					c-4.05,0.84-11.34,0.35-12.8-2.77C309.17,176.95,309.17,176.95,309.17,176.95z"/>
				<g>
					<path class="st9" d="M333.46,161.89c0,0-21.82,7.14-24.29,15.05c0,0,0.12,3.54-2.06,7.6l0.01,1.56c0,0,2.27-5.31,3.52-6.04
						C310.64,180.06,305.73,173.21,333.46,161.89z"/>
					<path class="st249" d="M307.11,184.54c0,0-3.35,5.13-1.41,11.35l0.87-0.24c0,0-0.86-6.86,0.89-10.31
						C309.21,181.89,307.11,184.54,307.11,184.54z"/>
				</g>
			</g>
			<g>
				<path class="st235" d="M296.74,170.96c0,0,10.26-5.79,5.44-13.59c0,0-3.85-4.79-7.97-6.01c0,0,2.23,11.65,0.04,11.93
					c-2.19,0.28-1.55-13.16-1.55-13.16s-10.85-5.18-15.1-4.75c0,0,6.75,11.36,4.56,11.09c-2.19-0.27-9.77-11.76-9.77-11.76
					s-11.11-2.02-12.87,4.57c-1.76,6.59,1.13,9.87,2.77,10.27c1.65,0.41,12.2,0.24,11.93,1.61c-0.27,1.37-7.39,3.59-11.37,2.37
					c0,0,4.42,10.82,10.18,10.25c5.76-0.57,7.53-4.14,11.09-4.42c3.56-0.29,6.17,0.67,4.39,1.63c-1.78,0.97-7.81,0.34-10.69,2.8
					c-2.87,2.46-5.2,3.97,0.15,5.05c5.35,1.08,14.95,0.36,16.85-3.76C296.74,170.96,296.74,170.96,296.74,170.96z"/>
				<g>
					<path class="st9" d="M264.6,151.32c0,0,28.82,9.23,32.15,19.64c0,0-0.12,4.66,2.77,10l0.01,2.06c0,0-3.04-6.98-4.69-7.94
						C294.84,175.08,301.25,166.01,264.6,151.32z"/>
					<path class="st9" d="M299.52,180.96c0,0,4.46,6.73,1.96,14.94l-1.14-0.3c0,0,1.08-9.04-1.26-13.58
						C296.73,177.48,299.52,180.96,299.52,180.96z"/>
				</g>
			</g>
		</g>
		<g>
			<g>
				<g>
					<path class="st8" d="M379.07,249.83H273.68c-14.69-16.81-10.81-39.51,8.69-58.66c2.45-2.41,7.16-4.12,12.23-5.32
						c9.35-2.22,19.95-2.73,20.03-2.78c0.03-0.01,5.6-4.53,8.95-8.59c10.42-12.61,19.28-11.53,19.28-11.53
						c10.62-2.07,19.67-2.67,26.39,1.06c0,0,0,0,0,0c6.22,3.47,10.43,10.67,12,23.89c0.3,2.5,0.5,5.22,0.61,8.17
						c0.38,10.74,2.5,20.28,3.76,28.37c0,0,0,0,0,0C387.45,236.17,388.73,245.08,379.07,249.83z"/>
				</g>
				<path class="st58" d="M363.99,177.51c-6.44,3.51-7.15,15.07-17.24,18.05c-10.08,2.99-27.2,2.71-36.91,13.24
					c-9.37,10.16-19.7-15.69-15.25-22.96c9.35-2.22,19.95-2.73,20.03-2.78c0.03-0.01,5.6-4.53,8.95-8.59
					c10.42-12.61,19.28-11.53,19.28-11.53c10.62-2.07,19.67-2.67,26.39,1.06c0,0,0,0,0,0C376.65,171.66,370.43,174,363.99,177.51z"
					/>
				<g>
					<path class="st7" d="M294.26,227.48c0,0,1.86,4.92,1.47,6.75c-0.38,1.83,0.26,5.37-0.49,6.96c-0.74,1.59-2.07,3.89-0.79,4.47
						c0.49,0.22,6.13-4.19,6.45-5.49c0.32-1.3,0.56-5.12,1.64-7.2c1.08-2.08,0.16-3.75-1.4-4.51c-1.57-0.76-3.76-4.93-3.76-4.93
						L294.26,227.48z"/>
					<path class="st12" d="M324.45,180.83c0,0-30.83-1.9-34.81,2.19c-4.19,4.31,2.63,46.69,2.63,46.69s8.36,0.24,9.02-1.97
						c0,0-1.57-20.52-0.26-24.07c1.3-3.55,0.48-8.46,0.48-8.46s16.36,2.44,21.55,1.2C328.25,195.16,324.45,180.83,324.45,180.83z"/>
					<path class="st10" d="M331.92,158.2c0,0.03-4.54,10.61-6.76,11.73c-2.22,1.13-10.24,10.36-11.96,10.19
						c-1.72-0.16,1.78,1.88,1.78,1.88s14.27-6.96,15.08-7.36c0.82-0.4,5.11-7.48,5.7-11.06C336.34,159.99,331.92,158.2,331.92,158.2
						z"/>
					<path class="st7" d="M288.57,235.6c0,0-1.76,4.96-3.23,6.11c-1.47,1.15-3.27,4.27-4.86,5c-1.59,0.73-4.09,1.64-3.49,2.91
						c0.23,0.48,7.39,0.76,8.47-0.03c1.08-0.78,3.73-3.55,5.9-4.44c2.16-0.89,2.54-2.76,1.83-4.35c-0.71-1.59,0.31-6.2,0.31-6.2
						L288.57,235.6z"/>
					<path class="st3" d="M341.2,153.5c-0.66-0.76,16.04,1.11,18.26,9.65c0,0,12.83-10.11,1.06-18.63c-4.07-2.95-4.48-6.1-5.07-8.98
						c-0.59-2.88-4.66-11.16-11.71-7.05c0,0-3.22,0.02-5.26,1.78C333.85,134.29,328.79,159.82,341.2,153.5z"/>
					<path class="st11" d="M337.96,182.33c0,0-33.52,3.42-36.47,6.84c-2.94,3.42-14.51,47.92-14.51,47.92s3.42,1.91,6.53,0.12
						c0,0,8.86-15.1,12.79-19.84c3.92-4.74,5.39-19.37,6.03-19.52c0.65-0.15,21.66,2.92,28.89-2.63
						C348.45,189.67,337.96,182.33,337.96,182.33z"/>
					<path class="st153" d="M356.61,151.9c0,0-8-3.57-18.14-1.93c-2.07,0.33-3.94,1.02-5.42,3.46c-2.09,3.45-3.07,5.3-3.07,5.3
						s0.2,1.6,3.06,2.87c-0.78,2.86,0.71,7.85-0.66,9.79c-1.37,1.94-9.89,6.74-10.31,9.42c-0.77,4.91,14.56,13.8,19.14,12.85
						C354.37,190.91,363.29,155.66,356.61,151.9z"/>
					<path class="st3" d="M352.09,141.79c0,0,1.58-3.1,1.78-5.65c0.15-1.82-1.39-8.35-7.95-6.77c0,0-1.92,0.37-3.62,1.77
						c-1.35,1.11-3.24,3.42-0.36,8.98l0.79,1.9L352.09,141.79z"/>
					<g>
						<path class="st10" d="M343.09,152.25c-0.66,0.7-0.4,3.03,2.71,2.85c2.04-0.12,6.41-2.64,6-4.38
							c-0.19-0.83-1.76-2.96-2.13-7.88l-0.37,0.1l-6.23,1.75c0,0,0.3,1.98,0.45,3.85C343.64,150.13,343.36,151.96,343.09,152.25z"/>
						<path class="st250" d="M343.06,144.7c0,0,0.3,1.98,0.45,3.85c3.53-0.38,5.15-3.76,5.77-5.61L343.06,144.7z"/>
						<path class="st10" d="M342.93,147.58c0,0,8.15-2.05,6.79-7.11c-1.36-5.05-1.22-8.72-6.48-7.63c-5.26,1.1-5.75,3.3-5.71,5.09
							C337.58,139.73,340.78,147.98,342.93,147.58z"/>
						<path class="st3" d="M339.52,133.72c0,0,2.74,5.21,7.9,5.77c3.02,0.33,3.85,2.32,3.85,2.32s-0.91-5.69-2.43-9.17
							C348.84,132.64,340.43,130.44,339.52,133.72z"/>
						<path class="st3" d="M340.45,134.41c0,0-1.78,1.82-2.33,3.11c-0.81,1.9,0.78,5.91,1.43,6.77c0,0-3.79-6.43-2.53-9.22
							C338.36,132.11,340.45,134.41,340.45,134.41z"/>
					</g>
					<path class="st10" d="M315.62,181.34c0,0-1.62,1.72-1.82,1.81c-1.07,0.5-2.43,0.21-3.08,0.38c-0.66,0.16-0.54-0.24-0.06-0.57
						c0.48-0.33,1.67-0.2,1.19-0.32c-0.49-0.12-3.11-0.61-4.1-0.34c-1.56,0.42-2.8-0.07-2.9-0.23c-0.1-0.16,3.57-1.95,4.62-1.89
						c1.05,0.06,4.06-0.09,4.06-0.09L315.62,181.34z"/>
					<path class="st10" d="M359.37,155.07c0,0,10.11,22.82,7.3,26.18c-2.79,3.33-22.24-0.71-22.24-0.71l0.6-2.12
						c0,0,14.31-0.88,15.33-1.16c1.47-0.41-7.25-16.42-7.25-16.42L359.37,155.07z"/>
					<path class="st153" d="M355.6,151.52c0.24,0.01,3.26,1,5.44,5.29c2.13,4.22,2.91,6.27,2.91,6.27s-9.45,7.33-13.21,4.63
						C346.97,165.02,352.13,151.43,355.6,151.52z"/>
					<path class="st10" d="M346.7,178.3c0,0-1.62-1.05-2.28-1.63c-0.66-0.58-4.46-1.05-4.46-0.66c0,0.39,2.22,0.91,2.46,1.29
						c0.24,0.38,1.6,1.97,2.75,1.97C346.32,179.27,346.7,178.3,346.7,178.3z"/>
					<g>
						<path class="st3" d="M342.26,181.73l-4.36-0.62c-0.65-0.09-1.31-0.64-1.48-1.22l-2.41-8.51c-0.16-0.58,0.23-0.97,0.88-0.88
							l4.36,0.62c0.65,0.09,1.31,0.64,1.48,1.22l2.41,8.51C343.31,181.43,342.91,181.83,342.26,181.73z"/>
						<path class="st150" d="M342.26,181.73l-4.36-0.62c-0.65-0.09-1.31-0.64-1.48-1.22l-2.41-8.51c-0.16-0.58,0.23-0.97,0.88-0.88
							l4.36,0.62c0.65,0.09,1.31,0.64,1.48,1.22l2.41,8.51C343.31,181.43,342.91,181.83,342.26,181.73z"/>
						<path class="st150" d="M340.74,172.34l2.41,8.51"/>
						<path class="st3" d="M341.35,181.61l-4.36-0.62c-0.65-0.09-1.31-0.64-1.48-1.22l-2.41-8.51c-0.16-0.58,0.23-0.97,0.88-0.88
							l4.36,0.62c0.65,0.09,1.31,0.64,1.48,1.22l2.41,8.51C342.4,181.3,342.01,181.7,341.35,181.61z"/>
						<path class="st150" d="M333.85,171.46c-0.07-0.24,0.1-0.4,0.37-0.37c0.27,0.04,0.54,0.26,0.61,0.5
							c0.07,0.24-0.1,0.4-0.37,0.37C334.2,171.93,333.92,171.7,333.85,171.46z"/>
					</g>
					<path class="st10" d="M344.43,180.53c0,0-2.95,0.04-3.69-0.13c-0.74-0.18-2.63-2.52-2.13-3.11c0.32-0.37,2.08,0.29,2.92,0.29
						c0.84,0,3.02-1.22,4.51,1.27C346.22,179.13,344.43,180.53,344.43,180.53z"/>
				</g>
				<path class="st8" d="M357.09,186.14c0,0-3.18,2.98-16.47,3.4c-13.29,0.43-30.61,15.11-30.78,19.26
					c-0.16,4.15,26.76,10.45,27.18,9.85c0.42-0.59,17.07-14.9,17.07-14.9L357.09,186.14z"/>
				<path class="st58" d="M385.62,224.45c-14.78-18.45-45.16,6.7-53.02,5.99c-7.23-0.65,14.09-25.88,40.53-29.63
					c10.69-1.52,8.13-12.56,8.12-12.9c0.3,2.5,0.5,5.22,0.61,8.17C382.25,206.82,384.37,216.37,385.62,224.45z"/>
			</g>
		</g>
	</g>
	<g>
		<path class="st235" d="M278.66,111.39h27.03c4.72,0,8.55-3.83,8.55-8.55V64.55c0-4.72-3.83-8.55-8.55-8.55h-27.03
			c-4.72,0-8.55,3.83-8.55,8.55v38.29C270.11,107.56,273.94,111.39,278.66,111.39z"/>
		<g>
			<g>
				<g>
					<path class="st9" d="M292.03,102.99h0.28c0.95,0,1.72-0.77,1.72-1.72v-9.11c0-0.95-0.77-1.72-1.72-1.72h-0.28
						c-0.95,0-1.72,0.77-1.72,1.72v9.11C290.31,102.22,291.08,102.99,292.03,102.99z"/>
				</g>
				<g>
					<path class="st153" d="M285.15,102.99h0.28c0.95,0,1.72-0.77,1.72-1.72V78.02c0-0.95-0.77-1.72-1.72-1.72h-0.28
						c-0.95,0-1.72,0.77-1.72,1.72v23.25C283.43,102.22,284.2,102.99,285.15,102.99z"/>
				</g>
				<g>
					<path class="st9" d="M305.8,102.99h0.28c0.95,0,1.72-0.77,1.72-1.72v-3.39c0-0.95-0.77-1.72-1.72-1.72h-0.28
						c-0.95,0-1.72,0.77-1.72,1.72v3.39C304.08,102.22,304.85,102.99,305.8,102.99z"/>
				</g>
				<g>
					<path class="st3" d="M298.91,102.99h0.28c0.95,0,1.72-0.77,1.72-1.72V86.73c0-0.95-0.77-1.72-1.72-1.72h-0.28
						c-0.95,0-1.72,0.77-1.72,1.72v14.54C297.2,102.22,297.97,102.99,298.91,102.99z"/>
				</g>
				<g>
					<path class="st8" d="M278.27,102.99h0.28c0.95,0,1.72-0.77,1.72-1.72V69.72c0-0.95-0.77-1.72-1.72-1.72h-0.28
						c-0.95,0-1.72,0.77-1.72,1.72v31.56C276.55,102.22,277.32,102.99,278.27,102.99z"/>
				</g>
			</g>
		</g>
	</g>
</g>
</svg>
