<?xml version="1.0" encoding="utf-8"?>
<!-- Generator: Adobe Illustrator 26.3.1, SVG Export Plug-In . SVG Version: 6.00 Build 0)  -->
<svg version="1.1" id="Layer_1" xmlns="http://www.w3.org/2000/svg" xmlns:xlink="http://www.w3.org/1999/xlink" x="0px" y="0px"
	 viewBox="0 0 420 258" style="enable-background:new 0 0 420 258;" xml:space="preserve">
<style type="text/css">
	.st0{opacity:0.43;}
	.st1{fill:#CEDFFF;}
	.st2{fill:#0B50B9;}
	.st3{fill:#110239;}
	.st4{opacity:0.78;fill:#DCEAFF;}
	.st5{opacity:0.78;}
	.st6{opacity:0.5;fill:#BFDCFF;}
	.st7{fill:#005FBA;}
	.st8{fill:#FB961E;}
	.st9{fill:#FFFFFF;}
	.st10{fill:#FFAE73;}
	.st11{fill:#002897;}
	.st12{fill:#00158B;}
	.st13{fill:#ED057F;}
	.st14{fill:#A21B89;}
	.st15{fill:#F99352;}
	.st16{fill:#1F0757;}
	.st17{fill:#0097DD;}
	.st18{fill:#0072C6;}
	.st19{fill:#00A9E9;}
	.st20{fill:#25468F;}
	.st21{fill:#E8F2FA;}
	.st22{opacity:0.49;}
	.st23{fill:#E5E6ED;}
	.st24{fill:#214D9A;}
	.st25{fill:#CF0E83;}
	.st26{fill:#FFA05E;}
	.st27{fill:#00037F;}
	.st28{fill:#003AA2;}
	.st29{fill:#004DAE;}
	.st30{fill:#0084D1;}
	.st31{fill:#662D91;}
	.st32{fill:#75298F;}
	.st33{fill:#84248D;}
	.st34{fill:#93208B;}
	.st35{fill:#B11787;}
	.st36{fill:#C01285;}
	.st37{fill:#DE0981;}
	.st38{fill:#FDE3F1;}
	.st39{fill:#FBC7E3;}
	.st40{fill:#F9ACD4;}
	.st41{fill:#F790C6;}
	.st42{fill:#F574B8;}
	.st43{fill:#F358AA;}
	.st44{fill:#F13D9B;}
	.st45{fill:#EF218D;}
	.st46{fill:#B6CFFF;}
	.st47{fill:#A9C2FF;}
	.st48{fill:#BBD3FF;}
	.st49{fill:#80A1E6;}
	.st50{opacity:0.5;}
	.st51{opacity:0.42;}
	.st52{fill:#F4F4FF;stroke:#FFFFFF;stroke-width:0.75;stroke-miterlimit:10;}
	.st53{fill:#F4F4FF;}
	.st54{fill:#FA8B79;}
	.st55{opacity:0.1;}
	.st56{fill:#6B98F6;}
	.st57{fill:#F9924F;}
	.st58{fill:#DF851B;}
	.st59{fill:#FCAD50;}
	.st60{fill:#FDC582;}
	.st61{fill:#FEDCB4;}
	.st62{fill:#E3F5FD;}
	.st63{fill:#C6ECFA;}
	.st64{fill:#AAE2F8;}
	.st65{fill:#8ED9F5;}
	.st66{fill:#71CFF3;}
	.st67{fill:#55C6F0;}
	.st68{fill:#39BCEE;}
	.st69{fill:#1CB3EB;}
	.st70{fill:#C6C7D7;}
	.st71{fill:#002987;}
	.st72{clip-path:url(#SVGID_00000065792951723194853920000006436141960758044063_);}
	.st73{fill:#F1F3F4;}
	.st74{fill:#9CC0F9;}
	.st75{fill:#FEF9E8;}
	.st76{fill:#E8EAED;}
	.st77{fill:#FCE8E6;}
	.st78{fill:none;stroke:#9CC0F9;stroke-width:3.7859;stroke-miterlimit:10;}
	.st79{fill:none;stroke:#9CC0F9;stroke-width:1.262;stroke-miterlimit:10;}
	.st80{fill:#2B478B;}
	.st81{opacity:0.32;}
	.st82{opacity:0.2;fill:#ED057F;}
	.st83{opacity:0.5;fill:#ED057F;}
	.st84{opacity:0.1;fill:#110239;}
	.st85{opacity:0.18;fill:#005FBA;}
	.st86{fill:#666666;}
	.st87{fill:#373737;}
	.st88{fill-rule:evenodd;clip-rule:evenodd;fill:#666666;}
	.st89{fill:#808080;}
	.st90{fill:#B3B3B3;}
	.st91{opacity:0.4;}
	.st92{opacity:0.25;fill:#FFFFFF;}
	.st93{opacity:0.5;fill:#FFFFFF;}
	.st94{opacity:0.37;fill:#0097DD;}
	.st95{fill:url(#SVGID_00000037683305026899626780000004292332407097520001_);}
	.st96{fill:url(#SVGID_00000013879884433658364310000016454112443964509365_);}
	.st97{fill:url(#SVGID_00000182517102708537928490000008566321382812404621_);}
	.st98{fill:url(#SVGID_00000119820376082485661940000007907940455281207463_);}
	.st99{fill:url(#SVGID_00000026126825871480453870000009882438458601287040_);}
	.st100{fill:url(#SVGID_00000060724446938775066100000003185375776629332643_);}
	.st101{fill:#5793CE;}
	.st102{fill:#D4ECFF;}
	.st103{fill:#FF2C9C;}
	.st104{fill:url(#SVGID_00000017494727641312925030000002139048355706681994_);}
	.st105{fill:url(#SVGID_00000017515320347269111270000017814079305407419778_);}
	.st106{fill:url(#SVGID_00000111192666996578205260000002842954015039790976_);}
	.st107{clip-path:url(#SVGID_00000162312836406208030050000007873564683844767142_);}
	.st108{fill:url(#SVGID_00000128450990649224579440000017024487825037100713_);}
	.st109{fill:url(#SVGID_00000025429831883598353780000015929488085874788500_);}
	.st110{fill:url(#SVGID_00000084507453518549345040000007425020016682799775_);}
	.st111{fill:url(#SVGID_00000030470694871546994910000005645299426469509031_);}
	.st112{fill:url(#SVGID_00000137123743776606073590000004323262176865786537_);}
	.st113{fill:url(#SVGID_00000157995358472196225970000005660990600324493190_);}
	.st114{fill:#7DC3EA;}
	.st115{fill:url(#SVGID_00000141425113147893247400000011163961323472776323_);}
	.st116{fill:url(#SVGID_00000141432363851367113330000007640174233318028212_);}
	.st117{fill:url(#SVGID_00000125592264162949100260000000765950894336986281_);}
	.st118{fill:url(#SVGID_00000054236260867438553340000014635892333461954454_);}
	.st119{opacity:0.43;fill:#CEDFFF;}
	.st120{opacity:0.43;fill:#A9C2FF;}
	.st121{opacity:0.12;fill:#606060;}
	.st122{fill:#FF912B;}
	.st123{fill:#F7931E;}
	.st124{fill:#E6EDFC;}
	.st125{fill:none;stroke:#FFFFFF;stroke-width:0.3254;stroke-miterlimit:10;}
	.st126{fill:none;stroke:#FFFFFF;stroke-width:0.3254;stroke-miterlimit:10;stroke-dasharray:1.3021,1.3021;}
	.st127{fill:none;stroke:#FFFFFF;stroke-width:0.3254;stroke-miterlimit:10;stroke-dasharray:1.3548,1.3548;}
	.st128{fill:none;stroke:#FFFFFF;stroke-width:0.75;stroke-miterlimit:10;}
	.st129{fill:none;stroke:#FFFFFF;stroke-width:1.0422;stroke-miterlimit:10;}
	.st130{fill:none;stroke:#C8D0FC;stroke-width:0.2605;stroke-miterlimit:10;}
	.st131{fill:none;stroke:#FFFFFF;stroke-width:0.2605;stroke-linecap:round;stroke-miterlimit:10;}
	.st132{fill:none;stroke:#FFFFFF;stroke-width:0.5211;stroke-miterlimit:10;}
	.st133{fill:#E8A398;}
	.st134{fill:none;stroke:#E8B1C3;stroke-width:1.9735;stroke-miterlimit:10;}
	
		.st135{opacity:0.3;fill:none;stroke:#FFFFFF;stroke-width:3.6666;stroke-linecap:round;stroke-linejoin:round;stroke-miterlimit:10;}
	.st136{fill:none;stroke:#FFFFFF;stroke-width:2.0116;stroke-miterlimit:10;}
	.st137{opacity:0.4;fill:#DF851B;}
	.st138{fill:#E6E1F9;}
	.st139{fill:none;stroke:#E6E1F9;stroke-width:1.2443;stroke-miterlimit:10;}
	.st140{fill:#00D9E0;}
	.st141{opacity:0.5;fill:#00D9E0;}
	.st142{fill:#00EDED;}
	.st143{opacity:0.5;fill:#AD86F7;}
	.st144{fill:#641CA0;}
	.st145{fill:#AD86F7;}
	.st146{fill:none;stroke:#FFFFFF;stroke-width:0.6221;stroke-miterlimit:10;}
	.st147{fill:#F4C4B3;}
	.st148{fill:#28BAAD;}
	.st149{fill:#00204E;}
	.st150{opacity:0.17;fill:#FFFFFF;}
	.st151{fill:none;stroke:#FFFFFF;stroke-width:0.702;stroke-miterlimit:10;}
	.st152{opacity:0.17;}
	.st153{fill:#F20574;}
	.st154{fill:#30A8F2;}
	.st155{fill:#F9FBFC;}
	.st156{opacity:0.3;}
	.st157{opacity:0.28;}
	.st158{fill:#FFC194;}
	.st159{fill:none;stroke:#FFFFFF;stroke-width:1.0182;stroke-miterlimit:10;}
	.st160{fill:none;stroke:#FFFFFF;stroke-width:1.8415;stroke-miterlimit:10;}
	.st161{fill:#444A7C;}
	.st162{fill:#F4A9A2;}
	.st163{opacity:0.15;fill:#FFFFFF;}
	.st164{opacity:0.3;fill:#FFFFFF;}
	.st165{fill:#007DCB;}
	.st166{opacity:0.5;fill:#F4A9A2;}
	.st167{fill:none;stroke:#E8B1C3;stroke-width:2.0936;stroke-miterlimit:10;}
	.st168{fill:#759BE0;}
	.st169{fill:#AEC3FF;}
	.st170{opacity:0.7;fill:#759BE0;}
	.st171{fill:#94B0ED;}
	.st172{fill:#D2E0FF;}
	.st173{fill:#FFB27D;}
	.st174{fill:#E8945B;}
	.st175{opacity:0.17;fill:#C0D4FF;}
	.st176{fill:#EBF3FA;}
	.st177{fill:#ED975D;}
	.st178{fill:#FCA56B;}
	.st179{fill:#A6D9F1;}
	.st180{fill:#E69D43;}
	.st181{fill:#CA5F00;}
	.st182{fill:#D6716B;}
	.st183{fill:#AA443E;}
	.st184{fill:#EE9849;}
	.st185{fill:#A6C7F9;}
	.st186{fill:#D2E4FF;}
	.st187{fill:#F3F9FF;}
	.st188{fill:#A8D29F;}
	.st189{fill:#82B378;}
	.st190{fill:#163560;}
	.st191{fill:#E37970;}
	.st192{fill:#D68D5D;}
	.st193{fill:#80BDCC;}
	.st194{fill:#E7F1FD;}
	.st195{fill:#5F9AA8;}
	.st196{fill:#C45446;}
	.st197{fill:#739AF0;}
	.st198{fill:#4A75CB;}
	.st199{fill:#E49963;}
	.st200{fill:#1C468A;}
	.st201{clip-path:url(#SVGID_00000118375659404882447840000010295494894010219187_);}
	.st202{fill:#D9935C;}
	.st203{fill:#B84C42;}
	.st204{fill:#B74B42;}
	.st205{fill:#E58638;}
	.st206{fill:#CC7C46;}
	.st207{fill:none;stroke:#031F4C;stroke-width:0.5748;stroke-miterlimit:10;}
	.st208{fill:#E8C4B3;}
	.st209{fill:#67B375;}
	.st210{fill:#FFB27B;}
	.st211{fill:#FF985B;}
	.st212{fill:#C5E0FB;}
	.st213{fill:#A4CFF3;}
	.st214{fill:#FFAE74;}
	.st215{opacity:0.36;fill:#00037F;}
	.st216{fill:#E7F2F9;}
	.st217{fill:#FFBF92;}
	.st218{opacity:0.53;}
	.st219{fill:#AAC9F5;}
	.st220{fill:#CDE0FB;}
	.st221{fill:#C0D8FB;}
	.st222{fill:#AFCDFB;}
	.st223{fill:#D2E3FC;}
	.st224{fill:#DCEAFF;}
	.st225{fill:#77A4E5;}
	.st226{opacity:0.43;fill:#DCEAFF;}
	.st227{fill:#FFB93E;}
	.st228{fill:#E2810E;}
	.st229{opacity:0.42;fill:#002897;}
	.st230{clip-path:url(#SVGID_00000102503650493037021520000000067855785366057661_);}
	.st231{fill:#88ADD8;}
	.st232{fill:#98B9EA;}
	.st233{opacity:0.08;fill:#FFFFFF;}
	.st234{opacity:0.26;fill:#002897;}
	.st235{opacity:0.5;fill:#A9C2FF;}
	.st236{opacity:0.3;fill:#A9C2FF;}
	.st237{fill:#F6FBFF;}
	.st238{fill:#F48F4E;}
	.st239{opacity:0.42;fill:#DF851B;}
	.st240{fill:#BDD1F9;}
	.st241{opacity:0.96;fill:#CEDFFF;}
	.st242{fill:#FFA412;}
	.st243{opacity:0.5;fill:#E2810E;}
	.st244{opacity:0.29;fill:#0097DD;}
	.st245{opacity:0.71;}
	.st246{clip-path:url(#SVGID_00000054230204552333085060000012997892210639351217_);}
	.st247{fill:none;stroke:#9CC0F9;stroke-width:4.7939;stroke-miterlimit:10;}
	.st248{fill:none;stroke:#9CC0F9;stroke-width:1.598;stroke-miterlimit:10;}
	.st249{fill:#73B471;}
	.st250{fill:#FF9D5D;}
</style>
<g>
	<g>
		<path d="M265,152c-1.33,4.67-2.67,9.33-4,14c-1.3-3.9-2-6-2-6l0,0c0.02,3.35-0.21-6.88,1-10c0.5-1.3,0.92-2.33,2-3
			c2.06-1.27,5.55-0.59,6,1C268.33,149.16,267.05,150.83,265,152z"/>
		<path d="M265,152c-1.33,4.67-2.67,9.33-4,14c-1.3-3.9-2-6-2-6l0,0c0.02,3.35-0.21-6.88,1-10c0.5-1.3,0.92-2.33,2-3
			c2.06-1.27,5.55-0.59,6,1C268.33,149.16,267.05,150.83,265,152z"/>
	</g>
</g>
<g>
	<path class="st119" d="M365.94,239.43c-50.13,25.48-100.52-18.64-184.43-16.93c-72.98,1.49-101.27,36.22-131.88,13.61
		c-21.46-15.84-32.17-51.09-23.57-76.77c7.78-23.24,33.21-45.34,38.69-49.36c30.7-22.49-1.92-37.33,22.49-62.36
		c28.06-28.77,58.67,3.06,89.87-9.99c5.51-2.3,11.04-6.01,16.58-11.7c3.12-3.2,6.53-6,10.19-8.41c0.56-0.37,1.13-0.73,1.7-1.09
		c2.19-1.35,4.46-2.57,6.8-3.67c1.57-0.74,3.17-1.42,4.8-2.04h0c2.59-0.99,5.24-1.85,7.96-2.58c3.85-1.03,7.82-1.8,11.87-2.31
		c1.76-0.23,3.54-0.41,5.34-0.54c34.86-2.61,74.09,12.05,94.33,33.47c4.08,4.31,22.61,26.63,8,57.3
		c-9.85,20.68,27.53,27.74,43.15,59.98c1.89,3.9,16.49,35.13,2.95,60.61C389.09,219.84,382.73,230.89,365.94,239.43z"/>
	<g class="st50">
		<path class="st235" d="M179.78,117.87c0,0-3.7-30.98-19.57-49.46c-2.11-2.46-6.15-0.89-6.08,2.34c0,0.05,0,0.11,0,0.16
			C154.34,76.44,172.12,99.75,179.78,117.87z"/>
		<path class="st235" d="M181.71,126.74c0,0-15.82-38.72-42.83-55.84c-1.65-1.04-3.88-0.67-4.98,0.94
			c-0.72,1.05-1.04,2.68-0.24,5.24C135.81,83.89,165.94,106.81,181.71,126.74z"/>
	</g>
	<g class="st50">
		<path class="st235" d="M185.65,193.17c0,0,2.27-19.01,12.01-30.36c1.29-1.51,3.77-0.55,3.73,1.44c0,0.03,0,0.07,0,0.1
			C201.27,167.74,190.36,182.05,185.65,193.17z"/>
		<path class="st235" d="M184.47,198.61c0,0,9.71-23.76,26.29-34.27c1.01-0.64,2.38-0.41,3.06,0.58c0.44,0.64,0.64,1.65,0.14,3.21
			C212.64,172.31,194.15,186.38,184.47,198.61z"/>
	</g>
	<path class="st236" d="M142.4,174.51c0,0,8.78,24.09,4.19,25.45c-4.58,1.36-7.84-27.55-7.84-27.55s-24.94-7.31-33.86-4.94
		c0,0,18.33,21.92,13.56,22.1c-4.78,0.19-24.91-21.74-24.91-21.74s-24.42-0.48-25.91,14.18c-1.49,14.67,5.81,20.68,9.46,20.98
		c3.65,0.3,26.13-3.7,26.03-0.68c-0.1,3.02-14.54,10.21-23.46,8.97c0,0,13.17,21.57,25.26,18.37c12.09-3.19,14.64-11.43,22.15-13.26
		c7.51-1.84,13.4-0.71,9.94,1.97c-3.47,2.67-16.56,3.42-21.85,9.65c-5.28,6.23-9.73,10.4,2.07,10.73
		c32.29,0.9,37.33-23.28,37.33-23.28s19.92-15.9,6.93-30.89C161.49,184.59,151.61,175.7,142.4,174.51z"/>
	<path class="st235" d="M312.71,177.19c8.29-6.62-1.52-21.21-1.52-21.21s-21.12-3.64-22.87-6.6c-1.75-2.96,18.66-0.41,18.66-0.41
		c-2.04-6.32-16.19-18.57-16.19-18.57s-18.76,9.3-19.73,6c-0.97-3.3,17.03-7.39,17.03-7.39c-4.31-5.11-13.54-7.62-13.54-7.62
		c-14.13-2.01-15.99,16.24-15.99,16.24s-6.57,3.08-15.99,2.28l0,0c0,0-1.81-0.32-4.62-0.22l0.69,1.6c0.49-0.06,0.96-0.09,1.43-0.1
		c0,0,0.01,0,0.01,0c0.01,0,0.01,0,0.02,0c0.3,0,0.72,0.01,1.23,0.02c0,0,0,0,0,0c0,0,0,0,0,0c1.17,0.07,2.02,0.1,2.62,0.09
		c0,0,0,0,0.01,0c3.64,0.16,8.47,0.58,9.91,1.63c0,0,0.17-0.29,0.59-0.66c-0.19,0.21-0.38,0.43-0.59,0.66
		c-4.69,5.29,0.28,19.42,5.15,26.37c4.88,6.96,5.59,2.69,7.3-2.93c1.71-5.63-2.94-13.84-2.68-16.98c0.27-3.14,3.25-0.01,5.07,5.25
		c1.82,5.26-2.17,10.01,0.61,18.58c2.78,8.56,20.97,8.12,20.97,8.12c-4.22-4.91-5.51-16.45-3.72-17.69
		c1.79-1.24,8.13,13.92,9.73,16.02C297.93,181.73,304.42,183.81,312.71,177.19z"/>
	<path class="st235" d="M294.33,69.34c-2.57-8.31-16.64-5.19-16.64-5.19s-9.1,15.03-11.89,15.48c-2.79,0.45,5.27-14.37,5.27-14.37
		c-5.44-0.33-19.02,6.8-19.02,6.8s1.48,17.11-1.33,16.86c-2.81-0.25-0.53-15.22-0.53-15.22c-5.19,1.76-9.87,8.05-9.87,8.05
		c-5.77,10.18,7.6,17.07,7.6,17.07s0.38,5.94-3.05,12.89l0,0c0,0-0.78,1.29-1.55,3.46l1.43-0.05c0.1-0.39,0.22-0.76,0.35-1.12
		c0,0,0,0,0-0.01c0-0.01,0-0.01,0.01-0.02c0.09-0.22,0.22-0.54,0.38-0.93c0,0,0,0,0,0c0,0,0,0,0,0c0.41-0.87,0.68-1.51,0.85-1.98
		c0,0,0,0,0,0c1.22-2.73,2.98-6.3,4.21-7.07c0,0-0.17-0.22-0.33-0.65c0.1,0.21,0.21,0.42,0.33,0.65c2.63,5.16,14.91,5.61,21.68,3.97
		c6.77-1.64,3.73-3.46-0.05-6.45c-3.78-2.99-11.45-1.9-13.77-3.04c-2.32-1.14,0.96-2.49,5.52-2.3c4.56,0.19,6.99,4.66,14.36,5.1
		c7.37,0.44,12.48-13.57,12.48-13.57c-5.02,1.75-14.21-0.73-14.62-2.46c-0.41-1.74,13.06-2.03,15.14-2.63
		C293.37,81.98,296.9,77.65,294.33,69.34z"/>
	<path class="st237" d="M188.6,49.54c0,0,3.98-7.5,13.51-6.66c0,0,13.83-12.49,28.57-1.67c0,0,15.67-2.68,27.28,2.32
		c7.74,3.34,10.3,6.84,10.3,6.84L188.6,49.54z"/>
	<path class="st237" d="M250.31,37.09c0,0,2.82-5.68,9.58-5.05c0,0,9.81-9.46,20.26-1.26c0,0,11.11-2.03,19.35,1.76
		c5.49,2.53,7.3,5.18,7.3,5.18L250.31,37.09z"/>
	<path class="st237" d="M92.8,108.52c0,0,2.55-5.68,8.64-5.05c0,0,8.84-9.46,18.27-1.26c0,0,10.02-2.03,17.44,1.76
		c4.95,2.53,6.58,5.18,6.58,5.18L92.8,108.52z"/>
	<g>
		<path class="st153" d="M151.54,211.25h-21.9v-25.31h26.28l7.06-42.34h-24.33V118.3h28.71l6.57-38.21h26.04l-6.57,38.21h39.91
			l6.33-38.21h26.04l-6.57,38.21h21.66v25.31h-26.04l-7.06,42.34h24.33v25.31h-28.71l-6.81,39.18h-26.04l6.81-39.18h-39.91
			l-6.57,39.18h-26.04L151.54,211.25z M221.62,185.95l7.3-42.34h-39.91l-7.3,42.34H221.62z"/>
	</g>
	<g>
		<path class="st10" d="M99.54,162.08c0-0.08,1.16-2.47,0.79-2.66c-0.37-0.18-1.03-0.16-1.11,0.26
			C99.15,160.1,99.54,162.08,99.54,162.08z"/>
		<path class="st10" d="M99.98,163.5c0-0.23-0.27-3.82-0.88-4.53c-0.6-0.71-1.84-1.73-2.23-1.7s-1.91,2.05-1.45,3.6
			c0.46,1.55,2.38,3.64,2.38,3.64L99.98,163.5z"/>
		<g>
			<path class="st14" d="M102.28,159.16l-3.52,1.06c-0.12,0.04-0.24-0.03-0.27-0.15l-2.01-6.71c-0.04-0.12,0.03-0.24,0.15-0.27
				l3.52-1.06c0.12-0.04,0.24,0.03,0.27,0.15l2.01,6.71C102.47,159,102.4,159.13,102.28,159.16z"/>
			<path class="st153" d="M101.37,159.43l-3.19,0.96c-0.21,0.06-0.43-0.06-0.49-0.26l-1.91-6.39c-0.06-0.21,0.06-0.43,0.26-0.49
				l3.19-0.96c0.21-0.06,0.43,0.06,0.49,0.26l1.91,6.39C101.69,159.15,101.58,159.37,101.37,159.43z"/>
		</g>
		<path class="st10" d="M96.51,157.53c0,0,1.47-2.26,1.82-2.13c0.51,0.18-1.33,3.04-1.33,3.04s1.36-2.14,1.58-1.98
			c0.49,0.37-0.29,1.71-1.05,2.74c0,0,1.37-1.26,1.42-1.03c0.16,0.79-1.51,2.71-1.51,2.71l-0.93-2.12V157.53z"/>
		<path class="st10" d="M95.41,159.63c0.07-0.28,0.43-5.66,0.58-5.15c0.15,0.51,0.52,3.34,0.52,3.34L95.41,159.63z"/>
		<path class="st8" d="M118.81,158.15c0,0-0.15,5.86-1.84,10.58c-1.33,3.73-3.63,6.76-7.56,5.64c-0.4-0.11-0.79-0.24-1.17-0.37
			c0,0,0,0,0,0c-7.99-2.78-10.57-9.15-10.57-9.15c0.6-0.98,2.32-1.34,2.32-1.34c1.61,0.09,8.68,3.09,9.13,3.18
			c1.63,0.33,2.96-8.66,4.02-11.77c1.06-3.11,5.41-4.51,5.41-4.51L118.81,158.15z"/>
		<path class="st58" d="M117.12,164.51l-0.15,4.22c-1.33,3.73-3.63,6.76-7.56,5.64c-0.4-0.11-0.79-0.24-1.17-0.37
			c0.13,0.02,2.53,0.34,3.54-0.67c1.03-1.04,0.93-4.47,2.83-6.76C116.52,164.29,117.12,164.51,117.12,164.51z"/>
		<path class="st7" d="M117.34,241.68c0,0,1.97,1.79,1.58,3.07c-0.38,1.27-2.16,2.12-2.4,3.68c-0.24,1.56-1.2,2.41-2.06,2.41
			s-4.12,0-4.12,0s-0.64-1.1,0.9-1.43c1.53-0.33,2.11-2.16,2.02-3.86c-0.1-1.7,0.14-3.97,0.14-3.97l3.26-0.76L117.34,241.68z"/>
		<path class="st7" d="M95.68,250.52h12.12c0.47,0,0.87-0.38,0.88-0.85c0.02-0.71-0.04-1.74-0.43-2.61
			c-0.65-1.43-1.06-1.69,1.68-5.86c-0.82,0.85-3.04,0.46-4.9,0.21c-0.23,0.37-3.7,5.73-4.46,6.28
			C99.7,248.29,95.94,248.07,95.68,250.52z"/>
		<path class="st3" d="M114.56,183.33c0,0-8.78,16.58-11.17,25.7c-1.85,7.08,9.46,34.5,9.46,34.5s0.92-0.06,2.43-0.65
			c1.48-0.58,2.04-2.14,2.04-2.14s-0.67-19.6-2.96-29.08c-0.51-2.13,2.49-8.99,7.56-12.75c5.07-3.76,7.18-15.86,4.16-16.68
			C123.06,181.4,114.56,183.33,114.56,183.33z"/>
		<path class="st3" d="M122.08,178.62c0,0-9.24,33.85-12.04,41.46c-2.8,7.6-7.24,23.74-7.24,23.74s2.81,1.32,6.41,0.69
			c0,0,13.5-19.78,14.09-28.53c0.27-4.04,13.85-20.06,12.34-30.51L122.08,178.62z"/>
		<path class="st233" d="M122.08,178.62c0,0-9.24,33.85-12.04,41.46c-2.8,7.6-7.24,23.74-7.24,23.74s2.81,1.32,6.41,0.69
			c0,0,13.5-19.78,14.09-28.53c0.27-4.04,13.85-20.06,12.34-30.51L122.08,178.62z"/>
		<path class="st8" d="M135.61,189.18c0,0-1.97,0.99-5.44,1.28h0c-3.98,0.33-9.94-0.25-17.19-4.29c0,0-2.02-1.67,0.46-8.76
			c1.88-5.37,2.8-16.69,5.1-27.01c0,0,7.45-2.34,13.43-0.32c4.57,1.54,4.11,8.56,4.96,15.86c0.08,0.68,0.17,1.37,0.27,2.05
			C138.45,175.99,135.61,189.18,135.61,189.18z"/>
		<path class="st3" d="M115.91,135.14c0,0,5.09-8.28,9.03-4.02c0,0,2.58,0.66,4.05,4.67c1.5,4.09-0.84,7.7-2.4,7.12
			c-1-0.37-1.47,1.36-1.47,1.36L115.91,135.14z"/>
		<path class="st3" d="M124.16,130.46c0,0,0.35-3.43,5.36-3.09c0,0-2.37,0.04-2.88,1.03c0,0,1.72-1.11,2.98-0.57
			c1.26,0.54,1.79,2.89,1.72,3.64c-0.07,0.75-1.03,3.09-1.88,3.21c-0.84,0.12-1.95-0.48-1.95-0.48L124.16,130.46z"/>
		<path class="st10" d="M126.68,149.88c-0.47-1.25-1.17-2.57-1.73-6.57l-0.3,0.11l-5.06,1.78c0,0,0.35,1.62,0.58,3.16
			c0.09,0.63,0.16,1.76,0.2,2.74c0.04,1,1.03,1.1,2.04,1.05C125.08,152.03,126.56,151.03,126.68,149.88z"/>
		<path class="st238" d="M119.59,145.19c0,0,0.35,1.62,0.58,3.16c2.9-0.5,4.06-3.38,4.48-4.94L119.59,145.19z"/>
		<path class="st3" d="M125.1,142.77c0,0,1.18-2.63,1.25-4.75c0.05-1.51-1.49-6.86-6.86-5.28c0,0-1.57,0.39-2.92,1.61
			c-1.07,0.98-2.54,2.96,0.06,7.44l0.73,1.54L125.1,142.77z"/>
		<path class="st10" d="M118.83,146.8c0,0,6.91-0.88,6.29-5.17c-0.61-4.29-0.14-7.3-4.57-6.92c-4.44,0.38-5.06,2.14-5.2,3.62
			C115.2,139.81,117.01,146.91,118.83,146.8z"/>
		<path class="st3" d="M117.39,135.05c0,0,2.61,4.76,5.62,5.09c3,0.33,4.15-0.63,4.15-0.63s-2.48-1.44-3.38-4.46
			C123.78,135.06,118.47,132.45,117.39,135.05z"/>
		<path class="st3" d="M117.92,135.39c0,0-1.25,1.33-1.43,2.47c-0.19,1.14-0.02,3.41-0.68,3.43c0,0-1.91-3.22-0.6-5.38
			C116.61,133.62,117.92,135.39,117.92,135.39z"/>
		<path class="st3" d="M117.68,135.6c0,0,2.1,5.08,6,6.24c0,0-4.12-2.71-4.93-6.15C117.94,132.26,117.68,135.6,117.68,135.6z"/>
		<path class="st58" d="M135.61,189.18c0,0-1.97,0.99-5.44,1.28h0c0,0-2.85-3.58,0.33-7.59s-0.25-11.41,2.2-15.44
			c1.71-2.8,3.37-2.15,4.22-1.49c0.08,0.68,0.17,1.37,0.27,2.05C138.45,175.99,135.61,189.18,135.61,189.18z"/>
		<path class="st10" d="M148.14,183.24c0,0,0.42,0.99,1.01,1.05c0.97,0.11,2.81,0.92,3.09,1.09c0.78,0.46,0.73,2.54-0.05,2.74
			c-0.78,0.2-1.17-1.55-3.62-2.02c-0.83-0.16-2.04,0.42-2.53-1.57L148.14,183.24z"/>
		<path class="st8" d="M131.97,150.09c7.11,2.62,7.37,15.21,10.55,20.76c3.27,5.72,6.45,13.25,6.45,13.25s-0.06,0.23-1.28,0.57
			c-0.86,0.25-1.75,0.14-1.75,0.14s-6.72-6.08-8.54-8.48c-1.83-2.4-6.13-13.52-6.13-13.52S129.15,149.05,131.97,150.09z"/>
		<path class="st10" d="M146.23,185.02c0,0,0.17,0.85,1.22,1.53c1.05,0.68,1.89,1.37,1.99,0.95s-0.58-0.88-0.75-1.66
			C148.53,185.05,146.23,185.02,146.23,185.02z"/>
	</g>
	<g id="girl_2_00000001639394949400802970000009898278647942242478_">
		<path class="st3" d="M257.77,176.47c-3.27-0.7-6.67,0.29-9.09,2.59c-1.07,1.02-2.24,2.29-3.31,3.79c-2.66,3.72,2.44,7.4,1.76,8.66
			c-0.68,1.26-2.25,2.26-1.56,4.89c0.69,2.63,5.22,6.05,6.7,6.2c14.99,1.54,21.49-6.72,16.48-11.18
			c-5.01-4.45-2.97-10.92-7.03-13.43C260.46,177.22,259.08,176.75,257.77,176.47z"/>
		<path class="st15" d="M249.94,199.98c0,0-13.68,6.63-16.24,6.51c-2.56-0.11-18.58-5.75-18.58-5.75l0.4,2.72
			c0,0,12.18,7.01,16.44,7.4c4.19,0.39,18.53-3.76,19.92-4.64C253.27,205.34,253.96,200.87,249.94,199.98z"/>
		<path class="st10" d="M248.44,206.23c1.24,0.86,2.79,1.57,4.74,2.02c7.31,1.69,10.12-4.49,11.17-8.74c-1-0.57-1.94-0.7-2.48-0.76
			c-0.53-0.06-1.08-0.1-1.55-0.13c-0.82-0.63-2.04-3.2-2.32-7.2l-0.34,0.09l-5.76,1.58c0,0,0.26,1.83,0.39,3.56
			c0.1,1.36,0.12,2.65-0.14,2.97c-0.45,0.1-0.72,0.16-0.72,0.16s0,0,0,0.01C251.36,199.92,249.68,202.67,248.44,206.23z"/>
		<path class="st15" d="M251.9,193.1c0,0,0.27,1.83,0.39,3.56c3.27-0.33,4.78-3.44,5.37-5.14L251.9,193.1z"/>
		<path class="st10" d="M250.93,194.82c0,0,7.75-0.43,7.41-5.25c-0.34-4.82,0.43-8.13-4.53-8.06c-4.96,0.07-5.79,1.98-6.07,3.61
			C247.46,186.76,248.9,194.8,250.93,194.82z"/>
		<path class="st3" d="M247.77,182.42c1.09-1.54,2.02-1.28,2.56-0.88c4.06-2.63,7.04,0.61,7.04,0.61c0.77,3.42,3.4,5.23,3.4,5.23
			s-1.37,1.1-4.66,0.37c-4.21-0.93-5.65-4.58-5.85-5.14c-0.44,0.46-1.01,0.75-1.45,1.74c-0.52,1.18-0.85,1.87-0.86,3.81
			C247.95,188.16,246.13,184.73,247.77,182.42z"/>
		<path class="st17" d="M266.56,221.99c0.7-3.58,2.98-17.88,0.7-22.48c-0.82-1.65-4.04-1.8-7.57-1.66c-1.1,0.71-5.28,3.39-7,3.05
			c-0.02,0-0.05-0.01-0.1-0.02c-0.81-0.2-1.11-0.77-0.44-1.26c0,0-1.55,0.11-3.72,0.52c-1.23,0.23-4.59,2.3-4.59,2.3
			s1.53,2.37,3.98,3.41c-0.42,3.73,0.2,5.38,4.08,14.01c3.27,7.29-0.44,13.86-0.44,13.86s19.27,15.5,19.38,7.61
			C270.92,235.39,265.66,226.56,266.56,221.99z"/>
		<path class="st30" d="M265.6,206.78c0,0,1.34,12.21-7.36,14.77c-8.71,2.56-11.18-11.24-4.15-12.23
			C261.11,208.33,265.6,206.78,265.6,206.78z"/>
		<path class="st27" d="M250.51,250.57c-1.05-0.12-1.99-0.69-2.58-1.57c-0.09-0.14-0.19-0.29-0.3-0.45
			c-2.19-3.32-3.05-13.49-7.98-24.33c-1.2-2.64-5.52-3.11-6.69-6.09c0,0-2.9-9.67,5.54-9.95c8.44-0.29,22.6,26.89,22.82,29.75
			C261.54,240.69,266.9,252.42,250.51,250.57z"/>
		<path class="st8" d="M216.97,250.52h12.01c0,0,0.45-1.97-0.34-3.31c-0.7-1.18-0.43-1.86,0.09-2.84c-0.54,0.23-1.25,0.44-2.02,0.39
			c-0.6-0.04-1.23-0.31-1.79-0.64c-0.52,0.61-2.73,3.18-3.42,3.69C220.71,248.39,217.21,248.18,216.97,250.52z"/>
		<path class="st27" d="M232.68,210.97c-0.72,5.42-3.55,22.53-8.53,30.88c-1.61,2.69,4.05,4.2,4.08,4.19
			c0.76-0.2,2.02-1.41,2.6-1.93c4.04-3.65,12.26-13.97,12.26-22.24c0-4.03,0.07-11.74-2.86-13.7
			C238.42,206.97,232.97,208.82,232.68,210.97z"/>
		<path class="st11" d="M256.37,250.58c0,0-0.61-0.91-0.99-2.27c-0.65-2.27-0.88-3.91-2.12-7.44c-1.3-3.7-2.85-8.26-4.78-13.01
			c-0.6-1.46-1.23-2.95-1.9-4.42c-1.2-2.64-4.51-2.27-5.69-5.26c0,0-4.59-10.34,3.85-10.62c8.44-0.29,24.47,27.66,25.39,30.36
			C271.14,240.89,274.77,253.42,256.37,250.58z"/>
		<path class="st8" d="M225.78,250.52h12.01c0,0,0.45-1.97-0.34-3.31c-0.7-1.18-0.43-1.86,0.09-2.84c-0.54,0.23-1.25,0.44-2.02,0.39
			c-0.6-0.04-1.23-0.31-1.79-0.64c-0.52,0.61-2.73,3.18-3.42,3.69C229.53,248.39,226.03,248.18,225.78,250.52z"/>
		<path class="st239" d="M225.78,250.52h12.01c0,0,0.45-1.97-0.34-3.31c-0.7-1.18-0.43-1.86,0.09-2.84
			c-0.54,0.23-1.25,0.44-2.02,0.39c-0.6-0.04-1.23-0.31-1.79-0.64c-0.52,0.61-2.73,3.18-3.42,3.69
			C229.53,248.39,226.03,248.18,225.78,250.52z"/>
		<path class="st215" d="M253.26,240.87c-1.3-3.7-2.85-8.26-4.78-13.01c0.5-3.59,1.59-6.74,3.42-8
			C251.9,219.86,256.34,233.61,253.26,240.87z"/>
		<path class="st11" d="M239.69,210.59c-0.72,5.42-1.74,22.92-6.72,31.27c-1.61,2.69,4.05,4.2,4.08,4.19
			c0.76-0.2,2.02-1.41,2.6-1.93c4.04-3.65,12.26-13.97,12.26-22.24c0-4.03-4.74-11.42-7.67-13.38
			C242.43,207.3,239.98,208.44,239.69,210.59z"/>
		<g>
			<path class="st216" d="M213.69,193.76l12.3-1.31c0.36-0.04,0.7,0.17,0.83,0.51l4.4,11.56c0.19,0.51-0.17,1.05-0.71,1.08
				l-12.2,0.49c-0.33,0.01-0.64-0.18-0.76-0.49l-4.5-10.75C212.84,194.36,213.16,193.81,213.69,193.76z"/>
			<path class="st9" d="M212.62,193.87l12.3-1.31c0.36-0.04,0.7,0.17,0.83,0.51l4.4,11.56c0.19,0.51-0.17,1.05-0.71,1.08l-12.2,0.49
				c-0.33,0.01-0.64-0.18-0.76-0.49l-4.5-10.75C211.77,194.47,212.1,193.92,212.62,193.87z"/>
			<path class="st21" d="M219.44,199.27c-0.15-0.41,0.06-0.75,0.48-0.75c0.41,0,0.87,0.33,1.02,0.75s-0.06,0.75-0.48,0.75
				S219.59,199.68,219.44,199.27z"/>
			<path class="st21" d="M212.99,194.96c-0.07-0.2,0.03-0.37,0.23-0.37c0.2,0,0.43,0.16,0.5,0.37c0.07,0.2-0.03,0.37-0.23,0.37
				C213.29,195.33,213.07,195.16,212.99,194.96z"/>
		</g>
		<path class="st10" d="M264.35,199.51c0,0-17.05,6.28-19.61,6.15c-1.66-0.08-15.42-4.92-15.42-4.92l-1.24,2.34
			c0,0,13.39,8.61,17.08,8.57c7.27-0.08,19.54-4.55,20.92-5.42C267.47,205.34,268.37,200.4,264.35,199.51z"/>
		<path class="st10" d="M229.33,200.74c0,0-1.24-1.9-2.47-1.96c-1.23-0.06-3.35,0.84-4.08,0.98s-2.8,0.81-2.18,1.82
			c0.62,1.01,3.47,1.23,4.7,1.01c1.23-0.22,2.8,0.49,2.8,0.49L229.33,200.74z"/>
		<path class="st10" d="M227.19,198.84c0,0-1.96-0.9-2.52-1.07c-0.56-0.17-0.45,0-0.28,0.53c0.17,0.53,1.17,1.04,1.17,1.2
			C225.57,199.68,227.19,198.84,227.19,198.84z"/>
		<path class="st10" d="M213.89,199.74c0,0,0.78-2.57,1.64-1.76c0.89,0.84,0.35,1.68,0.24,2.75c-0.21,2.05-0.62,1.96-0.89,1.87
			C214.62,202.5,213.6,200.77,213.89,199.74z"/>
		<path class="st10" d="M213.84,200.13c0,0-0.39,2.19,1.68,3.33l-0.62-1.51L213.84,200.13z"/>
		<path class="st17" d="M255.57,202.61c0,0,1.52,4.83,6.76,5.92c0,0,8.65-2.66,4.34-8.55C266.67,199.98,262.41,196.82,255.57,202.61
			z"/>
		<path class="st10" d="M213.84,200.44c0,0-0.36-1.2-0.38-1.41c-0.02-0.21,0-0.31,0.19-0.17c0.19,0.15,0.47,0.53,0.38,0.9
			C213.95,200.12,213.84,200.44,213.84,200.44z"/>
	</g>
	<g>
		<g>
			<path class="st10" d="M208.75,141.19c-0.28,0.32-0.32,0.69-0.18,1.07c0,0,0,0,0,0.01c0.26,0.71,1.11,1.51,2.1,2.31
				c0.13,0.1,0.24,0.2,0.34,0.28c0.03,0.02,0.05,0.05,0.08,0.07c0.02,0.02,0.04,0.04,0.06,0.05c0.92,0.85,0.58,1.05,2.24,2.78
				c1.89,1.97,3.2,2.01,3.57,1.83c0.31-0.15-0.32-1.2-1.03-2.37c-0.03-0.06-0.07-0.11-0.1-0.17c-0.09-0.16-0.19-0.31-0.28-0.47
				c-0.83-1.41-0.62-2.08-0.42-4.18c0.16-1.71,2.66-9.55,2.66-9.55l-3.63-0.63c0,0-1.09,6.25-2.3,7.21
				c-0.64,0.51-1.37,0.52-1.98,0.9c-0.04,0.03-0.09,0.05-0.13,0.08C209.39,140.63,209.03,140.87,208.75,141.19z"/>
			<path class="st3" d="M208.75,141.19c-0.28,0.32-0.32,0.69-0.18,1.07c0,0,0,0,0,0.01c0.32,0.71,1.15,1.51,2.11,2.3
				c0.13,0.1,0.24,0.2,0.33,0.29c0.03,0.02,0.05,0.05,0.08,0.07c0.02,0.02,0.04,0.04,0.06,0.05c0.92,0.85,0.58,1.05,2.24,2.78
				c1.89,1.97,3.2,2.01,3.57,1.83c0.31-0.15-0.32-1.2-1.03-2.37c-0.37-0.14-2.08-0.83-3.38-2.49c-1.1-1.4-1.85-3.19-2.59-4.29
				c-0.08-0.02-0.13-0.02-0.21-0.04C209.39,140.63,209.03,140.87,208.75,141.19z"/>
			<path class="st10" d="M238.02,138.92c0.22,1.12,1.82,0.93,3.61,0.5c1.78-0.44,1.36,0.08,3.9-0.2c2.54-0.28,3.31-1.23,3.39-1.61
				c0.07-0.34-1.19-0.45-2.53-0.61c-0.17-0.02-0.34-0.04-0.51-0.06c-1.52-0.19-2.63-1.17-4.01-1.98c-1.31-0.76-3.26-3.87-3.26-3.87
				l-3.48,0.28c0,0,1.83,2.78,2.53,3.98c0.42,0.71,0.39,1.65,0.34,2.37C237.97,138.13,237.94,138.53,238.02,138.92z"/>
			<path class="st3" d="M241.63,139.42c1.78-0.44,1.36,0.08,3.9-0.2c2.54-0.28,3.31-1.23,3.39-1.61c0.07-0.34-1.19-0.45-2.53-0.61
				l-0.01,0.03c0,0-1.52,1.08-3.64,1.13c-1.72,0.04-3.55-0.45-4.74-0.43c-0.03,0.39-0.05,0.8,0.03,1.19
				C238.24,140.04,239.84,139.86,241.63,139.42z"/>
			<path class="st30" d="M224.67,116.65l-3.26,8.76l-4.25,11.44c0,0-1.15,0.11-2.26-0.21c-1.02-0.29-2.18-1.06-2.18-1.06
				s1.18-12.28,3.38-19.33c0.56-1.81,1.2-3.27,1.89-4.1C221.41,108.12,224.67,116.65,224.67,116.65z"/>
			<path class="st17" d="M221.36,102.74c-1.85-0.6-6.69-0.01-11.93,0.94c-1.45,0.26-2.91-0.4-3.67-1.66l0,0l-13.2-1.03
				c0,0-4.36,9.66-1.97,15.82c0.35,0.9,1.12,1.47,2.31,1.49c0,0,0,0,0,0c0,0,7.98,0.01,10.53,0.01c6.56,0,13.89-4.51,14.84-4.7
				c1.55-0.31,2.17,2.79,3.72,6.05c1.55,3.26,14.59,14.43,14.59,14.43s2,0.02,2.83-0.29c0.89-0.33,1.22-0.77,1.22-0.77
				S226.17,104.29,221.36,102.74z"/>
			<path class="st3" d="M204.35,63.26c-0.98-0.58-1.94-0.67-2.52-0.66c-0.41,0.01-0.81-0.01-1.22-0.07
				c-5.04-0.74-8.07,6.58-8.25,8.79c-0.33,4.06-2.47,4.68-5.5,7.22c-6.06,5.1-4.28,11.02-0.97,13.22c1.99,1.32,5.49,0,5.49,0
				c0.05,0.03,9.59-5.33,14.29-7.92C212.72,82.84,207.18,64.94,204.35,63.26z"/>
			<path class="st10" d="M201.74,81.64c0.02,0.01-2.31,0.81-3.87,0.12c-1.47-0.65-2.58-3.06-2.56-3.06c0.67-0.03,1.4-0.61,1.97-4.45
				l0.28,0.1l4.78,1.72c0,0-0.35,1.53-0.57,2.99C201.58,80.29,201.48,81.46,201.74,81.64z"/>
			<path class="st57" d="M202.34,76.07c0,0-0.19,0.83-0.47,2.37c-2.75-0.49-3.92-2.61-4.31-4.09L202.34,76.07z"/>
			<path class="st10" d="M203.05,77.59c0,0-6.54-0.88-5.93-4.94c0.61-4.07,0.18-6.92,4.38-6.53c4.2,0.39,4.78,2.06,4.91,3.47
				C206.53,70.99,204.76,77.71,203.05,77.59z"/>
			<path class="st3" d="M206.16,67.36c0,0-4.19,3.61-7.04,3.9c-2.85,0.29-3.93-0.62-3.93-0.62s1.68-1.39,2.69-3.64
				c0.3-0.66,0.93-1.12,1.65-1.18C201.57,65.64,205.43,65.56,206.16,67.36z"/>
			<path class="st3" d="M203.54,67.04c0,0,1.4,1.35,1.84,2.36c0.43,0.97,0.55,3.29,0.21,4.21c0,0,2.18-4.24,0.95-6.31
				C205.24,65.11,203.54,67.04,203.54,67.04z"/>
			<path class="st11" d="M207.24,91.27c-0.2,13.24-0.05,10.47-1.5,11.73c-0.35,0.3-1.33,0.48-2.62,0.57
				c-4.06,0.27-11.2-0.4-11.47-1.15c-0.94-2.6-0.28-3.4-1.06-7.38c-0.08-0.42-0.18-0.88-0.3-1.38c-0.65-2.73-1.29-3.66,1.03-8.04
				c2.1-3.97,4.27-7.2,4.47-7.08c5.53,3.28,5.98,0.52,5.98,0.52S207.34,84.81,207.24,91.27z"/>
			<path class="st17" d="M221.42,125.41l-4.25,11.44c0,0-1.15,0.11-2.26-0.21c-1.02-0.29-2.18-1.06-2.18-1.06s1.18-12.28,3.38-19.33
				L221.42,125.41z"/>
			<path class="st11" d="M201.76,79.06c0,0,5.69,0.96,6.36,3.41c0.67,2.45,2.87,17.32,2.87,17.32s-1.6,1.57-2.94,0.23
				c-1.34-1.34-4.21-13.91-4.21-13.91L201.76,79.06z"/>
			<path class="st27" d="M203.12,103.57c-4.06,0.27-11.2-0.4-11.47-1.15c-0.94-2.6-0.28-3.4-1.06-7.38l1.96-5.51
				c0,0-0.32,6.14,1.49,7.76c1.81,1.62,7.41,3.12,8.29,4.47C202.76,102.4,203.04,103.05,203.12,103.57z"/>
			<path class="st10" d="M198.47,100.99c0,0,4.01-0.89,4.65-0.54c0.65,0.36,2.23,1.65,2.42,2.1c0.2,0.45-1.44-0.34-1.97-0.48
				c-0.34-0.09-1.25,0.22-1.7,0.37c-1.89,0.63-3.05,0.31-3.05,0.31L198.47,100.99z"/>
			<path class="st11" d="M195.79,78.54c0,0-5.38,0.33-7.24,2.93c-2.62,3.66-7.82,19.23-4.84,21.31c3.36,2.34,15.27,0.61,15.27,0.61
				s0.4-1.85-0.16-2.75c-0.55-0.9-9.52-2.34-9.93-2.76c-0.41-0.41,5.17-8.07,5.17-9.31S195.79,78.54,195.79,78.54z"/>
			<path class="st10" d="M203.31,101.57c0,0,0.84,1.08,1.11,1.21c0.28,0.13,0.45,0.1,0.45,0.1l-0.57-1.02L203.31,101.57z"/>
			<path class="st10" d="M203.12,100.45l2.44,1.18c0,0-0.1,0.17-0.4,0.16c-0.3-0.01-1.06-0.29-1.06-0.29L203.12,100.45z"/>
		</g>
		<g>
			<polygon class="st8" points="223.96,103.24 198.47,103.24 198.47,103.8 223.73,103.8 			"/>
			<polygon class="st8" points="204.43,103.8 223.73,103.8 229.54,89.36 210.26,89.36 			"/>
			<path class="st9" d="M218.86,96.58c0.15-0.51-0.15-0.92-0.66-0.92c-0.51,0-1.04,0.41-1.18,0.92c-0.15,0.51,0.15,0.92,0.66,0.92
				C218.18,97.5,218.71,97.09,218.86,96.58z"/>
		</g>
	</g>
	<g>
		<g id="man_00000004525826052699904960000017473367707683313549_">
			<path class="st10" d="M355.04,146.38c-0.57,1.52-1.55,3.29-2.57,3.72c-1.17,0.5-1.65,1.2-1.65,1.2l-0.94-0.55l-1.13-0.65
				c0,0,0.03-0.12,0.08-0.33c0.05-0.2,0.14-0.48,0.25-0.8c0,0,0.35-0.44,0.13-1c-0.21-0.56-0.17-1.42,0.19-1.94
				c0.36-0.52,0.71-1.82,0.93-1.78c0.53,0.09-0.26,1.87-0.03,2.2c0.2,0.3,0.46,0.2,0.51,0.17c0,0,0.01,0,0.01,0
				c1.48-0.65,3.27-4.15,4.06-3.68C355.17,143.12,355.28,145.73,355.04,146.38z"/>
			<g>
				<path class="st3" d="M349.93,148.5l1.85,1.3c0.13,0.09,0.31,0.06,0.4-0.07l4.74-6.74c0.09-0.13,0.06-0.31-0.07-0.4l-1.85-1.3
					c-0.13-0.09-0.31-0.06-0.4,0.07l-4.74,6.74C349.77,148.22,349.8,148.4,349.93,148.5z"/>
				<path class="st233" d="M351.63,149.69l1.08,0.76c0.1,0.07,0.24,0.05,0.31-0.05l4.82-6.85c0.07-0.1,0.05-0.24-0.05-0.31
					l-1.08-0.76c-0.1-0.07-0.24-0.05-0.31,0.05l-4.82,6.85C351.5,149.48,351.53,149.62,351.63,149.69z"/>
			</g>
			<path class="st7" d="M323.41,138.83c0,0,9.41,16.41,12.82,19.43l12.51-9.33c0,0,1.82,0.56,2.61,2.38c0,0-7.6,15.48-15.08,16.14
				c-7.48,0.66-17.98-18.56-17.98-18.56L323.41,138.83z"/>
			<g>
				<path class="st3" d="M302.12,250.43h-5.44c-0.68-0.37-1.29-1.22-1.49-2.49c-0.27-1.75-2.23-2.71-2.65-4.14
					c-0.42-1.43,1.75-3.45,1.75-3.45l0.36-0.47l0.38-0.49l3.61,0.85c0,0,0.09,0.86,0.14,1.95c0.04,0.79,0.06,1.7,0.02,2.5
					c-0.11,1.91,0.53,3.97,2.23,4.34C302.29,249.32,302.23,250.06,302.12,250.43z"/>
				<path class="st3" d="M333.67,250.43h-12.43c-0.6-0.73-0.38-3.42-0.29-4.3c0.02-0.18,0.03-0.28,0.03-0.28s4.25-3.4,4.83-0.8
					c0.02,0.08,0.04,0.16,0.06,0.24c0.73,2.43,4.03,3.54,5.93,3.84C333.04,249.34,333.5,249.98,333.67,250.43z"/>
				<path class="st8" d="M331.3,181.04c0,0-0.64,8.04-1.4,17.71c-1.03,13.13-2.27,29.26-2.39,32.32
					c-0.21,5.31-1.06,13.79-1.06,13.79s-2.01,2.02-6.05,1.17c0,0-3.59-12.12-4.62-24.94c-0.02-0.21-0.03-0.42-0.05-0.63
					c-0.96-13.05-2.44-40.53-2.44-40.53L331.3,181.04z"/>
				<path class="st58" d="M331.3,181.04c0,0-0.64,8.04-1.4,17.71l-14.12,22.34c-0.02-0.21-0.03-0.42-0.05-0.63
					c-0.96-13.05-2.44-40.53-2.44-40.53L331.3,181.04z"/>
				<path class="st8" d="M328.35,182c0,0-11.62,29.13-19.26,42.81c-7.64,13.69-10.03,17.51-10.03,17.51s-4.38-1.75-4.77-2.94
					c0,0,2.92-26.42,8.04-32.87c2.89-3.64,6.29-14.56,6.45-18.38c0.16-3.82,1.03-11.38,1.03-11.38L328.35,182z"/>
			</g>
			<path class="st10" d="M325.46,139.54c-4.54,1.43-12.03-2.61-12.03-2.61s3.82-2.97,3.6-9.5l3.51,2.83l2.38,1.92
				c0,0-0.01,1.13-0.27,3.12c-0.07,0.52-0.19,1.34,0.2,1.75C324.37,138.68,325.46,139.54,325.46,139.54z"/>
			<path class="st57" d="M322.93,132.18c0,0-0.01,1.13-0.27,3.12c-2.64-0.45-5.64-4.72-5.64-4.72c1.35-0.39,2.52-0.46,3.53-0.32
				L322.93,132.18z"/>
			<path class="st10" d="M324.32,132.07c0,0-7.5,1.25-8.2-3.44c-0.7-4.68-2.15-7.67,2.61-8.67c4.76-0.99,5.96,0.65,6.57,2.16
				C325.92,123.63,326.25,131.63,324.32,132.07z"/>
			<path class="st7" d="M331.8,181.71c-0.14,0.11-0.3,0.18-0.48,0.18c-1.7-0.02-6.68,0.92-10.88,0.49
				c-3.55-0.34-6.69-1.39-10.06-2.9c-0.45-0.2-1.48-0.75-1.45-1.25c0.02-0.55,0.07-1.34,0.14-2.34c0.24-3.48,0.65-9.46,0.25-16.37
				c-0.07-1.29-0.11-2.56-0.12-3.82c-0.03-9.36,1.82-17.59,5.55-20.37c0.32-0.23,2.27,0.73,4.07,1.61c1.66,0.82,2.96,0.91,4.53,0.59
				l1.93,1.39c1.91,1.77,4,4.18,4.91,7.84c0.77,3.11,1.23,8.73,1.48,14.55c0.11,2.64,0.21,5.3,0.23,7.82v0.09
				c0.02,0.25,0.02,0.52,0.02,0.77C332,176.48,331.91,181.62,331.8,181.71z"/>
			<path class="st229" d="M309.07,175.89c0.24-3.48,0.65-9.46,0.25-16.37c-0.07-1.29-0.11-2.56-0.12-3.82
				c1.55-3.77,2.82-6.5,2.82-6.5h3.91C315.94,149.21,318.81,168.81,309.07,175.89z"/>
			<g>
				<path class="st3" d="M289.01,198.11l16.7,2.38c2.17,0.31,4.2-1.21,4.51-3.39l1.03-7.24c0.31-2.17-1.21-4.2-3.39-4.51l-16.7-2.38
					c-2.17-0.31-4.2,1.21-4.51,3.39l-1.03,7.24C285.31,195.77,286.84,197.8,289.01,198.11z"/>
				<path class="st233" d="M289.01,198.11l16.7,2.38c2.17,0.31,4.2-1.21,4.51-3.39l1.03-7.24c0.31-2.17-1.21-4.2-3.39-4.51
					l-16.7-2.38c-2.17-0.31-4.2,1.21-4.51,3.39l-1.03,7.24C285.31,195.77,286.84,197.8,289.01,198.11z"/>
				<path class="st3" d="M308.81,187.51L308.81,187.51c-0.47-1.18-1.48-2.1-2.77-2.42h0c0,0,0,0,0,0c-0.13-0.03-0.25-0.06-0.39-0.07
					l-3.32-0.47l0.22-1.56c0.05-0.35-0.04-0.7-0.25-0.98c-0.21-0.28-0.52-0.47-0.87-0.52l-0.87-0.12l-3.49-0.5l-0.63-0.09
					c-0.72-0.1-1.39,0.4-1.49,1.12l-0.22,1.56l-5.74-0.82c-2.18-0.31-4.22,1.22-4.53,3.4l-1.04,7.32c-0.31,2.18,1.22,4.22,3.4,4.53
					l16.67,2.38c0.29,0.04,0.59,0.05,0.87,0.03h0c0,0,0,0,0,0c0.46-0.03,0.89-0.15,1.3-0.33c1.23-0.54,2.16-1.68,2.36-3.1l1.04-7.32
					C309.15,188.83,309.06,188.13,308.81,187.51z M295.77,182.01c0.03-0.22,0.2-0.38,0.41-0.42c0.05-0.01,0.1-0.01,0.15,0l0.74,0.11
					l2.75,0.39l1.5,0.21c0.27,0.04,0.46,0.29,0.42,0.56l-0.22,1.56l-5.96-0.85L295.77,182.01z"/>
			</g>
			<path class="st10" d="M301.5,176.29c0,0-0.78,0.8-0.7,1.91c0.2,2.76-0.13,4.02-1.9,4.3c0,0-2.11,0.4-2.14-0.84
				c0,0,0.99,0.01,0.78-1.73c-0.24-2-0.22-2.02,1.1-3.07l0.87-1.44L301.5,176.29z"/>
			<path class="st7" d="M299.48,177.46c1.41,0.27,2.94,0.16,2.94,0.16s4.19-12.93,4.72-14.11c0.54-1.18,12.43-15.16,12.43-15.16
				l-4.95-12.4c0,0-12.86,21.49-14.17,24.51c-2.16,4.99-2.91,16.17-2.91,16.17S298.37,177.24,299.48,177.46z"/>
			<path class="st3" d="M316.11,128.19c0,0,0.77-0.13,0.65-1.19c-0.12-1.06-0.12-2.45,0.74-2.19c0.86,0.26,0.9,0.95,1.26,0.55
				c0.35-0.4,0.36-2.1,2.92-2.22c2.56-0.12,3.61,0.77,4.8,0.25c1.19-0.52,1.26-2.33,1.26-2.33s-0.34,0.64-0.85,0.85
				c0,0,1.99-2.72-0.31-4.59c-2.3-1.87-4.65-0.64-5.98-0.56c-2.94,0.18-4.83,0.35-5.79,2.28
				C313.83,120.97,314.22,126.33,316.11,128.19z"/>
			<path class="st10" d="M300.33,177.95c0,0,0.84,0.88,0.9,1.25c0.17,1.18,0.56,1.68,0.37,1.81c-0.41,0.27-0.95-0.6-1.21-1.39
				C300.12,178.85,300.33,177.95,300.33,177.95z"/>
		</g>
	</g>
	<g>
		<path class="st17" d="M337.17,89.97c-0.82-13.38-10.2-15.61-18.83-15.61c-8.62,0-17.06,4.48-16.65,14.54
			c0.18,4.34,1.39,8.11,4.27,10.79l-3.24,8.11l6.6-5.87c2.65,1.25,6.12,1.95,10.57,1.95C333.11,103.88,337.7,98.58,337.17,89.97z"/>
		<g>
			<path class="st9" d="M314.34,93.49h-2.08v-2.4h2.5l0.67-4.02h-2.31v-2.4h2.73l0.62-3.63h2.47l-0.62,3.63h3.79l0.6-3.63h2.47
				l-0.62,3.63h2.06v2.4h-2.47l-0.67,4.02h2.31v2.4h-2.73l-0.65,3.72h-2.47l0.65-3.72h-3.79l-0.62,3.72h-2.47L314.34,93.49z
				 M321,91.08l0.69-4.02h-3.79l-0.69,4.02H321z"/>
		</g>
	</g>
	<g class="st156">
		<path class="st47" d="M77.75,129.15c0.55-9.08,6.92-10.59,12.77-10.59c5.85,0,11.57,3.04,11.29,9.86
			c-0.12,2.95-0.94,5.5-2.89,7.32l2.2,5.5l-4.48-3.98c-1.8,0.85-4.15,1.33-7.17,1.32C80.51,138.58,77.4,134.98,77.75,129.15z"/>
	</g>
</g>
</svg>
