<?xml version="1.0" encoding="utf-8"?>
<!-- Generator: Adobe Illustrator 26.3.1, SVG Export Plug-In . SVG Version: 6.00 Build 0)  -->
<svg version="1.1" id="Layer_1" xmlns="http://www.w3.org/2000/svg" xmlns:xlink="http://www.w3.org/1999/xlink" x="0px" y="0px"
	 viewBox="0 0 420 258" style="enable-background:new 0 0 420 258;" xml:space="preserve">
<style type="text/css">
	.st0{opacity:0.43;}
	.st1{fill:#CEDFFF;}
	.st2{fill:#0B50B9;}
	.st3{fill:#110239;}
	.st4{opacity:0.78;fill:#DCEAFF;}
	.st5{opacity:0.78;}
	.st6{opacity:0.5;fill:#BFDCFF;}
	.st7{fill:#005FBA;}
	.st8{fill:#FB961E;}
	.st9{fill:#FFFFFF;}
	.st10{fill:#FFAE73;}
	.st11{fill:#002897;}
	.st12{fill:#00158B;}
	.st13{fill:#ED057F;}
	.st14{fill:#A21B89;}
	.st15{fill:#F99352;}
	.st16{fill:#1F0757;}
	.st17{fill:#0097DD;}
	.st18{fill:#0072C6;}
	.st19{fill:#00A9E9;}
	.st20{fill:#25468F;}
	.st21{fill:#E8F2FA;}
	.st22{opacity:0.49;}
	.st23{fill:#E5E6ED;}
	.st24{fill:#214D9A;}
	.st25{fill:#CF0E83;}
	.st26{fill:#FFA05E;}
	.st27{fill:#00037F;}
	.st28{fill:#003AA2;}
	.st29{fill:#004DAE;}
	.st30{fill:#0084D1;}
	.st31{fill:#662D91;}
	.st32{fill:#75298F;}
	.st33{fill:#84248D;}
	.st34{fill:#93208B;}
	.st35{fill:#B11787;}
	.st36{fill:#C01285;}
	.st37{fill:#DE0981;}
	.st38{fill:#FDE3F1;}
	.st39{fill:#FBC7E3;}
	.st40{fill:#F9ACD4;}
	.st41{fill:#F790C6;}
	.st42{fill:#F574B8;}
	.st43{fill:#F358AA;}
	.st44{fill:#F13D9B;}
	.st45{fill:#EF218D;}
	.st46{fill:#B6CFFF;}
	.st47{fill:#A9C2FF;}
	.st48{fill:#BBD3FF;}
	.st49{fill:#80A1E6;}
	.st50{opacity:0.5;}
	.st51{opacity:0.42;}
	.st52{fill:#F4F4FF;stroke:#FFFFFF;stroke-width:0.75;stroke-miterlimit:10;}
	.st53{fill:#F4F4FF;}
	.st54{fill:#FA8B79;}
	.st55{opacity:0.1;}
	.st56{fill:#6B98F6;}
	.st57{fill:#F9924F;}
	.st58{fill:#DF851B;}
	.st59{fill:#FCAD50;}
	.st60{fill:#FDC582;}
	.st61{fill:#FEDCB4;}
	.st62{fill:#E3F5FD;}
	.st63{fill:#C6ECFA;}
	.st64{fill:#AAE2F8;}
	.st65{fill:#8ED9F5;}
	.st66{fill:#71CFF3;}
	.st67{fill:#55C6F0;}
	.st68{fill:#39BCEE;}
	.st69{fill:#1CB3EB;}
	.st70{fill:#C6C7D7;}
	.st71{fill:#002987;}
	.st72{clip-path:url(#SVGID_00000129905119225177732970000005887085634832579761_);}
	.st73{fill:#F1F3F4;}
	.st74{fill:#9CC0F9;}
	.st75{fill:#FEF9E8;}
	.st76{fill:#E8EAED;}
	.st77{fill:#FCE8E6;}
	.st78{fill:none;stroke:#9CC0F9;stroke-width:3.7859;stroke-miterlimit:10;}
	.st79{fill:none;stroke:#9CC0F9;stroke-width:1.262;stroke-miterlimit:10;}
	.st80{fill:#2B478B;}
	.st81{opacity:0.32;}
	.st82{opacity:0.2;fill:#ED057F;}
	.st83{opacity:0.5;fill:#ED057F;}
	.st84{opacity:0.1;fill:#110239;}
	.st85{opacity:0.18;fill:#005FBA;}
	.st86{fill:#666666;}
	.st87{fill:#373737;}
	.st88{fill-rule:evenodd;clip-rule:evenodd;fill:#666666;}
	.st89{fill:#808080;}
	.st90{fill:#B3B3B3;}
	.st91{opacity:0.4;}
	.st92{opacity:0.25;fill:#FFFFFF;}
	.st93{opacity:0.5;fill:#FFFFFF;}
	.st94{opacity:0.37;fill:#0097DD;}
	.st95{fill:url(#SVGID_00000085957332292976892240000013555434512414625685_);}
	.st96{fill:url(#SVGID_00000139979575415229027220000018200478848809624722_);}
	.st97{fill:url(#SVGID_00000161624003388843409660000006821334067212369327_);}
	.st98{fill:url(#SVGID_00000127035044428868569550000012156861102281661108_);}
	.st99{fill:url(#SVGID_00000063593281596742525300000002372568358884677250_);}
	.st100{fill:url(#SVGID_00000103959498047059295280000017273745965763379869_);}
	.st101{fill:#5793CE;}
	.st102{fill:#D4ECFF;}
	.st103{fill:#FF2C9C;}
	.st104{fill:url(#SVGID_00000083070608199705252710000002243358712467989948_);}
	.st105{fill:url(#SVGID_00000004514778737323124600000014815676814996559255_);}
	.st106{fill:url(#SVGID_00000168076367434046786290000007390534078273298098_);}
	.st107{clip-path:url(#SVGID_00000016049048488663599600000015390651876199105462_);}
	.st108{fill:url(#SVGID_00000093159504169938644400000016271723629805784490_);}
	.st109{fill:url(#SVGID_00000055679544969745257170000002997044604065102729_);}
	.st110{fill:url(#SVGID_00000014624293397837792010000015759220715514976943_);}
	.st111{fill:url(#SVGID_00000133509841797170834830000011662006630380197564_);}
	.st112{fill:url(#SVGID_00000072244469722370677610000007245774086113487244_);}
	.st113{fill:url(#SVGID_00000149339907012840109020000003819674597803997569_);}
	.st114{fill:#7DC3EA;}
	.st115{fill:url(#SVGID_00000129917221791405240280000014489377755667192503_);}
	.st116{fill:url(#SVGID_00000096765455928668416200000011905788503502411923_);}
	.st117{fill:url(#SVGID_00000086677108740322124240000001446347871957106311_);}
	.st118{fill:url(#SVGID_00000054268034146761736220000010214049896901365891_);}
	.st119{opacity:0.43;fill:#CEDFFF;}
	.st120{opacity:0.43;fill:#A9C2FF;}
	.st121{opacity:0.12;fill:#606060;}
	.st122{fill:#FF912B;}
	.st123{fill:#F7931E;}
	.st124{fill:#E6EDFC;}
	.st125{fill:none;stroke:#FFFFFF;stroke-width:0.3254;stroke-miterlimit:10;}
	.st126{fill:none;stroke:#FFFFFF;stroke-width:0.3254;stroke-miterlimit:10;stroke-dasharray:1.3021,1.3021;}
	.st127{fill:none;stroke:#FFFFFF;stroke-width:0.3254;stroke-miterlimit:10;stroke-dasharray:1.3548,1.3548;}
	.st128{fill:none;stroke:#FFFFFF;stroke-width:0.75;stroke-miterlimit:10;}
	.st129{fill:none;stroke:#FFFFFF;stroke-width:1.0422;stroke-miterlimit:10;}
	.st130{fill:none;stroke:#C8D0FC;stroke-width:0.2605;stroke-miterlimit:10;}
	.st131{fill:none;stroke:#FFFFFF;stroke-width:0.2605;stroke-linecap:round;stroke-miterlimit:10;}
	.st132{fill:none;stroke:#FFFFFF;stroke-width:0.5211;stroke-miterlimit:10;}
	.st133{fill:#E8A398;}
	.st134{fill:none;stroke:#E8B1C3;stroke-width:1.9735;stroke-miterlimit:10;}
	
		.st135{opacity:0.3;fill:none;stroke:#FFFFFF;stroke-width:3.6666;stroke-linecap:round;stroke-linejoin:round;stroke-miterlimit:10;}
	.st136{fill:none;stroke:#FFFFFF;stroke-width:2.0116;stroke-miterlimit:10;}
	.st137{opacity:0.4;fill:#DF851B;}
	.st138{fill:#E6E1F9;}
	.st139{fill:none;stroke:#E6E1F9;stroke-width:1.2443;stroke-miterlimit:10;}
	.st140{fill:#00D9E0;}
	.st141{opacity:0.5;fill:#00D9E0;}
	.st142{fill:#00EDED;}
	.st143{opacity:0.5;fill:#AD86F7;}
	.st144{fill:#641CA0;}
	.st145{fill:#AD86F7;}
	.st146{fill:none;stroke:#FFFFFF;stroke-width:0.6221;stroke-miterlimit:10;}
	.st147{fill:#F4C4B3;}
	.st148{fill:#28BAAD;}
	.st149{fill:#00204E;}
	.st150{opacity:0.17;fill:#FFFFFF;}
	.st151{fill:none;stroke:#FFFFFF;stroke-width:0.702;stroke-miterlimit:10;}
	.st152{opacity:0.17;}
	.st153{fill:#F20574;}
	.st154{fill:#30A8F2;}
	.st155{fill:#F9FBFC;}
	.st156{opacity:0.3;}
	.st157{opacity:0.28;}
	.st158{fill:#FFC194;}
	.st159{fill:none;stroke:#FFFFFF;stroke-width:1.0182;stroke-miterlimit:10;}
	.st160{fill:none;stroke:#FFFFFF;stroke-width:1.8415;stroke-miterlimit:10;}
	.st161{fill:#444A7C;}
	.st162{fill:#F4A9A2;}
	.st163{opacity:0.15;fill:#FFFFFF;}
	.st164{opacity:0.3;fill:#FFFFFF;}
	.st165{fill:#007DCB;}
	.st166{opacity:0.5;fill:#F4A9A2;}
	.st167{fill:none;stroke:#E8B1C3;stroke-width:2.0936;stroke-miterlimit:10;}
	.st168{fill:#759BE0;}
	.st169{fill:#AEC3FF;}
	.st170{opacity:0.7;fill:#759BE0;}
	.st171{fill:#94B0ED;}
	.st172{fill:#D2E0FF;}
	.st173{fill:#FFB27D;}
	.st174{fill:#E8945B;}
	.st175{opacity:0.17;fill:#C0D4FF;}
	.st176{fill:#EBF3FA;}
	.st177{fill:#ED975D;}
	.st178{fill:#FCA56B;}
	.st179{fill:#A6D9F1;}
	.st180{fill:#E69D43;}
	.st181{fill:#CA5F00;}
	.st182{fill:#D6716B;}
	.st183{fill:#AA443E;}
	.st184{fill:#EE9849;}
	.st185{fill:#A6C7F9;}
	.st186{fill:#D2E4FF;}
	.st187{fill:#F3F9FF;}
	.st188{fill:#A8D29F;}
	.st189{fill:#82B378;}
	.st190{fill:#163560;}
	.st191{fill:#E37970;}
	.st192{fill:#D68D5D;}
	.st193{fill:#80BDCC;}
	.st194{fill:#E7F1FD;}
	.st195{fill:#5F9AA8;}
	.st196{fill:#C45446;}
	.st197{fill:#739AF0;}
	.st198{fill:#4A75CB;}
	.st199{fill:#E49963;}
	.st200{fill:#1C468A;}
	.st201{clip-path:url(#SVGID_00000016067799103218911820000017840801855970043301_);}
	.st202{fill:#D9935C;}
	.st203{fill:#B84C42;}
	.st204{fill:#B74B42;}
	.st205{fill:#E58638;}
	.st206{fill:#CC7C46;}
	.st207{fill:none;stroke:#031F4C;stroke-width:0.5748;stroke-miterlimit:10;}
	.st208{fill:#E8C4B3;}
	.st209{fill:#67B375;}
	.st210{fill:#FFB27B;}
	.st211{fill:#FF985B;}
	.st212{fill:#C5E0FB;}
	.st213{fill:#A4CFF3;}
	.st214{fill:#FFAE74;}
	.st215{opacity:0.36;fill:#00037F;}
	.st216{fill:#E7F2F9;}
	.st217{fill:#FFBF92;}
	.st218{opacity:0.53;}
	.st219{fill:#AAC9F5;}
	.st220{fill:#CDE0FB;}
	.st221{fill:#C0D8FB;}
	.st222{fill:#AFCDFB;}
	.st223{fill:#D2E3FC;}
	.st224{fill:#DCEAFF;}
	.st225{fill:#77A4E5;}
	.st226{opacity:0.43;fill:#DCEAFF;}
	.st227{fill:#FFB93E;}
	.st228{fill:#E2810E;}
	.st229{opacity:0.42;fill:#002897;}
	.st230{clip-path:url(#SVGID_00000101797492036003895190000017118439581710181047_);}
	.st231{fill:#88ADD8;}
	.st232{fill:#98B9EA;}
	.st233{opacity:0.08;fill:#FFFFFF;}
	.st234{opacity:0.26;fill:#002897;}
	.st235{opacity:0.5;fill:#A9C2FF;}
	.st236{opacity:0.3;fill:#A9C2FF;}
	.st237{fill:#F6FBFF;}
	.st238{fill:#F48F4E;}
	.st239{opacity:0.42;fill:#DF851B;}
	.st240{fill:#BDD1F9;}
	.st241{opacity:0.96;fill:#CEDFFF;}
	.st242{fill:#FFA412;}
	.st243{opacity:0.5;fill:#E2810E;}
	.st244{opacity:0.29;fill:#0097DD;}
	.st245{opacity:0.71;}
	.st246{clip-path:url(#SVGID_00000166633427033433935240000009641299820397892234_);}
	.st247{fill:none;stroke:#9CC0F9;stroke-width:4.7939;stroke-miterlimit:10;}
	.st248{fill:none;stroke:#9CC0F9;stroke-width:1.598;stroke-miterlimit:10;}
	.st249{fill:#73B471;}
	.st250{fill:#FF9D5D;}
</style>
<g class="st0">
	<path class="st1" d="M338.35,199.59c-21.96,36.17-161.09,61.64-202.83,26.16c-11.96-10.17-19.3-22.36-19.3-22.36
		c-8.31-13.81-5.22-24.79-12.82-37.04c-10.5-16.93-24.71-33.07-28.16-53.3c-4.96-28.99,6.31-59.78,36.82-68.07
		c19.36-5.26,38.91,2.01,57.94,5.2c15.55,2.6,31.5-0.38,46.14-5.66c2.67-0.95,5.34-1.98,8.01-3.02
		c17.71-6.95,35.3-15.23,53.93-17.83c13.32-1.87,25.61,0.71,33.07,10.56c0,0.01,0.01,0.02,0.01,0.02c1.86,2.43,3.4,5.31,4.6,8.68
		c0.21,0.58,0.4,1.17,0.57,1.77c0,0.01,0.01,0.02,0.01,0.03c1.48,4.82,2.04,9.78,2.21,14.8c0.34,10.01-0.84,20.27,0.6,30.09
		c1.24,8.46,4.33,16.21,8.03,23.76c6.42,13.06,14.64,25.44,18.24,39.6c1.24,4.89,2.23,8,2.55,12.52
		C347.96,165.49,349.12,181.85,338.35,199.59z"/>
</g>
<g>
	<g>
		<g>
			<path class="st3" d="M252.01,248.53h-85.86c-8.69,0-15.8-7.11-15.8-15.8V43.22c0-8.69,7.11-15.8,15.8-15.8h85.86
				c8.69,0,15.8,7.11,15.8,15.8v189.51C267.81,241.42,260.7,248.53,252.01,248.53z"/>
			<g>
				<path class="st7" d="M261.99,44.36v185.76c0,6.3-5.12,11.46-11.37,11.46h-83.07c-6.25,0-11.37-5.15-11.37-11.46V44.36
					c0-6.3,5.12-11.46,11.37-11.46h83.07C256.87,32.9,261.99,38.05,261.99,44.36z"/>
			</g>
			<path class="st3" d="M226.33,39.81h-34.5c-2.89,0-5.25-2.36-5.25-5.25v-0.59c0-2.89,2.36-5.25,5.25-5.25h34.5
				c2.89,0,5.25,2.36,5.25,5.25v0.59C231.58,37.45,229.22,39.81,226.33,39.81z"/>
		</g>
		<path class="st17" d="M108.36,141.86h117.8c4.19,0,7.58-3.39,7.58-7.58V87.28c0-4.19-3.39-7.58-7.58-7.58h-117.8
			c-4.19,0-7.58,3.39-7.58,7.58v46.99C100.78,138.46,104.17,141.86,108.36,141.86z"/>
		<g>
			<path class="st17" d="M227.01,71.83h-45.97c-3.5,0-6.34-2.84-6.34-6.34v-8.51c0-3.5,2.84-6.34,6.34-6.34h45.97
				c3.5,0,6.34,2.84,6.34,6.34v8.5C233.35,68.99,230.51,71.83,227.01,71.83z"/>
		</g>
		<g>
			<path class="st17" d="M224.96,227.18h-52.98c-4.19,0-7.59-3.4-7.59-7.59v-10.95c0-4.19,3.4-7.59,7.59-7.59h52.98
				c4.19,0,7.59,3.4,7.59,7.59v10.95C232.55,223.78,229.15,227.18,224.96,227.18z"/>
		</g>
		<g>
			<path class="st8" d="M245.64,190.21h-49.97c-5.03,0-9.1-4.07-9.1-9.1v-19.32c0-5.03,4.07-9.1,9.1-9.1h49.97
				c5.02,0,9.1,4.07,9.1,9.1v19.33C254.74,186.14,250.66,190.21,245.64,190.21z"/>
		</g>
		<g>
			<path class="st3" d="M393.27,112.73h-50.37c-4.01,0-7.3,3.28-7.3,7.3v22.1c0,3.69,3.02,6.7,6.71,6.7h1.29l-2.43,10.25
				l15.23-10.25h37.29c4.01,0,7.29-3.28,7.29-7.29v-21.08C401,116.21,397.52,112.73,393.27,112.73z"/>
			<path class="st150" d="M391.82,130.01h-46.92c-0.64,0-1.16-0.52-1.16-1.16l0,0c0-0.64,0.52-1.16,1.16-1.16h46.92
				c0.64,0,1.16,0.52,1.16,1.16l0,0C392.98,129.49,392.46,130.01,391.82,130.01z"/>
			<path class="st150" d="M391.82,135.21h-46.92c-0.64,0-1.16-0.52-1.16-1.16l0,0c0-0.64,0.52-1.16,1.16-1.16h46.92
				c0.64,0,1.16,0.52,1.16,1.16l0,0C392.98,134.69,392.46,135.21,391.82,135.21z"/>
			<path class="st150" d="M391.82,140.41h-46.92c-0.64,0-1.16-0.52-1.16-1.16l0,0c0-0.64,0.52-1.16,1.16-1.16h46.92
				c0.64,0,1.16,0.52,1.16,1.16l0,0C392.98,139.89,392.46,140.41,391.82,140.41z"/>
			<path class="st150" d="M366.26,121.93h-19.92c-0.76,0-1.38-0.62-1.38-1.38l0,0c0-0.76,0.62-1.38,1.38-1.38h19.92
				c0.76,0,1.38,0.62,1.38,1.38l0,0C367.65,121.31,367.02,121.93,366.26,121.93z"/>
			<path class="st150" d="M383.36,121.93h-11.94c-0.61,0-1.12-0.5-1.12-1.12v-0.53c0-0.61,0.5-1.12,1.12-1.12h11.94
				c0.61,0,1.12,0.5,1.12,1.12v0.53C384.47,121.43,383.97,121.93,383.36,121.93z"/>
		</g>
		<g>
			<polygon class="st14" points="295.1,100.37 331.38,112.24 309.65,91.05 307.45,96.23 298.11,96.28 			"/>
			<polygon class="st153" points="331.38,112.24 303.23,90.82 273.14,83.94 			"/>
			<polygon class="st153" points="309.65,91.05 331.38,112.24 316.9,82.56 			"/>
		</g>
		<g>
			<polygon class="st58" points="139.04,28.14 105.13,32.98 127.64,17.64 128.78,22.56 137.03,24.05 			"/>
			<polygon class="st8" points="105.13,32.98 133.35,18.43 161.01,17.04 			"/>
			<polygon class="st8" points="127.64,17.64 105.13,32.98 122.55,9.01 			"/>
		</g>
		<path class="st9" d="M151.88,108.43c0,4.42-1.49,8.5-4,11.75c-0.83,1.08-1.78,2.07-2.81,2.95c-3.36,2.85-7.7,4.57-12.45,4.57
			c-4.31,0-8.3-1.42-11.51-3.81c-1.42-1.05-2.68-2.3-3.76-3.7c-2.51-3.25-4-7.33-4-11.75c0-10.64,8.62-19.27,19.27-19.27
			S151.88,97.79,151.88,108.43z"/>
		<path class="st7" d="M140.35,117.54c-0.05-0.06-0.1-0.11-0.15-0.16c-0.22-0.17-0.44-0.28-1.33-0.43
			c-0.45-0.08-1.08-0.17-1.97-0.28c0,0-0.19-0.02-0.29-0.03c-0.07-0.01-0.14-0.01-0.22-0.02c-0.26-0.13-0.32-1.19-0.32-2.31
			c0-0.08,0-0.17,0-0.25c0-0.42,0.02-0.84,0.03-1.22c0-0.02,0-0.05,0-0.07c0.55,0.05,0.92,0.04,0.92,0.04
			c1.03-0.08,1.67-2.83,1.9-5.06c0,0,0.51-1.22,0.51-2.54c0-0.74-0.16-1.52-0.66-2.12c-0.26-0.31-0.5-0.52-0.72-0.65
			c-0.06-0.06-0.13-0.12-0.19-0.18c-0.95-1.06-4.84-5.03-7.38-2.74c-0.07-0.23-0.89-2.81-4.91-1.96c0.25-0.03,2.03-0.19,2.55,0.53
			c-0.07-0.03-1.63-0.72-2.61-0.12c-0.45,0.28-0.73,0.85-0.89,1.45c0,0,0,0.01,0,0.01c0,0,0,0.01,0,0.01v0c0,0.01,0,0.01,0,0.02
			c-0.02,0.08-0.04,0.16-0.06,0.25c0,0.01-0.01,0.02-0.01,0.04c0,0,0,0.01,0,0.01c0,0,0,0,0,0c-0.12,0.62-0.12,1.23-0.05,1.52
			c0.15,0.63,1.26,2.5,1.99,2.5c0.28,0,0.58-0.09,0.84-0.21c-0.11,0.33-0.22,0.69-0.3,1.09c-0.78,3.67,1.66,6.46,2.92,5.77
			c0.81-0.44,1.42,0.98,1.42,0.98l0-0.01c-0.12,2.69-0.86,4.44-1.4,4.88c-0.2,0.02-0.62,0.07-1.15,0.16v0c0,0-1.86,0.2-3.28,0.82
			c-0.01,0-0.02,0.01-0.03,0.01c-0.32,0.13-0.6,0.28-0.8,0.45c0,0,0,0.01-0.01,0.01v0c-0.11,0.08-0.2,0.17-0.26,0.27
			c-0.03,0.04-0.06,0.08-0.08,0.12c-0.47,0.9-0.95,2.26-1.41,3.85c2.72,2.03,6.1,3.23,9.76,3.23c4.03,0,7.71-1.46,10.56-3.87
			C142.2,119.16,141,118.03,140.35,117.54z"/>
		<path class="st9" d="M186.92,98.73H165.1c-0.77,0-1.41-0.63-1.41-1.41v-0.6c0-0.77,0.63-1.41,1.41-1.41h21.83
			c0.77,0,1.41,0.63,1.41,1.41v0.6C188.33,98.09,187.7,98.73,186.92,98.73z"/>
		<g>
			<path class="st9" d="M187.22,111.01H164.8c-0.61,0-1.11-0.5-1.11-1.11l0,0c0-0.61,0.5-1.11,1.11-1.11h22.42
				c0.61,0,1.11,0.5,1.11,1.11l0,0C188.33,110.51,187.83,111.01,187.22,111.01z"/>
			<path class="st9" d="M177.28,116.28h-12.72c-0.48,0-0.87-0.39-0.87-0.87v-0.49c0-0.48,0.39-0.87,0.87-0.87h12.72
				c0.48,0,0.87,0.39,0.87,0.87v0.49C178.15,115.89,177.76,116.28,177.28,116.28z"/>
			<path class="st9" d="M203.26,116.28H182.7c-0.6,0-1.09-0.49-1.09-1.09v-0.04c0-0.6,0.49-1.09,1.09-1.09h20.56
				c0.6,0,1.09,0.49,1.09,1.09v0.04C204.36,115.79,203.87,116.28,203.26,116.28z"/>
			<path class="st9" d="M222.54,111.01h-29.39c-0.61,0-1.11-0.5-1.11-1.11l0,0c0-0.61,0.5-1.11,1.11-1.11h29.39
				c0.61,0,1.11,0.5,1.11,1.11l0,0C223.66,110.51,223.15,111.01,222.54,111.01z"/>
			<path class="st9" d="M187.22,121.56H164.8c-0.61,0-1.11-0.5-1.11-1.11l0,0c0-0.61,0.5-1.11,1.11-1.11h22.42
				c0.61,0,1.11,0.5,1.11,1.11l0,0C188.33,121.06,187.83,121.56,187.22,121.56z"/>
			<path class="st9" d="M222.54,121.56h-29.39c-0.61,0-1.11-0.5-1.11-1.11l0,0c0-0.61,0.5-1.11,1.11-1.11h29.39
				c0.61,0,1.11,0.5,1.11,1.11l0,0C223.66,121.06,223.15,121.56,222.54,121.56z"/>
		</g>
		<path class="st9" d="M208.26,98.73h-15.67c-0.66,0-1.21-0.54-1.21-1.21v-1c0-0.66,0.54-1.21,1.21-1.21h15.67
			c0.66,0,1.21,0.54,1.21,1.21v1C209.47,98.19,208.92,98.73,208.26,98.73z"/>
		<g>
			<path class="st9" d="M188.45,208.47h-15.52c-0.55,0-1-0.45-1-1v-0.43c0-0.55,0.45-1,1-1h15.52c0.55,0,1,0.45,1,1v0.43
				C189.45,208.02,189,208.47,188.45,208.47z"/>
			<g>
				<path class="st9" d="M188.66,214.69h-15.94c-0.44,0-0.79-0.36-0.79-0.79l0,0c0-0.44,0.36-0.79,0.79-0.79h15.94
					c0.44,0,0.79,0.36,0.79,0.79l0,0C189.45,214.33,189.09,214.69,188.66,214.69z"/>
				<path class="st9" d="M181.59,218.44h-9.04c-0.34,0-0.62-0.28-0.62-0.62v-0.34c0-0.34,0.28-0.62,0.62-0.62h9.04
					c0.34,0,0.62,0.28,0.62,0.62v0.34C182.21,218.16,181.93,218.44,181.59,218.44z"/>
				<path class="st9" d="M200.06,218.44h-14.62c-0.43,0-0.78-0.35-0.78-0.78v-0.03c0-0.43,0.35-0.78,0.78-0.78h14.62
					c0.43,0,0.78,0.35,0.78,0.78v0.03C200.84,218.09,200.49,218.44,200.06,218.44z"/>
				<path class="st9" d="M213.77,214.69h-20.9c-0.44,0-0.79-0.36-0.79-0.79l0,0c0-0.44,0.36-0.79,0.79-0.79h20.9
					c0.44,0,0.79,0.36,0.79,0.79l0,0C214.56,214.33,214.21,214.69,213.77,214.69z"/>
				<path class="st9" d="M188.66,222.19h-15.94c-0.44,0-0.79-0.36-0.79-0.79l0,0c0-0.44,0.36-0.79,0.79-0.79h15.94
					c0.44,0,0.79,0.36,0.79,0.79l0,0C189.45,221.83,189.09,222.19,188.66,222.19z"/>
				<path class="st9" d="M213.77,222.19h-20.9c-0.44,0-0.79-0.36-0.79-0.79l0,0c0-0.44,0.36-0.79,0.79-0.79h20.9
					c0.44,0,0.79,0.36,0.79,0.79l0,0C214.56,221.83,214.21,222.19,213.77,222.19z"/>
			</g>
			<path class="st9" d="M203.62,208.47h-11.14c-0.47,0-0.86-0.39-0.86-0.86v-0.71c0-0.47,0.39-0.86,0.86-0.86h11.14
				c0.47,0,0.86,0.39,0.86,0.86v0.71C204.47,208.08,204.09,208.47,203.62,208.47z"/>
		</g>
		<g>
			<path class="st9" d="M198.77,57.16h-15.52c-0.55,0-1-0.45-1-1v-0.43c0-0.55,0.45-1,1-1h15.52c0.55,0,1,0.45,1,1v0.43
				C199.77,56.71,199.32,57.16,198.77,57.16z"/>
			<g>
				<path class="st9" d="M198.98,63.38h-15.94c-0.44,0-0.79-0.36-0.79-0.79l0,0c0-0.44,0.36-0.79,0.79-0.79h15.94
					c0.44,0,0.79,0.36,0.79,0.79l0,0C199.77,63.02,199.41,63.38,198.98,63.38z"/>
				<path class="st9" d="M191.91,67.13h-9.04c-0.34,0-0.62-0.28-0.62-0.62v-0.34c0-0.34,0.28-0.62,0.62-0.62h9.04
					c0.34,0,0.62,0.28,0.62,0.62v0.34C192.53,66.85,192.25,67.13,191.91,67.13z"/>
				<path class="st9" d="M210.39,67.13h-14.62c-0.43,0-0.78-0.35-0.78-0.78v-0.03c0-0.43,0.35-0.78,0.78-0.78h14.62
					c0.43,0,0.78,0.35,0.78,0.78v0.03C211.16,66.78,210.81,67.13,210.39,67.13z"/>
				<path class="st9" d="M224.09,63.38h-20.9c-0.44,0-0.79-0.36-0.79-0.79l0,0c0-0.44,0.36-0.79,0.79-0.79h20.9
					c0.44,0,0.79,0.36,0.79,0.79l0,0C224.88,63.02,224.53,63.38,224.09,63.38z"/>
			</g>
			<path class="st9" d="M213.94,57.16H202.8c-0.47,0-0.86-0.39-0.86-0.86v-0.71c0-0.47,0.39-0.86,0.86-0.86h11.14
				c0.47,0,0.86,0.39,0.86,0.86v0.71C214.8,56.77,214.41,57.16,213.94,57.16z"/>
		</g>
		<g>
			<path class="st9" d="M172.19,44.52l-1.18,0.85l-1.19-0.84c0.26-0.37,0.7-0.62,1.19-0.62C171.5,43.91,171.93,44.15,172.19,44.52z"
				/>
			<g>
				<path class="st9" d="M171.01,41.84c-1.19,0-2.24,0.59-2.88,1.5l0.75,0.53c0.47-0.67,1.25-1.1,2.13-1.1
					c0.87,0,1.65,0.43,2.12,1.09l0.75-0.54C173.23,42.42,172.19,41.84,171.01,41.84z"/>
			</g>
			<g>
				<path class="st9" d="M171.01,37.91c-2.52,0-4.74,1.25-6.09,3.17l0.75,0.53c1.18-1.68,3.14-2.77,5.34-2.77
					c2.19,0,4.13,1.08,5.31,2.73l0.74-0.54C175.72,39.14,173.5,37.91,171.01,37.91z"/>
			</g>
			<g>
				<path class="st9" d="M171.01,40.06c-1.79,0-3.38,0.89-4.34,2.24l0.75,0.53c0.8-1.12,2.11-1.85,3.59-1.85
					c1.47,0,2.77,0.72,3.58,1.82l0.74-0.53C174.36,40.93,172.78,40.06,171.01,40.06z"/>
			</g>
		</g>
		<path class="st9" d="M164.36,169.92c0,1.74,0.58,3.34,1.57,4.62c0.33,0.43,0.7,0.81,1.11,1.16c0.41,0.35,0.85,0.65,1.32,0.9
			c1.06,0.57,2.28,0.9,3.57,0.9c1.62,0,3.11-0.51,4.34-1.37c0.06-0.04,0.12-0.09,0.18-0.13c0.56-0.41,1.05-0.9,1.48-1.45
			c0.99-1.28,1.57-2.88,1.57-4.62c0-4.18-3.39-7.57-7.57-7.57C167.75,162.35,164.36,165.74,164.36,169.92z"/>
		<path class="st153" d="M173.98,174.77l-0.7-0.62c-0.06,0.01-0.12,0.02-0.17,0.03c-0.13-0.09-0.26-0.17-0.41-0.25
			c0.05-0.28,0.08-0.54,0.12-0.77c0.11-0.81,0.12-1.3,0.12-1.38c0.37-0.02,0.62-0.06,0.62-0.06c0.7-0.16,0.73-2.55,0.57-3.79
			c0.13,0,0.26-0.02,0.39-0.07c0.53-0.23,0.56-1.03,0.56-1.03s-0.15,0.29-0.38,0.38c0,0,0.88-1.21-0.14-2.04
			c-1.02-0.83-2.07-0.29-2.66-0.25c-1.31,0.08-2.15,0.16-2.58,1.02c-0.42,0.85-0.26,3.17,0.55,4.03c0.01,0.08,0.03,0.16,0.04,0.24
			c0.05,0.31,0.16,0.56,0.32,0.76c-0.18,1-0.6,1.75-0.97,2.25c-0.25,0.2-0.48,0.45-0.69,0.75c-0.01,0-0.01,0.01-0.01,0.01
			s0,0,0.01,0c-0.39,0.56-0.72,1.29-0.98,2.14c0,0,0,0.01,0,0.01c0.43,0.3,0.89,0.56,1.38,0.76c0.03,0.01,0.06,0.03,0.1,0.04
			c0.01,0,0.01,0.01,0.02,0.01c0.05,0.02,0.11,0.04,0.16,0.06c0.13,0.05,0.26,0.1,0.39,0.14c0.14,0.04,0.27,0.08,0.41,0.12
			c0.06,0.02,0.13,0.03,0.19,0.05c0.06,0.01,0.11,0.03,0.17,0.04c0.01,0,0.02,0,0.02,0.01c0.04,0.01,0.08,0.01,0.11,0.02
			c0.09,0.02,0.18,0.03,0.27,0.05c0.02,0,0.04,0.01,0.06,0.01c0.05,0.01,0.1,0.01,0.15,0.02c0.07,0.01,0.14,0.02,0.21,0.02
			c0.08,0.01,0.16,0.01,0.24,0.02c0.07,0.01,0.15,0.01,0.23,0.01c0.08,0,0.16,0,0.24,0c0.09,0,0.17,0,0.26,0c0.01,0,0.01,0,0.02,0
			c0.02,0,0.04,0,0.06,0c0.04,0,0.08,0,0.13-0.01c0.01,0,0.01,0,0.02,0c0.08,0,0.16-0.01,0.24-0.02c1.02-0.1,1.99-0.4,2.85-0.86
			C175.04,175.84,174.49,175.25,173.98,174.77z"/>
		<path class="st9" d="M238.65,213.9c0,1.75,0.59,3.36,1.58,4.65c0.33,0.43,0.7,0.82,1.11,1.17c1.33,1.13,3.05,1.81,4.92,1.81
			c1.71,0,3.28-0.56,4.55-1.51c0.56-0.42,1.06-0.91,1.49-1.46c0.99-1.29,1.58-2.9,1.58-4.65c0-4.21-3.41-7.62-7.62-7.62
			C242.06,206.28,238.65,209.69,238.65,213.9z"/>
		<path class="st8" d="M250.16,218.21c-0.01-0.02-0.02-0.04-0.04-0.06c-0.03-0.04-0.07-0.09-0.12-0.13l0,0
			c-0.1-0.08-0.23-0.15-0.38-0.21c-0.01,0-0.01,0-0.02-0.01c-0.66-0.29-1.53-0.38-1.53-0.38c-0.25-0.04-0.44-0.06-0.54-0.07
			c-0.26-0.21-0.6-1.02-0.65-2.27l0,0c0,0,0.29-0.66,0.66-0.46c0.59,0.32,1.73-0.98,1.36-2.69c-0.04-0.18-0.09-0.35-0.14-0.51
			c0.12,0.05,0.26,0.1,0.39,0.1c0.34,0,0.86-0.87,0.93-1.17c0.07-0.29-0.01-1.26-0.48-1.54c-0.46-0.28-1.18,0.04-1.21,0.05
			c0.23-0.33,1.03-0.26,1.18-0.25c-1.86-0.39-2.25,0.81-2.28,0.92c-1.19-1.07-3,0.78-3.44,1.28c-0.03,0.03-0.06,0.05-0.09,0.08
			c-0.1,0.06-0.22,0.16-0.34,0.3c-0.23,0.28-0.31,0.64-0.31,0.99c0,0.61,0.24,1.18,0.24,1.18c0.11,1.04,0.41,2.32,0.89,2.36
			c0,0,0.17,0,0.43-0.02c0,0.01,0,0.02,0,0.03c0.01,0.17,0.01,0.37,0.02,0.57v0.12c0,0.52-0.03,1.02-0.15,1.08
			c-0.04,0-0.07,0.01-0.1,0.01c-0.05,0-0.14,0.01-0.14,0.01c-0.42,0.05-0.71,0.1-0.92,0.13c-0.42,0.07-0.52,0.12-0.62,0.2
			c-0.02,0.02-0.05,0.05-0.07,0.08c-0.3,0.23-0.86,0.75-1.35,1.77c1.33,1.13,3.05,1.81,4.92,1.81c1.71,0,3.28-0.56,4.55-1.51
			C250.61,219.27,250.38,218.63,250.16,218.21z"/>
		<path class="st9" d="M238.65,60.78c0,1.75,0.59,3.36,1.58,4.65c0.33,0.43,0.7,0.82,1.11,1.17c1.33,1.13,3.05,1.81,4.92,1.81
			c1.71,0,3.28-0.56,4.55-1.51c0.56-0.42,1.06-0.91,1.49-1.46c0.99-1.29,1.58-2.9,1.58-4.65c0-4.21-3.41-7.62-7.62-7.62
			C242.06,53.16,238.65,56.57,238.65,60.78z"/>
		<path class="st8" d="M250.16,65.1c-0.01-0.02-0.02-0.04-0.04-0.06c-0.03-0.04-0.07-0.09-0.12-0.13l0,0
			c-0.1-0.08-0.23-0.15-0.38-0.21c-0.01,0-0.01,0-0.02-0.01c-0.66-0.29-1.53-0.38-1.53-0.38v0c-0.25-0.04-0.44-0.06-0.54-0.07
			c-0.06-0.05-0.13-0.13-0.19-0.25v0c-0.21-0.37-0.42-1.07-0.46-2.02l0,0c0,0,0.29-0.66,0.66-0.46c0.59,0.32,1.73-0.98,1.36-2.69
			c-0.04-0.19-0.09-0.36-0.14-0.51c0.12,0.05,0.26,0.1,0.39,0.1c0.34,0,0.86-0.87,0.93-1.17c0.07-0.3-0.01-1.26-0.48-1.55
			c-0.46-0.28-1.18,0.04-1.21,0.06c0.23-0.33,1.03-0.26,1.18-0.25c-1.86-0.39-2.25,0.81-2.28,0.92c-1.19-1.07-3,0.78-3.44,1.28
			c-0.03,0.03-0.06,0.05-0.09,0.08c-0.1,0.06-0.22,0.16-0.34,0.3c-0.23,0.28-0.31,0.64-0.31,0.99c0,0.62,0.24,1.18,0.24,1.18
			c0.11,1.04,0.41,2.32,0.89,2.36c0,0,0.17,0,0.43-0.02c0,0.01,0,0.02,0,0.03c0.01,0.17,0.01,0.37,0.02,0.57v0.12
			c0,0.52-0.03,1.01-0.15,1.08c-0.04,0-0.07,0.01-0.1,0.01c-0.05,0-0.14,0.01-0.14,0.01c-0.42,0.05-0.71,0.1-0.92,0.13
			c-0.42,0.07-0.52,0.12-0.62,0.2c-0.02,0.02-0.05,0.05-0.07,0.08c-0.3,0.23-0.86,0.75-1.35,1.77c0.07,0.06,0.15,0.12,0.22,0.18
			c0.01,0.01,0.03,0.02,0.04,0.03c0.06,0.04,0.11,0.09,0.17,0.13c0.04,0.03,0.08,0.06,0.12,0.09c0.04,0.03,0.08,0.06,0.13,0.08
			c0.06,0.04,0.12,0.08,0.19,0.12c0.04,0.03,0.08,0.05,0.13,0.08c0.05,0.03,0.11,0.06,0.16,0.09c0.06,0.03,0.12,0.07,0.18,0.1
			c0.01,0,0.01,0.01,0.02,0.01c0,0,0.01,0,0.01,0.01h0c0.01,0,0.02,0.01,0.03,0.01c0.05,0.03,0.1,0.05,0.14,0.07c0,0,0.01,0,0.01,0
			c0.01,0.01,0.03,0.02,0.04,0.02c0.03,0.01,0.05,0.03,0.08,0.04c0.03,0.01,0.05,0.02,0.08,0.04c0.06,0.03,0.12,0.06,0.19,0.08
			c0.06,0.03,0.13,0.05,0.19,0.08c0.03,0.01,0.06,0.02,0.09,0.03c0.03,0.01,0.06,0.02,0.09,0.03c0.06,0.02,0.12,0.04,0.18,0.06
			c0.06,0.02,0.12,0.04,0.18,0.06c0.05,0.02,0.1,0.03,0.16,0.05c0.01,0,0.01,0,0.02,0c0.03,0.01,0.07,0.02,0.1,0.03
			c0.18,0.05,0.37,0.09,0.56,0.13c0.08,0.02,0.16,0.03,0.25,0.04c0.02,0,0.04,0.01,0.06,0.01c0,0,0.01,0,0.01,0c0,0,0.01,0,0.01,0
			c0.05,0.01,0.1,0.01,0.16,0.02c0.01,0,0.02,0,0.03,0c0.01,0,0.02,0,0.02,0c0.05,0.01,0.1,0.01,0.15,0.02c0.01,0,0.02,0,0.03,0
			c0.01,0,0.03,0,0.05,0.01c0.09,0.01,0.18,0.01,0.27,0.02h0.01c0.03,0,0.05,0,0.08,0c0.02,0,0.03,0,0.05,0
			c0.09,0,0.18,0.01,0.26,0.01c1.71,0,3.28-0.56,4.55-1.51C250.61,66.15,250.38,65.52,250.16,65.1z"/>
		<path d="M267.79,154.37c-1.33,4.67-2.67,9.33-4,14c-0.6,0.21-1.2,0.42-1.79,0.63v1c0-4,0-8,0-12c0.16-1.78,0.63-3.14,1-4
			c0.52-1.22,0.95-2.22,2-3c1.13-0.84,2.37-0.98,3-1c0.09,0.86,0.12,1.87,0,3C267.95,153.49,267.88,153.94,267.79,154.37z"/>
	</g>
	<g>
		<g id="man_00000180365139364539953800000006147845213873725579_">
			<g>
				<path class="st10" d="M124.46,100.31c-0.81,2.17-2.21,4.7-3.68,5.33c-1.67,0.71-2.36,1.72-2.36,1.72l-1.35-0.78l-1.61-0.93
					c0,0,0.04-0.18,0.12-0.47c0.08-0.29,0.2-0.69,0.36-1.14c0,0,0.49-0.63,0.19-1.43c-0.3-0.8-0.24-2.03,0.27-2.78
					c0.52-0.75,1.01-2.6,1.32-2.54c0.75,0.13-0.37,2.67-0.05,3.14c0.29,0.43,0.66,0.28,0.72,0.25c0,0,0.01,0,0.01-0.01
					c2.11-0.93,4.67-5.93,5.8-5.25C124.64,95.66,124.81,99.39,124.46,100.31z"/>
			</g>
			<g>
				<g>
					<path class="st7" d="M117.16,103.34l2.64,1.86c0.19,0.13,0.45,0.09,0.58-0.1l6.77-9.64c0.13-0.19,0.09-0.45-0.1-0.58
						l-2.64-1.86c-0.19-0.13-0.45-0.09-0.58,0.1l-6.77,9.64C116.93,102.95,116.98,103.21,117.16,103.34z"/>
				</g>
				<g>
					<path class="st12" d="M119.58,105.04l1.55,1.09c0.14,0.1,0.34,0.07,0.44-0.08l6.89-9.8c0.1-0.14,0.07-0.34-0.08-0.44
						l-1.55-1.09c-0.14-0.1-0.34-0.07-0.44,0.08l-6.89,9.8C119.4,104.75,119.44,104.94,119.58,105.04z"/>
				</g>
			</g>
			<g>
				<path class="st14" d="M79.24,89.52c0,0,13.45,23.46,18.33,27.78l17.89-13.34c0,0,2.6,0.8,3.73,3.4c0,0-10.86,22.14-21.56,23.07
					c-10.7,0.94-25.71-26.53-25.71-26.53L79.24,89.52z"/>
			</g>
			<g>
				<g>
					<path class="st7" d="M48.8,249.08h-7.77c-0.98-0.53-1.85-1.75-2.13-3.56c-0.38-2.5-3.19-3.87-3.79-5.92
						c-0.61-2.05,2.5-4.93,2.5-4.93l0.52-0.67l0.54-0.7l5.16,1.21c0,0,0.13,1.23,0.21,2.79c0.06,1.13,0.09,2.43,0.02,3.58
						c-0.15,2.73,0.76,5.67,3.19,6.2C49.05,247.48,48.97,248.55,48.8,249.08z"/>
				</g>
				<g>
					<path class="st7" d="M93.9,249.08H76.13c-0.85-1.04-0.54-4.89-0.41-6.15c0.03-0.25,0.04-0.4,0.04-0.4s6.07-4.85,6.9-1.14
						c0.03,0.12,0.06,0.23,0.09,0.34c1.05,3.48,5.76,5.06,8.48,5.5C93.01,247.52,93.66,248.44,93.9,249.08z"/>
				</g>
				<g>
					<path class="st3" d="M90.52,149.87c0,0-0.92,11.5-2,25.32c-1.47,18.77-3.24,41.84-3.42,46.2c-0.3,7.59-1.52,19.72-1.52,19.72
						s-2.88,2.88-8.65,1.67c0,0-5.14-17.32-6.61-35.65c-0.02-0.3-0.05-0.6-0.07-0.91c-1.37-18.66-3.49-57.95-3.49-57.95
						L90.52,149.87z"/>
				</g>
				<g>
					<path d="M90.52,149.87c0,0-0.92,11.5-2,25.32l-20.19,31.94c-0.02-0.3-0.05-0.6-0.07-0.91c-1.37-18.66-3.49-57.95-3.49-57.95
						L90.52,149.87z"/>
				</g>
				<g>
					<path class="st3" d="M86.31,151.24c0,0-16.61,41.64-27.53,61.21c-10.92,19.57-14.34,25.03-14.34,25.03s-6.26-2.5-6.83-4.21
						c0,0,4.18-37.78,11.49-46.99c4.13-5.2,8.99-20.82,9.22-26.28c0.23-5.46,1.48-16.27,1.48-16.27L86.31,151.24z"/>
				</g>
			</g>
			<g>
				<path class="st10" d="M82.18,90.54c-6.49,2.05-17.72-3.48-17.72-3.48s5.98-4.49,5.67-13.83l5.02,4.04l3.41,2.75
					c0,0-0.01,1.62-0.39,4.46c-0.1,0.75,0.74,2.39,1.47,3.32C81.61,90.29,82.18,90.54,82.18,90.54z"/>
			</g>
			<g>
				<path class="st57" d="M78.55,80.02c0,0-0.01,1.62-0.39,4.46c-3.78-0.65-8.06-6.75-8.06-6.75c1.92-0.56,3.61-0.66,5.04-0.45
					L78.55,80.02z"/>
			</g>
			<g>
				<path class="st10" d="M80.54,79.86c0,0-10.72,1.78-11.73-4.91c-1.01-6.69-3.07-10.97,3.73-12.39c6.8-1.42,8.52,0.93,9.4,3.09
					C82.82,67.8,83.3,79.23,80.54,79.86z"/>
			</g>
			<g>
				<g>
					<path class="st153" d="M91.23,150.83c-0.2,0.16-0.42,0.26-0.68,0.26c-2.44-0.03-9.55,1.32-15.56,0.7
						c-5.07-0.49-9.56-1.99-14.38-4.15c-0.64-0.29-2.11-1.07-2.08-1.79c0.02-0.78,0.1-1.92,0.2-3.35c0.34-4.97,0.94-13.53,0.36-23.4
						c-0.1-1.84-0.16-3.66-0.17-5.46c-0.05-13.38,2.6-25.14,7.93-29.13c0.46-0.33,3.25,1.04,5.82,2.31c2.37,1.17,4.75,1.3,6.99,0.85
						l2.24,1.98c2.73,2.54,5.72,5.98,7.02,11.21c1.11,4.45,1.76,12.48,2.11,20.8c0.16,3.77,0.29,7.57,0.33,11.18v0.13
						c0.03,0.36,0.03,0.75,0.03,1.11C91.53,143.35,91.4,150.7,91.23,150.83z"/>
				</g>
			</g>
			<g>
				<path class="st14" d="M58.73,142.51c0.34-4.97,0.94-13.53,0.36-23.4c-0.1-1.84-0.16-3.66-0.17-5.46
					c2.22-5.39,4.04-9.29,4.04-9.29h5.6C68.56,104.36,72.66,132.38,58.73,142.51z"/>
			</g>
			<g>
				<g>
					<path class="st12" d="M30.06,174.27l23.87,3.4c3.11,0.44,6.01-1.74,6.45-4.84l1.47-10.34c0.44-3.11-1.74-6.01-4.84-6.45
						l-23.87-3.4c-3.11-0.44-6.01,1.74-6.45,4.84l-1.47,10.34C24.78,170.92,26.96,173.83,30.06,174.27z"/>
				</g>
				<g>
					<path class="st7" d="M58.37,159.12L58.37,159.12c-0.67-1.68-2.12-3.01-3.95-3.46h0c0,0,0,0,0,0c-0.18-0.04-0.36-0.08-0.55-0.11
						l-4.75-0.68l0.32-2.23c0.07-0.5-0.06-1-0.36-1.4c-0.3-0.4-0.75-0.67-1.24-0.74l-1.24-0.18l-4.99-0.71l-0.9-0.13
						c-1.03-0.15-1.99,0.57-2.14,1.6l-0.32,2.23l-8.2-1.17c-3.12-0.44-6.03,1.74-6.48,4.86l-1.49,10.47
						c-0.44,3.12,1.74,6.03,4.86,6.48l23.83,3.4c0.42,0.06,0.84,0.07,1.24,0.04h0c0,0,0,0,0,0c0.65-0.05,1.28-0.21,1.86-0.47
						c1.75-0.77,3.08-2.41,3.37-4.43l1.49-10.46C58.86,161.01,58.72,160.01,58.37,159.12z M39.72,151.26
						c0.04-0.31,0.29-0.55,0.59-0.6c0.07-0.01,0.14-0.01,0.21,0l1.06,0.15l3.93,0.56l2.14,0.31c0.39,0.05,0.65,0.41,0.6,0.8
						l-0.32,2.23l-8.53-1.22L39.72,151.26z"/>
				</g>
			</g>
			<g>
				<path class="st10" d="M48.22,143.47c0,0-1.25,1.67-1.3,2.34c-0.34,4.52,1.73,5.15-3.62,7.66c0,0-2.28,0.87-2.32-0.9
					c-0.04-1.77,1.59-1.8,1.29-4.28c-0.34-2.86-0.31-2.89,1.57-4.39l1.24-2.06L48.22,143.47z"/>
			</g>
			<g>
				<path class="st153" d="M45.03,144.75c2.02,0.39,4.2,0.23,4.2,0.23s5.98-18.48,6.75-20.17c0.77-1.69,17.77-21.67,17.77-21.67
					l-7.08-17.73c0,0-18.39,30.72-20.26,35.03c-3.09,7.13-4.16,23.12-4.16,23.12S43.44,144.44,45.03,144.75z"/>
			</g>
			<g>
				<path class="st3" d="M68.8,74.31c0,0,1.1-0.18,0.92-1.7c-0.18-1.52-0.18-3.5,1.06-3.13c1.23,0.37,1.29,1.36,1.8,0.78
					c0.51-0.58,0.52-3,4.18-3.17c3.67-0.17,5.16,1.11,6.86,0.36c1.7-0.75,1.79-3.33,1.79-3.33s-0.48,0.92-1.22,1.21
					c0,0,2.84-3.89-0.45-6.56c-3.29-2.67-6.65-0.92-8.56-0.81c-4.2,0.25-6.91,0.51-8.28,3.27C65.54,63.99,66.11,71.65,68.8,74.31z"
					/>
			</g>
			<g>
				<path class="st10" d="M46.24,145.46c0,0,1.21,1.26,1.28,1.78c0.24,1.68,0.81,2.41,0.52,2.59c-0.58,0.38-1.36-0.86-1.73-1.98
					C45.95,146.73,46.24,145.46,46.24,145.46z"/>
			</g>
		</g>
	</g>
	<g id="girl_2_00000028321475183532316800000009379054199756941486_">
		<g>
			<path class="st3" d="M272.57,147.86c4.34-1.26,9.23,0.19,12.29,3.51c7.57,8.22,1.99,14.56,5.78,20.31
				c2.29,3.48,4.21,9.57-2.88,13.17c-3.28,1.67-13.05,10.37-15.05,10.58c-20.27,2.08-20.63-18.48-13.8-24.44
				C268.51,162.61,259.74,151.6,272.57,147.86z"/>
		</g>
		<g>
			<path class="st15" d="M283.16,179.65c0,0,18.5,8.96,21.96,8.81c3.46-0.15,25.12-7.78,25.12-7.78l-0.54,3.67
				c0,0-16.48,9.48-22.24,10.01c-5.67,0.53-25.07-5.09-26.94-6.28C278.65,186.9,277.72,180.85,283.16,179.65z"/>
		</g>
		<g>
			<path class="st10" d="M285.19,188.1c-1.68,1.16-3.78,2.12-6.42,2.73c-9.89,2.29-13.68-6.08-15.11-11.81
				c1.35-0.77,2.62-0.94,3.35-1.03c0.71-0.08,1.47-0.14,2.09-0.17c1.11-0.85,2.77-4.33,3.13-9.74l0.47,0.12l7.8,2.13
				c0,0-0.36,2.48-0.53,4.82c-0.14,1.83-0.16,3.58,0.19,4.01c0.61,0.13,0.97,0.22,0.97,0.22s0,0,0,0.01
				C281.25,179.57,283.51,183.29,285.19,188.1z"/>
		</g>
		<g>
			<path class="st15" d="M280.51,170.34c0,0-0.36,2.48-0.53,4.82c-4.42-0.44-6.47-4.65-7.26-6.95L280.51,170.34z"/>
		</g>
		<g>
			<path class="st10" d="M281.82,172.66c0,0-10.48-0.58-10.02-7.1c0.46-6.52-0.58-10.99,6.13-10.9c6.71,0.09,7.84,2.67,8.21,4.89
				C286.52,161.77,284.56,172.65,281.82,172.66z"/>
		</g>
		<g>
			<path class="st3" d="M286.09,155.9c-1.48-2.08-2.73-1.74-3.46-1.19c-5.5-3.56-9.52,0.83-9.52,0.83c-1.04,4.63-4.6,7.07-4.6,7.07
				s1.86,1.49,6.31,0.5c5.69-1.26,7.64-6.19,7.91-6.95c0.6,0.62,1.37,1.01,1.96,2.36c0.7,1.6,1.15,2.52,1.16,5.15
				C285.85,163.66,288.31,159.02,286.09,155.9z"/>
		</g>
		<g>
			<path class="st8" d="M260.68,209.42c-0.95-4.84-4.03-24.18-0.95-30.4c1.11-2.24,5.46-2.44,10.23-2.24
				c1.49,0.96,7.14,4.58,9.47,4.13c0.02,0,0.07-0.02,0.13-0.03c1.09-0.27,1.51-1.04,0.59-1.71c0,0,2.1,0.15,5.03,0.7
				c1.66,0.31,6.21,3.11,6.21,3.11s-2.06,3.21-5.39,4.62c0.56,5.05-0.28,7.28-5.52,18.95c-4.43,9.86,0.6,18.74,0.6,18.74
				s-26.07,20.96-26.21,10.29C254.78,227.54,261.89,215.6,260.68,209.42z"/>
		</g>
		<g>
			<path class="st12" d="M282.39,248.08c1.42-0.16,2.69-0.94,3.49-2.12c0.13-0.19,0.26-0.39,0.4-0.61
				c2.97-4.49,4.12-18.25,10.8-32.9c1.63-3.57,7.46-4.21,9.05-8.24c0,0,3.92-13.07-7.5-13.46s-30.57,36.38-30.87,40.23
				C267.48,234.71,260.22,250.58,282.39,248.08z"/>
		</g>
		<g>
			<path class="st3" d="M327.76,248h-16.24c0,0-0.61-2.66,0.46-4.47c0.94-1.6,0.58-2.51-0.12-3.84c0.74,0.31,1.69,0.59,2.74,0.53
				c0.81-0.05,1.67-0.42,2.42-0.87c0.7,0.82,3.69,4.3,4.63,4.99C322.7,245.12,327.43,244.84,327.76,248z"/>
		</g>
		<g>
			<path class="st12" d="M306.5,194.52c0.98,7.33,4.8,30.48,11.54,41.77c2.17,3.64-5.47,5.68-5.51,5.67
				c-1.03-0.27-2.73-1.9-3.52-2.61c-5.47-4.93-16.58-18.89-16.58-30.08c0-5.46-0.1-15.88,3.87-18.53
				C298.75,189.11,306.12,191.61,306.5,194.52z"/>
		</g>
		<g>
			<path class="st58" d="M261.32,188.09c0,0,3.3,6.71,18.68,11.44c15.39,4.74,6.59-7.17,6.59-7.17l-21.51-7.52L261.32,188.09z"/>
		</g>
		<g>
			<path class="st11" d="M274.46,248.09c0,0,0.82-1.23,1.35-3.07c0.87-3.06,1.18-5.29,2.86-10.07c1.76-5.01,3.85-11.18,6.46-17.59
				c0.81-1.98,1.66-3.98,2.57-5.98c1.63-3.57,6.1-3.07,7.69-7.11c0,0,6.21-13.98-5.2-14.37c-11.41-0.39-33.1,37.4-34.35,41.06
				C254.48,234.98,249.58,251.93,274.46,248.09z"/>
		</g>
		<g>
			<path class="st3" d="M315.83,248h-16.24c0,0-0.61-2.66,0.46-4.47c0.94-1.6,0.58-2.51-0.12-3.84c0.74,0.31,1.69,0.59,2.74,0.53
				c0.81-0.05,1.67-0.42,2.42-0.87c0.7,0.82,3.69,4.3,4.63,4.99C310.77,245.12,315.5,244.84,315.83,248z"/>
		</g>
		<g class="st218">
			<path class="st12" d="M278.67,234.96c1.76-5.01,3.85-11.18,6.46-17.59c-0.68-4.86-2.15-9.11-4.63-10.82
				C280.5,206.54,274.5,225.14,278.67,234.96z"/>
		</g>
		<g>
			<path class="st11" d="M297.02,194c0.98,7.33,2.36,31,9.09,42.29c2.17,3.64-5.47,5.68-5.51,5.67c-1.03-0.27-2.73-1.9-3.52-2.61
				c-5.47-4.93-16.58-18.89-16.58-30.08c0-5.46,6.4-15.44,10.37-18.09C293.32,189.54,296.63,191.09,297.02,194z"/>
		</g>
		<g>
			<g>
				<path class="st14" d="M332.19,171.23l-16.64-1.77c-0.48-0.05-0.94,0.23-1.12,0.69l-5.95,15.64c-0.26,0.69,0.23,1.43,0.96,1.45
					l16.51,0.67c0.45,0.02,0.86-0.24,1.03-0.66l6.08-14.54C333.34,172.05,332.9,171.31,332.19,171.23z"/>
			</g>
			<g>
				<g>
					<path class="st13" d="M333.63,171.38L317,169.61c-0.49-0.05-0.94,0.23-1.12,0.69l-5.95,15.64c-0.26,0.69,0.23,1.43,0.96,1.45
						l16.51,0.67c0.45,0.02,0.86-0.24,1.03-0.66l6.08-14.54C334.79,172.2,334.35,171.46,333.63,171.38z"/>
				</g>
			</g>
			<g>
				<path class="st21" d="M324.41,178.68c0.2-0.56-0.08-1.01-0.64-1.01c-0.56,0-1.18,0.45-1.38,1.01c-0.2,0.56,0.08,1.01,0.64,1.01
					C323.59,179.69,324.21,179.24,324.41,178.68z"/>
			</g>
			<g>
				<path class="st21" d="M333.13,172.86c0.1-0.27-0.04-0.5-0.32-0.5c-0.27,0-0.58,0.22-0.68,0.5c-0.1,0.27,0.04,0.5,0.32,0.5
					S333.03,173.13,333.13,172.86z"/>
			</g>
		</g>
		<g>
			<path class="st10" d="M263.67,179.02c0,0,23.06,8.49,26.52,8.32c2.24-0.11,20.85-6.65,20.85-6.65l1.67,3.16
				c0,0-18.12,11.64-23.1,11.59c-9.83-0.11-26.42-6.15-28.29-7.34C259.45,186.9,258.23,180.22,263.67,179.02z"/>
		</g>
		<g>
			<path class="st10" d="M311.04,180.68c0,0,1.67-2.57,3.33-2.65c1.66-0.08,4.54,1.13,5.52,1.32c0.98,0.19,3.78,1.1,2.95,2.46
				c-0.83,1.36-4.69,1.66-6.35,1.36c-1.66-0.3-3.78,0.67-3.78,0.67L311.04,180.68z"/>
		</g>
		<g>
			<path class="st10" d="M313.92,178.11c0,0,2.65-1.21,3.4-1.44c0.76-0.23,0.6,0,0.38,0.72c-0.23,0.72-1.59,1.4-1.59,1.63
				S313.92,178.11,313.92,178.11z"/>
		</g>
		<g>
			<path class="st10" d="M331.92,179.32c0,0-1.06-3.48-2.21-2.39c-1.21,1.14-0.47,2.27-0.33,3.72c0.28,2.77,0.84,2.65,1.2,2.53
				C330.93,183.06,332.31,180.71,331.92,179.32z"/>
		</g>
		<g>
			<path class="st10" d="M331.98,179.85c0,0,0.53,2.96-2.28,4.5l0.83-2.04L331.98,179.85z"/>
		</g>
		<g>
			<path class="st8" d="M275.55,183.21c0,0-2.06,6.53-9.14,8.01c0,0-11.69-3.6-5.87-11.57
				C260.53,179.65,266.29,175.37,275.55,183.21z"/>
		</g>
		<g>
			<path class="st10" d="M331.98,180.27c0,0,0.49-1.63,0.51-1.91c0.03-0.28-0.01-0.42-0.26-0.23c-0.25,0.2-0.63,0.72-0.52,1.21
				C331.83,179.84,331.98,180.27,331.98,180.27z"/>
		</g>
	</g>
	<g>
		<path class="st58" d="M212.52,162.22h-16.99c-0.6,0-1.1-0.49-1.1-1.1v-0.47c0-0.6,0.49-1.1,1.1-1.1h16.99c0.6,0,1.1,0.49,1.1,1.1
			v0.47C213.62,161.73,213.12,162.22,212.52,162.22z"/>
		<g>
			<path class="st58" d="M212.75,169.03H195.3c-0.48,0-0.87-0.39-0.87-0.87l0,0c0-0.48,0.39-0.87,0.87-0.87h17.45
				c0.48,0,0.87,0.39,0.87,0.87l0,0C213.62,168.64,213.23,169.03,212.75,169.03z"/>
			<path class="st58" d="M205.01,173.14h-9.9c-0.37,0-0.68-0.31-0.68-0.68v-0.38c0-0.37,0.31-0.68,0.68-0.68h9.9
				c0.37,0,0.68,0.31,0.68,0.68v0.38C205.69,172.83,205.38,173.14,205.01,173.14z"/>
			<path class="st58" d="M225.24,173.14h-16.01c-0.47,0-0.85-0.38-0.85-0.85v-0.03c0-0.47,0.38-0.85,0.85-0.85h16.01
				c0.47,0,0.85,0.38,0.85,0.85v0.03C226.09,172.76,225.71,173.14,225.24,173.14z"/>
			<path class="st58" d="M240.24,169.03h-22.88c-0.48,0-0.87-0.39-0.87-0.87l0,0c0-0.48,0.39-0.87,0.87-0.87h22.88
				c0.48,0,0.87,0.39,0.87,0.87l0,0C241.11,168.64,240.72,169.03,240.24,169.03z"/>
			<path class="st58" d="M212.75,177.24H195.3c-0.48,0-0.87-0.39-0.87-0.87l0,0c0-0.48,0.39-0.87,0.87-0.87h17.45
				c0.48,0,0.87,0.39,0.87,0.87l0,0C213.62,176.85,213.23,177.24,212.75,177.24z"/>
			<path class="st58" d="M240.24,177.24h-22.88c-0.48,0-0.87-0.39-0.87-0.87l0,0c0-0.48,0.39-0.87,0.87-0.87h22.88
				c0.48,0,0.87,0.39,0.87,0.87l0,0C241.11,176.85,240.72,177.24,240.24,177.24z"/>
		</g>
		<g>
			<path class="st58" d="M212.75,181.51H195.3c-0.48,0-0.87-0.39-0.87-0.87l0,0c0-0.48,0.39-0.87,0.87-0.87h17.45
				c0.48,0,0.87,0.39,0.87,0.87l0,0C213.62,181.12,213.23,181.51,212.75,181.51z"/>
			<path class="st58" d="M240.24,181.51h-22.88c-0.48,0-0.87-0.39-0.87-0.87l0,0c0-0.48,0.39-0.87,0.87-0.87h22.88
				c0.48,0,0.87,0.39,0.87,0.87l0,0C241.11,181.12,240.72,181.51,240.24,181.51z"/>
		</g>
		<path class="st58" d="M229.13,162.22h-12.2c-0.52,0-0.94-0.42-0.94-0.94v-0.78c0-0.52,0.42-0.94,0.94-0.94h12.2
			c0.52,0,0.94,0.42,0.94,0.94v0.78C230.07,161.8,229.64,162.22,229.13,162.22z"/>
	</g>
</g>
</svg>
