<?xml version="1.0" encoding="utf-8"?>
<!-- Generator: Adobe Illustrator 26.3.1, SVG Export Plug-In . SVG Version: 6.00 Build 0)  -->
<svg version="1.1" id="Layer_1" xmlns="http://www.w3.org/2000/svg" xmlns:xlink="http://www.w3.org/1999/xlink" x="0px" y="0px"
	 viewBox="0 0 700 430" style="enable-background:new 0 0 700 430;" xml:space="preserve">
<style type="text/css">
	.st0{fill:#0B50B9;}
	.st1{fill:#110239;}
	.st2{opacity:0.78;fill:#DCEAFF;}
	.st3{opacity:0.78;}
	.st4{opacity:0.5;fill:#BFDCFF;}
	.st5{fill:#005FBA;}
	.st6{fill:#FB961E;}
	.st7{fill:#FFFFFF;}
	.st8{fill:#FFAE73;}
	.st9{fill:#002897;}
	.st10{fill:#00158B;}
	.st11{fill:#ED057F;}
	.st12{fill:#A21B89;}
	.st13{fill:#F99352;}
	.st14{fill:#1F0757;}
	.st15{fill:#0097DD;}
	.st16{fill:#0072C6;}
	.st17{fill:#00A9E9;}
	.st18{fill:#25468F;}
	.st19{fill:#E8F2FA;}
	.st20{opacity:0.49;}
	.st21{fill:#E5E6ED;}
	.st22{fill:#214D9A;}
	.st23{fill:#CF0E83;}
	.st24{fill:#FFA05E;}
	.st25{fill:#00037F;}
	.st26{fill:#003AA2;}
	.st27{fill:#004DAE;}
	.st28{fill:#0084D1;}
	.st29{fill:#662D91;}
	.st30{fill:#75298F;}
	.st31{fill:#84248D;}
	.st32{fill:#93208B;}
	.st33{fill:#B11787;}
	.st34{fill:#C01285;}
	.st35{fill:#DE0981;}
	.st36{fill:#FDE3F1;}
	.st37{fill:#FBC7E3;}
	.st38{fill:#F9ACD4;}
	.st39{fill:#F790C6;}
	.st40{fill:#F574B8;}
	.st41{fill:#F358AA;}
	.st42{fill:#F13D9B;}
	.st43{fill:#EF218D;}
	.st44{opacity:0.43;}
	.st45{fill:#B6CFFF;}
	.st46{fill:#A9C2FF;}
	.st47{fill:#CEDFFF;}
	.st48{fill:#BBD3FF;}
	.st49{fill:#80A1E6;}
	.st50{opacity:0.5;}
	.st51{opacity:0.42;}
	.st52{fill:#F4F4FF;stroke:#FFFFFF;stroke-width:0.75;stroke-miterlimit:10;}
	.st53{fill:#F4F4FF;}
	.st54{fill:#FA8B79;}
	.st55{opacity:0.1;}
	.st56{fill:#6B98F6;}
	.st57{fill:#F9924F;}
	.st58{fill:#DF851B;}
	.st59{fill:#FCAD50;}
	.st60{fill:#FDC582;}
	.st61{fill:#FEDCB4;}
	.st62{fill:#E3F5FD;}
	.st63{fill:#C6ECFA;}
	.st64{fill:#AAE2F8;}
	.st65{fill:#8ED9F5;}
	.st66{fill:#71CFF3;}
	.st67{fill:#55C6F0;}
	.st68{fill:#39BCEE;}
	.st69{fill:#1CB3EB;}
	.st70{fill:#C6C7D7;}
	.st71{fill:#002987;}
	.st72{clip-path:url(#SVGID_00000092432161829421274020000015467421411543019684_);}
	.st73{fill:#F1F3F4;}
	.st74{fill:#9CC0F9;}
	.st75{fill:#FEF9E8;}
	.st76{fill:#E8EAED;}
	.st77{fill:#FCE8E6;}
	.st78{fill:none;stroke:#9CC0F9;stroke-width:3.7859;stroke-miterlimit:10;}
	.st79{fill:none;stroke:#9CC0F9;stroke-width:1.262;stroke-miterlimit:10;}
	.st80{fill:#2B478B;}
	.st81{opacity:0.32;}
	.st82{opacity:0.2;fill:#ED057F;}
	.st83{opacity:0.5;fill:#ED057F;}
	.st84{opacity:0.1;fill:#110239;}
	.st85{opacity:0.18;fill:#005FBA;}
	.st86{fill:#666666;}
	.st87{fill:#373737;}
	.st88{fill-rule:evenodd;clip-rule:evenodd;fill:#666666;}
	.st89{fill:#808080;}
	.st90{fill:#B3B3B3;}
	.st91{opacity:0.4;}
	.st92{opacity:0.25;fill:#FFFFFF;}
	.st93{opacity:0.5;fill:#FFFFFF;}
	.st94{opacity:0.37;fill:#0097DD;}
	.st95{fill:url(#SVGID_00000178205155827779640880000000866092905466581437_);}
	.st96{fill:url(#SVGID_00000182522246277923883050000002624814050920827016_);}
	.st97{fill:url(#SVGID_00000034786946627793182090000001148469859861189004_);}
	.st98{fill:url(#SVGID_00000034049785942521738010000006558045542650349743_);}
	.st99{fill:url(#SVGID_00000144301798601457490370000011672151596209515137_);}
	.st100{fill:url(#SVGID_00000168097387188648193370000011660404247949296798_);}
	.st101{fill:#5793CE;}
	.st102{fill:#D4ECFF;}
	.st103{fill:#FF2C9C;}
	.st104{fill:url(#SVGID_00000016076174348211626500000003415588936028286873_);}
	.st105{fill:url(#SVGID_00000055682735872326263560000008984787066668431538_);}
	.st106{fill:url(#SVGID_00000127029465088563749580000018036704770626744486_);}
	.st107{clip-path:url(#SVGID_00000136381610495138002240000018235277319141613191_);}
	.st108{fill:url(#SVGID_00000152257855749325660500000004241944560254199451_);}
	.st109{fill:url(#SVGID_00000103263817796499079350000013966770674346010303_);}
	.st110{fill:url(#SVGID_00000057109254792104013660000009162747582366985640_);}
	.st111{fill:url(#SVGID_00000094579675664789004510000010118844389066263173_);}
	.st112{fill:url(#SVGID_00000048488365849161287270000003734807877978043820_);}
	.st113{fill:url(#SVGID_00000092434384985538799400000018249765566571341707_);}
	.st114{fill:#7DC3EA;}
	.st115{fill:url(#SVGID_00000020394937433480429070000014408799298492635561_);}
	.st116{fill:url(#SVGID_00000064351252817385009030000000256150612323419267_);}
	.st117{fill:url(#SVGID_00000013881763291587487970000016593065895818922647_);}
	.st118{fill:url(#SVGID_00000131339455622586875120000005671650615120486291_);}
	.st119{opacity:0.43;fill:#CEDFFF;}
	.st120{opacity:0.43;fill:#A9C2FF;}
	.st121{opacity:0.12;fill:#606060;}
	.st122{fill:#FF912B;}
	.st123{fill:#F7931E;}
	.st124{fill:#E6EDFC;}
	.st125{fill:none;stroke:#FFFFFF;stroke-width:0.3254;stroke-miterlimit:10;}
	.st126{fill:none;stroke:#FFFFFF;stroke-width:0.3254;stroke-miterlimit:10;stroke-dasharray:1.3021,1.3021;}
	.st127{fill:none;stroke:#FFFFFF;stroke-width:0.3254;stroke-miterlimit:10;stroke-dasharray:1.3548,1.3548;}
	.st128{fill:none;stroke:#FFFFFF;stroke-width:0.75;stroke-miterlimit:10;}
	.st129{fill:none;stroke:#FFFFFF;stroke-width:1.0422;stroke-miterlimit:10;}
	.st130{fill:none;stroke:#C8D0FC;stroke-width:0.2605;stroke-miterlimit:10;}
	.st131{fill:none;stroke:#FFFFFF;stroke-width:0.2605;stroke-linecap:round;stroke-miterlimit:10;}
	.st132{fill:none;stroke:#FFFFFF;stroke-width:0.5211;stroke-miterlimit:10;}
	.st133{fill:#E8A398;}
	.st134{fill:none;stroke:#E8B1C3;stroke-width:1.9735;stroke-miterlimit:10;}
	
		.st135{opacity:0.3;fill:none;stroke:#FFFFFF;stroke-width:3.6666;stroke-linecap:round;stroke-linejoin:round;stroke-miterlimit:10;}
	.st136{fill:none;stroke:#FFFFFF;stroke-width:2.0116;stroke-miterlimit:10;}
	.st137{opacity:0.4;fill:#DF851B;}
	.st138{fill:#E6E1F9;}
	.st139{fill:none;stroke:#E6E1F9;stroke-width:1.2443;stroke-miterlimit:10;}
	.st140{fill:#00D9E0;}
	.st141{opacity:0.5;fill:#00D9E0;}
	.st142{fill:#00EDED;}
	.st143{opacity:0.5;fill:#AD86F7;}
	.st144{fill:#641CA0;}
	.st145{fill:#AD86F7;}
	.st146{fill:none;stroke:#FFFFFF;stroke-width:0.6221;stroke-miterlimit:10;}
	.st147{fill:#F4C4B3;}
	.st148{fill:#28BAAD;}
	.st149{fill:#00204E;}
	.st150{opacity:0.17;fill:#FFFFFF;}
	.st151{fill:none;stroke:#FFFFFF;stroke-width:0.702;stroke-miterlimit:10;}
	.st152{opacity:0.17;}
	.st153{fill:#F20574;}
	.st154{fill:#30A8F2;}
	.st155{fill:#F9FBFC;}
	.st156{opacity:0.3;}
	.st157{opacity:0.28;}
	.st158{fill:#FFC194;}
	.st159{fill:none;stroke:#FFFFFF;stroke-width:1.0182;stroke-miterlimit:10;}
	.st160{fill:none;stroke:#FFFFFF;stroke-width:1.8415;stroke-miterlimit:10;}
	.st161{fill:#444A7C;}
	.st162{fill:#F4A9A2;}
	.st163{opacity:0.15;fill:#FFFFFF;}
	.st164{opacity:0.3;fill:#FFFFFF;}
	.st165{fill:#C3D3EA;}
	.st166{opacity:0.5;fill:#F4A9A2;}
	.st167{fill:none;stroke:#E8B1C3;stroke-width:2.0936;stroke-miterlimit:10;}
	.st168{fill:#759BE0;}
	.st169{fill:#AEC3FF;}
	.st170{opacity:0.7;fill:#759BE0;}
	.st171{fill:#94B0ED;}
	.st172{fill:#D2E0FF;}
	.st173{fill:#FFB27D;}
	.st174{fill:#E8945B;}
	.st175{opacity:0.17;fill:#C0D4FF;}
	.st176{fill:#EBF3FA;}
	.st177{fill:#ED975D;}
	.st178{fill:#FCA56B;}
	.st179{fill:#A6D9F1;}
	.st180{fill:#E69D43;}
	.st181{fill:#CA5F00;}
	.st182{fill:#D6716B;}
	.st183{fill:#AA443E;}
	.st184{fill:#EE9849;}
	.st185{fill:#A6C7F9;}
	.st186{fill:#D2E4FF;}
	.st187{fill:#F3F9FF;}
	.st188{fill:#A8D29F;}
	.st189{fill:#82B378;}
	.st190{fill:#163560;}
	.st191{fill:#E37970;}
	.st192{fill:#D68D5D;}
	.st193{fill:#80BDCC;}
	.st194{fill:#E7F1FD;}
	.st195{fill:#5F9AA8;}
	.st196{fill:#C45446;}
	.st197{fill:#739AF0;}
	.st198{fill:#4A75CB;}
	.st199{fill:#E49963;}
	.st200{fill:#1C468A;}
	.st201{clip-path:url(#SVGID_00000174595227479771601800000015630867333138722223_);}
	.st202{fill:#D9935C;}
	.st203{fill:#B84C42;}
	.st204{fill:#B74B42;}
	.st205{fill:#E58638;}
	.st206{fill:#CC7C46;}
	.st207{fill:none;stroke:#031F4C;stroke-width:0.5748;stroke-miterlimit:10;}
	.st208{fill:#E8C4B3;}
</style>
<g>
	<g>
		<g class="st44">
			<path class="st47" d="M556.69,320.45c-23.07,35.01-62.66,35.4-98.06,22.93c-3.93-1.39-7.8-2.93-11.6-4.56
				c-36.34-16.6-72.11,6.91-103.97,22.6c-3.8,2.13-7.73,4.29-11.76,6.31c-28.24,14.17-61.32,21.02-82.77-5.78
				c-13.11-16.38-9.57-37.82-9.34-57.17c0.27-21.56-7.12-40.5-18.37-58.63c-14.97-24.11-35.19-47.08-40.11-75.89
				c-7.07-41.28,9-85.14,52.44-96.93c27.56-7.49,55.4,2.86,82.5,7.4c22.14,3.71,44.83-0.54,65.68-8.05
				c3.81-1.37,7.61-2.82,11.41-4.31c25.23-9.9,50.27-21.69,76.79-25.4c23.67-3.32,45.02,3.2,53.65,27.42
				c7.56,21.23,1.62,44.63,4.83,66.49c1.77,12.04,6.17,23.1,11.44,33.83c9.13,18.6,20.83,36.22,25.96,56.4
				c1.47,5.78,2.7,11.75,3.63,17.83C572.96,270.78,571.16,298.52,556.69,320.45z"/>
		</g>
		<g>
			<g>
				<path class="st5" d="M516.3,129.27v253.81c0,3.25-2.63,5.89-5.89,5.89H195.43c-3.25,0-5.89-2.63-5.89-5.89V129.27
					c0-3.25,2.63-5.89,5.89-5.89h314.98C513.66,123.38,516.3,126.02,516.3,129.27z"/>
				<path class="st150" d="M384.31,157.08H490.8c5.87,0,10.62,4.76,10.62,10.62v87.8c0,5.87-4.76,10.62-10.62,10.62H384.31
					c-5.87,0-10.62-4.76-10.62-10.62v-87.8C373.68,161.83,378.44,157.08,384.31,157.08z"/>
				<path class="st6" d="M189.8,146.69h326.76v-21.37c0-1.5-1.22-2.72-2.72-2.72H192.52c-1.5,0-2.72,1.22-2.72,2.72V146.69z"/>
				<g>
					<circle class="st7" cx="241.53" cy="134.65" r="3.48"/>
					<circle class="st7" cx="224.87" cy="134.65" r="3.48"/>
					<circle class="st7" cx="208.21" cy="134.65" r="3.48"/>
				</g>
			</g>
			<path class="st150" d="M219.18,157.08h135.57c5.87,0,10.62,4.76,10.62,10.62v87.8c0,5.87-4.76,10.62-10.62,10.62H219.18
				c-5.87,0-10.62-4.76-10.62-10.62v-87.8C208.56,161.83,213.32,157.08,219.18,157.08z"/>
			<g>
				<g>
					<path class="st6" d="M226.51,247.79h-3.54c-2.23,0-4.03-1.81-4.03-4.03v-19.22c0-2.23,1.81-4.03,4.03-4.03h3.54
						c2.23,0,4.03,1.81,4.03,4.03v19.22C230.55,245.98,228.74,247.79,226.51,247.79z"/>
					<path class="st7" d="M255.55,247.79H252c-2.23,0-4.03-1.81-4.03-4.03V212.8c0-2.23,1.81-4.03,4.03-4.03h3.54
						c2.23,0,4.03,1.81,4.03,4.03v30.95C259.58,245.98,257.77,247.79,255.55,247.79z"/>
					<path class="st11" d="M284.58,247.79h-3.54c-2.23,0-4.03-1.81-4.03-4.03V190.3c0-2.23,1.81-4.03,4.03-4.03h3.54
						c2.23,0,4.03,1.81,4.03,4.03v53.45C288.62,245.98,286.81,247.79,284.58,247.79z"/>
					<path class="st7" d="M313.61,247.79h-3.54c-2.23,0-4.03-1.81-4.03-4.03v-47.27c0-2.23,1.81-4.03,4.03-4.03h3.54
						c2.23,0,4.03,1.81,4.03,4.03v47.27C317.65,245.98,315.84,247.79,313.61,247.79z"/>
					<path class="st11" d="M342.65,247.79h-3.54c-2.23,0-4.03-1.81-4.03-4.03V167.8c0-2.23,1.81-4.03,4.03-4.03h3.54
						c2.23,0,4.03,1.81,4.03,4.03v75.95C346.68,245.98,344.88,247.79,342.65,247.79z"/>
				</g>
				<polyline class="st207" points="224.99,238.44 254.1,226.58 283.07,204.06 312.05,210.52 341.42,181.67 				"/>
				<circle class="st1" cx="224.56" cy="238.73" r="1.79"/>
				<circle class="st1" cx="254.26" cy="226.49" r="1.79"/>
				<circle class="st1" cx="283.2" cy="204.59" r="1.79"/>
				<circle class="st1" cx="312.05" cy="210.52" r="1.79"/>
				<circle class="st1" cx="341.42" cy="181.67" r="1.79"/>
			</g>
			<g>
				<path class="st6" d="M469.54,356.7c-6.99,7-16.64,11.32-27.31,11.32c-10.67,0-20.33-4.32-27.32-11.32l27.32-27.31L469.54,356.7z
					"/>
				<path class="st11" d="M480.86,329.38c0,10.67-4.32,20.32-11.32,27.31l-27.31-27.31v-38.64
					C463.56,290.75,480.86,308.04,480.86,329.38z"/>
				<path class="st7" d="M442.23,290.75v38.64l-27.32,27.31c-7-6.99-11.32-16.64-11.32-27.31
					C403.59,308.04,420.89,290.75,442.23,290.75z"/>
			</g>
			<path class="st7" d="M318.8,345.15h-67.75c-1.52,0-2.76-1.24-2.76-2.76v-0.7c0-1.52,1.24-2.76,2.76-2.76h67.75
				c1.52,0,2.76,1.24,2.76,2.76v0.7C321.56,343.91,320.33,345.15,318.8,345.15z"/>
			<g class="st152">
				<path class="st7" d="M284.03,366.52h-33.62c-1.17,0-2.12-0.95-2.12-2.12l0,0c0-1.17,0.95-2.12,2.12-2.12h33.62
					c1.17,0,2.12,0.95,2.12,2.12l0,0C286.16,365.57,285.21,366.52,284.03,366.52z"/>
				<g>
					<path class="st7" d="M309.87,357.62h-59.68c-1.04,0-1.88-0.84-1.88-1.88v-0.48c0-1.04,0.84-1.88,1.88-1.88h59.68
						c1.04,0,1.88,0.84,1.88,1.88v0.48C311.75,356.78,310.91,357.62,309.87,357.62z"/>
					<path class="st7" d="M374.9,357.62h-55.48c-1.04,0-1.88-0.84-1.88-1.88v-0.48c0-1.04,0.84-1.88,1.88-1.88h55.48
						c1.04,0,1.88,0.84,1.88,1.88v0.48C376.78,356.78,375.94,357.62,374.9,357.62z"/>
					<path class="st7" d="M325.96,366.52h-33.62c-1.17,0-2.12-0.95-2.12-2.12l0,0c0-1.17,0.95-2.12,2.12-2.12h33.62
						c1.17,0,2.12,0.95,2.12,2.12l0,0C328.08,365.57,327.13,366.52,325.96,366.52z"/>
				</g>
			</g>
			<path class="st7" d="M318.8,304.21h-67.75c-1.52,0-2.76-1.24-2.76-2.76v-0.7c0-1.52,1.24-2.76,2.76-2.76h67.75
				c1.52,0,2.76,1.24,2.76,2.76v0.7C321.56,302.97,320.33,304.21,318.8,304.21z"/>
			<g class="st152">
				<path class="st7" d="M284.03,325.58h-33.62c-1.17,0-2.12-0.95-2.12-2.12l0,0c0-1.17,0.95-2.12,2.12-2.12h33.62
					c1.17,0,2.12,0.95,2.12,2.12l0,0C286.16,324.63,285.21,325.58,284.03,325.58z"/>
				<g>
					<path class="st7" d="M309.87,316.68h-59.68c-1.04,0-1.88-0.84-1.88-1.88v-0.48c0-1.04,0.84-1.88,1.88-1.88h59.68
						c1.04,0,1.88,0.84,1.88,1.88v0.48C311.75,315.84,310.91,316.68,309.87,316.68z"/>
					<path class="st7" d="M374.9,316.68h-55.48c-1.04,0-1.88-0.84-1.88-1.88v-0.48c0-1.04,0.84-1.88,1.88-1.88h55.48
						c1.04,0,1.88,0.84,1.88,1.88v0.48C376.78,315.84,375.94,316.68,374.9,316.68z"/>
					<path class="st7" d="M325.96,325.58h-33.62c-1.17,0-2.12-0.95-2.12-2.12l0,0c0-1.17,0.95-2.12,2.12-2.12h33.62
						c1.17,0,2.12,0.95,2.12,2.12l0,0C328.08,324.63,327.13,325.58,325.96,325.58z"/>
				</g>
			</g>
		</g>
		<g>
			<g>
				<path class="st120" d="M564.21,217.97c2.46-11.7,5.01-23.79,5.46-35.23l0.08-2.01l1.4,1.45c0.26,0.26,6.27,6.6,6.27,15.88
					c0,2.53-0.16,4.78-0.32,6.96c-0.4,5.47-0.74,10.19,1.97,16.38c3.88,8.85,6.45,16.58,1.29,28.67c-0.53,1.25-1.04,2.41-1.51,3.5
					c-3.9,9.02-5.52,12.76-4.04,19.99c1.71,8.33-3.91,20.9-13.72,25c0.37,16.41,0.85,30.07,0.86,30.36l-0.86,0.03l0,0l0,0
					l-0.86,0.03c-0.02-0.62-2.17-62.48-0.89-81.67C559.95,238.22,562.02,228.39,564.21,217.97z"/>
				<path class="st120" d="M611.19,222.86l0.89-0.69l0.44,1.04c0.17,0.41,4.15,10.07-2.13,17.81c-2.66,3.28-3.21,7.43-3.85,12.23
					c-0.72,5.46-1.54,11.65-5.92,17.45c-3.58,4.74-7.4,7.35-10.48,9.44c-3.93,2.68-6.77,4.61-7.44,9.43
					c-0.12,0.86-0.22,1.67-0.32,2.45c-0.96,7.61-1.5,11.83-12.59,15.59c-3.21,12.5-4.7,21.22-4.75,21.48l-0.85-0.14l0,0l0,0
					l-0.85-0.14C563.47,328.01,576.88,249.73,611.19,222.86z"/>
				<path class="st120" d="M535.13,244.6l0.26-1.22l1.05,0.67c11.12,7.15,18.18,23.5,21,48.61c2.08,18.58,0.92,35.31,0.91,35.48
					l-1.72-0.12c0.02-0.2,0.41-6.14,0.29-14.82c-0.83-1.27-4.05-6.19-6.48-9.98c-1.66-2.59-1.21-4.86-0.74-7.27
					c0.42-2.14,0.9-4.58,0.18-7.97c-0.85-4-2.16-5.58-3.68-7.4c-1.24-1.49-2.65-3.18-4-6.33c-1.41-3.28-1.39-6.28-1.37-8.93
					c0.02-3.16,0.04-5.9-2.27-8.51C533.74,251.36,535.07,244.87,535.13,244.6z"/>
			</g>
			<polygon class="st1" points="545.23,415.84 575.75,415.84 584.2,326.29 536.78,326.29 			"/>
		</g>
		<g>
			<g>
				<g>
					<path class="st208" d="M168.95,345.66c23.93-8.64,44.85-11.64,46.72-6.72c1.87,4.93-16.02,15.92-39.96,24.56
						c-23.93,8.64-44.85,11.64-46.72,6.72C127.13,365.29,145.02,354.29,168.95,345.66z"/>
					<g>
						<g>
							<g>
								<path class="st208" d="M208.87,338.58c9.68-13.3,33.26,50.81,36.25,68.23c2.98,17.41-6.68,1.55-19.64-23.36
									C212.52,358.54,205.06,343.81,208.87,338.58z"/>
							</g>
							<polygon class="st8" points="235.02,404.75 238.84,412.33 246.58,410.5 244.27,402.52 							"/>
						</g>
						<path class="st11" d="M246.59,410.56c0,0,2.58,2.58,8.89,5.2c6.31,2.63,7.46,1.4,7.98,2.86c0.51,1.46-21.81,5.93-21.81,5.93
							l-2.88-12.36C238.76,412.19,246.51,410.24,246.59,410.56z"/>
					</g>
					<path class="st1" d="M148.07,350.47c0,0,48.31-22.99,65.82-16.75c14.72,5.25,32.61,68.28,32.61,68.28l-12.32,4.24l-26.6-50.25
						c0,0-29.35,14.06-56.75,22.07s-21.68-17.54-21.68-17.54L148.07,350.47z"/>
				</g>
				<g>
					<path class="st208" d="M162.51,361.89c25.35,2.97,45.39,9.61,44.76,14.82c-0.64,5.21-21.71,7.03-47.06,4.06
						c-25.35-2.97-45.39-9.61-44.76-14.82C116.08,360.74,137.15,358.92,162.51,361.89z"/>
					<g>
						<path class="st208" d="M199.73,374.69c-0.01-16.44,56.85,22.37,69.53,34.89c12.68,12.51-4.49,5.11-29.65-7.78
							C214.45,388.9,199.73,381.15,199.73,374.69z"/>
					</g>
					<polygon class="st8" points="261.8,414.65 269.74,417.63 274.2,411.04 266.53,406.48 					"/>
					<path class="st11" d="M274.24,411.07c0,0,3.64,0.15,10.06-2.21c6.42-2.35,6.43-4.03,7.8-3.31
						c1.37,0.73-12.01,19.15-12.01,19.15l-10.5-7.13C269.59,417.58,273.96,410.89,274.24,411.07z"/>
				</g>
				<path class="st15" d="M118.84,424.25h83.59v-34.76c0-0.94-0.76-1.7-1.7-1.7h-80.19c-0.94,0-1.7,0.76-1.7,1.7V424.25z"/>
				<path class="st1" d="M115.24,360.03c0,0-11.04,28.1,24.02,30.34c35.06,2.24,56.69,0.25,58.68,0.25c1.99,0,64.1,25.08,64.1,25.08
					l6.11-10.51c0,0-48.58-35.46-64.74-38.69c-16.16-3.23-49.48-5.72-49.48-5.72L115.24,360.03z"/>
				<g>
					<path class="st8" d="M152.71,276.94c-1.87,1.42-2.59,3.9-2.13,6.18c2.04,10.27,10.3,51.35,17.94,50.28
						c8.99-1.26-0.24-38.06-3.76-46.42C161.83,280.01,157.23,273.52,152.71,276.94z"/>
					<polygon class="st8" points="158.8,316.39 166.19,348.91 178.21,347.04 170.33,306.44 					"/>
					<path class="st23" d="M170.73,306.84l-14.62,9.29l-8.79-31.83l10.11-8.22c0,0,5.02,3.2,8.13,12.31
						C168.67,297.48,170.73,306.84,170.73,306.84z"/>
					<path class="st8" d="M131.2,262.45l-0.63,10.01l13.17,0.63l-0.7-4.26l-0.41-2.46c0,0,1.71,0.24,3.36-0.17
						c3.89-0.92,9-12.44,7.35-22.91c-1.63-10.51-17.53-9.01-23.71-2.21C123.46,247.89,131.2,262.45,131.2,262.45z"/>
					<path class="st8" d="M110.32,290.54c2.52,14.71,9.57,32.71,9.39,44.42c-0.18,11.7-4.63,25.08-3.34,25.62
						c1.29,0.58,44.4,1.49,46.43-0.36c2.05-1.85-6.67-17.28-7.23-28.81c-0.56-11.5,7.51-16.44,8.92-30.38
						c1.37-13.92-5.22-23.41-8.54-25.72c-3.36-2.32-11.7-2.42-11.7-2.42l-15.63-0.75c0,0-11.34-0.28-16.7,5.12
						C109.17,280.01,109.19,283.99,110.32,290.54z"/>
					<path class="st24" d="M143.04,268.83l-7.55-4.83c2.17,1.24,7.14,2.37,7.14,2.37L143.04,268.83z"/>
					<path class="st8" d="M117.9,277.38c1.81,1.48,2.44,3.99,1.9,6.26c-2.42,10.19-12.19,50.94-19.79,49.58
						c-8.93-1.6,1.65-38.02,5.47-46.25C108.67,280.11,113.52,273.79,117.9,277.38z"/>
					<path class="st11" d="M159.02,317.7c0,0-2.84,5.23-2.74,13.51c0.08,8.27,8.27,26.75,7.33,29.44c-0.72,2.1-28.92,1.61-42,0.93
						c-3.73-0.19-6.23-0.4-6.5-0.56c-1.21-0.75,2.5-17.28,3.53-25.64c0.47-3.82-0.47-9.66-1.6-14.88
						c-1.18-5.36-2.69-10.76-3.09-12.13c-0.03-0.11-0.05-0.2-0.07-0.25v-0.03c-0.01-0.04-0.03-0.07-0.03-0.07l-1.08,3.01l-14.3-3.53
						c4.26-18.1,8.44-25.17,12.45-29.91c3.99-4.74,12.66-5.2,12.66-5.2s5.39,11.46,17.46,11.02c12.09-0.43,6.47-10.48,6.47-10.48
						s5.35-0.03,8.32,1.88c2.97,1.89,5.67,6.03,7.39,11.1c1.72,5.06,2.41,9.42,1.57,16.77C164.18,308.23,160.65,314.05,159.02,317.7
						z"/>
					<g>
						<path class="st8" d="M96.78,328.22c0.08,2.44,1.67,4.59,3.81,5.77c10,5.56,45.78,25.09,49.7,22.08
							c4.56-3.51-45.99-34.21-48.74-32.88C99.48,324.18,96.67,324.88,96.78,328.22z"/>
						<path class="st8" d="M151.81,353.34c-0.64-0.55-1.76-1.44-3.01-2.19c-2.23-1.38-4.91-2.33-6.23-0.18
							c-1.3,2.1-1.05,3.55,0.06,5.7c1.08,2.15,5.31,5.94,6.31,4.93c1.02-1.01-1.76-4.21-1.31-4.29c0.03,0,0.08,0.03,0.16,0.05
							c1.04,0.6,6.61,5.77,7.52,4.68C156.25,360.87,154.72,355.79,151.81,353.34z"/>
					</g>
					<g>
						<rect x="137.01" y="360.67" class="st58" width="52.66" height="2.57"/>
						<polygon class="st58" points="203.44,363.24 154.44,363.24 168.26,329.84 217.26,329.84 						"/>
						<polygon class="st6" points="204.82,363.24 155.82,363.24 169.64,329.84 218.65,329.84 						"/>
						<path class="st7" d="M191.16,348.2c-0.89,2.21-2.79,3.52-4.25,2.93c-1.46-0.59-1.93-2.85-1.04-5.06
							c0.89-2.21,2.79-3.52,4.25-2.93C191.57,343.73,192.04,345.99,191.16,348.2z"/>
					</g>
					<path class="st1" d="M150.51,234.95c-0.43-1.85-2.1-3.02-3.66-3.91c-5.16-2.94-11.72-2.44-16.74,0.55
						c-5.93,3.54-8.5,10.22-10.19,16.59c-0.09,0.32-0.17,0.65-0.24,0.98c-0.86,3.73-1.29,8.08-3.83,11
						c-1.69,1.95-3.97,3.33-5.44,5.48c-2.12,3.11-1.3,7-0.86,10.47c0.56,4.43,1.34,8.98,0.57,13.43c-0.36,2.08-1.66,5.01,0.15,6.77
						c0.77,0.75,1.94,0.89,3.01,0.96c11.08,0.69,29.29-4.22,25.26-18.82c-0.91-3.29-3.3-5.9-4.85-8.88c-1.14-2.19-1.81-4.59-2.43-7
						c-0.07-0.59-1.17-11.26,6.08-13.92c2.48-0.91,4.62-1.87,6.53-2.88c3.83-2.03,6.43-4.84,6.43-4.84c3.23,0.81,3.5,5.71,3.5,5.71
						C155.53,238.8,150.51,234.95,150.51,234.95z"/>
				</g>
			</g>
		</g>
	</g>
	<g>
		<path class="st11" d="M466.4,33.25h-57.61c-2.89,0-5.24,2.34-5.24,5.24v38.57c0,2.89,2.34,5.24,5.24,5.24h21.16l6.34,10.99
			c0.58,1,2.02,1,2.6,0l6.34-10.99h21.16c2.89,0,5.24-2.34,5.24-5.24V38.48C471.63,35.59,469.29,33.25,466.4,33.25z"/>
		<g>
			<g>
				<path class="st7" d="M437.22,73.91l-13.83-12.32c-3.91-3.49-4.26-9.49-0.77-13.4c3.49-3.91,9.49-4.26,13.4-0.77l1.68,1.5
					l2.11-1.74c4.05-3.33,10.03-2.76,13.36,1.29c3.33,4.05,2.76,10.03-1.29,13.36L437.22,73.91z"/>
			</g>
		</g>
	</g>
	<g>
		<path class="st1" d="M531.6,252.37h-30.75c-1.54,0-2.8,1.25-2.8,2.8v20.59c0,1.54,1.25,2.8,2.8,2.8h11.3l3.39,5.86
			c0.31,0.53,1.08,0.53,1.39,0l3.39-5.86h11.3c1.54,0,2.8-1.25,2.8-2.8v-20.59C534.39,253.62,533.14,252.37,531.6,252.37z"/>
		<g>
			<g>
				<path class="st7" d="M516.03,274.08l-7.38-6.58c-2.09-1.86-2.27-5.06-0.41-7.15c1.86-2.09,5.06-2.27,7.15-0.41l0.9,0.8
					l1.12-0.93c2.16-1.78,5.35-1.47,7.13,0.69c1.78,2.16,1.47,5.35-0.69,7.13L516.03,274.08z"/>
			</g>
		</g>
	</g>
	<g>
		<path class="st11" d="M232.42,293.08h-22.06c-1.11,0-2.01,0.9-2.01,2.01v14.76c0,1.11,0.9,2.01,2.01,2.01h8.1l2.43,4.21
			c0.22,0.38,0.77,0.38,0.99,0l2.43-4.21h8.1c1.11,0,2.01-0.9,2.01-2.01v-14.76C234.42,293.98,233.52,293.08,232.42,293.08z"/>
		<g>
			<g>
				<path class="st7" d="M221.25,308.65l-5.29-4.72c-1.5-1.34-1.63-3.63-0.3-5.13c1.34-1.5,3.63-1.63,5.13-0.3l0.64,0.57l0.81-0.66
					c1.55-1.28,3.84-1.06,5.12,0.49c1.28,1.55,1.06,3.84-0.49,5.12L221.25,308.65z"/>
			</g>
		</g>
	</g>
	<g>
		<circle class="st15" cx="565.56" cy="142.49" r="19.61"/>
		<polygon class="st7" points="574.63,142.49 559.89,133.98 559.89,151 		"/>
	</g>
	<g>
		<circle class="st15" cx="128.53" cy="194.6" r="11.49"/>
		<polygon class="st7" points="133.84,194.6 125.21,189.62 125.21,199.58 		"/>
	</g>
	<g>
		<g>
			<path class="st1" d="M185.77,128.59l31.19,55.25c1.62,2.87,1.77,4.99-2.01,7.87c-4.7,3.58-6.75,3.58-8.3,2.62
				c-2.93-1.81-47.08-46.33-51.43-48.58C150.88,143.5,185.77,128.59,185.77,128.59z"/>
			<path class="st70" d="M123.47,139.33c-2.89,1.65-4.3,5.08-3.32,8.26c0.58,1.87,1.51,4.16,3,6.79c1.78,3.15,3.19,5.05,4.95,6.32
				c2.13,1.54,5,1.6,7.32,0.37c11.39-6.04,52.47-27.65,61.98-30.52c11.07-3.34,52.1-7.7,52.1-7.7l-48.64-69.86
				c0,0-15.96,41.64-32.83,56.42C154.92,120.9,132.69,134.06,123.47,139.33z"/>
			<path class="st11" d="M156.81,149.89c4.27-2.2,8.72-4.48,13.11-6.68c-7.63-7.07-12.26-17.51-14.29-24.17
				c-4.02,2.85-8.2,5.64-12.25,8.24C146.23,136.79,151.12,144.44,156.81,149.89z"/>
			<path class="st21" d="M258.75,65.27c15.54,26.44,15.38,55.37-0.36,64.62c-15.74,9.25-41.1-4.68-56.64-31.12
				c-15.54-26.44-15.38-55.37,0.36-64.62C217.85,24.91,243.21,38.84,258.75,65.27z"/>
			<path class="st1" d="M256.63,66.52c13.22,22.49,13.09,47.1-0.3,54.97c-13.39,7.87-34.96-3.98-48.18-26.47
				c-13.22-22.49-13.09-47.1,0.3-54.97C221.84,32.18,243.41,44.03,256.63,66.52z"/>
			<path class="st17" d="M229.52,87.71c-4.07-8.38-13.34-12.28-20.71-8.7c-2.52,1.22-4.44,3.2-5.78,5.55c1.4,3.49,3.08,7,5.11,10.46
				c3.5,5.95,7.58,11.12,11.94,15.41c1.18-0.21,2.35-0.53,3.46-1.07C230.91,105.79,233.59,96.1,229.52,87.71z"/>
		</g>
		<path class="st1" d="M304.6,77.66c-0.12-1.11-4.21-1.57-9.13-1.04c-4.92,0.53-8.81,1.86-8.69,2.96c0.12,1.11,4.21,1.57,9.13,1.04
			C300.83,80.1,304.72,78.77,304.6,77.66z"/>
		<path class="st1" d="M306.3,100.15c-0.06-1.11-4.11-1.81-9.05-1.55c-4.94,0.25-8.9,1.36-8.85,2.47c0.06,1.11,4.11,1.81,9.05,1.55
			C302.4,102.37,306.36,101.26,306.3,100.15z"/>
		<path class="st1" d="M277.86,28.6c-0.77-0.81-4.29,1.31-7.88,4.72c-3.59,3.41-5.87,6.83-5.11,7.63c0.77,0.81,4.29-1.31,7.88-4.72
			C276.34,32.82,278.63,29.41,277.86,28.6z"/>
		<path class="st1" d="M260.12,12.13c-0.83-0.74-4.17,1.65-7.47,5.35c-3.29,3.69-5.29,7.29-4.46,8.03c0.83,0.74,4.17-1.65,7.47-5.35
			C258.95,16.47,260.95,12.87,260.12,12.13z"/>
		<path class="st1" d="M294.4,51.27c-0.54-0.97-4.48,0.21-8.8,2.63c-4.32,2.42-7.37,5.17-6.83,6.14c0.54,0.97,4.48-0.21,8.8-2.63
			C291.89,54.99,294.95,52.24,294.4,51.27z"/>
	</g>
	<g>
		<path class="st15" d="M437.84,176.92v11.24c7.78,0,14.07,6.3,14.07,14.07h11.24C463.16,188.24,451.83,176.92,437.84,176.92z"/>
		<path class="st6" d="M420.01,220.19c4.58,4.55,10.88,7.35,17.83,7.35c13.98,0,25.32-11.33,25.32-25.32h-11.24
			c0,7.78-6.3,14.08-14.07,14.08c-3.85,0-7.34-1.54-9.88-4.06L420.01,220.19z"/>
		<path class="st7" d="M412.53,202.23c0,7.03,2.86,13.38,7.49,17.97l7.95-7.95c-2.59-2.55-4.19-6.1-4.19-10.02
			c0-7.77,6.3-14.07,14.07-14.07v-11.24C423.86,176.92,412.53,188.24,412.53,202.23z"/>
	</g>
	<g>
		<path class="st124" d="M412.72,235.18h50.25c0.46,0,0.83-0.37,0.83-0.83v-0.13c0-0.46-0.37-0.83-0.83-0.83h-50.25
			c-0.46,0-0.83,0.37-0.83,0.83v0.13C411.89,234.81,412.26,235.18,412.72,235.18z"/>
		<path class="st124" d="M412.72,242.81h50.25c0.46,0,0.83-0.37,0.83-0.83v-0.13c0-0.46-0.37-0.83-0.83-0.83h-50.25
			c-0.46,0-0.83,0.37-0.83,0.83v0.13C411.89,242.44,412.26,242.81,412.72,242.81z"/>
	</g>
</g>
</svg>
