<?xml version="1.0" encoding="utf-8"?>
<!-- Generator: Adobe Illustrator 26.3.1, SVG Export Plug-In . SVG Version: 6.00 Build 0)  -->
<svg version="1.1" id="Layer_1" xmlns="http://www.w3.org/2000/svg" xmlns:xlink="http://www.w3.org/1999/xlink" x="0px" y="0px"
	 viewBox="0 0 420 258" style="enable-background:new 0 0 420 258;" xml:space="preserve">
<style type="text/css">
	.st0{opacity:0.43;}
	.st1{fill:#CEDFFF;}
	.st2{fill:#0B50B9;}
	.st3{fill:#110239;}
	.st4{opacity:0.78;fill:#DCEAFF;}
	.st5{opacity:0.78;}
	.st6{opacity:0.5;fill:#BFDCFF;}
	.st7{fill:#005FBA;}
	.st8{fill:#FB961E;}
	.st9{fill:#FFFFFF;}
	.st10{fill:#FFAE73;}
	.st11{fill:#002897;}
	.st12{fill:#00158B;}
	.st13{fill:#ED057F;}
	.st14{fill:#A21B89;}
	.st15{fill:#F99352;}
	.st16{fill:#1F0757;}
	.st17{fill:#0097DD;}
	.st18{fill:#0072C6;}
	.st19{fill:#00A9E9;}
	.st20{fill:#25468F;}
	.st21{fill:#E8F2FA;}
	.st22{opacity:0.49;}
	.st23{fill:#E5E6ED;}
	.st24{fill:#214D9A;}
	.st25{fill:#CF0E83;}
	.st26{fill:#FFA05E;}
	.st27{fill:#00037F;}
	.st28{fill:#003AA2;}
	.st29{fill:#004DAE;}
	.st30{fill:#0084D1;}
	.st31{fill:#662D91;}
	.st32{fill:#75298F;}
	.st33{fill:#84248D;}
	.st34{fill:#93208B;}
	.st35{fill:#B11787;}
	.st36{fill:#C01285;}
	.st37{fill:#DE0981;}
	.st38{fill:#FDE3F1;}
	.st39{fill:#FBC7E3;}
	.st40{fill:#F9ACD4;}
	.st41{fill:#F790C6;}
	.st42{fill:#F574B8;}
	.st43{fill:#F358AA;}
	.st44{fill:#F13D9B;}
	.st45{fill:#EF218D;}
	.st46{fill:#B6CFFF;}
	.st47{fill:#A9C2FF;}
	.st48{fill:#BBD3FF;}
	.st49{fill:#80A1E6;}
	.st50{opacity:0.5;}
	.st51{opacity:0.42;}
	.st52{fill:#F4F4FF;stroke:#FFFFFF;stroke-width:0.75;stroke-miterlimit:10;}
	.st53{fill:#F4F4FF;}
	.st54{fill:#FA8B79;}
	.st55{opacity:0.1;}
	.st56{fill:#6B98F6;}
	.st57{fill:#F9924F;}
	.st58{fill:#DF851B;}
	.st59{fill:#FCAD50;}
	.st60{fill:#FDC582;}
	.st61{fill:#FEDCB4;}
	.st62{fill:#E3F5FD;}
	.st63{fill:#C6ECFA;}
	.st64{fill:#AAE2F8;}
	.st65{fill:#8ED9F5;}
	.st66{fill:#71CFF3;}
	.st67{fill:#55C6F0;}
	.st68{fill:#39BCEE;}
	.st69{fill:#1CB3EB;}
	.st70{fill:#C6C7D7;}
	.st71{fill:#002987;}
	.st72{clip-path:url(#SVGID_00000143588420477346164550000009103307657861109176_);}
	.st73{fill:#F1F3F4;}
	.st74{fill:#9CC0F9;}
	.st75{fill:#FEF9E8;}
	.st76{fill:#E8EAED;}
	.st77{fill:#FCE8E6;}
	.st78{fill:none;stroke:#9CC0F9;stroke-width:3.7859;stroke-miterlimit:10;}
	.st79{fill:none;stroke:#9CC0F9;stroke-width:1.262;stroke-miterlimit:10;}
	.st80{fill:#2B478B;}
	.st81{opacity:0.32;}
	.st82{opacity:0.2;fill:#ED057F;}
	.st83{opacity:0.5;fill:#ED057F;}
	.st84{opacity:0.1;fill:#110239;}
	.st85{opacity:0.18;fill:#005FBA;}
	.st86{fill:#666666;}
	.st87{fill:#373737;}
	.st88{fill-rule:evenodd;clip-rule:evenodd;fill:#666666;}
	.st89{fill:#808080;}
	.st90{fill:#B3B3B3;}
	.st91{opacity:0.4;}
	.st92{opacity:0.25;fill:#FFFFFF;}
	.st93{opacity:0.5;fill:#FFFFFF;}
	.st94{opacity:0.37;fill:#0097DD;}
	.st95{fill:url(#SVGID_00000145765025997617925670000005974640015419517083_);}
	.st96{fill:url(#SVGID_00000171702175594969734300000015240366222135730614_);}
	.st97{fill:url(#SVGID_00000069390068721231866180000008609912416041298825_);}
	.st98{fill:url(#SVGID_00000023979216573929044540000009220294814615768759_);}
	.st99{fill:url(#SVGID_00000182516387833393169250000014550910678224282252_);}
	.st100{fill:url(#SVGID_00000167356482546919583070000016553094772340637858_);}
	.st101{fill:#5793CE;}
	.st102{fill:#D4ECFF;}
	.st103{fill:#FF2C9C;}
	.st104{fill:url(#SVGID_00000150065738830460202620000013146254065465023134_);}
	.st105{fill:url(#SVGID_00000157309782844004676720000006918378686330341510_);}
	.st106{fill:url(#SVGID_00000077321939924273889240000007861946056748580250_);}
	.st107{clip-path:url(#SVGID_00000116200937866149080340000000781932003135695807_);}
	.st108{fill:url(#SVGID_00000123406580289427534660000007597724132278943645_);}
	.st109{fill:url(#SVGID_00000023274664955541858810000015507667456140987036_);}
	.st110{fill:url(#SVGID_00000158712250982279668470000006327551877594719135_);}
	.st111{fill:url(#SVGID_00000011018244612409669760000001643774304812846465_);}
	.st112{fill:url(#SVGID_00000176737062773714328350000007509872127642442149_);}
	.st113{fill:url(#SVGID_00000092419246135400682770000017489239358636024486_);}
	.st114{fill:#7DC3EA;}
	.st115{fill:url(#SVGID_00000123414267206715021710000007746942983876856217_);}
	.st116{fill:url(#SVGID_00000093899324120470060640000004789048303148799641_);}
	.st117{fill:url(#SVGID_00000031207044595691350170000004571645332251024534_);}
	.st118{fill:url(#SVGID_00000049900782259488528140000006096336987950670760_);}
	.st119{opacity:0.43;fill:#CEDFFF;}
	.st120{opacity:0.43;fill:#A9C2FF;}
	.st121{opacity:0.12;fill:#606060;}
	.st122{fill:#FF912B;}
	.st123{fill:#F7931E;}
	.st124{fill:#E6EDFC;}
	.st125{fill:none;stroke:#FFFFFF;stroke-width:0.3254;stroke-miterlimit:10;}
	.st126{fill:none;stroke:#FFFFFF;stroke-width:0.3254;stroke-miterlimit:10;stroke-dasharray:1.3021,1.3021;}
	.st127{fill:none;stroke:#FFFFFF;stroke-width:0.3254;stroke-miterlimit:10;stroke-dasharray:1.3548,1.3548;}
	.st128{fill:none;stroke:#FFFFFF;stroke-width:0.75;stroke-miterlimit:10;}
	.st129{fill:none;stroke:#FFFFFF;stroke-width:1.0422;stroke-miterlimit:10;}
	.st130{fill:none;stroke:#C8D0FC;stroke-width:0.2605;stroke-miterlimit:10;}
	.st131{fill:none;stroke:#FFFFFF;stroke-width:0.2605;stroke-linecap:round;stroke-miterlimit:10;}
	.st132{fill:none;stroke:#FFFFFF;stroke-width:0.5211;stroke-miterlimit:10;}
	.st133{fill:#E8A398;}
	.st134{fill:none;stroke:#E8B1C3;stroke-width:1.9735;stroke-miterlimit:10;}
	
		.st135{opacity:0.3;fill:none;stroke:#FFFFFF;stroke-width:3.6666;stroke-linecap:round;stroke-linejoin:round;stroke-miterlimit:10;}
	.st136{fill:none;stroke:#FFFFFF;stroke-width:2.0116;stroke-miterlimit:10;}
	.st137{opacity:0.4;fill:#DF851B;}
	.st138{fill:#E6E1F9;}
	.st139{fill:none;stroke:#E6E1F9;stroke-width:1.2443;stroke-miterlimit:10;}
	.st140{fill:#00D9E0;}
	.st141{opacity:0.5;fill:#00D9E0;}
	.st142{fill:#00EDED;}
	.st143{opacity:0.5;fill:#AD86F7;}
	.st144{fill:#641CA0;}
	.st145{fill:#AD86F7;}
	.st146{fill:none;stroke:#FFFFFF;stroke-width:0.6221;stroke-miterlimit:10;}
	.st147{fill:#F4C4B3;}
	.st148{fill:#28BAAD;}
	.st149{fill:#00204E;}
	.st150{opacity:0.17;fill:#FFFFFF;}
	.st151{fill:none;stroke:#FFFFFF;stroke-width:0.702;stroke-miterlimit:10;}
	.st152{opacity:0.17;}
	.st153{fill:#F20574;}
	.st154{fill:#30A8F2;}
	.st155{fill:#F9FBFC;}
	.st156{opacity:0.3;}
	.st157{opacity:0.28;}
	.st158{fill:#FFC194;}
	.st159{fill:none;stroke:#FFFFFF;stroke-width:1.0182;stroke-miterlimit:10;}
	.st160{fill:none;stroke:#FFFFFF;stroke-width:1.8415;stroke-miterlimit:10;}
	.st161{fill:#444A7C;}
	.st162{fill:#F4A9A2;}
	.st163{opacity:0.15;fill:#FFFFFF;}
	.st164{opacity:0.3;fill:#FFFFFF;}
	.st165{fill:#007DCB;}
	.st166{opacity:0.5;fill:#F4A9A2;}
	.st167{fill:none;stroke:#E8B1C3;stroke-width:2.0936;stroke-miterlimit:10;}
	.st168{fill:#759BE0;}
	.st169{fill:#AEC3FF;}
	.st170{opacity:0.7;fill:#759BE0;}
	.st171{fill:#94B0ED;}
	.st172{fill:#D2E0FF;}
	.st173{fill:#FFB27D;}
	.st174{fill:#E8945B;}
	.st175{opacity:0.17;fill:#C0D4FF;}
	.st176{fill:#EBF3FA;}
	.st177{fill:#ED975D;}
	.st178{fill:#FCA56B;}
	.st179{fill:#A6D9F1;}
	.st180{fill:#E69D43;}
	.st181{fill:#CA5F00;}
	.st182{fill:#D6716B;}
	.st183{fill:#AA443E;}
	.st184{fill:#EE9849;}
	.st185{fill:#A6C7F9;}
	.st186{fill:#D2E4FF;}
	.st187{fill:#F3F9FF;}
	.st188{fill:#A8D29F;}
	.st189{fill:#82B378;}
	.st190{fill:#163560;}
	.st191{fill:#E37970;}
	.st192{fill:#D68D5D;}
	.st193{fill:#80BDCC;}
	.st194{fill:#E7F1FD;}
	.st195{fill:#5F9AA8;}
	.st196{fill:#C45446;}
	.st197{fill:#739AF0;}
	.st198{fill:#4A75CB;}
	.st199{fill:#E49963;}
	.st200{fill:#1C468A;}
	.st201{clip-path:url(#SVGID_00000147215557377655425120000016681012129405222286_);}
	.st202{fill:#D9935C;}
	.st203{fill:#B84C42;}
	.st204{fill:#B74B42;}
	.st205{fill:#E58638;}
	.st206{fill:#CC7C46;}
	.st207{fill:none;stroke:#031F4C;stroke-width:0.5748;stroke-miterlimit:10;}
	.st208{fill:#E8C4B3;}
	.st209{fill:#67B375;}
	.st210{fill:#FFB27B;}
	.st211{fill:#FF985B;}
	.st212{fill:#C5E0FB;}
	.st213{fill:#A4CFF3;}
	.st214{fill:#FFAE74;}
	.st215{opacity:0.36;fill:#00037F;}
	.st216{fill:#E7F2F9;}
	.st217{fill:#FFBF92;}
	.st218{opacity:0.53;}
	.st219{fill:#AAC9F5;}
	.st220{fill:#CDE0FB;}
	.st221{fill:#C0D8FB;}
	.st222{fill:#AFCDFB;}
	.st223{fill:#D2E3FC;}
	.st224{fill:#DCEAFF;}
	.st225{fill:#77A4E5;}
	.st226{opacity:0.43;fill:#DCEAFF;}
	.st227{fill:#FFB93E;}
	.st228{fill:#E2810E;}
	.st229{opacity:0.42;fill:#002897;}
	.st230{clip-path:url(#SVGID_00000115495523497824724590000004842714339054420370_);}
	.st231{fill:#88ADD8;}
	.st232{fill:#98B9EA;}
	.st233{opacity:0.08;fill:#FFFFFF;}
	.st234{opacity:0.26;fill:#002897;}
	.st235{opacity:0.5;fill:#A9C2FF;}
	.st236{opacity:0.3;fill:#A9C2FF;}
	.st237{fill:#F6FBFF;}
	.st238{fill:#F48F4E;}
	.st239{opacity:0.42;fill:#DF851B;}
	.st240{fill:#BDD1F9;}
	.st241{opacity:0.96;fill:#CEDFFF;}
	.st242{fill:#FFA412;}
	.st243{opacity:0.5;fill:#E2810E;}
	.st244{opacity:0.29;fill:#0097DD;}
	.st245{opacity:0.71;}
	.st246{clip-path:url(#SVGID_00000102524088113301664340000001633976360572448896_);}
	.st247{fill:none;stroke:#9CC0F9;stroke-width:4.7939;stroke-miterlimit:10;}
	.st248{fill:none;stroke:#9CC0F9;stroke-width:1.598;stroke-miterlimit:10;}
	.st249{fill:#73B471;}
	.st250{fill:#FF9D5D;}
</style>
<g>
	<path class="st119" d="M8.02,187.26c0.11-19.12,16.36-33.51,22.67-39.89c22.56-22.82,60.73-10.45,54.69-77.11
		c-5.21-57.55,84.81-91.36,140.77-39.98c36.15,33.2,72.74-11.09,130.09,14.04c13.71,6.01,19.24,12.61,22.46,16.92
		c14.68,19.64,14.65,57.01,14.65,57.01c0.16,56,26.87,73.52,14.22,91.91c-12.47,18.14-46.78,13.24-73.31,10.94
		c-161.55-13.99-258.38,49.11-307.48,2.19C21.94,218.67,7.92,205.28,8.02,187.26z"/>
	<path class="st240" d="M115.18,90.39c0,0,4.58-21.12,19.82-20.97c15.54,0.16,16.78,16.63,5.85,20.28
		C129.93,93.37,121.41,87.49,115.18,90.39z"/>
	<path class="st241" d="M124,86c0,0,3.29-15.19,14.25-15.07c11.17,0.12,12.06,11.95,4.21,14.58C134.6,88.14,128.48,83.91,124,86z"/>
	<rect x="118.58" y="158.72" class="st240" width="36.94" height="94.86"/>
	<rect x="176.05" y="127.72" class="st240" width="36.94" height="125.86"/>
	<rect x="228.3" y="94.26" class="st240" width="40.45" height="159.32"/>
	<rect x="283.15" y="72.2" class="st240" width="36.94" height="181.38"/>
	<g>
		<g>
			<polygon class="st13" points="268.74,147.35 346.38,109.77 311.75,183.57 305.9,150.09 			"/>
		</g>
	</g>
	<g>
		<path class="st227" d="M250.88,122.19c-1.9-7.81,2.89-15.67,10.7-17.57c7.81-1.9,15.67,2.89,17.57,10.69
			c1.9,7.81-2.89,15.67-10.69,17.57C260.65,134.79,252.78,130,250.88,122.19z"/>
		<g>
			<path class="st242" d="M268.19,131.8c-3.44,0.84-7,0.28-10.02-1.56c-3.02-1.84-5.15-4.75-5.99-8.19c-0.84-3.44-0.28-7,1.56-10.02
				c1.84-3.02,4.75-5.15,8.19-5.99c3.44-0.84,7-0.28,10.02,1.56c3.02,1.84,5.15,4.75,5.99,8.19c0.84,3.44,0.28,7-1.56,10.02
				C274.54,128.83,271.63,130.96,268.19,131.8z M262.11,106.81c-6.68,1.63-10.79,8.38-9.16,15.06c1.62,6.68,8.38,10.79,15.06,9.16
				c6.68-1.62,10.79-8.38,9.16-15.06C275.54,109.3,268.79,105.19,262.11,106.81z"/>
		</g>
		<g>
			<path class="st242" d="M267.74,122.23c-0.03-0.29-0.11-0.53-0.21-0.74c-0.11-0.21-0.26-0.39-0.47-0.54
				c-0.2-0.15-0.46-0.29-0.77-0.4c-0.31-0.11-0.68-0.22-1.11-0.31c-0.75-0.16-1.43-0.35-2.05-0.55c-0.62-0.2-1.16-0.46-1.62-0.77
				c-0.46-0.31-0.84-0.69-1.13-1.15c-0.29-0.45-0.47-1.02-0.56-1.68c-0.07-0.58-0.03-1.12,0.12-1.62c0.15-0.5,0.39-0.95,0.73-1.35
				c0.34-0.4,0.76-0.74,1.26-1.03c0.5-0.29,1.08-0.5,1.73-0.64l-0.26-2.18l1.76-0.21l0.27,2.21c0.64,0.01,1.23,0.1,1.77,0.29
				c0.54,0.19,1.02,0.46,1.43,0.82c0.41,0.36,0.74,0.8,1,1.32c0.26,0.52,0.43,1.13,0.51,1.81l-3.18,0.38
				c-0.1-0.82-0.35-1.4-0.77-1.77c-0.41-0.36-0.92-0.5-1.53-0.43c-0.33,0.04-0.61,0.12-0.83,0.24c-0.23,0.12-0.41,0.27-0.54,0.45
				c-0.13,0.18-0.23,0.38-0.27,0.61c-0.05,0.23-0.05,0.47-0.02,0.72c0.03,0.25,0.09,0.48,0.19,0.67c0.1,0.2,0.25,0.37,0.45,0.52
				c0.2,0.15,0.46,0.29,0.77,0.4c0.32,0.12,0.7,0.23,1.16,0.34c0.74,0.18,1.42,0.37,2.04,0.58c0.62,0.21,1.15,0.47,1.62,0.78
				c0.46,0.31,0.84,0.7,1.13,1.15c0.29,0.46,0.47,1.01,0.55,1.67c0.07,0.6,0.03,1.15-0.12,1.65c-0.15,0.5-0.4,0.95-0.73,1.34
				c-0.34,0.39-0.76,0.73-1.28,1c-0.51,0.28-1.09,0.48-1.75,0.63l0.25,2.03l-1.75,0.21l-0.24-2.02c-0.62,0.01-1.22-0.05-1.81-0.18
				c-0.59-0.14-1.13-0.37-1.62-0.7c-0.49-0.33-0.9-0.77-1.23-1.33c-0.33-0.55-0.55-1.24-0.65-2.05l3.18-0.38
				c0.06,0.48,0.17,0.88,0.35,1.18c0.17,0.31,0.39,0.54,0.64,0.71c0.25,0.17,0.53,0.27,0.82,0.31c0.3,0.04,0.6,0.05,0.9,0.01
				c0.34-0.04,0.64-0.12,0.89-0.24c0.25-0.12,0.45-0.27,0.61-0.45c0.16-0.18,0.27-0.38,0.33-0.6
				C267.75,122.72,267.77,122.48,267.74,122.23z"/>
		</g>
	</g>
	<g>
		<path class="st227" d="M327.41,80.96c-0.31-7.82,5.78-14.41,13.6-14.71c7.82-0.31,14.41,5.78,14.71,13.6
			c0.31,7.82-5.78,14.41-13.6,14.71C334.31,94.87,327.72,88.78,327.41,80.96z"/>
		<g>
			<path class="st242" d="M342.08,93.47c-3.45,0.14-6.74-1.08-9.27-3.42c-2.53-2.34-4-5.53-4.14-8.97
				c-0.14-3.45,1.08-6.74,3.42-9.27c2.34-2.53,5.53-4,8.97-4.14c3.45-0.14,6.74,1.08,9.27,3.42c2.53,2.34,4,5.53,4.14,8.97
				c0.14,3.45-1.08,6.74-3.42,9.27C348.71,91.86,345.53,93.33,342.08,93.47z M341.1,68.44c-6.69,0.26-11.91,5.92-11.65,12.61
				c0.26,6.69,5.92,11.91,12.61,11.65c6.69-0.26,11.91-5.92,11.65-12.61C353.44,73.4,347.79,68.18,341.1,68.44z"/>
		</g>
		<g>
			<path class="st242" d="M343.5,84.24c0.02-0.28,0-0.53-0.06-0.75c-0.06-0.22-0.18-0.42-0.34-0.61c-0.17-0.19-0.38-0.37-0.66-0.53
				c-0.27-0.17-0.61-0.34-1-0.51c-0.68-0.3-1.3-0.61-1.85-0.92c-0.55-0.31-1.02-0.66-1.4-1.05c-0.38-0.39-0.66-0.82-0.85-1.31
				c-0.19-0.49-0.26-1.06-0.21-1.71c0.04-0.57,0.19-1.07,0.42-1.52c0.24-0.45,0.56-0.83,0.96-1.15c0.4-0.32,0.87-0.56,1.4-0.74
				c0.54-0.18,1.13-0.27,1.78-0.28l0.17-2.14l1.72,0.14l-0.17,2.17c0.61,0.13,1.16,0.34,1.64,0.62c0.48,0.29,0.88,0.64,1.2,1.06
				c0.32,0.42,0.55,0.91,0.7,1.46c0.15,0.55,0.2,1.16,0.14,1.82l-3.11-0.25c0.06-0.8-0.07-1.41-0.39-1.83
				c-0.32-0.42-0.78-0.66-1.38-0.71c-0.32-0.03-0.6,0-0.84,0.07c-0.24,0.07-0.44,0.18-0.6,0.32c-0.16,0.14-0.29,0.32-0.38,0.53
				c-0.09,0.21-0.14,0.43-0.16,0.68c-0.02,0.25,0,0.47,0.05,0.68c0.06,0.21,0.16,0.4,0.33,0.58c0.16,0.18,0.38,0.36,0.66,0.53
				c0.28,0.17,0.63,0.36,1.04,0.55c0.67,0.31,1.29,0.63,1.83,0.95c0.55,0.32,1.01,0.67,1.39,1.06c0.38,0.39,0.66,0.83,0.85,1.32
				c0.19,0.49,0.26,1.06,0.21,1.7c-0.05,0.59-0.19,1.1-0.43,1.55c-0.24,0.45-0.56,0.83-0.96,1.14c-0.4,0.31-0.87,0.55-1.41,0.71
				c-0.54,0.16-1.14,0.25-1.79,0.26l-0.16,1.99l-1.71-0.13l0.16-1.98c-0.59-0.11-1.15-0.28-1.69-0.53
				c-0.54-0.24-1.01-0.57-1.41-0.98c-0.4-0.41-0.71-0.91-0.92-1.5c-0.21-0.59-0.29-1.29-0.22-2.09l3.1,0.25
				c-0.04,0.47,0,0.87,0.11,1.2c0.11,0.33,0.26,0.59,0.47,0.8c0.21,0.21,0.45,0.36,0.73,0.46c0.28,0.1,0.56,0.16,0.86,0.18
				c0.34,0.03,0.64,0.01,0.9-0.06c0.26-0.07,0.48-0.17,0.67-0.31c0.18-0.14,0.33-0.31,0.43-0.51
				C343.42,84.71,343.48,84.49,343.5,84.24z"/>
		</g>
	</g>
	<g>
		<path class="st227" d="M307.42,106.09c-0.1-5.4,4.2-9.85,9.6-9.94c5.4-0.1,9.85,4.2,9.94,9.6c0.1,5.4-4.2,9.85-9.6,9.94
			C311.97,115.78,307.52,111.49,307.42,106.09z"/>
		<g>
			<path class="st242" d="M317.35,114.93c-2.38,0.04-4.63-0.84-6.34-2.5c-1.71-1.65-2.68-3.87-2.72-6.25
				c-0.04-2.38,0.84-4.63,2.5-6.34c1.65-1.71,3.87-2.68,6.25-2.72c2.38-0.04,4.63,0.84,6.34,2.5c1.71,1.65,2.68,3.87,2.72,6.25
				c0.04,2.38-0.84,4.63-2.5,6.34C321.95,113.93,319.73,114.89,317.35,114.93z M317.05,97.66c-4.62,0.08-8.3,3.9-8.22,8.52
				c0.08,4.62,3.9,8.3,8.52,8.22c4.62-0.08,8.3-3.9,8.22-8.52C325.48,101.27,321.66,97.58,317.05,97.66z"/>
		</g>
		<g>
			<path class="st242" d="M318.47,108.59c0.02-0.19,0.01-0.36-0.03-0.52c-0.04-0.15-0.11-0.29-0.23-0.43
				c-0.11-0.13-0.26-0.26-0.44-0.38c-0.18-0.12-0.41-0.24-0.68-0.37c-0.47-0.22-0.89-0.44-1.26-0.66c-0.38-0.23-0.69-0.47-0.95-0.74
				c-0.26-0.27-0.45-0.58-0.57-0.92c-0.12-0.34-0.16-0.74-0.12-1.18c0.04-0.39,0.14-0.74,0.31-1.04c0.17-0.31,0.4-0.57,0.68-0.78
				c0.28-0.21,0.61-0.37,0.98-0.49c0.37-0.11,0.78-0.17,1.23-0.16l0.15-1.47l1.18,0.12l-0.15,1.49c0.42,0.1,0.79,0.25,1.12,0.45
				c0.33,0.2,0.6,0.45,0.81,0.75c0.21,0.29,0.37,0.63,0.46,1.01c0.09,0.38,0.12,0.8,0.07,1.26l-2.14-0.22
				c0.06-0.55-0.03-0.97-0.24-1.27c-0.22-0.3-0.53-0.47-0.94-0.51c-0.22-0.02-0.42-0.01-0.58,0.04c-0.17,0.05-0.31,0.12-0.42,0.21
				c-0.11,0.1-0.2,0.22-0.27,0.36c-0.06,0.14-0.1,0.3-0.12,0.47c-0.02,0.17-0.01,0.33,0.03,0.47c0.04,0.14,0.11,0.28,0.22,0.41
				c0.11,0.13,0.26,0.25,0.45,0.38c0.19,0.12,0.43,0.25,0.71,0.39c0.46,0.23,0.88,0.45,1.25,0.68c0.37,0.23,0.69,0.48,0.94,0.75
				c0.26,0.27,0.45,0.58,0.57,0.92c0.12,0.34,0.16,0.73,0.12,1.18c-0.04,0.4-0.15,0.76-0.32,1.06c-0.17,0.31-0.4,0.56-0.68,0.77
				c-0.28,0.21-0.61,0.36-0.99,0.47c-0.38,0.11-0.79,0.16-1.24,0.15l-0.14,1.37l-1.18-0.12l0.14-1.36
				c-0.41-0.08-0.79-0.21-1.16-0.39c-0.37-0.18-0.69-0.41-0.96-0.7c-0.27-0.29-0.47-0.64-0.61-1.05c-0.14-0.41-0.18-0.89-0.12-1.44
				l2.14,0.22c-0.03,0.33-0.01,0.6,0.05,0.83c0.07,0.23,0.17,0.41,0.31,0.56c0.14,0.15,0.3,0.26,0.49,0.33
				c0.19,0.07,0.39,0.12,0.59,0.14c0.23,0.02,0.44,0.01,0.62-0.03c0.18-0.04,0.34-0.11,0.47-0.2c0.13-0.09,0.23-0.21,0.3-0.35
				C318.4,108.92,318.45,108.76,318.47,108.59z"/>
		</g>
	</g>
	<g>
		<path class="st227" d="M266.27,75.93c-4.14-12.5,2.64-25.99,15.14-30.13c12.5-4.14,25.99,2.64,30.13,15.14
			c4.14,12.5-2.64,25.99-15.14,30.13C283.9,95.21,270.41,88.43,266.27,75.93z"/>
		<g>
			<path class="st242" d="M295.83,89.32c-5.51,1.82-11.4,1.39-16.58-1.21c-5.19-2.61-9.05-7.07-10.87-12.58
				c-1.82-5.51-1.39-11.4,1.21-16.58c2.61-5.19,7.07-9.05,12.58-10.87s11.4-1.39,16.58,1.21c5.19,2.61,9.05,7.07,10.87,12.58
				c1.82,5.51,1.39,11.4-1.21,16.58C305.8,83.64,301.33,87.5,295.83,89.32z M282.57,49.3c-10.69,3.54-16.51,15.12-12.97,25.82
				c3.54,10.69,15.12,16.51,25.82,12.97c10.69-3.54,16.51-15.12,12.97-25.82C304.85,51.58,293.27,45.76,282.57,49.3z"/>
		</g>
		<g>
			<path class="st242" d="M293.82,73.74c-0.09-0.46-0.24-0.86-0.45-1.18c-0.2-0.33-0.48-0.6-0.84-0.83
				c-0.35-0.23-0.79-0.41-1.31-0.56c-0.52-0.15-1.14-0.27-1.86-0.36c-1.24-0.17-2.39-0.38-3.42-0.63c-1.04-0.25-1.96-0.6-2.75-1.05
				c-0.79-0.45-1.46-1.02-1.99-1.73c-0.53-0.71-0.91-1.6-1.13-2.68c-0.19-0.94-0.2-1.82-0.03-2.66c0.17-0.84,0.51-1.61,1.01-2.3
				c0.5-0.7,1.14-1.31,1.93-1.85c0.79-0.53,1.7-0.96,2.75-1.28l-0.72-3.53l2.84-0.58l0.73,3.58c1.05-0.08,2.03,0,2.94,0.24
				c0.91,0.24,1.73,0.62,2.44,1.15c0.71,0.53,1.32,1.21,1.81,2.03c0.49,0.82,0.86,1.78,1.08,2.88l-5.14,1.05
				c-0.27-1.32-0.77-2.25-1.49-2.78c-0.72-0.53-1.57-0.7-2.56-0.5c-0.53,0.11-0.98,0.28-1.33,0.5c-0.35,0.23-0.63,0.5-0.83,0.8
				c-0.2,0.31-0.32,0.65-0.36,1.03c-0.05,0.38-0.03,0.77,0.06,1.18c0.08,0.41,0.22,0.76,0.4,1.07c0.19,0.31,0.45,0.57,0.8,0.79
				c0.35,0.22,0.79,0.41,1.32,0.56c0.53,0.15,1.18,0.28,1.94,0.4c1.24,0.19,2.37,0.42,3.41,0.68c1.03,0.26,1.95,0.61,2.74,1.06
				c0.8,0.45,1.46,1.03,1.99,1.73c0.53,0.71,0.91,1.59,1.13,2.66c0.2,0.97,0.21,1.87,0.03,2.71c-0.18,0.84-0.52,1.6-1.02,2.29
				c-0.5,0.69-1.15,1.29-1.95,1.81c-0.8,0.52-1.72,0.94-2.77,1.25l0.67,3.28l-2.83,0.58l-0.67-3.27c-1,0.1-2,0.08-2.98-0.06
				c-0.99-0.14-1.9-0.45-2.74-0.93c-0.84-0.48-1.57-1.14-2.19-2c-0.62-0.86-1.07-1.95-1.34-3.27l5.14-1.05
				c0.16,0.78,0.4,1.41,0.73,1.89c0.33,0.48,0.7,0.84,1.14,1.07c0.43,0.24,0.89,0.37,1.39,0.4c0.49,0.03,0.98,0,1.47-0.1
				c0.56-0.11,1.03-0.28,1.42-0.51c0.39-0.23,0.7-0.5,0.94-0.81c0.23-0.31,0.38-0.65,0.46-1.03
				C293.91,74.54,293.9,74.15,293.82,73.74z"/>
		</g>
	</g>
	<g>
		<path class="st17" d="M179.61,78.18c-2.98,1.39-5.82,2.72-8.53,3.74c-8.75,3.31-16,3.39-21.36-8.1
			c-5.36-11.49-0.64-16.99,7.51-21.57c2.52-1.42,5.36-2.74,8.34-4.13c6.37-2.97,13.92-3.67,20.2-2.88
			c6.17,0.78,11.11,3.01,12.48,5.94c1.56,3.34,0.09,8.56-3.32,13.69C191.46,70.08,185.98,75.21,179.61,78.18z"/>
		<polygon class="st30" points="157.24,52.25 145.65,47.53 130.09,54.14 149.25,62.72 		"/>
		<polygon class="st30" points="171.04,81.82 167.21,93.74 152.14,101.42 157.88,81.22 		"/>
		<path class="st17" d="M171.08,81.92c-8.75,3.31-16,3.39-21.36-8.1c-5.36-11.49-0.64-16.99,7.51-21.57L171.08,81.92z"/>
		<path class="st13" d="M129.61,83.21c0,0,2.47-11.41,10.7-11.32c8.39,0.09,9.06,8.98,3.16,10.96
			C137.57,84.81,132.97,81.64,129.61,83.21z"/>
		<path class="st3" d="M173.75,53.3c3.98-1.86,8.71-0.14,10.57,3.84c1.86,3.98,0.14,8.71-3.84,10.57
			c-3.98,1.86-8.71,0.14-10.57-3.84C168.05,59.89,169.77,55.16,173.75,53.3z"/>
		<path class="st3" d="M194.93,64.86l-9.16-19.62c6.17,0.78,11.11,3.01,12.48,5.94C199.82,54.52,198.35,59.73,194.93,64.86z"/>
	</g>
	<g>
		<path class="st17" d="M366.34,132.57c0,0,10.79,11.19,11.3,15.4c0.51,4.21-5.17,10.79-5.17,10.79L366.34,132.57z"/>
		<path class="st30" d="M361.46,248.54c0,0-0.38,5.94-1.53,6.02c-0.15,0.01-5.83,0-5.83,0l-7.24-0.06c0,0,0.05-1.74,2.17-2.11
			c2.12-0.36,5.66-1.84,6.95-4.64C357.34,244.81,361.46,248.54,361.46,248.54z"/>
		<path class="st30" d="M377.59,248.58c0,0-0.38,5.94-1.53,6.02c-0.15,0.01-5.83,0-5.83,0l-7.24-0.06c0,0,0.05-1.74,2.17-2.11
			c2.12-0.36,5.66-1.84,6.95-4.64C373.47,244.85,377.59,248.58,377.59,248.58z"/>
		<path class="st3" d="M353.58,184.72c0,0,1.87,12.12,8.89,33.63c7.02,21.52,7.96,30.83,7.96,30.83l7.58-0.2
			c0,0,0.12-23.5-3.12-34.32c-3.23-10.82-0.62-38.98-0.62-38.98L353.58,184.72z"/>
		<path class="st3" d="M349.91,176.3c0,0-0.31,18.25,2.8,40.67c3.11,22.42,2.02,31.93,2.02,31.93l7.56,0.27
			c0,0,4.57-22.41,3.3-33.63c-1.27-11.22,6.27-38.48,6.27-38.48L349.91,176.3z"/>
		<path class="st233" d="M349.91,176.3c0,0-0.31,18.25,2.8,40.67c3.11,22.42,2.02,31.93,2.02,31.93l7.56,0.27
			c0,0,4.57-22.41,3.3-33.63c-1.27-11.22,6.27-38.48,6.27-38.48L349.91,176.3z"/>
		<path class="st173" d="M364.65,133.62l-4.04,2.63l-5.82-1.1c0.08-0.47,0.47-2.42,0.82-4.18c0.02-0.1,0.04-0.21,0.06-0.31
			c0.3-1.5,0.57-2.79,0.57-2.79l5.44-2.39l2.03-0.89c-0.01,0.03-0.16,1.67-0.18,1.9C363.15,130.74,364.65,133.62,364.65,133.62z"/>
		<path class="st17" d="M356.29,132.27c0.11-0.05,7.02-2.07,7.77-1.82c0.75,0.25,1.19,1.7,1.19,1.7l-11.29,2.53
			C353.95,134.68,354.85,132.87,356.29,132.27z"/>
		<path class="st17" d="M374.77,178.61c-1.18,5.33-20.65,5.92-25.66,1.07c-0.57-0.55-0.59-3.12-0.37-6.58
			c0.44-6.77,1.81-16.94,1.87-22.14c0.03-2.51,0.38-5.08,0.85-7.41c0.99-4.97,2.49-8.87,2.49-8.87s9.51-3.05,11.29-2.53
			C373.81,134.69,375.95,173.28,374.77,178.61z"/>
		<path class="st30" d="M348.74,173.09c0.44-6.77,1.81-16.94,1.87-22.14c0.03-2.51,0.38-5.08,0.85-7.41l5.72-1
			C357.19,142.55,362.73,165.4,348.74,173.09z"/>
		<path class="st173" d="M351.86,163.67c0,0,0.39,0.93-0.43,1.56c-0.82,0.62-1.35,1.64-1.17,2.38c0.19,0.74,1.98,1.95,2.6,1.76
			c0.62-0.19,1.89-1.17,1.76-1.56c-0.14-0.39,0.86-3.43-0.66-4.6C352.45,162.03,351.86,163.67,351.86,163.67z"/>
		<path class="st17" d="M358.32,133.32c0,0-5.58,1.03-10.04,7.57c-4.46,6.54-7.39,11.4-6.58,13.77c0.81,2.36,8.26,10.57,9.55,10.57
			c1.29,0,3.37-0.93,3.49-3.03c0,0-5.24-7.89-4.2-9.06c0.44-0.5,6.83-5.67,7.74-3.33C359.78,153.67,358.32,133.32,358.32,133.32z"/>
		<path class="st178" d="M363.13,126.57c-1.2,2.02-5.65,3.76-7.51,4.4c0.02-0.1,0.04-0.21,0.06-0.31c0.3-1.5,0.57-2.79,0.57-2.79
			l5.44-2.39C362.89,125.47,363.62,125.74,363.13,126.57z"/>
		<path class="st173" d="M354.19,127.54c0,0,8.76,2.75,10.39-2.73c1.63-5.48,3.86-8.81-1.66-10.8c-5.52-1.99-7.24-0.22-8.22,1.47
			C353.7,117.18,351.96,126.68,354.19,127.54z"/>
		<path class="st3" d="M355.04,114.95c0,0,0.54,6.38,1.86,6.11c1.32-0.27,2.52-0.48,2.32,1.45s-2.03,4.14,2.03,4.49
			c4.07,0.35,9.93-10.13,8.82-12.11C366.87,109.15,350.39,107.95,355.04,114.95z"/>
	</g>
	<g>
		<g>
			<g>
				<g>
					<path class="st227" d="M312.58,250.88v2.3c0,0.18-0.07,0.35-0.18,0.49c-0.12,0.15-0.29,0.27-0.49,0.33
						c-0.06,0.02-0.13,0.04-0.19,0.05c-0.06,0.01-0.12,0.01-0.19,0.01h-43.54c-0.53,0-0.97-0.33-1.04-0.75
						c0-0.03-0.01-0.06-0.01-0.09c0-0.01,0-0.03,0-0.04v-2.3c0-0.01,0-0.03,0-0.04c0-0.03,0.01-0.06,0.01-0.09
						c0.08-0.42,0.52-0.75,1.04-0.75h43.54c0.06,0,0.13,0,0.19,0.01c0.07,0.01,0.13,0.03,0.19,0.05c0.2,0.07,0.37,0.18,0.49,0.33
						C312.51,250.53,312.58,250.7,312.58,250.88z"/>
					<path class="st242" d="M291.2,254.06h-23.33c-0.43,0-0.8-0.28-0.9-0.65c-0.01-0.03-0.02-0.06-0.03-0.1
						c0-0.03-0.01-0.06-0.01-0.09c0-0.01,0-0.03,0-0.04v-2.3c0-0.01,0-0.03,0-0.04c0-0.03,0.01-0.06,0.01-0.09
						c0.01-0.03,0.02-0.07,0.03-0.1c0.11-0.38,0.47-0.65,0.9-0.65h20.46C288.66,251.19,289.42,252.84,291.2,254.06z"/>
					<g>
						<rect x="306.78" y="249.99" class="st242" width="0.49" height="4.06"/>
						<rect x="305.11" y="249.99" class="st242" width="0.49" height="4.06"/>
						<rect x="303.1" y="249.99" class="st242" width="0.49" height="4.06"/>
						<rect x="300.02" y="249.99" class="st242" width="0.49" height="4.06"/>
						<rect x="296.77" y="249.99" class="st242" width="0.5" height="4.06"/>
						<rect x="291.78" y="249.99" class="st242" width="0.49" height="4.06"/>
						<rect x="287.1" y="249.99" class="st242" width="0.49" height="4.06"/>
						<rect x="282.93" y="249.99" class="st242" width="0.49" height="4.06"/>
						<rect x="308.38" y="249.99" class="st242" width="0.49" height="4.06"/>
						<rect x="309.43" y="249.99" class="st242" width="0.49" height="4.06"/>
						<rect x="310.45" y="249.99" class="st242" width="0.49" height="4.06"/>
						<path class="st242" d="M311.71,250.01v4.04c-0.06,0.01-0.12,0.01-0.19,0.01h-0.31v-4.06h0.31
							C311.59,249.99,311.65,250,311.71,250.01z"/>
						<path class="st242" d="M312.4,250.38v3.28c-0.12,0.15-0.29,0.27-0.49,0.33v-3.95C312.1,250.12,312.28,250.24,312.4,250.38z"/>
					</g>
				</g>
				<g>
					<path class="st227" d="M307.92,246.81v2.29c0,0.18-0.07,0.35-0.18,0.5c-0.03,0.04-0.06,0.07-0.1,0.1
						c-0.11,0.1-0.24,0.18-0.4,0.23c-0.06,0.02-0.13,0.04-0.19,0.04c-0.06,0.01-0.12,0.02-0.19,0.02h-43.54
						c-0.53,0-0.96-0.33-1.04-0.75c0-0.03-0.01-0.06-0.01-0.09c0-0.02,0-0.03,0-0.05v-2.29c0-0.01,0-0.03,0-0.05
						c0-0.03,0.01-0.06,0.01-0.09c0.08-0.42,0.52-0.75,1.04-0.75h43.54c0.03,0,0.06,0,0.08,0c0.01,0,0.02,0,0.03,0c0,0,0,0,0.01,0
						c0.01,0,0.03,0,0.04,0c0.01,0,0.02,0,0.03,0c0.07,0.01,0.13,0.02,0.19,0.04c0.04,0.01,0.07,0.03,0.11,0.04h0
						c0.02,0.01,0.05,0.02,0.07,0.03c0.01,0.01,0.03,0.01,0.04,0.02c0.01,0.01,0.02,0.01,0.04,0.02c0.05,0.03,0.09,0.06,0.13,0.09
						c0.01,0.01,0.02,0.02,0.04,0.03c0.01,0.01,0.01,0.01,0.02,0.02c0,0,0.01,0.01,0.01,0.01l0.01,0.01
						c0.01,0.01,0.03,0.03,0.04,0.04C307.86,246.46,307.92,246.63,307.92,246.81z"/>
					<path class="st242" d="M286.54,249.99h-23.32c-0.43,0-0.8-0.28-0.9-0.66c-0.01-0.03-0.02-0.06-0.03-0.1
						c0-0.03-0.01-0.06-0.01-0.09c0-0.02,0-0.03,0-0.05v-2.29c0-0.01,0-0.03,0-0.05c0-0.03,0.01-0.06,0.01-0.09
						c0.01-0.03,0.02-0.07,0.03-0.1c0.11-0.38,0.47-0.66,0.9-0.66h20.46c0.01,0.03,0.02,0.07,0.03,0.1
						C284.05,247.22,284.82,248.81,286.54,249.99z"/>
					<g>
						<rect x="302.13" y="245.93" class="st242" width="0.49" height="4.06"/>
						<rect x="300.45" y="245.93" class="st242" width="0.49" height="4.06"/>
						<rect x="298.45" y="245.93" class="st242" width="0.49" height="4.06"/>
						<rect x="295.37" y="245.93" class="st242" width="0.49" height="4.06"/>
						<rect x="292.11" y="245.93" class="st242" width="0.49" height="4.06"/>
						<rect x="287.12" y="245.93" class="st242" width="0.49" height="4.06"/>
						<rect x="282.45" y="245.93" class="st242" width="0.49" height="4.06"/>
						<rect x="278.27" y="245.93" class="st242" width="0.49" height="4.06"/>
						<rect x="303.72" y="245.93" class="st242" width="0.49" height="4.06"/>
						<rect x="304.78" y="245.93" class="st242" width="0.49" height="4.06"/>
						<rect x="305.79" y="245.93" class="st242" width="0.49" height="4.06"/>
						<path class="st242" d="M307.05,245.94v4.04c-0.06,0.01-0.12,0.01-0.19,0.01h-0.31v-4.06h0.31
							C306.93,245.93,306.99,245.93,307.05,245.94z"/>
						<path class="st242" d="M307.74,246.32v3.28c-0.12,0.15-0.29,0.27-0.49,0.33v-3.95C307.45,246.05,307.62,246.17,307.74,246.32z
							"/>
					</g>
				</g>
				<g>
					<path class="st227" d="M310.17,242.85v2.3c0,0.18-0.07,0.35-0.18,0.49c-0.12,0.15-0.29,0.27-0.49,0.33
						c-0.06,0.02-0.13,0.04-0.19,0.05c-0.06,0.01-0.12,0.01-0.18,0.01h-43.54c-0.17,0-0.34-0.04-0.49-0.1
						c-0.29-0.13-0.5-0.36-0.55-0.64c0-0.02-0.01-0.04-0.01-0.06c0-0.01,0-0.03,0-0.04c0-0.02,0-0.03,0-0.04v-2.3
						c0-0.01,0-0.03,0-0.04c0-0.03,0-0.06,0.01-0.09c0.08-0.43,0.52-0.75,1.04-0.75h43.54c0.06,0,0.13,0,0.18,0.01
						c0.07,0.01,0.13,0.02,0.19,0.04c0.2,0.07,0.37,0.18,0.49,0.33C310.1,242.5,310.17,242.67,310.17,242.85z"/>
					<path class="st242" d="M288.79,246.03h-23.32c-0.16,0-0.3-0.04-0.43-0.1c-0.26-0.13-0.45-0.36-0.5-0.64
						c0-0.02-0.01-0.04-0.01-0.06c0-0.01,0-0.03,0-0.04c0-0.02,0-0.03,0-0.04v-2.3c0-0.01,0-0.03,0-0.04c0-0.03,0-0.06,0.01-0.09
						c0.01-0.03,0.01-0.06,0.02-0.09c0.11-0.38,0.47-0.66,0.9-0.66h20.46c0.32,1.16,1.05,2.76,2.72,3.96
						C288.7,245.96,288.74,246,288.79,246.03z"/>
					<g>
						<rect x="304.38" y="241.96" class="st242" width="0.49" height="4.06"/>
						<rect x="302.7" y="241.96" class="st242" width="0.49" height="4.06"/>
						<rect x="300.7" y="241.96" class="st242" width="0.49" height="4.06"/>
						<rect x="297.62" y="241.96" class="st242" width="0.5" height="4.06"/>
						<rect x="294.36" y="241.96" class="st242" width="0.49" height="4.06"/>
						<rect x="289.37" y="241.96" class="st242" width="0.49" height="4.06"/>
						<rect x="284.7" y="241.96" class="st242" width="0.49" height="4.06"/>
						<rect x="280.52" y="241.96" class="st242" width="0.49" height="4.06"/>
						<rect x="305.97" y="241.96" class="st242" width="0.49" height="4.06"/>
						<rect x="307.03" y="241.96" class="st242" width="0.49" height="4.06"/>
						<rect x="308.04" y="241.96" class="st242" width="0.49" height="4.06"/>
						<path class="st242" d="M309.3,241.98v4.04c-0.06,0.01-0.12,0.01-0.19,0.01h-0.31v-4.06h0.31
							C309.18,241.96,309.24,241.97,309.3,241.98z"/>
						<path class="st242" d="M309.99,242.36v3.28c-0.12,0.15-0.29,0.27-0.49,0.33v-3.95C309.7,242.09,309.87,242.21,309.99,242.36z"
							/>
					</g>
				</g>
				<g>
					<path class="st227" d="M311.21,238.79v2.29c0,0.18-0.07,0.35-0.18,0.49c-0.01,0.02-0.03,0.04-0.05,0.05
						c-0.08,0.09-0.19,0.16-0.3,0.22c-0.05,0.02-0.1,0.04-0.15,0.06c-0.06,0.02-0.13,0.04-0.19,0.04c-0.03,0-0.06,0.01-0.09,0.01
						c-0.03,0-0.06,0-0.1,0h-43.54c-0.53,0-0.97-0.33-1.04-0.75c0-0.03-0.01-0.06-0.01-0.09v-2.39c0.03-0.43,0.42-0.78,0.93-0.83
						c0.04,0,0.08-0.01,0.13-0.01h43.54c0.03,0,0.06,0,0.1,0c0.03,0,0.06,0.01,0.09,0.01c0.07,0.01,0.13,0.02,0.19,0.04
						c0.2,0.07,0.37,0.18,0.49,0.33C311.15,238.43,311.21,238.6,311.21,238.79z"/>
					<path class="st242" d="M289.84,241.97h-23.32c-0.43,0-0.8-0.28-0.9-0.66c-0.01-0.03-0.02-0.06-0.03-0.1
						c0-0.03-0.01-0.06-0.01-0.09v-2.39c0.02-0.43,0.38-0.78,0.83-0.83c0.04,0,0.07-0.01,0.11-0.01h20.46c0,0,0,0,0,0.01
						C287.3,239.1,288.06,240.75,289.84,241.97z"/>
					<g>
						<rect x="305.42" y="237.9" class="st242" width="0.49" height="4.06"/>
						<rect x="303.75" y="237.9" class="st242" width="0.49" height="4.06"/>
						<rect x="301.74" y="237.9" class="st242" width="0.49" height="4.06"/>
						<rect x="298.66" y="237.9" class="st242" width="0.49" height="4.06"/>
						<rect x="295.4" y="237.9" class="st242" width="0.49" height="4.06"/>
						<rect x="290.41" y="237.9" class="st242" width="0.49" height="4.06"/>
						<rect x="285.74" y="237.9" class="st242" width="0.5" height="4.06"/>
						<rect x="281.57" y="237.9" class="st242" width="0.5" height="4.06"/>
						<rect x="307.02" y="237.9" class="st242" width="0.49" height="4.06"/>
						<rect x="308.07" y="237.9" class="st242" width="0.49" height="4.06"/>
						<rect x="309.09" y="237.9" class="st242" width="0.49" height="4.06"/>
						<path class="st242" d="M310.35,237.91v4.04c-0.06,0.01-0.12,0.01-0.19,0.01h-0.31v-4.06h0.31
							C310.22,237.9,310.29,237.9,310.35,237.91z"/>
						<path class="st242" d="M311.03,238.29v3.28c-0.12,0.15-0.29,0.27-0.49,0.33v-3.95C310.74,238.03,310.91,238.14,311.03,238.29z
							"/>
					</g>
				</g>
				<g>
					<path class="st227" d="M308.01,234.73v2.29c0,0.18-0.07,0.35-0.18,0.49c-0.12,0.15-0.29,0.27-0.49,0.33
						c-0.06,0.02-0.13,0.04-0.19,0.04c-0.02,0-0.04,0.01-0.06,0.01h-0.01c-0.01,0-0.02,0-0.03,0c-0.01,0-0.02,0-0.03,0
						c-0.02,0-0.04,0-0.06,0h-43.54c-0.56,0-1.02-0.37-1.05-0.84c0-0.02,0-0.03,0-0.05v-2.29c0-0.02,0-0.03,0-0.05
						c0-0.01,0-0.02,0-0.04c0.04-0.37,0.37-0.68,0.79-0.77c0.01,0,0.02-0.01,0.03-0.01c0.07-0.01,0.15-0.02,0.23-0.02h43.54
						c0.03,0,0.06,0,0.09,0c0.01,0,0.03,0,0.04,0c0,0,0,0,0,0h0c0.02,0,0.03,0,0.05,0.01c0.07,0.01,0.13,0.02,0.19,0.04
						c0.2,0.07,0.38,0.18,0.49,0.33C307.95,234.37,308.01,234.54,308.01,234.73z"/>
					<path class="st242" d="M286.63,237.91h-23.32c-0.5,0-0.91-0.37-0.94-0.84c0-0.02,0-0.03,0-0.05v-2.29c0-0.02,0-0.03,0-0.05
						c0-0.01,0-0.02,0-0.04c0.04-0.38,0.34-0.7,0.73-0.78c0.01,0,0.03-0.01,0.04-0.01c0.05-0.01,0.11-0.01,0.17-0.01h20.46
						c0,0.01,0.01,0.02,0.01,0.03C284.11,235.06,284.87,236.7,286.63,237.91C286.63,237.9,286.63,237.9,286.63,237.91z"/>
					<g>
						<rect x="302.22" y="233.84" class="st242" width="0.49" height="4.06"/>
						<rect x="300.55" y="233.84" class="st242" width="0.49" height="4.06"/>
						<rect x="298.54" y="233.84" class="st242" width="0.49" height="4.06"/>
						<rect x="295.46" y="233.84" class="st242" width="0.49" height="4.06"/>
						<rect x="292.2" y="233.84" class="st242" width="0.5" height="4.06"/>
						<rect x="287.21" y="233.84" class="st242" width="0.49" height="4.06"/>
						<rect x="282.54" y="233.84" class="st242" width="0.49" height="4.06"/>
						<rect x="278.37" y="233.84" class="st242" width="0.49" height="4.06"/>
						<rect x="303.82" y="233.84" class="st242" width="0.49" height="4.06"/>
						<rect x="304.87" y="233.84" class="st242" width="0.49" height="4.06"/>
						<rect x="305.89" y="233.84" class="st242" width="0.49" height="4.06"/>
						<path class="st242" d="M307.15,233.86v4.04c-0.06,0.01-0.12,0.01-0.19,0.01h-0.31v-4.06h0.31
							C307.02,233.84,307.09,233.85,307.15,233.86z"/>
						<path class="st242" d="M307.83,234.23v3.28c-0.12,0.15-0.29,0.27-0.49,0.33v-3.95C307.54,233.97,307.71,234.08,307.83,234.23z
							"/>
					</g>
				</g>
				<g>
					<path class="st227" d="M307.92,230.69v2.29c0,0.18-0.07,0.35-0.18,0.49c-0.03,0.04-0.06,0.07-0.1,0.11
						c-0.11,0.1-0.24,0.18-0.4,0.23c-0.05,0.02-0.1,0.03-0.15,0.04h0c0,0,0,0,0,0c-0.01,0-0.03,0.01-0.04,0.01
						c-0.06,0.01-0.12,0.02-0.19,0.02h-43.54c-0.04,0-0.09,0-0.14-0.01c-0.02,0-0.04,0-0.05-0.01c-0.44-0.07-0.79-0.37-0.86-0.75
						c0-0.03-0.01-0.05-0.01-0.08c0-0.02,0-0.03,0-0.05v-2.29c0-0.02,0-0.03,0-0.05c0-0.03,0.01-0.06,0.01-0.09
						c0.08-0.42,0.52-0.75,1.04-0.75h43.54c0.03,0,0.06,0,0.08,0c0,0,0.01,0,0.01,0c0.01,0,0.02,0,0.02,0c0.01,0,0.03,0,0.04,0.01
						c0.01,0,0.02,0,0.03,0c0.07,0.01,0.13,0.02,0.19,0.04c0.04,0.01,0.07,0.03,0.11,0.04h0c0.14,0.06,0.25,0.14,0.35,0.24
						c0.01,0.01,0.03,0.03,0.04,0.04C307.86,230.34,307.92,230.51,307.92,230.69z"/>
					<path class="st242" d="M286.54,233.87h-23.32c-0.02,0-0.04,0-0.05,0c-0.02,0-0.04,0-0.06-0.01c-0.42-0.05-0.76-0.36-0.82-0.76
						c0-0.03-0.01-0.05-0.01-0.08c0-0.02,0-0.03,0-0.05v-2.29c0-0.02,0-0.03,0-0.05c0-0.03,0.01-0.06,0.01-0.09
						c0.01-0.03,0.02-0.07,0.03-0.1c0.11-0.38,0.47-0.66,0.9-0.66h20.46c0.01,0.03,0.02,0.07,0.03,0.1c0.34,1.18,1.1,2.76,2.79,3.93
						C286.51,233.85,286.53,233.86,286.54,233.87z"/>
					<g>
						<rect x="302.13" y="229.81" class="st242" width="0.49" height="4.06"/>
						<rect x="300.45" y="229.81" class="st242" width="0.49" height="4.06"/>
						<rect x="298.45" y="229.81" class="st242" width="0.49" height="4.06"/>
						<rect x="295.37" y="229.81" class="st242" width="0.49" height="4.06"/>
						<rect x="292.11" y="229.81" class="st242" width="0.49" height="4.06"/>
						<rect x="287.12" y="229.81" class="st242" width="0.49" height="4.06"/>
						<rect x="282.45" y="229.81" class="st242" width="0.49" height="4.06"/>
						<rect x="278.27" y="229.81" class="st242" width="0.49" height="4.06"/>
						<rect x="303.72" y="229.81" class="st242" width="0.49" height="4.06"/>
						<rect x="304.78" y="229.81" class="st242" width="0.49" height="4.06"/>
						<rect x="305.79" y="229.81" class="st242" width="0.49" height="4.06"/>
						<path class="st242" d="M307.05,229.82v4.04c-0.06,0.01-0.12,0.01-0.19,0.01h-0.31v-4.06h0.31
							C306.93,229.81,306.99,229.81,307.05,229.82z"/>
						<path class="st242" d="M307.74,230.2v3.28c-0.12,0.15-0.29,0.27-0.49,0.33v-3.95C307.45,229.93,307.62,230.05,307.74,230.2z"
							/>
					</g>
				</g>
				<g>
					<path class="st227" d="M310.17,226.73v2.29c0,0.18-0.07,0.35-0.18,0.5c-0.12,0.15-0.29,0.27-0.49,0.33
						c-0.06,0.02-0.13,0.04-0.19,0.04c-0.06,0.01-0.12,0.01-0.18,0.01h-43.54c-0.17,0-0.34-0.04-0.49-0.1
						c-0.29-0.13-0.5-0.36-0.55-0.64c0-0.02-0.01-0.04-0.01-0.06c0-0.01,0-0.03,0-0.04c0-0.02,0-0.03,0-0.05v-2.29
						c0-0.01,0-0.03,0-0.05c0-0.03,0-0.06,0.01-0.09c0.08-0.42,0.52-0.75,1.04-0.75h43.54c0.06,0,0.13,0.01,0.18,0.01
						c0.07,0.01,0.13,0.02,0.19,0.04c0.2,0.07,0.37,0.18,0.49,0.33C310.1,226.37,310.17,226.54,310.17,226.73z"/>
					<path class="st242" d="M288.79,229.91h-23.32c-0.16,0-0.3-0.04-0.43-0.1c-0.26-0.13-0.45-0.36-0.5-0.64
						c0-0.02-0.01-0.04-0.01-0.06c0-0.01,0-0.03,0-0.04c0-0.02,0-0.03,0-0.05v-2.29c0-0.01,0-0.03,0-0.05c0-0.03,0-0.06,0.01-0.09
						c0.01-0.03,0.01-0.06,0.02-0.09c0.11-0.38,0.47-0.66,0.9-0.66h20.46c0.32,1.16,1.05,2.76,2.72,3.96
						C288.7,229.84,288.74,229.87,288.79,229.91z"/>
					<g>
						<rect x="304.38" y="225.84" class="st242" width="0.49" height="4.06"/>
						<rect x="302.7" y="225.84" class="st242" width="0.49" height="4.06"/>
						<rect x="300.7" y="225.84" class="st242" width="0.49" height="4.06"/>
						<rect x="297.62" y="225.84" class="st242" width="0.5" height="4.06"/>
						<rect x="294.36" y="225.84" class="st242" width="0.49" height="4.06"/>
						<rect x="289.37" y="225.84" class="st242" width="0.49" height="4.06"/>
						<rect x="284.7" y="225.84" class="st242" width="0.49" height="4.06"/>
						<rect x="280.52" y="225.84" class="st242" width="0.49" height="4.06"/>
						<rect x="305.97" y="225.84" class="st242" width="0.49" height="4.06"/>
						<rect x="307.03" y="225.84" class="st242" width="0.49" height="4.06"/>
						<rect x="308.04" y="225.84" class="st242" width="0.49" height="4.06"/>
						<path class="st242" d="M309.3,225.86v4.04c-0.06,0.01-0.12,0.01-0.19,0.01h-0.31v-4.06h0.31
							C309.18,225.84,309.24,225.85,309.3,225.86z"/>
						<path class="st242" d="M309.99,226.23v3.28c-0.12,0.15-0.29,0.27-0.49,0.33v-3.95C309.7,225.97,309.87,226.08,309.99,226.23z"
							/>
					</g>
				</g>
				<g>
					<path class="st227" d="M313.73,222.66v2.3c0,0.18-0.07,0.35-0.18,0.49l0,0c-0.01,0.02-0.03,0.04-0.05,0.05
						c-0.07,0.07-0.14,0.13-0.23,0.18c-0.04,0.02-0.09,0.05-0.14,0.07c0,0,0,0,0,0c-0.02,0.01-0.05,0.02-0.07,0.03
						c-0.06,0.02-0.13,0.04-0.19,0.04c-0.06,0.01-0.12,0.01-0.19,0.01h-43.54c-0.52,0-0.96-0.33-1.04-0.75
						c-0.01-0.03-0.01-0.06-0.01-0.09c0-0.01,0-0.03,0-0.04v-2.3c0-0.02,0-0.03,0-0.04c0.03-0.43,0.42-0.78,0.93-0.83
						c0.04-0.01,0.08-0.01,0.12-0.01h43.54c0.06,0,0.13,0.01,0.19,0.01c0.07,0.01,0.13,0.03,0.19,0.05
						c0.18,0.06,0.33,0.15,0.45,0.28c0.02,0.02,0.03,0.04,0.05,0.05l0,0C313.66,222.31,313.73,222.48,313.73,222.66z"/>
					<path class="st242" d="M292.35,225.84h-23.33c-0.43,0-0.8-0.28-0.9-0.66c-0.01-0.03-0.02-0.06-0.02-0.09
						c-0.01-0.03-0.01-0.06-0.01-0.09c0-0.01,0-0.03,0-0.04v-2.3c0-0.02,0-0.03,0-0.04c0.02-0.43,0.38-0.78,0.83-0.83
						c0.04-0.01,0.07-0.01,0.11-0.01h20.46c0,0,0,0,0,0.01C289.82,222.98,290.58,224.63,292.35,225.84z"/>
					<g>
						<rect x="307.94" y="221.78" class="st242" width="0.49" height="4.06"/>
						<rect x="306.26" y="221.78" class="st242" width="0.49" height="4.06"/>
						<rect x="304.25" y="221.78" class="st242" width="0.49" height="4.06"/>
						<rect x="301.17" y="221.78" class="st242" width="0.49" height="4.06"/>
						<rect x="297.92" y="221.78" class="st242" width="0.49" height="4.06"/>
						<rect x="292.93" y="221.78" class="st242" width="0.49" height="4.06"/>
						<rect x="288.25" y="221.78" class="st242" width="0.49" height="4.06"/>
						<rect x="284.08" y="221.78" class="st242" width="0.49" height="4.06"/>
						<rect x="309.53" y="221.78" class="st242" width="0.49" height="4.06"/>
						<rect x="310.58" y="221.78" class="st242" width="0.49" height="4.06"/>
						<rect x="311.6" y="221.78" class="st242" width="0.49" height="4.06"/>
						<path class="st242" d="M312.86,221.79v4.04c-0.06,0.01-0.12,0.01-0.19,0.01h-0.31v-4.06h0.31
							C312.74,221.78,312.8,221.78,312.86,221.79z"/>
						<path class="st242" d="M313.55,222.17v3.28c-0.12,0.15-0.29,0.27-0.49,0.33v-3.95C313.26,221.9,313.43,222.02,313.55,222.17z"
							/>
					</g>
				</g>
				<g>
					<path class="st227" d="M308.01,218.6v2.29c0,0.18-0.07,0.35-0.18,0.49c-0.12,0.15-0.29,0.27-0.49,0.33
						c-0.06,0.02-0.13,0.04-0.19,0.04c-0.02,0-0.04,0.01-0.06,0.01h-0.01c-0.01,0-0.03,0-0.04,0c-0.01,0-0.02,0-0.02,0
						c-0.02,0-0.03,0-0.05,0h-43.54c-0.38,0-0.71-0.17-0.9-0.42c-0.09-0.12-0.15-0.27-0.16-0.42c0-0.02,0-0.03,0-0.05v-2.29
						c0-0.02,0-0.03,0-0.05c0.02-0.38,0.33-0.69,0.75-0.8c0.1-0.03,0.2-0.04,0.31-0.04h43.54c0.02,0,0.04,0,0.06,0
						c0.01,0,0.02,0,0.03,0c0.04,0,0.07,0.01,0.1,0.01c0.07,0.01,0.13,0.02,0.19,0.04c0.03,0.01,0.06,0.02,0.09,0.03h0
						c0.12,0.05,0.22,0.11,0.3,0.19c0,0,0,0,0,0.01c0,0,0.01,0.01,0.01,0.01c0.03,0.03,0.06,0.06,0.08,0.09
						C307.95,218.25,308.01,218.42,308.01,218.6z"/>
					<path class="st242" d="M286.63,221.78h-23.32c-0.33,0-0.62-0.16-0.79-0.4c-0.09-0.13-0.15-0.28-0.15-0.44c0-0.02,0-0.03,0-0.05
						v-2.29c0-0.02,0-0.03,0-0.05c0.02-0.41,0.34-0.74,0.75-0.82c0.06-0.01,0.13-0.02,0.19-0.02h20.46
						c0.01,0.03,0.02,0.06,0.03,0.09C284.14,219,284.9,220.6,286.63,221.78C286.63,221.78,286.63,221.78,286.63,221.78z"/>
					<g>
						<rect x="302.22" y="217.72" class="st242" width="0.49" height="4.06"/>
						<rect x="300.55" y="217.72" class="st242" width="0.49" height="4.06"/>
						<rect x="298.54" y="217.72" class="st242" width="0.49" height="4.06"/>
						<rect x="295.46" y="217.72" class="st242" width="0.49" height="4.06"/>
						<rect x="292.2" y="217.72" class="st242" width="0.5" height="4.06"/>
						<rect x="287.21" y="217.72" class="st242" width="0.49" height="4.06"/>
						<rect x="282.54" y="217.72" class="st242" width="0.49" height="4.06"/>
						<rect x="278.37" y="217.72" class="st242" width="0.49" height="4.06"/>
						<rect x="303.82" y="217.72" class="st242" width="0.49" height="4.06"/>
						<rect x="304.87" y="217.72" class="st242" width="0.49" height="4.06"/>
						<rect x="305.89" y="217.72" class="st242" width="0.49" height="4.06"/>
						<path class="st242" d="M307.15,217.73v4.04c-0.06,0.01-0.12,0.01-0.19,0.01h-0.31v-4.06h0.31
							C307.02,217.72,307.09,217.72,307.15,217.73z"/>
						<path class="st242" d="M307.83,218.11v3.28c-0.12,0.15-0.29,0.27-0.49,0.33v-3.95C307.54,217.84,307.71,217.96,307.83,218.11z
							"/>
					</g>
				</g>
				<g>
					<path class="st227" d="M311.21,214.63v2.3c0,0.18-0.07,0.35-0.18,0.49c-0.12,0.15-0.29,0.27-0.49,0.33
						c-0.06,0.02-0.13,0.04-0.19,0.05c-0.06,0.01-0.12,0.01-0.19,0.01h-43.54c-0.17,0-0.33-0.03-0.47-0.09
						c-0.32-0.13-0.54-0.4-0.58-0.71c0-0.01,0-0.02,0-0.04c0-0.02,0-0.03,0-0.05v-2.3c0-0.02,0-0.03,0-0.05
						c0.03-0.43,0.42-0.78,0.93-0.83c0.04,0,0.08-0.01,0.12-0.01h43.54c0.06,0,0.13,0,0.19,0.01c0.07,0.01,0.13,0.02,0.19,0.05
						c0.2,0.07,0.37,0.18,0.49,0.33C311.15,214.28,311.21,214.45,311.21,214.63z"/>
					<path class="st242" d="M289.84,217.81h-23.32c-0.15,0-0.29-0.03-0.42-0.09c-0.28-0.13-0.49-0.4-0.52-0.71c0-0.01,0-0.02,0-0.04
						c0-0.02,0-0.03,0-0.05v-2.3c0-0.02,0-0.03,0-0.05c0.02-0.43,0.38-0.78,0.83-0.83c0.04,0,0.07-0.01,0.11-0.01h20.46
						c0,0,0,0,0,0.01c0.32,1.17,1.05,2.76,2.73,3.96C289.75,217.75,289.79,217.78,289.84,217.81z"/>
					<g>
						<rect x="305.42" y="213.75" class="st242" width="0.49" height="4.06"/>
						<rect x="303.75" y="213.75" class="st242" width="0.49" height="4.06"/>
						<rect x="301.74" y="213.75" class="st242" width="0.49" height="4.06"/>
						<rect x="298.66" y="213.75" class="st242" width="0.49" height="4.06"/>
						<rect x="295.4" y="213.75" class="st242" width="0.49" height="4.06"/>
						<rect x="290.41" y="213.75" class="st242" width="0.49" height="4.06"/>
						<rect x="285.74" y="213.75" class="st242" width="0.5" height="4.06"/>
						<rect x="281.57" y="213.75" class="st242" width="0.5" height="4.06"/>
						<rect x="307.02" y="213.75" class="st242" width="0.49" height="4.06"/>
						<rect x="308.07" y="213.75" class="st242" width="0.49" height="4.06"/>
						<rect x="309.09" y="213.75" class="st242" width="0.49" height="4.06"/>
						<path class="st242" d="M310.35,213.76v4.04c-0.06,0.01-0.12,0.01-0.19,0.01h-0.31v-4.06h0.31
							C310.22,213.75,310.29,213.75,310.35,213.76z"/>
						<path class="st242" d="M311.03,214.14v3.28c-0.12,0.15-0.29,0.27-0.49,0.33v-3.95C310.74,213.87,310.91,213.99,311.03,214.14z
							"/>
					</g>
				</g>
				<g>
					<path class="st227" d="M312.58,210.58v2.3c0,0.18-0.07,0.35-0.18,0.49c-0.12,0.15-0.29,0.27-0.49,0.33
						c-0.06,0.02-0.13,0.04-0.19,0.05c-0.02,0-0.04,0.01-0.06,0.01c-0.01,0-0.02,0-0.03,0c-0.01,0-0.02,0-0.03,0
						c-0.02,0-0.04,0-0.06,0h-43.54c-0.56,0-1.02-0.37-1.05-0.84c0-0.02,0-0.03,0-0.05v-2.3c0-0.02,0-0.03,0-0.05
						c0.03-0.47,0.49-0.84,1.05-0.84h43.54c0.06,0,0.13,0,0.19,0.01c0.07,0.01,0.13,0.02,0.19,0.05c0.2,0.07,0.37,0.18,0.49,0.33
						C312.51,210.22,312.58,210.39,312.58,210.58z"/>
					<path class="st242" d="M291.2,213.76h-23.32c-0.5,0-0.91-0.37-0.94-0.84c0-0.02,0-0.03,0-0.05v-2.3c0-0.02,0-0.03,0-0.05
						c0.03-0.47,0.44-0.84,0.94-0.84h20.46C288.66,210.89,289.42,212.54,291.2,213.76C291.19,213.75,291.2,213.75,291.2,213.76z"/>
					<g>
						<rect x="306.78" y="209.69" class="st242" width="0.49" height="4.06"/>
						<rect x="305.11" y="209.69" class="st242" width="0.49" height="4.06"/>
						<rect x="303.1" y="209.69" class="st242" width="0.49" height="4.06"/>
						<rect x="300.02" y="209.69" class="st242" width="0.49" height="4.06"/>
						<rect x="296.77" y="209.69" class="st242" width="0.49" height="4.06"/>
						<rect x="291.78" y="209.69" class="st242" width="0.49" height="4.06"/>
						<rect x="287.1" y="209.69" class="st242" width="0.49" height="4.06"/>
						<rect x="282.93" y="209.69" class="st242" width="0.49" height="4.06"/>
						<rect x="308.38" y="209.69" class="st242" width="0.49" height="4.06"/>
						<rect x="309.43" y="209.69" class="st242" width="0.49" height="4.06"/>
						<rect x="310.45" y="209.69" class="st242" width="0.49" height="4.06"/>
						<path class="st242" d="M311.71,209.7v4.04c-0.06,0.01-0.12,0.01-0.19,0.01h-0.31v-4.06h0.31
							C311.59,209.69,311.65,209.7,311.71,209.7z"/>
						<path class="st242" d="M312.4,210.08v3.28c-0.12,0.15-0.29,0.27-0.49,0.33v-3.95C312.1,209.82,312.28,209.93,312.4,210.08z"/>
					</g>
				</g>
			</g>
			<g>
				<path class="st7" d="M298.78,186.53c0,0-2.29,3.22-4.38,3.26c-2.1,0.04-5.29-1.49-5.29-1.49s-1.92-4.29-0.62-5.97
					c0,0,1.31-0.57,2.68,0.44c0.23,0.18,0.47,0.4,0.71,0.68c0.33,0.4,0.71,0.63,1.1,0.75c1.5,0.46,3.27-0.62,3.94,0.42
					c0.39,0.6,0.81,1.05,1.16,1.37C298.48,186.35,298.78,186.53,298.78,186.53z"/>
				<path class="st7" d="M268.96,209.75c0,0,8.08-19.58,22.63-19.96c0,0,13.43,1.49,14.18,19.96H268.96z"/>
				<path class="st11" d="M287.61,190.39c0,0,5.83,1.3,7.63,0.53c0,0,0.27-2.44-2.18-2.1c-1.68,0.23-2.78-0.57-3.42-0.9
					C288.73,187.46,287.37,189.37,287.61,190.39z"/>
				<path class="st11" d="M292.68,186.72c-0.37,0.28-1.52-3.94-1.52-3.94c0.23,0.18,0.47,0.4,0.71,0.68c0.33,0.4,0.71,0.63,1.1,0.75
					C292.98,184.32,293.05,186.44,292.68,186.72z"/>
				<path class="st11" d="M298.07,185.98c-0.08,0.05-2.78,1.66-3.14,1.66c-0.37,0,1.99-3.03,1.99-3.03
					C297.3,185.22,297.72,185.67,298.07,185.98z"/>
				<path class="st11" d="M276.86,204.28c-0.15-0.13,5.72-8.64,7.34-8.7c1.62-0.06,5.25,1.87,7.88,2.11
					c2.63,0.25,5.18-0.5,5.68,1.06c0.5,1.55,1.87,7.06,1.03,7.95C297.94,207.57,280.09,207.04,276.86,204.28z"/>
			</g>
		</g>
		<path class="st243" d="M282.39,233.84c0,0.01,0,0.02,0,0.03c-0.08,1.36-0.29,2.71-0.65,4.03c0,0,0,0,0,0.01
			c-0.05,0.19-0.11,0.38-0.16,0.57c-0.36,1.2-0.84,2.37-1.43,3.49c-0.74,1.41-1.66,2.74-2.73,3.96c-0.03,0.03-0.06,0.07-0.09,0.1
			c-1.35,1.51-2.95,2.85-4.78,3.96c-0.39,0.24-0.78,0.46-1.19,0.67c-0.27,0.14-0.55,0.28-0.83,0.41c-0.27,0.15-0.55,0.29-0.81,0.45
			c-0.77,0.47-1.72,0.84-2.77,1.14v-1.79c0-0.01,0-0.03,0-0.04c0-0.03,0.01-0.06,0.01-0.09c0.01-0.03,0.02-0.07,0.03-0.1
			c0.11-0.38,0.47-0.65,0.9-0.65h-4.66c-0.43,0-0.8-0.28-0.9-0.66c-0.01-0.03-0.02-0.06-0.03-0.1c0-0.03-0.01-0.06-0.01-0.09
			c0-0.02,0-0.03,0-0.05v-2.29c0-0.01,0-0.03,0-0.05c0-0.03,0.01-0.06,0.01-0.09c0.01-0.03,0.02-0.07,0.03-0.1
			c0.11-0.38,0.47-0.66,0.9-0.66h1.82c-0.26-0.13-0.45-0.36-0.5-0.64c0-0.02-0.01-0.04-0.01-0.06c0-0.01,0-0.03,0-0.04
			c0-0.02,0-0.03,0-0.04v-2.3c0-0.01,0-0.03,0-0.04c0-0.03,0-0.06,0.01-0.09c0.01-0.03,0.01-0.06,0.02-0.09
			c0.11-0.38,0.47-0.66,0.9-0.66h1.04c-0.43,0-0.8-0.28-0.9-0.66c-0.01-0.03-0.02-0.06-0.03-0.1c0-0.03-0.01-0.06-0.01-0.09v-2.39
			c0.02-0.43,0.38-0.78,0.83-0.83h-3.09c-0.5,0-0.91-0.37-0.94-0.84c0-0.02,0-0.03,0-0.05v-2.29c0-0.02,0-0.03,0-0.05
			c0-0.01,0-0.02,0-0.04c0.04-0.38,0.34-0.7,0.73-0.78c-0.42-0.05-0.76-0.36-0.82-0.76c0-0.03-0.01-0.05-0.01-0.08
			c0-0.02,0-0.03,0-0.05v-2.29c0-0.02,0-0.03,0-0.05c0-0.03,0.01-0.06,0.01-0.09c0.01-0.03,0.02-0.07,0.03-0.1
			c0.11-0.38,0.47-0.66,0.9-0.66h1.82c-0.26-0.13-0.45-0.36-0.5-0.64c0-0.02-0.01-0.04-0.01-0.06c0-0.01,0-0.03,0-0.04
			c0-0.02,0-0.03,0-0.05v-2.29c0-0.01,0-0.03,0-0.05c0-0.03,0-0.06,0.01-0.09c0.01-0.03,0.01-0.06,0.02-0.09
			c0.11-0.38,0.47-0.66,0.9-0.66h3.56c-0.43,0-0.8-0.28-0.9-0.66c-0.01-0.03-0.02-0.06-0.02-0.09c-0.01-0.03-0.01-0.06-0.01-0.09
			c0-0.01,0-0.03,0-0.04v-2.3c0-0.02,0-0.03,0-0.04c0.02-0.43,0.38-0.78,0.83-0.83h-5.6c-0.33,0-0.62-0.16-0.79-0.4l0-0.02l0.59-3.6
			l0-0.02l0.84-5.14c0.98,0.13,1.94,0.32,2.88,0.58c0.06,0.02,0.11,0.03,0.17,0.04c0,0,0.01,0,0.01,0c0.55,0.15,1.09,0.33,1.63,0.52
			c0.01,0,0.01,0,0.02,0.01c2.47,0.9,4.77,2.23,6.76,3.96c0.04,0.03,0.07,0.06,0.1,0.09c1.04,0.91,1.99,1.93,2.83,3.05
			c0.17,0.22,0.33,0.45,0.49,0.68c0.05,0.08,0.11,0.15,0.16,0.23c0,0,0,0,0,0.01c0.26,0.38,0.5,0.77,0.73,1.17
			c0.55,0.94,1,1.91,1.38,2.89c0.5,1.3,0.85,2.63,1.06,3.96c0.01,0.03,0.01,0.07,0.02,0.1C282.4,231.22,282.46,232.54,282.39,233.84
			z"/>
		<g>
			<path class="st228" d="M237.42,242.08c-5.71-10.36-1.94-23.38,8.42-29.09c10.36-5.71,23.38-1.94,29.09,8.42
				c5.71,10.36,1.94,23.38-8.42,29.09C256.15,256.21,243.13,252.44,237.42,242.08z"/>
			<path class="st227" d="M265.68,250.93c-0.26,0.16-0.53,0.32-0.8,0.47c-0.09,0.05-0.18,0.1-0.28,0.15
				c-0.21,0.11-0.42,0.22-0.63,0.33c-10.2,5.01-22.64,1.16-28.18-8.89c-5.29-9.59-2.45-21.47,6.23-27.71
				c0.69-0.5,1.42-0.96,2.19-1.38c0.27-0.15,0.55-0.3,0.83-0.43c0.27-0.13,0.54-0.26,0.82-0.38c0.84-0.37,1.69-0.69,2.55-0.95
				c1.28-0.39,2.58-0.64,3.88-0.78c4.03-0.43,8.09,0.31,11.69,2.07c3.82,1.87,7.12,4.89,9.33,8.89
				C278.85,232.39,275.42,245.01,265.68,250.93z"/>
			<g>
				<path class="st242" d="M254.68,252.06c-1.79,0-3.59-0.25-5.36-0.76c-4.92-1.42-9-4.68-11.47-9.17
					c-2.47-4.49-3.05-9.67-1.63-14.6c1.42-4.92,4.68-9,9.17-11.47c9.27-5.11,20.96-1.72,26.07,7.54c5.11,9.27,1.72,20.96-7.54,26.07
					C261.04,251.26,257.88,252.06,254.68,252.06z M254.62,214.2c-3.05,0-6.13,0.75-8.98,2.32c-4.37,2.41-7.54,6.37-8.92,11.16
					c-1.39,4.79-0.82,9.83,1.58,14.2c2.41,4.37,6.37,7.54,11.16,8.92c4.79,1.39,9.83,0.82,14.2-1.58
					c9.02-4.97,12.31-16.35,7.34-25.36C267.61,217.69,261.21,214.2,254.62,214.2z"/>
			</g>
			<g>
				<path class="st242" d="M264.09,234.73c-0.04-0.11-0.09-0.21-0.13-0.31c-0.35-0.76-0.78-1.38-1.3-1.86
					c-0.59-0.53-1.27-0.94-2.04-1.2c-0.78-0.27-1.64-0.43-2.6-0.49c-0.96-0.06-2-0.07-3.12-0.04c-0.69,0.02-1.29,0.01-1.78-0.04
					c-0.49-0.04-0.91-0.14-1.25-0.27c-0.34-0.14-0.62-0.33-0.84-0.57c-0.21-0.24-0.39-0.53-0.53-0.88
					c-0.14-0.35-0.22-0.69-0.24-1.03c-0.02-0.34,0.03-0.66,0.15-0.97c0.12-0.31,0.32-0.59,0.6-0.85c0.28-0.26,0.64-0.48,1.09-0.66
					c0.84-0.34,1.62-0.33,2.34,0.02c0.72,0.35,1.31,1.09,1.77,2.21l4.36-1.77c-0.38-0.93-0.86-1.72-1.43-2.37
					c-0.57-0.64-1.22-1.14-1.93-1.49c-0.72-0.35-1.5-0.56-2.34-0.62c-0.84-0.06-1.72,0.03-2.63,0.27l-1.24-3.04l-2.41,0.98l1.22,3
					c-0.87,0.45-1.61,0.98-2.22,1.58c-0.61,0.6-1.07,1.25-1.4,1.95c-0.33,0.7-0.5,1.43-0.51,2.2c-0.02,0.77,0.14,1.55,0.46,2.34
					c0.37,0.92,0.85,1.64,1.44,2.18c0.59,0.53,1.27,0.93,2.04,1.2c0.77,0.26,1.64,0.42,2.6,0.47c0.96,0.05,2,0.05,3.13,0
					c0.65-0.04,1.22-0.03,1.7,0.01c0.48,0.04,0.9,0.14,1.25,0.28c0.35,0.14,0.64,0.34,0.87,0.59c0.23,0.25,0.43,0.58,0.59,0.97
					c0.14,0.35,0.21,0.69,0.21,1.03c0,0.34-0.08,0.67-0.23,0.98c-0.15,0.31-0.39,0.6-0.69,0.87c-0.31,0.27-0.7,0.5-1.17,0.69
					c-0.41,0.17-0.84,0.28-1.28,0.33c-0.44,0.05-0.87,0.01-1.29-0.13c-0.42-0.14-0.81-0.39-1.18-0.76
					c-0.37-0.37-0.69-0.88-0.95-1.55l-4.36,1.77c0.45,1.12,1.03,2.01,1.72,2.67c0.69,0.66,1.44,1.13,2.26,1.41
					c0.82,0.28,1.67,0.41,2.57,0.37c0.89-0.04,1.78-0.18,2.65-0.44l1.13,2.78l2.4-0.97l-1.13-2.79c0.87-0.45,1.62-0.97,2.24-1.56
					c0.58-0.55,1.03-1.13,1.35-1.76c0.03-0.05,0.05-0.1,0.08-0.15c0.33-0.69,0.51-1.42,0.53-2.19
					C264.58,236.35,264.43,235.55,264.09,234.73z"/>
			</g>
		</g>
	</g>
	<g>
		<g>
			<path class="st13" d="M320.46,153.61c-19.17,15.61-42.14,27.61-68.27,35.67c-21.22,6.54-44.74,10.55-69.9,11.92
				c-6.86,0.37-13.54,0.53-19.97,0.53c-13,0-25-0.66-35.45-1.58l4.23-20.01c14.41,1.17,31.62,1.79,50.21,0.78
				c23.67-1.28,45.72-5.03,65.53-11.13c23.83-7.35,44.68-18.2,61.95-32.27L320.46,153.61z"/>
		</g>
	</g>
	<g>
		<path class="st3" d="M177.5,113.72c-2.67-1.38-4.8-0.51-4.8-0.51c-8.16-0.96-10.54,8.56-10.43,11.83
			c0.11,3.27,0.48,6.79-3.16,11.04c-10.52,12.28,11.52,12.83,11.52,12.83c0.19-9.81,11.95-6.23,11.44-5.24
			C197.15,147.28,183.56,116.86,177.5,113.72z"/>
		<path class="st173" d="M146.03,154.63c0,0-1.43-2.18-2.59-2.23c-1.16-0.04-3.3-0.64-3.13-0.21c0.17,0.43,1.5,0.47,1.63,0.73
			c0.13,0.26-1.97,0.64-2.57,0.69c-0.6,0.04-2.01,0-1.97,0.3c0.04,0.3,2.55,1.54,4.31,1.37c1.77-0.17,3.95,0.51,3.95,0.51
			L146.03,154.63z"/>
		<path class="st242" d="M166.78,155.34c0,0-0.78,1.54-2.19,3.32c-1.7,2.14-4.33,4.6-7.63,5.09c-1.58,0.23-3.12-0.11-4.53-0.74
			c0,0-0.01,0-0.01,0c-4.01-1.78-7.02-5.87-7.02-5.87c-0.71-1.93,0.45-3.23,0.45-3.23s8.09,1.82,8.86,1.43
			c0.77-0.39,5.27-13.34,6.34-14.97c1.07-1.63,4.72-2.47,4.72-2.47L166.78,155.34z"/>
		<path class="st58" d="M164.59,158.66c-1.7,2.14-4.33,4.6-7.63,5.09c-1.58,0.23-3.12-0.11-4.53-0.74c0.16,0.02,4.16,0.52,5.76-2.34
			c1.63-2.91,3.39-7.54,5.81-6C165.02,155.34,164.98,156.99,164.59,158.66z"/>
		<path class="st17" d="M196.98,242.7c0,0,2.47,2.25,1.99,3.86c-0.48,1.6-2.71,2.67-3.01,4.63c-0.3,1.96-1.51,3.02-2.59,3.02
			c-1.08,0-5.17,0-5.17,0s-0.8-1.38,1.13-1.79c1.93-0.42,2.65-2.71,2.53-4.85c-0.12-2.14,0.18-4.98,0.18-4.98l4.1-0.95L196.98,242.7
			z"/>
		<path class="st17" d="M176.07,243.66c0,0,0.89,9.55-0.2,10.08L162,253.71c0,0,0-1.6,2.23-1.96c2.23-0.36,6.14-1.66,6.81-4.57
			C171.7,244.28,176.07,243.66,176.07,243.66z"/>
		<path class="st173" d="M185.96,175.16c-2.86-6.4-4.6-8.24-4.27-10.23c0.25-1.48-0.76-27.58-0.76-27.58
			c-0.34-0.1-1.02-0.2-1.39-0.28c-1.17-0.26-2.14-1.08-2.54-2.21c-0.49-1.36-0.87-3.37-0.86-5.89l-0.37,0.07l-6.15,1.22
			c0,0,0.14,1.94,0.14,3.76c0,0.02,0,0.03,0,0.05c0.01,1.58-1.03,2.98-2.55,3.42c-0.78,0.22-1.45,0.42-1.45,0.42
			s-2.26,6.45-2.69,13.07c-0.43,6.62,4.11,9.5-0.03,22.74C158.81,187.23,187.54,178.7,185.96,175.16z"/>
		<path class="st174" d="M169.62,130.26c0,0,0.14,1.94,0.14,3.76c3.44-0.1,5.26-3.24,6.01-4.98L169.62,130.26z"/>
		<path class="st173" d="M168.47,131.99c0,0,8.14,0.13,8.15-4.94c0.01-5.07,1.06-8.47-4.14-8.77c-5.2-0.3-6.21,1.63-6.62,3.33
			C165.45,123.3,166.36,131.82,168.47,131.99z"/>
		<path class="st3" d="M168.78,118.15c0,0,2.23,5.95,5.65,6.83c3.42,0.88,4.91-0.04,4.91-0.04s-2.62-2.08-3.17-5.72
			C176.16,119.22,170.46,115.32,168.78,118.15z"/>
		<path class="st3" d="M169.33,118.64c0,0-1.65,0.62-2.33,1.82c-0.67,1.18-1.23,2.74-1.1,4.66c0,0-1.68-4.04,0.21-6.33
			C168.1,116.36,169.33,118.64,169.33,118.64z"/>
		<path class="st242" d="M186.75,148.9c0,0,0.21,2.92,0,6.41c-0.14,2.32-2.48,5.42-2.82,6.19c-0.84,1.93-1.78,2.24-1.78,2.24
			l-7.29,1.79l-2.56,0.63l-8.08-2.41c0,0-3.68-10.27-2.2-16.05c1.48-5.78,3.73-9.8,3.73-9.8s6.59,6.45,15.17-0.55L186.75,148.9z"/>
		<path class="st3" d="M164.74,165.31c0,0-4,12.45-4.26,16.69c-0.26,4.24,7.65,60.22,7.97,62.18c0.3,1.84,2.59,3.02,2.59,3.02
			s1.05,0.62,2.55,0.2c2.08-0.59,2.74-1.29,2.74-1.29s3.11-39.93,1.19-54.19c-1.93-14.26-1.95-26.6-1.95-26.6H164.74z"/>
		<path class="st3" d="M181.69,164.93c0,0,6.1,8.19,6.67,13.72c0.57,5.53,0.89,24.98,2.1,30.37c1.21,5.4,5.66,15.78,5.66,32.61
			c0,0-0.46,0.96-1.89,1.48c-0.46,0.16-1.07,0.32-1.66,0.46c-1.18,0.27-2.39-0.31-2.93-1.39c-3.01-6.06-12.6-25.61-13.09-29.67
			c-0.35-2.87-3.38-21.88-9.98-33.03c-1.59-2.68,0.97-13.33,0.97-13.33L181.69,164.93z"/>
		<path class="st233" d="M181.69,164.93c0,0,6.1,8.19,6.67,13.72c0.57,5.53,0.89,24.98,2.1,30.37c1.21,5.4,5.66,15.78,5.66,32.61
			c0,0-0.46,0.96-1.89,1.48c-0.46,0.16-1.07,0.32-1.66,0.46c-1.18,0.27-2.39-0.31-2.93-1.39c-3.01-6.06-12.6-25.61-13.09-29.67
			c-0.35-2.87-3.38-21.88-9.98-33.03c-1.59-2.68,0.97-13.33,0.97-13.33L181.69,164.93z"/>
		<path class="st3" d="M164.1,163.38c0,0,1.61,1.27,4.8,1.33c3.81,0.08,13.25-0.97,13.25-0.97s0.42,1.17,0.4,2.41
			c0,0-11.53,2.91-18.21,0.42C164.34,166.58,163.48,164.96,164.1,163.38z"/>
		<g>
			<path class="st9" d="M167.99,168c-0.96,0-1.74-0.88-1.74-1.97c0-1.09,0.78-1.97,1.74-1.97c0.96,0,1.74,0.88,1.74,1.97
				C169.73,167.12,168.95,168,167.99,168z M167.99,164.64c-0.64,0-1.16,0.62-1.16,1.39c0,0.77,0.52,1.39,1.16,1.39
				c0.64,0,1.16-0.62,1.16-1.39C169.15,165.27,168.63,164.64,167.99,164.64z"/>
		</g>
		
			<rect x="173.79" y="151.97" transform="matrix(0.7542 -0.6567 0.6567 0.7542 -62.1897 159.2667)" class="st17" width="15.67" height="21.45"/>
		<path class="st173" d="M179.49,165.67c0,0-4.33,0.51-4.32,1.53c0.01,1.03,1.08,3.14,1.61,3.23c0.53,0.09,3.52-2.86,3.52-2.86
			L179.49,165.67z"/>
		<path class="st242" d="M180.94,137.35c0,0,5.78,0.41,8,5.79c2.22,5.39,6.42,14.43,6.42,15.95c0,1.52-2.35,6.21-14.96,8.91
			c0,0-1.3-1.37-1.23-2.46c0,0,7.87-6.76,7.85-7.55c-0.04-1.49-1.29-3.47-8.2-10.38C176.94,145.73,180.94,137.35,180.94,137.35z"/>
	</g>
	<g>
		<g>
			<g>
				<g>
					<path class="st17" d="M55.91,254.2h-0.06c-0.34,0-0.61-0.28-0.6-0.61l0.91-39.39l2.68-0.31l-2.28,39.71
						C56.54,253.93,56.25,254.2,55.91,254.2z"/>
				</g>
				<g>
					<path class="st17" d="M98.96,254.2h0.06c0.34,0,0.61-0.28,0.6-0.61l-0.91-39.39l-2.68-0.31l2.28,39.71
						C98.34,253.93,98.62,254.2,98.96,254.2z"/>
				</g>
				<path class="st7" d="M54.14,211.75v-27c0-4.75,3.85-8.6,8.6-8.6h19.45c4.75,0,8.6,3.85,8.6,8.6v28.03L54.14,211.75z"/>
				<path class="st7" d="M94.27,216.01H56.72c-1.43,0-2.58-1.16-2.58-2.58v-1.68h40.14V216.01z"/>
				<path class="st244" d="M94.27,216.01H56.72c-1.43,0-2.58-1.16-2.58-2.58v-1.68h40.14V216.01z"/>
				<path class="st17" d="M98.77,216.01H70.36c-1.05,0-1.91-0.86-1.91-1.91v-0.44c0-1.05,0.86-1.91,1.91-1.91h28.41
					c1.05,0,1.91,0.86,1.91,1.91v0.44C100.68,215.15,99.83,216.01,98.77,216.01z"/>
			</g>
			<g>
				<path class="st27" d="M97.67,205.02c-2.79,4.85-6.29,6.72-6.29,6.72H76.8C76.8,211.74,99.79,201.32,97.67,205.02z"/>
				<g>
					<path class="st173" d="M86.47,242.54c-0.38,0.44-0.43,0.92-0.24,1.44c0,0,0,0.01,0,0.01c0.35,0.96,1.5,2.03,2.83,3.11
						c0.17,0.14,0.32,0.26,0.45,0.38c0.03,0.03,0.07,0.06,0.1,0.09c0.03,0.02,0.05,0.05,0.08,0.07c1.24,1.15,0.78,1.41,3.01,3.74
						c2.55,2.65,4.3,2.7,4.8,2.46c0.42-0.21-0.44-1.61-1.39-3.19c-0.05-0.08-0.09-0.15-0.14-0.23c-0.13-0.21-0.25-0.42-0.38-0.63
						c-1.11-1.9-0.83-2.8-0.56-5.63c0.21-2.3,3.58-12.86,3.58-12.86l-4.89-0.84c0,0-1.47,8.41-3.09,9.7
						c-0.87,0.69-1.84,0.7-2.67,1.21c-0.06,0.04-0.12,0.07-0.17,0.11C87.33,241.78,86.85,242.1,86.47,242.54z"/>
					<path class="st7" d="M86.47,242.54c-0.38,0.44-0.43,0.92-0.24,1.44c0,0,0,0.01,0,0.01c0.43,0.96,1.55,2.03,2.84,3.1
						c0.17,0.14,0.32,0.27,0.45,0.39c0.03,0.03,0.07,0.06,0.1,0.09c0.03,0.02,0.05,0.05,0.08,0.07c1.24,1.15,0.78,1.41,3.01,3.74
						c2.55,2.65,4.3,2.7,4.8,2.46c0.42-0.21-0.44-1.61-1.39-3.19c-0.5-0.18-2.8-1.12-4.54-3.35c-1.53-1.96-2.56-4.48-3.6-5.93
						c-0.06,0.04-0.12,0.07-0.17,0.11C87.33,241.78,86.85,242.1,86.47,242.54z"/>
					<path class="st173" d="M125.86,239.49c0.3,1.51,2.45,1.26,4.85,0.67c2.4-0.59,1.83,0.11,5.25-0.27
						c3.42-0.38,4.45-1.65,4.56-2.16c0.09-0.45-1.6-0.61-3.41-0.82c-0.23-0.03-0.46-0.05-0.69-0.08c-2.05-0.26-3.54-1.58-5.4-2.66
						c-1.76-1.03-4.39-5.21-4.39-5.21l-4.69,0.37c0,0,2.46,3.74,3.41,5.36c0.56,0.96,0.53,2.22,0.46,3.19
						C125.79,238.42,125.75,238.96,125.86,239.49z"/>
					<path class="st7" d="M130.71,240.16c2.4-0.59,1.83,0.11,5.25-0.27c3.42-0.38,4.45-1.65,4.56-2.16c0.09-0.45-1.6-0.61-3.41-0.82
						l-0.02,0.03c0,0-2.05,1.45-4.89,1.52c-2.32,0.06-4.77-0.61-6.38-0.58c-0.04,0.53-0.07,1.07,0.04,1.6
						C126.16,241,128.31,240.75,130.71,240.16z"/>
					<path class="st27" d="M107.9,209.52l-4.38,11.79L97.8,236.7c0,0-1.55,0.15-3.04-0.28c-1.37-0.4-2.94-1.43-2.94-1.43
						s1.59-16.53,4.55-26.02c0.76-2.44,1.61-4.41,2.55-5.51C103.51,198.03,107.9,209.52,107.9,209.52z"/>
					<path class="st11" d="M103.44,190.79c-2.87-0.93-11.06,0.26-19.28,1.87l-1.72-2.84l-17.76-1.39c0,0-5.86,13-2.65,21.28
						c0.47,1.22,1.41,2,3.01,2.02c0,0,0.26,0,0.26,0c0,0,10.57-0.01,14.01-0.01c8.83,0,18.7-6.07,19.97-6.33
						c2.09-0.42,2.92,3.76,5.01,8.14c2.09,4.38,19.63,19.42,19.63,19.42s2.7,0.03,3.81-0.39c1.2-0.45,1.64-1.03,1.64-1.03
						S109.92,192.88,103.44,190.79z"/>
					<path class="st3" d="M81.74,138.1c-2.28-1.19-5.74-1.36-6.3-1.43c-6.73-0.9-10.78,8.88-11.02,11.84
						c-0.44,5.46-3.33,6.3-7.4,9.72c-8.16,6.86-5.76,14.83-1.3,17.79c2.68,1.78,7.39,0,7.39,0c0.07,0.05,12.9-7.17,19.23-10.66
						C91.82,164.02,87.54,141.15,81.74,138.1z"/>
					<path class="st173" d="M77.03,162.4c0.03,0.02-3.11,1.09-5.21,0.16c-1.98-0.87-3.47-4.12-3.44-4.12
						c0.9-0.04,1.89-0.83,2.64-5.98l0.38,0.14l6.43,2.31c0,0-0.47,2.06-0.77,4.03C76.82,160.59,76.68,162.17,77.03,162.4z"/>
					<path class="st177" d="M77.84,154.91c0,0-0.47,2.06-0.77,4.03c-3.7-0.67-5.15-4.35-5.67-6.34L77.84,154.91z"/>
					<path class="st173" d="M78.8,156.95c0,0-8.8-1.18-7.98-6.65c0.82-5.47,0.24-9.31,5.89-8.78c5.65,0.52,6.43,2.77,6.6,4.67
						C83.48,148.08,81.11,157.12,78.8,156.95z"/>
					<path class="st3" d="M82.99,143.19c0,0-5.63,4.86-9.47,5.25c-3.83,0.39-5.28-0.84-5.28-0.84s2.26-1.88,3.62-4.9
						c0.4-0.89,1.25-1.5,2.22-1.59C76.81,140.87,82,140.76,82.99,143.19z"/>
					<path class="st3" d="M79.47,142.75c0,0,1.89,1.82,2.48,3.17c0.57,1.3,0.74,4.42,0.29,5.66c0,0,2.94-5.71,1.27-8.49
						C81.74,140.16,79.47,142.75,79.47,142.75z"/>
					<path class="st13" d="M84.45,175.37c-0.27,17.82-0.07,14.09-2.02,15.79c-0.47,0.41-1.79,0.65-3.53,0.76
						c-5.46,0.36-15.07-0.54-15.43-1.55c-1.26-3.49-0.37-4.58-1.42-9.93c-0.11-0.57-0.25-1.18-0.4-1.86
						c-0.88-3.67-1.73-4.92,1.38-10.83c2.82-5.35,5.75-9.69,6.01-9.53c7.44,4.42,8.04,0.7,8.04,0.7S84.58,166.67,84.45,175.37z"/>
					<path class="st11" d="M103.52,221.31L97.8,236.7c0,0-1.55,0.15-3.04-0.28c-1.37-0.4-2.94-1.43-2.94-1.43s1.59-16.53,4.55-26.02
						L103.52,221.31z"/>
					<path class="st13" d="M77.07,158.93c0,0,7.66,1.3,8.56,4.59c0.9,3.3,6.19,22.68,6.19,22.68s-3.89,0.7-5.69-1.1
						c-1.8-1.8-6.26-16.68-6.26-16.68L77.07,158.93z"/>
					<path class="st25" d="M78.9,191.92c-5.46,0.36-15.07-0.54-15.43-1.55c-1.26-3.49-0.37-4.58-1.42-9.93l2.64-7.42
						c0,0-0.44,8.26,2,10.44c2.43,2.17,9.98,4.2,11.16,6.01C78.41,190.34,78.79,191.21,78.9,191.92z"/>
					<path class="st173" d="M72.64,188.44c0,0,5.39-1.2,6.26-0.72c0.87,0.48,3,2.22,3.26,2.83c0.27,0.61-1.94-0.46-2.65-0.65
						c-0.46-0.12-1.69,0.3-2.29,0.5c-2.54,0.85-4.1,0.41-4.1,0.41L72.64,188.44z"/>
					<path class="st13" d="M69.03,158.23c0,0-7.24,0.45-9.74,3.94c-3.53,4.92-10.52,25.88-6.51,28.68
						c4.52,3.15,20.55,0.82,20.55,0.82s0.53-2.49-0.21-3.7c-0.74-1.21-12.81-3.16-13.37-3.71c-0.56-0.56,6.96-10.86,6.96-12.53
						C66.71,170.06,69.03,158.23,69.03,158.23z"/>
					<path class="st173" d="M79.16,189.22c0,0,1.13,1.46,1.5,1.63c0.37,0.17,0.61,0.13,0.61,0.13l-0.76-1.37L79.16,189.22z"/>
					<path class="st173" d="M78.9,187.72l3.28,1.59c0,0-0.14,0.23-0.54,0.21c-0.4-0.02-1.42-0.39-1.42-0.39L78.9,187.72z"/>
				</g>
				<g>
					<g>
						<polygon class="st242" points="79.47,193.08 107.17,193.08 115.51,173.65 87.85,173.65 						"/>
						<polygon class="st242" points="107.5,191.82 70.91,191.82 70.91,193.05 107.17,193.05 						"/>
					</g>
					<path class="st176" d="M100.18,183.37c0.21-0.68-0.21-1.24-0.94-1.24c-0.73,0-1.49,0.55-1.7,1.24
						c-0.21,0.68,0.21,1.24,0.94,1.24C99.21,184.6,99.97,184.05,100.18,183.37z"/>
				</g>
			</g>
		</g>
		<g>
			<g>
				<path class="st3" d="M148.13,254.74h0.08c0.44,0,0.8-0.4,0.79-0.89l-1.2-57.48l-3.54-0.46l3.02,57.94
					C147.3,254.35,147.68,254.74,148.13,254.74z"/>
			</g>
			<g>
				<path class="st3" d="M73.5,254.74h-0.08c-0.44,0-0.8-0.4-0.79-0.89l1.2-57.48l3.54-0.46l-3.02,57.94
					C74.33,254.35,73.95,254.74,73.5,254.74z"/>
			</g>
			<path class="st3" d="M149.53,197.19H68.87c-0.71,0-1.29-0.58-1.29-1.29v-1.53c0-0.71,0.58-1.29,1.29-1.29h80.66
				c0.71,0,1.29,0.58,1.29,1.29v1.53C150.82,196.62,150.24,197.19,149.53,197.19z"/>
		</g>
	</g>
</g>
</svg>
