<?xml version="1.0" encoding="utf-8"?>
<!-- Generator: Adobe Illustrator 26.3.1, SVG Export Plug-In . SVG Version: 6.00 Build 0)  -->
<svg version="1.1" id="Layer_1" xmlns="http://www.w3.org/2000/svg" xmlns:xlink="http://www.w3.org/1999/xlink" x="0px" y="0px"
	 viewBox="0 0 700 430" style="enable-background:new 0 0 700 430;" xml:space="preserve">
<style type="text/css">
	.st0{fill:#0B50B9;}
	.st1{fill:#110239;}
	.st2{opacity:0.78;fill:#DCEAFF;}
	.st3{opacity:0.78;}
	.st4{opacity:0.5;fill:#BFDCFF;}
	.st5{fill:#005FBA;}
	.st6{fill:#FB961E;}
	.st7{fill:#FFFFFF;}
	.st8{fill:#FFAE73;}
	.st9{fill:#002897;}
	.st10{fill:#00158B;}
	.st11{fill:#ED057F;}
	.st12{fill:#A21B89;}
	.st13{fill:#F99352;}
	.st14{fill:#1F0757;}
	.st15{fill:#0097DD;}
	.st16{fill:#0072C6;}
	.st17{fill:#00A9E9;}
	.st18{fill:#25468F;}
	.st19{fill:#E8F2FA;}
	.st20{opacity:0.49;}
	.st21{fill:#E5E6ED;}
	.st22{fill:#214D9A;}
	.st23{fill:#CF0E83;}
	.st24{fill:#FFA05E;}
	.st25{fill:#00037F;}
	.st26{fill:#003AA2;}
	.st27{fill:#004DAE;}
	.st28{fill:#0084D1;}
	.st29{fill:#662D91;}
	.st30{fill:#75298F;}
	.st31{fill:#84248D;}
	.st32{fill:#93208B;}
	.st33{fill:#B11787;}
	.st34{fill:#C01285;}
	.st35{fill:#DE0981;}
	.st36{fill:#FDE3F1;}
	.st37{fill:#FBC7E3;}
	.st38{fill:#F9ACD4;}
	.st39{fill:#F790C6;}
	.st40{fill:#F574B8;}
	.st41{fill:#F358AA;}
	.st42{fill:#F13D9B;}
	.st43{fill:#EF218D;}
	.st44{opacity:0.43;}
	.st45{fill:#B6CFFF;}
	.st46{fill:#A9C2FF;}
	.st47{fill:#CEDFFF;}
	.st48{fill:#BBD3FF;}
	.st49{fill:#80A1E6;}
	.st50{opacity:0.5;}
	.st51{opacity:0.42;}
	.st52{fill:#F4F4FF;stroke:#FFFFFF;stroke-width:0.75;stroke-miterlimit:10;}
	.st53{fill:#F4F4FF;}
	.st54{fill:#FA8B79;}
	.st55{opacity:0.1;}
	.st56{fill:#6B98F6;}
	.st57{fill:#F9924F;}
	.st58{fill:#DF851B;}
	.st59{fill:#FCAD50;}
	.st60{fill:#FDC582;}
	.st61{fill:#FEDCB4;}
	.st62{fill:#E3F5FD;}
	.st63{fill:#C6ECFA;}
	.st64{fill:#AAE2F8;}
	.st65{fill:#8ED9F5;}
	.st66{fill:#71CFF3;}
	.st67{fill:#55C6F0;}
	.st68{fill:#39BCEE;}
	.st69{fill:#1CB3EB;}
	.st70{fill:#C6C7D7;}
	.st71{fill:#002987;}
	.st72{clip-path:url(#SVGID_00000111875744509072949980000014169874967705950106_);}
	.st73{fill:#F1F3F4;}
	.st74{fill:#9CC0F9;}
	.st75{fill:#FEF9E8;}
	.st76{fill:#E8EAED;}
	.st77{fill:#FCE8E6;}
	.st78{fill:none;stroke:#9CC0F9;stroke-width:3.7859;stroke-miterlimit:10;}
	.st79{fill:none;stroke:#9CC0F9;stroke-width:1.262;stroke-miterlimit:10;}
	.st80{fill:#2B478B;}
	.st81{opacity:0.32;}
	.st82{opacity:0.2;fill:#ED057F;}
	.st83{opacity:0.5;fill:#ED057F;}
	.st84{opacity:0.1;fill:#110239;}
	.st85{opacity:0.18;fill:#005FBA;}
	.st86{fill:#666666;}
	.st87{fill:#373737;}
	.st88{fill-rule:evenodd;clip-rule:evenodd;fill:#666666;}
	.st89{fill:#808080;}
	.st90{fill:#B3B3B3;}
	.st91{opacity:0.4;}
	.st92{opacity:0.25;fill:#FFFFFF;}
	.st93{opacity:0.5;fill:#FFFFFF;}
	.st94{opacity:0.37;fill:#0097DD;}
	.st95{fill:url(#SVGID_00000058581488583336940030000014345376595549082001_);}
	.st96{fill:url(#SVGID_00000097463992794957028160000004495979372491063220_);}
	.st97{fill:url(#SVGID_00000128475812540678033820000016999450256584265149_);}
	.st98{fill:url(#SVGID_00000178917985025333304130000000807510930327240352_);}
	.st99{fill:url(#SVGID_00000057114362534490995570000001902559384059516606_);}
	.st100{fill:url(#SVGID_00000083051735810467403590000004662565305138145938_);}
	.st101{fill:#5793CE;}
	.st102{fill:#D4ECFF;}
	.st103{fill:#FF2C9C;}
	.st104{fill:url(#SVGID_00000004547205672452817070000008476403489245977769_);}
	.st105{fill:url(#SVGID_00000007409922508370670280000001916903244530195352_);}
	.st106{fill:url(#SVGID_00000080891513961688786850000002682528068918204818_);}
	.st107{clip-path:url(#SVGID_00000022528033921562767780000016987181604278529457_);}
	.st108{fill:url(#SVGID_00000139252017893822966680000003591855915068706989_);}
	.st109{fill:url(#SVGID_00000110443241932544747080000006111400052910235536_);}
	.st110{fill:url(#SVGID_00000170272336174107320720000005724994723758343346_);}
	.st111{fill:url(#SVGID_00000132087548997821718780000000738422598850257543_);}
	.st112{fill:url(#SVGID_00000096777926466204774710000017057196552142202806_);}
	.st113{fill:url(#SVGID_00000181767487584998541130000012355952094894139326_);}
	.st114{fill:#7DC3EA;}
	.st115{fill:url(#SVGID_00000055705614009359629030000008467072385219915662_);}
	.st116{fill:url(#SVGID_00000129922629181138648540000012168044260092263340_);}
	.st117{fill:url(#SVGID_00000098182979360176222740000018137995691054577847_);}
	.st118{fill:url(#SVGID_00000052789470897471646630000007282014414476722104_);}
	.st119{opacity:0.43;fill:#CEDFFF;}
	.st120{opacity:0.43;fill:#A9C2FF;}
	.st121{opacity:0.12;fill:#606060;}
	.st122{fill:#FF912B;}
	.st123{fill:#F7931E;}
	.st124{fill:#E6EDFC;}
	.st125{fill:none;stroke:#FFFFFF;stroke-width:0.3254;stroke-miterlimit:10;}
	.st126{fill:none;stroke:#FFFFFF;stroke-width:0.3254;stroke-miterlimit:10;stroke-dasharray:1.3021,1.3021;}
	.st127{fill:none;stroke:#FFFFFF;stroke-width:0.3254;stroke-miterlimit:10;stroke-dasharray:1.3548,1.3548;}
	.st128{fill:none;stroke:#FFFFFF;stroke-width:0.75;stroke-miterlimit:10;}
	.st129{fill:none;stroke:#FFFFFF;stroke-width:1.0422;stroke-miterlimit:10;}
	.st130{fill:none;stroke:#C8D0FC;stroke-width:0.2605;stroke-miterlimit:10;}
	.st131{fill:none;stroke:#FFFFFF;stroke-width:0.2605;stroke-linecap:round;stroke-miterlimit:10;}
	.st132{fill:none;stroke:#FFFFFF;stroke-width:0.5211;stroke-miterlimit:10;}
	.st133{fill:#E8A398;}
	.st134{fill:none;stroke:#E8B1C3;stroke-width:1.9735;stroke-miterlimit:10;}
	
		.st135{opacity:0.3;fill:none;stroke:#FFFFFF;stroke-width:3.6666;stroke-linecap:round;stroke-linejoin:round;stroke-miterlimit:10;}
	.st136{fill:none;stroke:#FFFFFF;stroke-width:2.0116;stroke-miterlimit:10;}
	.st137{opacity:0.4;fill:#DF851B;}
	.st138{fill:#E6E1F9;}
	.st139{fill:none;stroke:#E6E1F9;stroke-width:1.2443;stroke-miterlimit:10;}
	.st140{fill:#00D9E0;}
	.st141{opacity:0.5;fill:#00D9E0;}
	.st142{fill:#00EDED;}
	.st143{opacity:0.5;fill:#AD86F7;}
	.st144{fill:#641CA0;}
	.st145{fill:#AD86F7;}
	.st146{fill:none;stroke:#FFFFFF;stroke-width:0.6221;stroke-miterlimit:10;}
	.st147{fill:#F4C4B3;}
	.st148{fill:#28BAAD;}
	.st149{fill:#00204E;}
	.st150{opacity:0.17;fill:#FFFFFF;}
	.st151{fill:none;stroke:#FFFFFF;stroke-width:0.702;stroke-miterlimit:10;}
	.st152{opacity:0.17;}
	.st153{fill:#F20574;}
	.st154{fill:#30A8F2;}
	.st155{fill:#F9FBFC;}
	.st156{opacity:0.3;}
	.st157{opacity:0.28;}
	.st158{fill:#FFC194;}
	.st159{fill:none;stroke:#FFFFFF;stroke-width:1.0182;stroke-miterlimit:10;}
	.st160{fill:none;stroke:#FFFFFF;stroke-width:1.8415;stroke-miterlimit:10;}
	.st161{fill:#444A7C;}
	.st162{fill:#F4A9A2;}
	.st163{opacity:0.15;fill:#FFFFFF;}
	.st164{opacity:0.3;fill:#FFFFFF;}
	.st165{fill:#007DCB;}
	.st166{opacity:0.5;fill:#F4A9A2;}
	.st167{fill:none;stroke:#E8B1C3;stroke-width:2.0936;stroke-miterlimit:10;}
	.st168{fill:#759BE0;}
	.st169{fill:#AEC3FF;}
	.st170{opacity:0.7;fill:#759BE0;}
	.st171{fill:#94B0ED;}
	.st172{fill:#D2E0FF;}
	.st173{fill:#FFB27D;}
	.st174{fill:#E8945B;}
	.st175{opacity:0.17;fill:#C0D4FF;}
	.st176{fill:#EBF3FA;}
	.st177{fill:#ED975D;}
	.st178{fill:#FCA56B;}
	.st179{fill:#A6D9F1;}
	.st180{fill:#E69D43;}
	.st181{fill:#CA5F00;}
	.st182{fill:#D6716B;}
	.st183{fill:#AA443E;}
	.st184{fill:#EE9849;}
	.st185{fill:#A6C7F9;}
	.st186{fill:#D2E4FF;}
	.st187{fill:#F3F9FF;}
	.st188{fill:#A8D29F;}
	.st189{fill:#82B378;}
	.st190{fill:#163560;}
	.st191{fill:#E37970;}
	.st192{fill:#D68D5D;}
	.st193{fill:#80BDCC;}
	.st194{fill:#E7F1FD;}
	.st195{fill:#5F9AA8;}
	.st196{fill:#C45446;}
	.st197{fill:#739AF0;}
	.st198{fill:#4A75CB;}
	.st199{fill:#E49963;}
	.st200{fill:#1C468A;}
	.st201{clip-path:url(#SVGID_00000160900401781785816770000004552484764501552774_);}
	.st202{fill:#D9935C;}
	.st203{fill:#B84C42;}
	.st204{fill:#B74B42;}
	.st205{fill:#E58638;}
	.st206{fill:#CC7C46;}
	.st207{fill:none;stroke:#031F4C;stroke-width:0.5748;stroke-miterlimit:10;}
	.st208{fill:#E8C4B3;}
</style>
<g>
	<g class="st44">
		<path class="st47" d="M602.5,383.32c-0.87,2.92-1.83,5.79-2.92,8.63c-2.17,5.77-4.81,11.35-7.94,16.74H135.99
			c0.22-5.64,0.46-11.24,0.54-16.74v-0.26c0.04-2.82-0.01-5.62-0.16-8.38c-1.43-27.25-11.43-51.63-25.98-75.06
			c-21.28-34.31-50.07-67.01-57.06-108C43.28,141.52,66.12,79.13,127.94,62.33c39.24-10.66,78.84,4.07,117.4,10.54
			c31.51,5.27,63.83-0.77,93.49-11.46c5.41-1.93,10.83-4,16.24-6.12c35.89-14.08,71.53-30.86,109.28-36.14
			c26.99-3.8,51.89,1.44,67.01,21.4c0,0.02,0.01,0.04,0.01,0.04c3.76,4.93,6.89,10.77,9.32,17.58c0.42,1.18,0.81,2.37,1.16,3.58
			c0,0.01,0.01,0.04,0.01,0.06c2.99,9.77,4.13,19.81,4.48,30c0.68,20.29-1.71,41.08,1.22,60.97c2.51,17.14,8.78,32.85,16.26,48.14
			c13,26.46,29.66,51.55,36.96,80.25c2.09,8.23,3.86,16.74,5.16,25.37C609.82,332.06,609.78,358.87,602.5,383.32z"/>
	</g>
	<path class="st120" d="M454.83,383h-85.66c-5.62,0-10.17-4.55-10.17-10.17v-33.66c0-5.62,4.55-10.17,10.17-10.17h85.66
		c5.62,0,10.17,4.55,10.17,10.17v33.66C465,378.45,460.45,383,454.83,383z"/>
	<g>
		<g>
			<path class="st120" d="M589.31,323.82l-3.4-0.45l3.14,1.89c-1.83,8.84-7.13,14.89-7.53,15.33c-0.02,0.02-0.02,0.02-0.02,0.02
				c-1.26,1.38-6.07-1.83-6.96-2.65c-3.52-3.16-5.15-7.78-6.68-12.12c-1.87-5.29-3.65-10.63-5.89-15.78
				c-1.79-4.11-3.79-8.15-5.74-12.18l1.69-5.01l-4.24-0.43c-0.41-0.9-0.79-1.79-1.18-2.69c-1.73-4.03-3.38-8.08-4.91-12.2
				c0.75,0.26,20.53,7.7,32.5,20.08l-1.57,2.53l4.56,0.9c1.51,1.89,2.79,3.91,3.79,6.01C589.74,313.13,590.11,318.87,589.31,323.82z
				"/>
			<path class="st120" d="M630.74,312.42c-0.41,0.49-0.77,1-1.16,1.51c-3.69,5.19-7.74,10.1-12.1,14.7l-2.16-1.43
				c0,0,0.73,1.45,1.18,2.42c-3.81,3.97-7.86,7.74-12.12,11.26c-1.16,0.96-2.5,1.95-3.97,2.59l-1.77-1.89c0,0,0.04,1.36,0.04,2.44
				c-0.65,0.12-1.3,0.16-1.98,0.06c-0.9-0.12-4.11-0.75-4.56-1.63l-0.02-0.02c0,0-4.3-9.67,3.93-18.31c0.86-0.9,1.81-1.67,2.83-2.36
				l1.39,1.79l2.32-3.91c2.2-1.04,4.52-1.85,6.72-2.57c4.95-1.63,10.08-2.79,15.21-3.69C626.58,313.03,628.66,312.72,630.74,312.42z
				"/>
			<path class="st120" d="M570.66,349.05l-0.02,0.02c-5.6,2.4-12.16,0.26-18.08-3.28c0.77-1.61,2.34-4.79,2.48-4.99
				c0.14-0.2-2.89,2.22-4.64,3.62c-8.49-5.64-15.23-13.5-15.23-13.5s22.42-1.43,30.75,2.89c0.81,0.43,1.53,0.92,2.14,1.45
				l-0.73,1.71l1.87-0.49C573.15,341.52,570.66,349.05,570.66,349.05z"/>
			<g>
				<path class="st159" d="M580.92,365.46c0,0,7.76-48.25-20.51-75.44"/>
				<path class="st159" d="M582,372.32c0,0,2.74-37.86,34.47-50.68"/>
				<path class="st159" d="M580.48,362.84c0,0-12.63-23.94-31.98-28.36"/>
			</g>
			<path class="st1" d="M601.53,361.2l-9.52,34.34h-19.88l-9.45-34.12c-0.02-0.05-0.03-0.09-0.03-0.12l-0.03-0.1H601.53z"/>
		</g>
	</g>
	<g>
		<g>
			<g>
				<g>
					<g>
						<path class="st1" d="M222.54,100.53v206.13c0,4.48,3.34,8.1,7.46,8.1h320.81c4.14,0,7.48-3.62,7.48-8.1V100.53
							c0-4.47-3.34-8.09-7.48-8.09H230C225.88,92.44,222.54,96.06,222.54,100.53z"/>
						<path class="st6" d="M222.54,100.53v14.76h335.75v-14.76c0-4.47-3.34-8.09-7.48-8.09H230
							C225.88,92.44,222.54,96.06,222.54,100.53z"/>
					</g>
				</g>
			</g>
			<g>
				<circle class="st7" cx="539.99" cy="104.61" r="3.7"/>
				<circle class="st7" cx="521.81" cy="104.61" r="3.7"/>
				<circle class="st7" cx="503.63" cy="104.61" r="3.7"/>
			</g>
		</g>
		<g>
			<polyline class="st160" points="254.11,157.2 308.01,211.11 339.75,179.37 397.31,236.92 440.48,193.76 462.06,215.34 
				487.37,191.02 528.47,232.11 			"/>
			<g>
				<circle class="st161" cx="253.39" cy="155.39" r="4.87"/>
			</g>
			<circle class="st153" cx="307.93" cy="211.16" r="4.87"/>
			<circle class="st153" cx="339.39" cy="180.3" r="4.87"/>
			<circle class="st153" cx="396.71" cy="236.83" r="4.87"/>
			<circle class="st153" cx="439.34" cy="194.45" r="4.87"/>
			<circle class="st153" cx="487.3" cy="192.2" r="4.87"/>
			<g>
				<circle class="st161" cx="527.44" cy="232.12" r="4.87"/>
			</g>
			<circle class="st153" cx="462.25" cy="214.36" r="4.87"/>
		</g>
		<g>
			<path class="st7" d="M442.57,292.03h10.47c2.3,0,4.17-1.87,4.17-4.17V275.2c0-2.3-1.87-4.17-4.17-4.17h-10.47
				c-2.3,0-4.17,1.87-4.17,4.17v12.65C438.4,290.16,440.27,292.03,442.57,292.03z"/>
			<path class="st7" d="M528.66,292.03h10.47c2.3,0,4.17-1.87,4.17-4.17v-6.31c0-2.3-1.87-4.17-4.17-4.17h-10.47
				c-2.3,0-4.17,1.87-4.17,4.17v6.31C524.5,290.16,526.36,292.03,528.66,292.03z"/>
			<path class="st153" d="M385.18,292.03h10.47c2.3,0,4.17-1.87,4.17-4.17v-21.26c0-2.3-1.87-4.17-4.17-4.17h-10.47
				c-2.3,0-4.17,1.87-4.17,4.17v21.26C381.01,290.16,382.88,292.03,385.18,292.03z"/>
			<path class="st7" d="M356.48,292.03h10.47c2.3,0,4.17-1.87,4.17-4.17V254c0-2.3-1.87-4.17-4.17-4.17h-10.47
				c-2.3,0-4.17,1.87-4.17,4.17v33.86C352.31,290.16,354.18,292.03,356.48,292.03z"/>
			<path class="st7" d="M327.79,292.03h10.47c2.3,0,4.17-1.87,4.17-4.17v-41.87c0-2.3-1.87-4.17-4.17-4.17h-10.47
				c-2.3,0-4.17,1.87-4.17,4.17v41.87C323.62,290.16,325.48,292.03,327.79,292.03z"/>
			<path class="st7" d="M299.09,292.03h10.47c2.3,0,4.17-1.87,4.17-4.17v-21.26c0-2.3-1.87-4.17-4.17-4.17h-10.47
				c-2.3,0-4.17,1.87-4.17,4.17v21.26C294.92,290.16,296.79,292.03,299.09,292.03z"/>
			<path class="st153" d="M270.39,292.03h10.47c2.3,0,4.17-1.87,4.17-4.17V254c0-2.3-1.87-4.17-4.17-4.17h-10.47
				c-2.3,0-4.17,1.87-4.17,4.17v33.86C266.22,290.16,268.09,292.03,270.39,292.03z"/>
			<path class="st7" d="M241.69,292.03h10.47c2.3,0,4.17-1.87,4.17-4.17v-41.87c0-2.3-1.87-4.17-4.17-4.17h-10.47
				c-2.3,0-4.17,1.87-4.17,4.17v41.87C237.53,290.16,239.39,292.03,241.69,292.03z"/>
		</g>
		<g class="st152">
			<path class="st7" d="M441.38,142.64h89.43c1.1,0,2-0.89,2-2l0,0c0-1.1-0.89-2-2-2h-89.43c-1.1,0-2,0.89-2,2l0,0
				C439.38,141.75,440.27,142.64,441.38,142.64z"/>
			<path class="st7" d="M490.37,154.14h40.44c1.1,0,2-0.89,2-2l0,0c0-1.1-0.89-2-2-2h-40.44c-1.1,0-2,0.89-2,2l0,0
				C488.37,153.24,489.26,154.14,490.37,154.14z"/>
		</g>
	</g>
	<g>
		<path class="st153" d="M198.24,168.64h97.53c8.86,0,16.04-7.18,16.04-16.04V50.8c0-8.86-7.18-16.04-16.04-16.04h-97.53
			c-8.86,0-16.04,7.18-16.04,16.04v101.8C182.2,161.46,189.39,168.64,198.24,168.64z"/>
		<g>
			<path class="st15" d="M247.01,52.37v16.83c11.65,0,21.09,9.45,21.09,21.09h16.85C284.94,69.35,267.96,52.37,247.01,52.37z"/>
			<path class="st6" d="M220.29,117.22c6.86,6.81,16.3,11.01,26.72,11.01c20.95,0,37.93-16.98,37.93-37.93H268.1
				c0,11.65-9.44,21.1-21.09,21.1c-5.77,0-11-2.31-14.81-6.09L220.29,117.22z"/>
			<path class="st7" d="M209.08,90.3c0,10.53,4.29,20.05,11.22,26.92l11.91-11.91c-3.88-3.82-6.28-9.14-6.28-15.01
				c0-11.64,9.44-21.09,21.09-21.09V52.37C226.06,52.37,209.08,69.35,209.08,90.3z"/>
		</g>
		<g>
			<path class="st124" d="M209.46,139.67h75.1c0.74,0,1.33-0.6,1.33-1.33l0,0c0-0.74-0.6-1.33-1.33-1.33h-75.1
				c-0.74,0-1.33,0.6-1.33,1.33l0,0C208.13,139.07,208.72,139.67,209.46,139.67z"/>
			<path class="st124" d="M209.46,151.11h75.1c0.74,0,1.33-0.6,1.33-1.33l0,0c0-0.74-0.6-1.33-1.33-1.33h-75.1
				c-0.74,0-1.33,0.6-1.33,1.33l0,0C208.13,150.51,208.72,151.11,209.46,151.11z"/>
		</g>
	</g>
	<g>
		<path class="st15" d="M520.95,238.78h64.75c7.74,0,14.02-6.28,14.02-14.02v-42.84c0-7.74-6.28-14.02-14.02-14.02h-64.75
			c-7.74,0-14.02,6.28-14.02,14.02v42.84C506.93,232.5,513.2,238.78,520.95,238.78z"/>
		<g>
			<g>
				<g>
					<path class="st7" d="M551.93,221.14h2.79c1.39,0,2.51-1.13,2.51-2.51v-7.74c0-1.39-1.13-2.51-2.51-2.51h-2.79
						c-1.39,0-2.51,1.13-2.51,2.51v7.74C549.41,220.01,550.54,221.14,551.93,221.14z"/>
				</g>
				<g>
					<path class="st9" d="M537.46,221.14h2.79c1.39,0,2.51-1.13,2.51-2.51V196.5c0-1.39-1.13-2.51-2.51-2.51h-2.79
						c-1.39,0-2.51,1.13-2.51,2.51v22.12C534.94,220.01,536.07,221.14,537.46,221.14z"/>
				</g>
				<g>
					<path class="st7" d="M580.87,221.14h2.79c1.39,0,2.51-1.13,2.51-2.51v-1.91c0-1.39-1.13-2.51-2.51-2.51h-2.79
						c-1.39,0-2.51,1.13-2.51,2.51v1.91C578.36,220.01,579.48,221.14,580.87,221.14z"/>
				</g>
				<g>
					<path class="st9" d="M566.4,221.14h2.79c1.39,0,2.51-1.13,2.51-2.51v-13.26c0-1.39-1.13-2.51-2.51-2.51h-2.79
						c-1.39,0-2.51,1.13-2.51,2.51v13.26C563.89,220.01,565.01,221.14,566.4,221.14z"/>
				</g>
				<g>
					<path class="st7" d="M522.98,221.14h2.79c1.39,0,2.51-1.13,2.51-2.51v-30.57c0-1.39-1.13-2.51-2.51-2.51h-2.79
						c-1.39,0-2.51,1.13-2.51,2.51v30.57C520.47,220.01,521.6,221.14,522.98,221.14z"/>
				</g>
			</g>
		</g>
	</g>
	<g>
		<g>
			<path class="st7" d="M381.65,345.76h66.83c0.73,0,1.32-0.59,1.32-1.32v-0.58c0-0.73-0.59-1.32-1.32-1.32h-66.83
				c-0.73,0-1.32,0.59-1.32,1.32v0.58C380.33,345.17,380.92,345.76,381.65,345.76z"/>
			<path class="st153" d="M422.11,345.76h26.37c0.73,0,1.32-0.59,1.32-1.32v-0.58c0-0.73-0.59-1.32-1.32-1.32h-26.37
				c-0.73,0-1.32,0.59-1.32,1.32v0.58C420.79,345.17,421.38,345.76,422.11,345.76z"/>
		</g>
		<g>
			<path class="st7" d="M381.65,357.7h66.83c0.73,0,1.32-0.59,1.32-1.32v-0.58c0-0.73-0.59-1.32-1.32-1.32h-66.83
				c-0.73,0-1.32,0.59-1.32,1.32v0.58C380.33,357.11,380.92,357.7,381.65,357.7z"/>
			<path class="st6" d="M411.08,357.7h37.4c0.73,0,1.32-0.59,1.32-1.32v-0.58c0-0.73-0.59-1.32-1.32-1.32h-37.4
				c-0.73,0-1.32,0.59-1.32,1.32v0.58C409.76,357.11,410.35,357.7,411.08,357.7z"/>
		</g>
		<g>
			<path class="st7" d="M381.65,369.64h66.83c0.73,0,1.32-0.59,1.32-1.32v-0.58c0-0.73-0.59-1.32-1.32-1.32h-66.83
				c-0.73,0-1.32,0.59-1.32,1.32v0.58C380.33,369.05,380.92,369.64,381.65,369.64z"/>
			<path class="st1" d="M395.45,369.64h53.03c0.73,0,1.32-0.59,1.32-1.32v-0.58c0-0.73-0.59-1.32-1.32-1.32h-53.03
				c-0.73,0-1.32,0.59-1.32,1.32v0.58C394.13,369.05,394.72,369.64,395.45,369.64z"/>
		</g>
	</g>
	<g>
		<path class="st162" d="M219.37,257.43c25.69,1.03,71.46,132.73,53.58,135.28C248.85,409.41,177.8,264.09,219.37,257.43z"/>
		<g>
			<g>
				<path class="st162" d="M262,392.34c3.6,1.98,8.09,1.61,11.63-0.47c27.7-16.3,90.34-122.47,81.1-123.74
					C349.05,264.7,234.92,377.43,262,392.34z"/>
			</g>
		</g>
		<path class="st8" d="M332.98,281.27l-60.52,64.36l-8.59-18.83l-33.64,24.14c0,0,19.56,41.51,37.85,44.43
			c18.29,2.93,83.01-108.43,83.01-108.43L332.98,281.27z"/>
		<g>
			<path class="st8" d="M334.97,283.44c-0.02,0.01-2.11,1.24-2.11,1.24l-0.84-5.54l0-0.04l-0.99-9.65
				c-0.24-2.48,0.11-4.96,1.05-7.25l6.5-8.85c0,0,3.34-0.55,1.04,5.26c-0.6,1.52-0.14,4.08,0.35,6.15l3.02-5.4l7.11-11.94
				c1.05-1.62,4.22-0.13,5.44,0.44c2.54,1.19,4.23,2.39,4.97,5.16c0.43,1.58,0.85,3.17,1.09,4.79c0.66,4.6-0.24,9.3-1.75,13.69
				c-1.22,3.56-2.84,6.98-4.82,10.18c-1.85,3-4.26,5.51-6.27,8.37c-2.31-1.17-4.69-2.26-7.03-3.38c-1.57-0.75-3.14-1.51-4.71-2.26
				C336.82,284.33,335.18,283.32,334.97,283.44z"/>
		</g>
		<g>
			<g>
				<path class="st163" d="M369.83,221.31c15.17,8.92,34.03,5.97,45.82-6.05c1.68-1.71,3.22-3.61,4.58-5.68
					c0.35-0.52,0.68-1.06,1-1.6c0.61-1.04,1.17-2.1,1.67-3.18c2.43-5.19,3.57-10.72,3.51-16.17c-0.12-12.75-6.72-25.11-18.51-32.04
					c-11.92-7.02-26.14-6.69-37.4-0.37c-4.76,2.65-8.99,6.38-12.3,11.07c-0.59,0.84-1.16,1.73-1.69,2.63
					c-0.4,0.68-0.78,1.37-1.13,2.07c-1.12,2.2-2,4.47-2.65,6.78C348.19,194.79,354.8,212.46,369.83,221.31z"/>
				<path class="st15" d="M361.2,225.79c1.37,1.03,2.81,1.99,4.32,2.87c1.51,0.89,3.04,1.68,4.6,2.38
					c21.13,9.45,46.45,1.69,58.47-18.74c12.9-21.94,5.58-50.18-16.36-63.08c-21.94-12.89-50.17-5.57-63.07,16.36
					C337.14,186.02,342.66,211.91,361.2,225.79z M368.51,223.54c-19.11-11.24-25.49-35.84-14.25-54.94
					c11.24-19.11,35.84-25.49,54.95-14.25c19.11,11.24,25.49,35.84,14.25,54.94C412.22,228.4,387.62,234.78,368.51,223.54z"/>
				
					<rect x="345.74" y="223.67" transform="matrix(-0.862 -0.5069 0.5069 -0.862 523.8071 650.9395)" class="st15" width="9.54" height="61"/>
				<path class="st9" d="M316.79,301.06l9.13,5.37c0.79,0.47,1.82,0.2,2.28-0.59l28.92-49.19c0.47-0.79,0.2-1.82-0.59-2.28
					l-9.13-5.37c-0.79-0.47-1.82-0.2-2.28,0.59l-28.92,49.19C315.73,299.57,316,300.59,316.79,301.06z"/>
			</g>
			<path class="st164" d="M358.2,167.29l64.7,37.51c2.43-5.19,3.57-10.72,3.51-16.17l-55.91-32.42
				C365.73,158.87,361.51,162.6,358.2,167.29z"/>
			<path class="st164" d="M352.72,178.76l62.92,36.5c1.68-1.71,3.22-3.61,4.58-5.68l-64.85-37.6
				C354.25,174.19,353.37,176.46,352.72,178.76z"/>
		</g>
		<path class="st15" d="M217.33,252.2l0.23,32.37l0.48,63.84c0,0,0.52,0.83,1.41,2.31c0.22,0.36,0.45,0.74,0.74,1.2
			c0.82,1.3,1.84,2.97,3.02,4.91l14.47-9.74l5.35-3.6l22.17-14.93c-7.06-18.17-14.34-35.73-19.51-45.32
			C232,257.73,217.33,252.2,217.33,252.2z"/>
		<path class="st165" d="M217.56,284.57l0.48,63.84c0,0,0.52,0.83,1.41,2.31c0.22,0.36,0.45,0.74,0.74,1.2
			c0.82,1.3,1.84,2.97,3.02,4.91l14.47-9.74l5.35-3.6c-2.32-8.68-3.54-16.7-5.35-36.38c-1.33-14.4-4.59-33.97-4.59-33.97
			S225.28,278.87,217.56,284.57z"/>
		<g>
			<polygon class="st8" points="152.9,256.54 173.96,272.34 188.97,258.95 188.97,238.76 158.95,215.21 158.41,218.81 
				156.85,229.55 			"/>
			<path class="st166" d="M157.99,222.51c8.22,16.33,27.25,24.36,30.98,25.5v-4.24l-27.99-24.82c0,0-1.1-0.14-2.56-0.16
				L157.99,222.51z"/>
			<g>
				<path class="st8" d="M156.36,219.45c0,0,5.56,12.41,18.51,18.72c6.08,2.96,12.96,6.97,19.98,5.6c6.2-1.22,9.47-7.38,12.11-12.49
					c2.58-4.98,3.77-10.59,3.78-16.19c0.01-6.04-0.31-11.88,0.99-17.82c1.03-4.69,2.53-10.56-0.28-14.93
					c-3.64-5.67-31.98-12.73-31.98-12.73l-16.69,9.2l-12.62,8.34L156.36,219.45z"/>
				<path class="st1" d="M194.55,183.18c0,0-0.86,4.6-5.67,6.63c0,0,9.09,1.07,14.55-3c0,0-2.57,3.96-4.71,4.6
					c0,0,11.34,0.53,14.98-3.64l-1.28,7.17c0,0,6.63-6.63,6.53-14.66c-0.08-5.69-2.63-10.92-4.38-16.22
					c-1.15-3.48-2.82-7.42-6.24-9.23c-9.09-4.84-20.13-4.03-29.79-1.56c-7.69,1.97-15.61,4.66-21.8,9.81
					c-16.42,13.66-10.07,43.84,0.94,58.96c0,0,1.36-13.84,1.58-18.12c0.21-4.28,4.06-5.35,3.96-3.32
					c-0.11,2.03,0.22,12.02,2.36,11.92c2.14-0.11,2.97-17.58,8.11-21.22C178.81,187.68,190.38,186.61,194.55,183.18z"/>
			</g>
		</g>
		<path class="st15" d="M88.98,400.32h140.29c3.55-43.75,8.27-111.87,4.41-126.01c-4.43-16.25-13.12-22.87-26.4-25.71
			c-4.01-0.85-13.49-1.86-18.35-2.19c-4.09,22.31-34.81,0.44-34.81,0.44s-7.36,0.73-12.68,1.07c-12.45,0.77-33.85,4.82-38.15,23.27
			c-2.08,8.92-4.54,32.21-7.15,58.54c-1.46,14.88-2.97,30.74-4.48,45.54C90.77,384.15,89.88,392.64,88.98,400.32z"/>
		<path class="st165" d="M129.64,298.25c0,0-19.23,53.83-21.39,60.33c-2.17,6.5-0.96,11.79,8.66,15.88
			c9.62,4.09-15.16,11.55-15.64,10.1s-32.48-29.35-30.55-31.03S129.64,298.25,129.64,298.25z"/>
		<path class="st162" d="M121.08,262.79c17.13,19.18-45.69,143.65-59.95,132.58C32.36,389.66,87.39,237.54,121.08,262.79z"/>
		<path class="st8" d="M64.99,326.34c0,0-20.69,51.96-11.79,63.51s94.26,18.14,94.26,18.14l3.66-23.43c0,0-59.3-14.55-59.48-15.46
			c-0.18-0.9,14.43-26.52,14.43-26.52L64.99,326.34z"/>
		<g>
			<g>
				<path class="st8" d="M51.44,383.98c0.06,4.11,2.59,7.83,6.15,9.88c27.85,16.03,151.12,18.06,147.65,9.39
					C205.42,396.63,51.02,353.07,51.44,383.98z"/>
			</g>
		</g>
		<path class="st15" d="M106.96,345.83c0,0,0,0,0-0.03c8.77-15.98,19.78-37.14,22.7-47.54c0,0,19.25-39.57,4.93-46.09
			c-1.92-0.87-5.96-2.27-7.92-1.79c-14.65,3.55-29.93,14.13-40.23,29.04c-6.88,9.92-16.03,28.09-23.62,47.11
			c0,0-0.03,0.03-0.03,0.05L106.96,345.83z"/>
		<path class="st8" d="M238.52,413.11c-0.21-0.62-10.05-20.51-21.13-22.36c-11.08-1.85-26.26,3.69-28.31,3.69
			c-2.05,0-6.77-0.41-6.77-0.41l-3.28,13.13c0,0,8.72-0.1,9.95,1.33c1.23,1.44,1.74,3.49,6.36,3.49s9.33-4.31,14.98-4.31
			c5.64,0,9.74,6.56,14.77,6.56S238.52,413.11,238.52,413.11z"/>
	</g>
	<g>
		<rect x="74.83" y="395.69" class="st27" width="589.5" height="8.25"/>
		<rect x="86.3" y="403.93" class="st9" width="564.06" height="16"/>
		<rect x="484.7" y="403.93" class="st27" width="165.66" height="16"/>
		<rect x="474.26" y="395.69" class="st15" width="190.07" height="8.25"/>
	</g>
</g>
<path class="st6" d="M471.27,292.03h10.47c2.3,0,4.17-1.87,4.17-4.17v-6.31c0-2.3-1.87-4.17-4.17-4.17h-10.47
	c-2.3,0-4.17,1.87-4.17,4.17v6.31C467.1,290.16,468.97,292.03,471.27,292.03z"/>
<path class="st6" d="M499.97,292.03h10.47c2.3,0,4.17-1.87,4.17-4.17V275.2c0-2.3-1.87-4.17-4.17-4.17h-10.47
	c-2.3,0-4.17,1.87-4.17,4.17v12.65C495.8,290.16,497.66,292.03,499.97,292.03z"/>
<path class="st6" d="M413.88,292.03h10.47c2.3,0,4.17-1.87,4.17-4.17v-25.63c0-2.3-1.87-4.17-4.17-4.17h-10.47
	c-2.3,0-4.17,1.87-4.17,4.17v25.63C409.71,290.16,411.57,292.03,413.88,292.03z"/>
<path class="st8" d="M359,250c-2.8,0.51-10.39,2.3-16,9c-6.81,8.14-7.93,20.23-3,31c3.59-2.55,10.51-8.22,15-18
	c2.92-6.34,3.76-12.14,4-16C359,254,359,252,359,250z"/>
</svg>
