<?xml version="1.0" encoding="utf-8"?>
<!-- Generator: Adobe Illustrator 26.3.1, SVG Export Plug-In . SVG Version: 6.00 Build 0)  -->
<svg version="1.1" id="Layer_1" xmlns="http://www.w3.org/2000/svg" xmlns:xlink="http://www.w3.org/1999/xlink" x="0px" y="0px"
	 viewBox="0 0 700 430" style="enable-background:new 0 0 700 430;" xml:space="preserve">
<style type="text/css">
	.st0{fill:#0B50B9;}
	.st1{fill:#110239;}
	.st2{opacity:0.78;fill:#DCEAFF;}
	.st3{opacity:0.78;}
	.st4{opacity:0.5;fill:#BFDCFF;}
	.st5{fill:#005FBA;}
	.st6{fill:#FB961E;}
	.st7{fill:#FFFFFF;}
	.st8{fill:#FFAE73;}
	.st9{fill:#002897;}
	.st10{fill:#00158B;}
	.st11{fill:#ED057F;}
	.st12{fill:#A21B89;}
	.st13{fill:#F99352;}
	.st14{fill:#1F0757;}
	.st15{fill:#0097DD;}
	.st16{fill:#0072C6;}
	.st17{fill:#00A9E9;}
	.st18{fill:#25468F;}
	.st19{fill:#E8F2FA;}
	.st20{opacity:0.49;}
	.st21{fill:#E5E6ED;}
	.st22{fill:#214D9A;}
	.st23{fill:#CF0E83;}
	.st24{fill:#FFA05E;}
	.st25{fill:#00037F;}
	.st26{fill:#003AA2;}
	.st27{fill:#004DAE;}
	.st28{fill:#0084D1;}
	.st29{fill:#662D91;}
	.st30{fill:#75298F;}
	.st31{fill:#84248D;}
	.st32{fill:#93208B;}
	.st33{fill:#B11787;}
	.st34{fill:#C01285;}
	.st35{fill:#DE0981;}
	.st36{fill:#FDE3F1;}
	.st37{fill:#FBC7E3;}
	.st38{fill:#F9ACD4;}
	.st39{fill:#F790C6;}
	.st40{fill:#F574B8;}
	.st41{fill:#F358AA;}
	.st42{fill:#F13D9B;}
	.st43{fill:#EF218D;}
	.st44{opacity:0.43;}
	.st45{fill:#B6CFFF;}
	.st46{fill:#A9C2FF;}
	.st47{fill:#CEDFFF;}
	.st48{fill:#BBD3FF;}
	.st49{fill:#80A1E6;}
	.st50{opacity:0.5;}
	.st51{opacity:0.42;}
	.st52{fill:#F4F4FF;stroke:#FFFFFF;stroke-width:0.75;stroke-miterlimit:10;}
	.st53{fill:#F4F4FF;}
	.st54{fill:#FA8B79;}
	.st55{opacity:0.1;}
	.st56{fill:#6B98F6;}
	.st57{fill:#F9924F;}
	.st58{fill:#DF851B;}
	.st59{fill:#FCAD50;}
	.st60{fill:#FDC582;}
	.st61{fill:#FEDCB4;}
	.st62{fill:#E3F5FD;}
	.st63{fill:#C6ECFA;}
	.st64{fill:#AAE2F8;}
	.st65{fill:#8ED9F5;}
	.st66{fill:#71CFF3;}
	.st67{fill:#55C6F0;}
	.st68{fill:#39BCEE;}
	.st69{fill:#1CB3EB;}
	.st70{fill:#C6C7D7;}
	.st71{fill:#002987;}
	.st72{clip-path:url(#SVGID_00000074437746662842254060000008619695798800270515_);}
	.st73{fill:#F1F3F4;}
	.st74{fill:#9CC0F9;}
	.st75{fill:#FEF9E8;}
	.st76{fill:#E8EAED;}
	.st77{fill:#FCE8E6;}
	.st78{fill:none;stroke:#9CC0F9;stroke-width:3.7859;stroke-miterlimit:10;}
	.st79{fill:none;stroke:#9CC0F9;stroke-width:1.262;stroke-miterlimit:10;}
	.st80{fill:#2B478B;}
	.st81{opacity:0.32;}
	.st82{opacity:0.2;fill:#ED057F;}
	.st83{opacity:0.5;fill:#ED057F;}
	.st84{opacity:0.1;fill:#110239;}
	.st85{opacity:0.18;fill:#005FBA;}
	.st86{fill:#666666;}
	.st87{fill:#373737;}
	.st88{fill-rule:evenodd;clip-rule:evenodd;fill:#666666;}
	.st89{fill:#808080;}
	.st90{fill:#B3B3B3;}
	.st91{opacity:0.4;}
	.st92{opacity:0.25;fill:#FFFFFF;}
	.st93{opacity:0.5;fill:#FFFFFF;}
	.st94{opacity:0.37;fill:#0097DD;}
	.st95{fill:url(#SVGID_00000092432997824921159400000002746407240118600843_);}
	.st96{fill:url(#SVGID_00000139291292172031187400000011859527677075545518_);}
	.st97{fill:url(#SVGID_00000101063329637621783380000016970146768467029407_);}
	.st98{fill:url(#SVGID_00000026880611321113032420000007788869014561075861_);}
	.st99{fill:url(#SVGID_00000018214669618923313070000002599561006085625759_);}
	.st100{fill:url(#SVGID_00000006701882522736533830000004062136804712735906_);}
	.st101{fill:#5793CE;}
	.st102{fill:#D4ECFF;}
	.st103{fill:#FF2C9C;}
	.st104{fill:url(#SVGID_00000086663014826406902020000002399725714809235383_);}
	.st105{fill:url(#SVGID_00000112592441889608221320000016110688119473540499_);}
	.st106{fill:url(#SVGID_00000021802215279656469410000015635150838078864806_);}
	.st107{clip-path:url(#SVGID_00000178166448497218773350000012562365268088573071_);}
	.st108{fill:url(#SVGID_00000031208589244634188920000015987319132769715110_);}
	.st109{fill:url(#SVGID_00000155118673151596236520000013014059660576455850_);}
	.st110{fill:url(#SVGID_00000181086250950847764380000011792730849233553068_);}
	.st111{fill:url(#SVGID_00000055667959529636039200000011922812111718696864_);}
	.st112{fill:url(#SVGID_00000051373002156627008460000005765134419638963597_);}
	.st113{fill:url(#SVGID_00000095317839256195281760000018076399358570494376_);}
	.st114{fill:#7DC3EA;}
	.st115{fill:url(#SVGID_00000069393844247910585520000012320073602162395812_);}
	.st116{fill:url(#SVGID_00000178174972419061658290000009850263722884550272_);}
	.st117{fill:url(#SVGID_00000182518985504032852960000002742479789964175506_);}
	.st118{fill:url(#SVGID_00000141416538070736193290000004108474170045765292_);}
	.st119{opacity:0.43;fill:#CEDFFF;}
	.st120{opacity:0.43;fill:#A9C2FF;}
	.st121{opacity:0.12;fill:#606060;}
	.st122{fill:#FF912B;}
	.st123{fill:#F7931E;}
	.st124{fill:#E6EDFC;}
	.st125{fill:none;stroke:#FFFFFF;stroke-width:0.3254;stroke-miterlimit:10;}
	.st126{fill:none;stroke:#FFFFFF;stroke-width:0.3254;stroke-miterlimit:10;stroke-dasharray:1.3021,1.3021;}
	.st127{fill:none;stroke:#FFFFFF;stroke-width:0.3254;stroke-miterlimit:10;stroke-dasharray:1.3548,1.3548;}
	.st128{fill:none;stroke:#FFFFFF;stroke-width:0.75;stroke-miterlimit:10;}
	.st129{fill:none;stroke:#FFFFFF;stroke-width:1.0422;stroke-miterlimit:10;}
	.st130{fill:none;stroke:#C8D0FC;stroke-width:0.2605;stroke-miterlimit:10;}
	.st131{fill:none;stroke:#FFFFFF;stroke-width:0.2605;stroke-linecap:round;stroke-miterlimit:10;}
	.st132{fill:none;stroke:#FFFFFF;stroke-width:0.5211;stroke-miterlimit:10;}
	.st133{fill:#E8A398;}
	.st134{fill:none;stroke:#E8B1C3;stroke-width:1.9735;stroke-miterlimit:10;}
	
		.st135{opacity:0.3;fill:none;stroke:#FFFFFF;stroke-width:3.6666;stroke-linecap:round;stroke-linejoin:round;stroke-miterlimit:10;}
	.st136{fill:none;stroke:#FFFFFF;stroke-width:2.0116;stroke-miterlimit:10;}
	.st137{opacity:0.4;fill:#DF851B;}
	.st138{fill:#E6E1F9;}
	.st139{fill:none;stroke:#E6E1F9;stroke-width:1.2443;stroke-miterlimit:10;}
	.st140{fill:#00D9E0;}
	.st141{opacity:0.5;fill:#00D9E0;}
	.st142{fill:#00EDED;}
	.st143{opacity:0.5;fill:#AD86F7;}
	.st144{fill:#641CA0;}
	.st145{fill:#AD86F7;}
	.st146{fill:none;stroke:#FFFFFF;stroke-width:0.6221;stroke-miterlimit:10;}
	.st147{fill:#F4C4B3;}
	.st148{fill:#28BAAD;}
	.st149{fill:#00204E;}
	.st150{opacity:0.17;fill:#FFFFFF;}
	.st151{fill:none;stroke:#FFFFFF;stroke-width:0.702;stroke-miterlimit:10;}
	.st152{opacity:0.17;}
	.st153{fill:#F20574;}
	.st154{fill:#30A8F2;}
	.st155{fill:#F9FBFC;}
	.st156{opacity:0.3;}
	.st157{opacity:0.28;}
	.st158{fill:#FFC194;}
	.st159{fill:none;stroke:#FFFFFF;stroke-width:1.0182;stroke-miterlimit:10;}
	.st160{fill:none;stroke:#FFFFFF;stroke-width:1.8415;stroke-miterlimit:10;}
	.st161{fill:#444A7C;}
	.st162{fill:#F4A9A2;}
	.st163{opacity:0.15;fill:#FFFFFF;}
	.st164{opacity:0.3;fill:#FFFFFF;}
	.st165{fill:#C3D3EA;}
	.st166{opacity:0.5;fill:#F4A9A2;}
	.st167{fill:none;stroke:#E8B1C3;stroke-width:2.0936;stroke-miterlimit:10;}
	.st168{fill:#759BE0;}
	.st169{fill:#AEC3FF;}
	.st170{opacity:0.7;fill:#759BE0;}
	.st171{fill:#94B0ED;}
	.st172{fill:#D2E0FF;}
	.st173{fill:#FFB27D;}
	.st174{fill:#E8945B;}
	.st175{opacity:0.17;fill:#C0D4FF;}
	.st176{fill:#EBF3FA;}
	.st177{fill:#ED975D;}
	.st178{fill:#FCA56B;}
</style>
<g>
	<g class="st44">
		<path class="st47" d="M111.26,94.52c7.97-22.69,46.5-12.58,46.5-12.58s23.54,42.46,31.19,43.99c7.65,1.53-13.04-40.23-13.04-40.23
			c15.06-0.35,51.8,20.78,51.8,20.78s-5.89,47.08,1.9,46.69c7.79-0.4,3.09-41.96,3.09-41.96c14.15,5.41,26.41,23.28,26.41,23.28
			c14.86,28.73-22.8,46.32-22.8,46.32s-1.69,16.36,7.05,35.91l0,0c0,0,2.03,3.64,3.92,9.71l-3.94-0.29
			c-0.24-1.08-0.52-2.13-0.84-3.14c0-0.01,0-0.01-0.01-0.02c0-0.01-0.01-0.03-0.01-0.04c-0.23-0.63-0.55-1.53-0.96-2.62c0,0,0,0,0,0
			c0,0,0,0,0-0.01c-1.03-2.45-1.72-4.25-2.14-5.55c0,0,0-0.01,0-0.01c-3.07-7.67-7.56-17.7-10.88-19.98c0,0,0.48-0.58,0.98-1.75
			c-0.31,0.56-0.64,1.14-0.98,1.75c-7.82,13.97-41.75,13.9-60.27,8.65c-18.52-5.24-9.93-9.94,0.83-17.81
			c10.76-7.86,31.81-4.03,38.33-6.95c6.52-2.91-2.4-6.96-15.01-6.92c-12.61,0.04-19.8,12.12-40.2,12.56
			c-20.4,0.44-33.02-38.8-33.02-38.8c13.67,5.37,39.31-0.5,40.63-5.25c1.32-4.75-35.85-7-41.53-8.88
			C112.56,129.53,103.29,117.21,111.26,94.52z"/>
	</g>
	<g class="st44">
		<path class="st47" d="M82.21,345.11c-13.97-24.36,24.37-50.7,24.37-50.7s55.5,11.6,62.69,6.01c7.19-5.59-45.52-19.18-45.52-19.18
			c11.18-13.57,57.91-29.93,57.91-29.93s37.12,41.14,42.72,33.95c5.59-7.19-34.73-34.75-34.73-34.75
			c15.58-8.38,40.73-5.58,40.73-5.58c36.73,8.8,23.54,55.51,23.54,55.51s13.17,13.98,37.13,21.17h0c0,0,4.77,0.98,11.58,3.95
			l-3.27,3.27c-1.14-0.61-2.28-1.16-3.42-1.65c-0.01-0.01-0.01-0.01-0.02-0.01c-0.02-0.01-0.03-0.01-0.05-0.02
			c-0.73-0.28-1.77-0.68-3.04-1.15c0,0,0,0,0,0c0,0,0,0-0.01,0c-2.95-0.96-5.07-1.73-6.54-2.34c0,0-0.01,0-0.01-0.01
			c-9.12-3.14-21.41-6.83-25.96-5.63c0,0-0.15-0.87-0.8-2.2c0.25,0.7,0.52,1.43,0.8,2.2c6.38,17.57-19.58,47.51-38.35,59.88
			c-18.77,12.37-16.37,1.19-15.11-14.32c1.26-15.51,20.71-31.2,23.11-39.18c2.4-7.99-7.99-3.2-17.57,7.98
			c-9.59,11.18-4.4,26.75-19.58,45.12c-15.18,18.36-59.5-0.42-59.5-0.42c15.18-7.98,29.56-35.13,26.37-39.92
			c-3.19-4.79-33.55,26.34-39.54,29.94C114.15,370.67,96.18,369.47,82.21,345.11z"/>
	</g>
	<g class="st81">
		<path class="st168" d="M427.03,209.82l-16.81,199.84c0,0-1.76,12.11,7.25,12.14c14.82,0.04,73.74,0,73.74,0s-11.15-2.52-11.02-8.2
			c0.16-6.69,19.64-205.67,19.64-205.67L427.03,209.82z"/>
		<path class="st169" d="M495.99,418.17c-2.91,0.01-59.2,0.18-73.62,0c-6.29-0.08-7.39-5.59-7.44-9.16
			c-0.03-1.71,0.19-2.97,0.19-2.97l0.44-5.19l1.11-13.24l0.98-11.7l1.26-15.03l1.06-12.69l11.94-142l72.81-1.89
			c0,0-8.21,83.27-14.01,143.89c-0.65,6.75-1.26,13.23-1.83,19.27c-0.19,1.93-0.36,3.82-0.54,5.65c-0.54,5.74-1.03,11-1.46,15.65
			c-0.23,2.45-0.43,4.73-0.62,6.81c-0.74,8.17-1.17,13.39-1.18,14.39c0,0.58,0.05,1.12,0.14,1.62
			C486.43,417.96,494.9,418.17,495.99,418.17z"/>
		<polygon class="st169" points="250.2,101.07 291.14,265.51 296.74,288.04 315.81,364.63 670.05,364.63 599.77,101.07 		"/>
		<polygon class="st168" points="250.2,101.07 244.52,102.96 308.27,370.35 315.81,364.63 		"/>
		<polygon class="st168" points="308.27,370.35 660.33,370.35 670.05,364.63 315.81,364.63 		"/>
		
			<rect x="431.9" y="418.25" transform="matrix(-1 -1.224647e-16 1.224647e-16 -1 940.0269 840.1155)" class="st169" width="76.23" height="3.62"/>
		<polygon class="st170" points="488.75,370.35 488.36,373.12 416.67,387.6 417.65,375.9 418.12,370.35 		"/>
		<path class="st171" d="M495.99,418.17c-2.91,0.01-59.2,0.18-73.62,0c-6.29-0.08-7.39-5.59-7.44-9.16l71.35-13.42
			c-0.74,8.17-1.17,13.39-1.18,14.39c0,0.58,0.05,1.12,0.14,1.62C486.43,417.96,494.9,418.17,495.99,418.17z"/>
		<polygon class="st171" points="471.42,311.27 315.81,364.63 296.74,288.04 		"/>
		<polygon class="st172" points="250.2,101.07 599.77,101.07 656.06,312.89 302.95,312.89 		"/>
		<polygon class="st171" points="656.26,312.89 653.33,312.89 629.37,221.45 598.56,103.91 254.55,103.91 306.66,312.89 
			302.94,312.93 250.2,101.07 600.98,100.77 601.29,101.94 632.08,220.11 		"/>
		<polygon class="st169" points="656.79,314.93 653.96,315.31 629.37,221.45 632.08,220.11 		"/>
	</g>
	<g>
		<path class="st1" d="M116.8,229.88c-0.58-1.75,7.95,2.29,18.11-1.12c8.76-2.94,0.86-8.66,3.09-15.91
			c1.59-5.17,1.09-19.04-12.45-19.6c0,0-3.26-1.97-7.96-0.41C106.9,196.39,84.65,232.41,116.8,229.88z"/>
		<path class="st6" d="M131.64,260.34c0,0,1.29,2.55,3.62,5.48c2.81,3.52,17.58-4.84,16.3-5.48c-1.27-0.64-8.69-22.01-10.46-24.69
			c-1.77-2.69-7.79-4.08-7.79-4.08L131.64,260.34z"/>
		<path class="st15" d="M81.82,404.49c0,0-4.07,3.72-3.28,6.36c0.8,2.64,4.47,4.4,4.97,7.63c0.5,3.23,2.48,4.99,4.27,4.99
			c1.79,0,8.53,0,8.53,0s1.32-2.27-1.86-2.96c-3.18-0.69-4.38-4.48-4.18-8c0.2-3.52-0.3-8.22-0.3-8.22l-6.76-1.57L81.82,404.49z"/>
		<path class="st15" d="M116.31,406.07c0,0-1.47,15.75,0.32,16.63l22.89-0.05c0,0,0-2.64-3.68-3.23
			c-3.68-0.59-10.14-2.74-11.23-7.54C123.52,407.09,116.31,406.07,116.31,406.07z"/>
		<path class="st6" d="M98.69,249.72c0,0-0.34,4.81,0,10.58c0.23,3.83,4.1,8.95,4.65,10.22c1.38,3.18,2.93,3.7,2.93,3.7l12.02,2.95
			l4.23,1.03l13.33-3.98c0,0,6.07-16.94,3.63-26.48c-2.44-9.54-6.16-16.16-6.16-16.16s-9.06-2.04-25.04-0.9L98.69,249.72z"/>
		<path class="st58" d="M97.55,260.43c0.23,3.83,5.24,8.82,5.79,10.08c1.38,3.18,2.93,3.7,2.93,3.7l12.02,2.95l2.17-6.22
			c0,0-17.56-4.61-14.74-20.87L97.55,260.43z"/>
		<path class="st10" d="M135,276.79c0,0,6.6,20.54,7.02,27.54c0.42,6.99-12.62,99.37-13.14,102.59c-0.49,3.04-4.27,4.97-4.27,4.97
			s-1.74,1.02-4.21,0.32c-3.44-0.97-4.52-2.13-4.52-2.13s-5.14-65.88-1.96-89.41c3.18-23.53,3.22-43.88,3.22-43.88H135z"/>
		<path class="st9" d="M107.03,276.17c0,0-10.07,13.51-11.01,22.64c-0.94,9.13-1.47,41.21-3.47,50.11c-2,8.9-9.35,26.03-9.35,53.8
			c0,0,0.76,1.59,3.12,2.44c0.75,0.27,1.76,0.53,2.75,0.76c1.94,0.45,3.94-0.5,4.83-2.29c4.97-10,20.79-42.26,21.6-48.95
			c0.57-4.74,5.57-36.1,16.47-54.5c2.62-4.42-1.61-21.99-1.61-21.99L107.03,276.17z"/>
		<path class="st10" d="M136.05,273.61c0,0-2.65,2.1-7.91,2.2c-6.29,0.13-21.87-1.6-21.87-1.6s-0.69,1.93-0.66,3.98
			c0,0,19.03,4.8,30.05,0.7C135.66,278.89,137.08,276.22,136.05,273.61z"/>
		<g>
			<path class="st7" d="M126.78,277.99c0-1.79,1.29-3.25,2.87-3.25c1.58,0,2.87,1.46,2.87,3.25c0,1.79-1.29,3.25-2.87,3.25
				C128.07,281.23,126.78,279.78,126.78,277.99z M127.73,277.99c0,1.27,0.86,2.3,1.92,2.3c1.06,0,1.92-1.03,1.92-2.3
				c0-1.27-0.86-2.3-1.92-2.3C128.59,275.69,127.73,276.72,127.73,277.99z"/>
		</g>
		<polygon class="st153" points="115.9,287.14 144.5,287.41 158.57,254.34 129.97,254.07 		"/>
		<path class="st173" d="M119.64,272.2l2.1-2.58c0,0,1.42-1.27,2.45-1.48c1.03-0.22,3.2-1.47,3.41-1.12
			c0.21,0.35-1.67,2.87-1.67,2.87l-0.1,0.01c2.16,1.62,7.61,0.19,8.28,0.85c0.82,0.8-1.12,2.54-2.16,3.51
			c-1.04,0.97-4.01,2.6-6.33,1.88c-1.69-0.53-4.36-1.06-4.36-1.06L119.64,272.2z"/>
		<path class="st173" d="M156.42,260.15c0,0-1.8-2.04-2.94-1.06c-1.14,0.98,0.3,5.8,1.39,5.31
			C155.96,263.91,157.05,260.75,156.42,260.15z"/>
		<path class="st6" d="M108.28,230.67c0,0-8.19,0.9-14.06,11.58c-4.63,8.42-12.55,23.94-9.56,28.32c1.31,1.92,13.89,8.77,38.15,4.86
			c0,0-0.38-3.06-2.34-4.48c0,0-20.41-6.55-20.38-7.86c0.07-2.47,2.76-4.6,14.16-16C117.34,243.98,108.28,230.67,108.28,230.67z"/>
		<path class="st173" d="M114.58,231.1c-0.28-0.38,0.08-1.58,0.53-3.82c0.41-2.03,1.1-5.17,1.08-8.7l0.6,0.1l10.15,1.71
			c0,0-0.23,2.71-0.24,5.27c0,0.02,0,0.04,0,0.06c-0.01,2.22,0.6,5.57-0.15,6.01C122.71,233.99,115.66,232.55,114.58,231.1z"/>
		<path class="st174" d="M126.95,220.39c0,0-0.2,3.83-0.21,6.38c-5.68-0.14-8.71-5.65-9.94-8.09L126.95,220.39z"/>
		<path class="st173" d="M127.56,224.95c0,0-13.3-1.89-11.99-10.16c1.31-8.27,0.47-14.08,9.02-13.22c8.55,0.86,9.7,4.27,9.93,7.14
			C134.75,211.58,131.05,225.23,127.56,224.95z"/>
		<path class="st1" d="M130.66,202.34c0,0-5.18,9.12-10.98,9.66c-5.8,0.55-7.98-1.33-7.98-1.33s4.82-2.72,6.65-8.5
			C118.34,202.16,128.65,197.28,130.66,202.34z"/>
		<path class="st1" d="M129.63,202.98c0,0,2.53,1.44,3.33,3.58c0.78,2.09,1.3,4.79,0.58,7.87c0,0,3.79-6.15,1.31-10.37
			C132.22,199.58,129.63,202.98,129.63,202.98z"/>
	</g>
	<path class="st119" d="M596.27,76.69l5.04-0.57c0.42-0.04,0.83,0.15,1.06,0.51c0.29,0.45,0.6,0.9,0.94,1.33
		c0.62,0.81,1.28,1.56,2,2.23c0.33,0.32,0.44,0.8,0.27,1.22l-1.93,4.94c-0.21,0.53,0.02,1.13,0.54,1.38l4.35,2.15
		c0.49,0.24,1.08,0.08,1.38-0.38l2.63-4.12c0.25-0.41,0.74-0.59,1.21-0.47c2,0.53,4.07,0.73,6.15,0.61c0.5-0.03,0.97,0.3,1.12,0.78
		l0.89,2.84c0.17,0.54,0.72,0.87,1.28,0.76l4.72-0.95c0.1-0.02,0.19-0.05,0.27-0.09c0.41-0.2,0.66-0.64,0.6-1.11l-0.42-3.77
		l-0.1-0.92c0.79-0.44,1.55-0.95,2.29-1.51c0.99-0.76,1.89-1.6,2.69-2.49c0.31-0.34,0.78-0.46,1.21-0.29l3.98,1.56
		c0.54,0.21,1.16-0.03,1.42-0.55l1.65-3.32l0.47-0.95c0.26-0.52,0.08-1.15-0.4-1.46l-3.44-2.2c-0.4-0.25-0.6-0.73-0.48-1.18
		c0.32-1.36,0.5-2.74,0.52-4.13c0.01-0.12,0.01-0.23,0.01-0.35c0-0.04,0-0.08,0.01-0.12c0.04-0.44,0.35-0.81,0.78-0.95l4.6-1.46
		c0.05-0.01,0.1-0.04,0.15-0.06c0.45-0.22,0.7-0.72,0.61-1.22l-0.94-4.71c-0.11-0.57-0.64-0.95-1.22-0.89l-5.26,0.6
		c-0.45,0.06-0.87-0.17-1.09-0.57c-0.47-0.86-1.02-1.71-1.65-2.52c-0.33-0.43-0.68-0.84-1.03-1.24c-0.29-0.32-0.38-0.78-0.22-1.18
		l1.86-4.75c0.21-0.52-0.02-1.12-0.53-1.37l-4.3-2.12c-0.52-0.26-1.15-0.09-1.47,0.41l-2.08,3.26c-0.28,0.44-0.81,0.62-1.3,0.46
		c-1.91-0.66-3.92-1.02-5.94-1.07c-0.48,0-0.9-0.32-1.05-0.78l-1.31-4.15c-0.18-0.56-0.74-0.89-1.32-0.78l-4.69,0.94
		c-0.56,0.11-0.95,0.64-0.88,1.2l0.02,0.22l0.49,4.38c0.05,0.47-0.19,0.91-0.61,1.13l0,0c-1,0.52-1.98,1.13-2.91,1.85
		c-0.5,0.38-0.96,0.78-1.42,1.2c-0.31,0.29-0.76,0.38-1.16,0.23l-4.04-1.59c-0.55-0.22-1.18,0.03-1.44,0.55l-2.12,4.28
		c-0.06,0.12-0.09,0.25-0.11,0.38c-0.04,0.41,0.15,0.83,0.51,1.06l2.75,1.75c0.33,0.22,0.53,0.6,0.51,0.99
		c-0.01,0.1-0.02,0.21-0.06,0.31c-0.84,2.46-1.17,5.05-0.99,7.64c0.04,0.44-0.21,0.85-0.59,1.05c-0.05,0.03-0.11,0.05-0.18,0.07
		l-3.73,1.18c-0.54,0.17-0.87,0.72-0.76,1.28l0.02,0.11l0.92,4.59C595.15,76.37,595.68,76.76,596.27,76.69z M628.54,62.37
		c0.29,0.72,0.52,1.5,0.68,2.33c0.31,1.59-0.01,4.09-0.73,5.54c-0.08,0.16-0.16,0.31-0.23,0.46c-4.94,9.16-17.87,7.34-20-3
		c-0.28-1.35-0.1-3.32,0.38-4.83c0.12-0.35,0.24-0.68,0.39-0.95c0.66-1.32,1.48-2.42,2.41-3.31
		C616.75,53.5,625.62,55.17,628.54,62.37z"/>
	<path class="st119" d="M55.42,185.37l4.99-0.56c0.42-0.04,0.82,0.15,1.05,0.5c0.29,0.45,0.6,0.89,0.93,1.32
		c0.61,0.8,1.27,1.54,1.98,2.21c0.33,0.31,0.44,0.79,0.27,1.21l-1.92,4.89c-0.21,0.52,0.02,1.12,0.53,1.37l4.3,2.13
		c0.49,0.24,1.07,0.07,1.37-0.38l2.6-4.08c0.24-0.4,0.73-0.59,1.2-0.46c1.98,0.52,4.03,0.73,6.09,0.61c0.5-0.03,0.96,0.29,1.11,0.77
		l0.88,2.81c0.17,0.53,0.72,0.86,1.27,0.75l4.67-0.94c0.1-0.02,0.19-0.05,0.27-0.09c0.41-0.19,0.65-0.63,0.6-1.09l-0.42-3.73
		l-0.1-0.91c0.78-0.44,1.54-0.94,2.27-1.5c0.98-0.75,1.87-1.58,2.66-2.46c0.3-0.34,0.78-0.46,1.2-0.29l3.94,1.55
		c0.54,0.21,1.15-0.02,1.4-0.54l1.63-3.29l0.46-0.94c0.26-0.51,0.08-1.14-0.4-1.45l-3.4-2.18c-0.4-0.25-0.59-0.72-0.48-1.17
		c0.32-1.34,0.49-2.72,0.52-4.09c0.01-0.12,0.01-0.23,0.01-0.35c0-0.04,0-0.08,0.01-0.12c0.04-0.44,0.35-0.81,0.77-0.94l4.55-1.44
		c0.05-0.01,0.1-0.04,0.15-0.06c0.44-0.22,0.7-0.71,0.6-1.21l-0.93-4.66c-0.11-0.56-0.63-0.94-1.21-0.88l-5.21,0.59
		c-0.44,0.06-0.87-0.17-1.08-0.56c-0.47-0.86-1.01-1.69-1.63-2.49c-0.33-0.43-0.67-0.83-1.02-1.23c-0.29-0.32-0.37-0.77-0.21-1.17
		l1.84-4.7c0.2-0.52-0.02-1.11-0.52-1.36l-4.26-2.1c-0.51-0.26-1.14-0.09-1.45,0.4l-2.06,3.22c-0.28,0.43-0.8,0.62-1.29,0.46
		c-1.89-0.66-3.88-1.01-5.88-1.06c-0.47,0-0.89-0.32-1.04-0.77l-1.3-4.11c-0.17-0.55-0.74-0.88-1.3-0.77l-4.64,0.93
		c-0.56,0.11-0.94,0.64-0.87,1.19l0.02,0.22l0.49,4.33c0.05,0.46-0.19,0.9-0.6,1.12l0,0c-0.99,0.51-1.96,1.12-2.88,1.83
		c-0.49,0.38-0.95,0.77-1.4,1.19c-0.31,0.29-0.75,0.38-1.15,0.22l-4-1.57c-0.55-0.22-1.17,0.03-1.43,0.55l-2.1,4.24
		c-0.06,0.12-0.09,0.25-0.11,0.37c-0.04,0.41,0.15,0.82,0.5,1.05l2.72,1.73c0.33,0.22,0.52,0.59,0.51,0.98
		c-0.01,0.1-0.02,0.2-0.06,0.31c-0.83,2.43-1.16,5-0.98,7.57c0.04,0.43-0.2,0.84-0.58,1.04c-0.05,0.03-0.11,0.05-0.17,0.07
		l-3.69,1.16c-0.53,0.17-0.86,0.71-0.75,1.27l0.02,0.11l0.91,4.54C54.31,185.05,54.84,185.43,55.42,185.37z M87.37,171.19
		c0.29,0.71,0.52,1.48,0.68,2.31c0.31,1.57-0.01,4.05-0.72,5.48c-0.08,0.15-0.15,0.3-0.23,0.45c-4.89,9.07-17.7,7.27-19.8-2.97
		c-0.27-1.34-0.1-3.29,0.38-4.78c0.12-0.34,0.24-0.67,0.38-0.94c0.65-1.3,1.46-2.39,2.38-3.28
		C75.69,162.4,84.48,164.06,87.37,171.19z"/>
	<g>
		<path class="st5" d="M549.39,131.38v195.67c0,7.15-5.48,12.95-12.24,12.95H190.98c-6.76,0-12.24-5.8-12.24-12.95V131.38
			c0-7.15,5.48-12.95,12.24-12.95h346.17C543.91,118.43,549.39,124.23,549.39,131.38z"/>
		<path class="st9" d="M549.39,130.67v8.97H178.74v-8.97c0-6.76,5.48-12.24,12.24-12.24h346.17
			C543.91,118.43,549.39,123.91,549.39,130.67z"/>
		<g>
			<path class="st150" d="M324.34,237.22c5.79,7.41-1.14,18.81,2.85,27.29c0.76,1.62,1.9,3.06,2.54,4.73
				c1.05,2.77,0.62,5.86,1.27,8.74c0.65,2.88,3.27,5.85,6.16,5.08c2.51-0.67,3.52-3.68,3.45-6.24c-0.07-2.55-0.79-5.17-0.04-7.62
				c0.91-2.97,3.96-5.03,7.1-5.31c3.14-0.28,6.29,1.01,8.71,3c2.66,2.19,5.56,5.47,8.82,4.31c3.12-1.11,3.38-5.54,1.85-8.44
				s-4.19-5.17-5.32-8.24c-1.43-3.86-0.12-8.25,2.2-11.67c2.32-3.42,5.54-6.11,8.46-9.05c1-1.01,2.01-2.14,2.18-3.54
				c0.17-1.39-0.94-3-2.36-2.82c-0.95,0.13-1.62,0.95-2.35,1.56c-3.19,2.64-8.46,1.09-10.88-2.24c-2.42-3.34-2.62-7.75-2.21-11.83
				c4.98,1.16,9.49-5.7,14.3-3.98c3.01,1.08,3.84,4.77,4.64,7.83c1.43,5.44,4.14,10.55,4.85,16.12c1.35,10.62-4.61,22.29,0.7,31.63
				c1.99,3.5,5.34,6.08,8.88,8.08c8.44,4.76,19.2,6.62,27.94,2.39c10.07-4.88,19.62-16.3,19.7-16.99
				c0.99-8.54-0.29-13.72,1.25-16.36c5.8-9.96,23.08-2.6,31.41-2.1c23,1.37,21.67-13.47,21.6-20.35c-0.09-8.12-0.91-13-3.68-16.1
				c-3.97-4.44-8.16-2.81-16.46-5.6C456.6,194.33,456.03,183.53,445,182c-8.12-1.12-7.63,4.76-20.94,7.6
				c-19,4.05-30.4-3.63-41.45,1.53c-2.77,1.29-5.49,2.85-8.52,3.35c-3.03,0.5-6.54-0.34-8.15-2.91c-1.92-3.05-0.45-7.08,1.62-10.03
				c2.07-2.96,4.77-5.7,5.46-9.22c0.95-4.89-2.58-9.89-7.24-11.85c-4.65-1.97-10.06-1.4-14.85,0.22
				c-8.75,2.97-15.96,9.16-22.44,15.65c-7.69,7.69-15.05,16.74-16.13,27.47c-0.42,4.23,0.16,8.6-1.32,12.67
				c-1.1,3.05-3.82,5.33-2.76,8.72C310.32,231.67,320.43,232.21,324.34,237.22z"/>
			<path class="st175" d="M459.16,184.95c1.52,1.18,3.04,2.37,4.56,3.55c1.05,0.82,2.13,1.65,3.27,1.86
				c2.41,0.44,4.63-2.47,4.5-5.92c-0.12-3.45-2.56-6.69-4.95-6.59c-1.48,0.06-2.97,1.18-4.36,0.21c-2.9-2.04-4.87-11.93-7.41-5.25
				C452.89,177.77,456.11,182.65,459.16,184.95z"/>
			<path class="st150" d="M279.83,198.9c3.19,2.02,6.37,4.05,9.56,6.07c1.77,1.12,3.79,2.93,3.05,4.86
				c-0.92,2.41-4.49,1.68-7.09,2.02c-3.56,0.47-6.25,4.34-5.4,7.78c0.63,2.55,2.73,5.55,0.82,7.38c-1.73,1.66-4.77,0.1-6.99,1.04
				c-1.32,0.55-2.14,1.91-3.46,2.46c-1.13,0.47-2.48,0.28-3.54,0.87c-1.33,0.73-1.79,2.39-2.9,3.42c-3.36,3.11-9.4-1.4-13.33,0.98
				c-3,1.81-2.49,6.51-0.15,9.1c2.34,2.58,5.81,3.82,8.78,5.67c2.97,1.85,5.72,4.99,5.07,8.39c-0.67,3.52-4.79,6.59-3.32,9.86
				c0.45,1.01,1.37,1.73,2.09,2.57c1.86,2.18,2.37,5.34,1.51,8.06c-0.86,2.72-2.98,4.98-5.57,6.26c-1.64,0.81-3.46,1.26-5.11,2.07
				c-4.46,2.19-7.14,6.74-9.51,11.06c-2.94,5.37-5.84,10.91-6.82,16.93c-0.32,1.99-0.63,4.34-2.43,5.32
				c-2.1,1.16-4.81-0.54-5.82-2.69c-1.02-2.15-0.98-4.62-1.56-6.92c-1.09-4.33-4.3-7.92-5.43-12.24
				c-2.69-10.34,7.19-20.62,5.31-31.13c-0.39-2.19-1.29-4.28-1.64-6.48c-0.68-4.37,1.01-9.03,4.36-11.98
				c3.61-3.17,9.17-4.79,10.62-9.33c1.59-5.01-3.04-10.18-2.23-15.37c0.26-1.66,1.07-3.2,1.3-4.87c0.27-1.92-0.24-3.85-0.79-5.71
				c-1.55-5.22-3.43-11.06-0.83-15.86c1.57-2.9,4.53-4.82,7.53-6.26c6.99-3.35,14.79-4.64,22.52-4.02c3.24,0.26,6.24-0.65,6.67,2.95
				C275.61,195.07,276.19,196.59,279.83,198.9z"/>
			<path class="st150" d="M302.38,172.01c1.71-1.2,3.76-1.81,5.59-2.83c1.83-1.01,3.54-2.64,3.7-4.7c0.13-1.61-0.75-3.17-1.96-4.25
				c-1.21-1.08-2.73-1.76-4.25-2.38c-2.97-1.2-6.03-2.22-9.14-3.03c-1.72-0.45-3.56-0.83-5.25-0.27c-1.49,0.5-2.64,1.67-3.68,2.84
				c-1.44,1.62-2.84,3.38-3.43,5.45c-0.85,2.97,0.05,6.15,1.28,9c1.01,2.34,7.29,14.81,10.52,13.41c1.26-0.55,1.73-5.94,2.24-7.24
				C298.95,175.68,300.27,173.49,302.38,172.01z"/>
			<path class="st150" d="M485.77,286.59c2.66-1.86,5.86-2.82,8.7-4.4c2.85-1.57,5.51-4.1,5.76-7.31c0.2-2.5-1.16-4.93-3.05-6.61
				c-1.88-1.69-4.25-2.74-6.61-3.7c-4.63-1.87-9.38-3.45-14.21-4.71c-2.67-0.7-5.54-1.29-8.16-0.42c-2.32,0.77-4.11,2.6-5.73,4.41
				c-2.25,2.52-4.41,5.25-5.34,8.48c-1.33,4.62,0.09,9.57,2,13.99c1.57,3.64,11.34,23.03,16.36,20.87
				c1.97-0.85,2.69-9.25,3.49-11.26C480.42,292.3,482.48,288.89,485.77,286.59z"/>
		</g>
		<g>
			<g>
				<path class="st7" d="M193.24,130.19c0-1.34,1.09-2.43,2.43-2.43c1.34,0,2.43,1.09,2.43,2.43c0,1.34-1.09,2.43-2.43,2.43
					C194.33,132.63,193.24,131.54,193.24,130.19z"/>
				<circle class="st7" cx="208.75" cy="130.19" r="2.43"/>
				<circle class="st7" cx="221.83" cy="130.19" r="2.43"/>
			</g>
		</g>
		<g>
			<g>
				<g>
					<path class="st153" d="M303.86,191.15c0,8.38,14.12,21.78,14.12,21.78s14.12-13.4,14.12-21.78s-6.32-15.18-14.12-15.18
						C310.18,175.97,303.86,182.76,303.86,191.15z M309.66,190.26c0-4.58,3.74-8.32,8.32-8.32c4.6,0,8.32,3.73,8.32,8.32
						c0,4.6-3.71,8.32-8.32,8.32C313.39,198.57,309.66,194.86,309.66,190.26z"/>
				</g>
			</g>
			<path class="st176" d="M309.66,190.26c0-4.59,3.72-8.32,8.32-8.32c4.59,0,8.32,3.72,8.32,8.32s-3.72,8.32-8.32,8.32
				C313.38,198.57,309.66,194.85,309.66,190.26z"/>
		</g>
		<g>
			<g>
				<path class="st6" d="M232.94,269.64c0,5.97,10.06,15.52,10.06,15.52s10.06-9.55,10.06-15.52c0-5.97-4.5-10.82-10.06-10.82
					C237.44,258.83,232.94,263.67,232.94,269.64z M237.07,269.01c0-3.27,2.66-5.93,5.93-5.93c3.28,0,5.93,2.66,5.93,5.93
					c0,3.28-2.65,5.93-5.93,5.93C239.73,274.93,237.07,272.29,237.07,269.01z"/>
			</g>
			<path class="st176" d="M237.07,269.01c0-3.27,2.65-5.93,5.93-5.93c3.27,0,5.93,2.65,5.93,5.93c0,3.27-2.65,5.93-5.93,5.93
				C239.72,274.93,237.07,272.28,237.07,269.01z"/>
		</g>
	</g>
	<g>
		<path class="st1" d="M207.05,239.41h-31.9c-13.51,0-24.57-11.06-24.57-24.57v-33.94c0-13.51,11.06-24.57,24.57-24.57h31.9
			c13.51,0,24.57,11.06,24.57,24.57v33.94C231.62,228.36,220.56,239.41,207.05,239.41z"/>
		<g>
			<path class="st7" d="M214.58,198.04c0,13.52-10.96,24.47-24.47,24.47s-24.47-10.95-24.47-24.47c0-13.52,10.95-24.47,24.47-24.47
				c1.54,0,3.04,0.14,4.5,0.42c-3.05,11.13-7.11,25.88-7.38,26.79c0.5-0.79,15.39-7.47,25.55-11.96
				C213.94,191.66,214.58,194.78,214.58,198.04z"/>
			<path class="st6" d="M214.14,186.15c-8.98,3.95-23.84,10.58-24.32,11.33c0.26-0.87,4.37-15.82,7.13-25.84
				C204.57,173.73,210.84,179.1,214.14,186.15z"/>
		</g>
	</g>
	<g>
		<path class="st1" d="M343.29,130.19h-78.48c-7.35,0-13.36-6.01-13.36-13.36V46.49c0-7.35,6.01-13.36,13.36-13.36h78.48
			c7.35,0,13.35,6.01,13.35,13.35v70.35C356.65,124.18,350.64,130.19,343.29,130.19z"/>
		<g>
			<g>
				<g>
					<path class="st7" d="M341.72,113.61H266.1V89.55h75.62V113.61z M267.03,112.69h73.76V90.48h-73.76V112.69z"/>
				</g>
				<g>
					<rect x="271.58" y="96.02" class="st7" width="29.25" height="1.91"/>
					<rect x="303.91" y="96.02" class="st7" width="20.75" height="1.91"/>
					<rect x="271.58" y="101.46" class="st7" width="16.14" height="1.91"/>
					<rect x="290.45" y="101.46" class="st7" width="20.75" height="1.91"/>
					<rect x="313.36" y="101.46" class="st7" width="20.75" height="1.91"/>
				</g>
			</g>
		</g>
		<g>
			<path class="st153" d="M270.51,82.21L270.51,82.21c-2.18,0-3.94-1.77-3.94-3.94v-3.08c0-2.18,1.77-3.94,3.94-3.94l0,0
				c2.18,0,3.94,1.77,3.94,3.94v3.08C274.45,80.44,272.69,82.21,270.51,82.21z"/>
			<path class="st153" d="M284.02,82.21L284.02,82.21c-2.18,0-3.94-1.77-3.94-3.94V67.92c0-2.18,1.77-3.94,3.94-3.94h0
				c2.18,0,3.94,1.77,3.94,3.94v10.35C287.96,80.44,286.2,82.21,284.02,82.21z"/>
			<path class="st7" d="M297.53,82.21L297.53,82.21c-2.18,0-3.94-1.77-3.94-3.94v-16.3c0-2.18,1.77-3.94,3.94-3.94l0,0
				c2.18,0,3.94,1.77,3.94,3.94v16.3C301.47,80.44,299.71,82.21,297.53,82.21z"/>
			<path class="st153" d="M311.04,82.21L311.04,82.21c-2.18,0-3.94-1.77-3.94-3.94V66.79c0-2.18,1.77-3.94,3.94-3.94l0,0
				c2.18,0,3.94,1.77,3.94,3.94v11.47C314.98,80.44,313.22,82.21,311.04,82.21z"/>
			<path class="st153" d="M324.55,82.21L324.55,82.21c-2.18,0-3.94-1.77-3.94-3.94V56.49c0-2.18,1.77-3.94,3.94-3.94l0,0
				c2.18,0,3.94,1.77,3.94,3.94v21.77C328.49,80.44,326.73,82.21,324.55,82.21z"/>
			<path class="st15" d="M338.06,82.21L338.06,82.21c-2.18,0-3.94-1.77-3.94-3.94V51.2c0-2.18,1.77-3.94,3.94-3.94l0,0
				c2.18,0,3.94,1.77,3.94,3.94v27.06C342,80.44,340.23,82.21,338.06,82.21z"/>
		</g>
	</g>
	<g>
		<path class="st153" d="M616.26,249.42H514.42c-7.52,0-13.66-6.15-13.66-13.66v-48.92c0-7.52,6.15-13.66,13.66-13.66h101.84
			c7.52,0,13.66,6.15,13.66,13.66v48.92C629.92,243.27,623.77,249.42,616.26,249.42z"/>
		<g>
			<g>
				<g>
					<path class="st7" d="M559.26,235.95H511.5v-15.2h47.76V235.95z M512.08,235.36h46.59v-14.03h-46.59V235.36z"/>
				</g>
				<g>
					<rect x="514.96" y="224.83" class="st7" width="18.47" height="1.2"/>
					<rect x="535.38" y="224.83" class="st7" width="13.11" height="1.2"/>
					<rect x="514.96" y="228.27" class="st7" width="10.2" height="1.2"/>
					<rect x="526.88" y="228.27" class="st7" width="13.11" height="1.2"/>
					<rect x="541.34" y="228.27" class="st7" width="13.11" height="1.2"/>
				</g>
			</g>
		</g>
		<g>
			<g>
				<g>
					<path class="st7" d="M616.21,235.95h-47.76v-15.2h47.76V235.95z M569.03,235.36h46.59v-14.03h-46.59V235.36z"/>
				</g>
				<g>
					<rect x="571.91" y="224.83" class="st7" width="18.47" height="1.2"/>
					<rect x="592.33" y="224.83" class="st7" width="13.11" height="1.2"/>
					<rect x="571.91" y="228.27" class="st7" width="10.2" height="1.2"/>
					<rect x="583.83" y="228.27" class="st7" width="13.11" height="1.2"/>
					<rect x="598.29" y="228.27" class="st7" width="13.11" height="1.2"/>
				</g>
			</g>
		</g>
		<g>
			<g>
				<g>
					<g>
						<path class="st7" d="M591.73,214.21h-75.87c-2.13,0-3.86-1.73-3.86-3.86l0,0c0-2.13,1.73-3.86,3.86-3.86h75.87
							c2.13,0,3.86,1.73,3.86,3.86l0,0C595.59,212.48,593.86,214.21,591.73,214.21z"/>
					</g>
				</g>
			</g>
		</g>
		<g>
			<g>
				<path class="st9" d="M563.12,197.36h-47.26c-2.41,0-4.37-1.95-4.37-4.37v0c0-2.41,1.95-4.37,4.37-4.37h47.26
					c2.41,0,4.37,1.95,4.37,4.37v0C567.49,195.4,565.53,197.36,563.12,197.36z"/>
			</g>
		</g>
	</g>
	<g>
		<g>
			<path class="st173" d="M486.75,158.12c0.49,0.56,0.55,1.19,0.31,1.85c0,0,0,0.01,0,0.01c-0.45,1.24-1.93,2.62-3.64,4
				c-0.22,0.18-0.41,0.34-0.58,0.49c-0.04,0.04-0.09,0.08-0.13,0.12c-0.03,0.03-0.07,0.06-0.1,0.09c-1.6,1.48-1,1.81-3.87,4.81
				c-3.28,3.41-5.54,3.47-6.18,3.16c-0.54-0.27,0.56-2.07,1.78-4.11c0.06-0.1,0.12-0.2,0.18-0.3c0.16-0.27,0.32-0.54,0.49-0.82
				c1.43-2.45,1.07-3.6,0.73-7.24c-0.28-2.96-4.61-16.54-4.61-16.54l6.28-1.08c0,0,1.89,10.81,3.98,12.48
				c1.11,0.89,2.36,0.9,3.43,1.56c0.08,0.05,0.15,0.09,0.22,0.14C485.64,157.14,486.26,157.55,486.75,158.12z"/>
			<path class="st1" d="M486.75,158.12c0.49,0.56,0.55,1.19,0.31,1.85c0,0,0,0.01,0,0.01c-0.55,1.24-1.99,2.61-3.65,3.98
				c-0.22,0.18-0.41,0.35-0.58,0.5c-0.04,0.04-0.09,0.08-0.13,0.12c-0.03,0.03-0.07,0.06-0.1,0.09c-1.6,1.48-1,1.81-3.87,4.81
				c-3.28,3.41-5.54,3.47-6.18,3.16c-0.54-0.27,0.56-2.07,1.78-4.11c0.64-0.23,3.6-1.44,5.85-4.31c1.9-2.43,3.2-5.52,4.49-7.42
				c0.14-0.03,0.23-0.04,0.37-0.07C485.64,157.14,486.26,157.55,486.75,158.12z"/>
			<path class="st173" d="M436.07,154.19c-0.39,1.94-3.15,1.62-6.24,0.86c-3.09-0.75-2.36,0.14-6.75-0.34
				c-4.4-0.49-5.73-2.13-5.86-2.78c-0.12-0.58,2.05-0.78,4.38-1.05c0.29-0.03,0.59-0.07,0.88-0.11c2.63-0.33,4.56-2.03,6.95-3.42
				c2.26-1.32,5.64-6.7,5.64-6.7l6.03,0.48c0,0-3.16,4.81-4.39,6.9c-0.72,1.23-0.68,2.85-0.59,4.11
				C436.17,152.81,436.21,153.51,436.07,154.19z"/>
			<path class="st1" d="M429.83,155.05c-3.09-0.75-2.36,0.14-6.75-0.34c-4.4-0.49-5.73-2.13-5.86-2.78
				c-0.12-0.58,2.05-0.78,4.38-1.05l0.02,0.04c0,0,2.64,1.87,6.3,1.96c2.98,0.07,6.14-0.78,8.2-0.75c0.05,0.68,0.09,1.38-0.05,2.06
				C435.69,156.13,432.92,155.81,429.83,155.05z"/>
			<path class="st58" d="M459.18,115.64l5.64,15.17l7.36,19.8c0,0,2,0.19,3.91-0.36c1.76-0.51,3.78-1.84,3.78-1.84
				s-2.04-21.27-5.86-33.47c-0.98-3.13-2.07-5.67-3.28-7.09C464.82,100.86,459.18,115.64,459.18,115.64z"/>
			<path class="st6" d="M464.91,91.55c3.21-1.04,11.58-0.02,20.66,1.63c2.51,0.45,5.04-0.69,6.36-2.87l0,0l22.85-1.78
				c0,0,7.54,16.72,3.41,27.38c-0.61,1.57-1.94,2.54-3.99,2.58c0,0,0,0,0,0c0,0-13.81,0.02-18.23,0.02
				c-11.37,0-24.05-7.81-25.69-8.14c-2.69-0.54-3.76,4.84-6.45,10.48c-2.69,5.64-25.25,24.98-25.25,24.98s-3.47,0.03-4.9-0.5
				c-1.54-0.58-2.1-1.33-2.1-1.33S456.59,94.23,464.91,91.55z"/>
			<path class="st1" d="M492.07,58.83c8.14,4.48,24.65,13.77,24.73,13.71c0,0,6.07,2.29,9.51,0c5.74-3.81,8.81-14.07-1.68-22.89
				c-5.23-4.4-8.95-5.47-9.52-12.5c-0.31-3.83-5.56-16.5-14.28-15.22c-0.7,0.1-1.4,0.15-2.11,0.13c-1.01-0.03-2.67,0.13-4.37,1.14
				C489.46,26.11,479.87,57.1,492.07,58.83z"/>
			<path class="st173" d="M498.89,55.02c-0.04,0.02,4,1.4,6.71,0.21c2.54-1.12,4.47-5.3,4.43-5.31c-1.16-0.05-2.43-1.06-3.4-7.7
				l-0.49,0.18l-8.28,2.98c0,0,0.6,2.66,0.99,5.18C499.17,52.68,499.34,54.72,498.89,55.02z"/>
			<path class="st177" d="M497.85,45.37c0,0,0.33,1.43,0.81,4.11c4.75-0.86,6.79-4.52,7.46-7.09L497.85,45.37z"/>
			<path class="st173" d="M496.62,48.01c0,0,11.32-1.52,10.27-8.56c-1.05-7.04-0.3-11.97-7.58-11.3c-7.27,0.67-8.27,3.57-8.49,6
				C490.6,36.59,493.65,48.22,496.62,48.01z"/>
			<path class="st1" d="M491.23,30.3c0,0,7.25,6.25,12.18,6.75c4.93,0.5,6.8-1.08,6.8-1.08s-2.91-2.41-4.66-6.31
				c-0.52-1.15-1.61-1.94-2.86-2.04C499.17,27.31,492.5,27.18,491.23,30.3z"/>
			<path class="st1" d="M495.76,29.74c0,0-2.42,2.34-3.19,4.08c-0.74,1.68-0.96,5.69-0.37,7.29c0,0-3.78-7.35-1.64-10.92
				C492.83,26.41,495.76,29.74,495.76,29.74z"/>
			<path class="st153" d="M489.35,71.7c0.34,22.92,0.09,18.13,2.6,20.31c0.6,0.52,2.3,0.84,4.54,0.98
				c7.03,0.47,19.38-0.69,19.85-1.99c1.62-4.49,0.48-5.89,1.83-12.77c0.14-0.73,0.32-1.52,0.52-2.39c1.13-4.73,2.23-6.33-1.78-13.93
				c-3.63-6.88-7.4-12.46-7.74-12.26c-9.57,5.68-10.35,0.91-10.35,0.91S489.19,60.52,489.35,71.7z"/>
			<path class="st6" d="M464.82,130.8l7.36,19.8c0,0,2,0.19,3.91-0.36c1.76-0.51,3.78-1.84,3.78-1.84s-2.04-21.27-5.86-33.47
				L464.82,130.8z"/>
			<path class="st153" d="M498.84,50.56c0,0-9.85,1.67-11.01,5.91c-1.16,4.24-4.96,29.98-4.96,29.98s2.78,2.71,5.09,0.4
				c2.31-2.31,7.28-24.09,7.28-24.09L498.84,50.56z"/>
			<path class="st12" d="M496.49,92.99c7.03,0.47,19.38-0.69,19.85-1.99c1.62-4.49,0.48-5.89,1.83-12.77l-3.39-9.55
				c0,0,0.56,10.63-2.57,13.43c-3.13,2.8-12.84,5.4-14.36,7.73C497.12,90.96,496.63,92.09,496.49,92.99z"/>
			<path class="st173" d="M504.55,88.52c0,0-6.93-1.54-8.05-0.93c-1.12,0.62-3.85,2.86-4.2,3.64c-0.34,0.78,2.49-0.59,3.41-0.84
				c0.6-0.16,2.17,0.39,2.95,0.65c3.27,1.09,5.28,0.53,5.28,0.53L504.55,88.52z"/>
			<path class="st153" d="M509.19,49.65c0,0,9.31,0.57,12.53,5.07c4.54,6.33,13.54,33.3,8.38,36.9c-5.81,4.05-26.44,1.06-26.44,1.06
				s-0.69-3.21,0.27-4.76c0.96-1.55,16.48-4.06,17.19-4.78c0.72-0.72-8.96-13.97-8.96-16.12C512.17,64.87,509.19,49.65,509.19,49.65
				z"/>
			<path class="st173" d="M496.16,89.52c0,0-1.45,1.87-1.93,2.1c-0.48,0.22-0.78,0.17-0.78,0.17l0.98-1.76L496.16,89.52z"/>
			<path class="st173" d="M496.49,87.59l-4.22,2.05c0,0,0.18,0.29,0.7,0.27c0.52-0.02,1.83-0.5,1.83-0.5L496.49,87.59z"/>
		</g>
		<g>
			<polygon class="st10" points="460.42,92.41 504.55,92.41 504.55,93.39 460.81,93.39 			"/>
			<polygon class="st15" points="494.23,93.39 460.81,93.39 450.76,68.39 484.13,68.39 			"/>
			<path class="st176" d="M469.25,80.89c-0.25-0.88,0.26-1.59,1.13-1.59c0.88,0,1.8,0.71,2.05,1.59c0.25,0.88-0.26,1.59-1.13,1.59
				S469.5,81.77,469.25,80.89z"/>
		</g>
	</g>
	<g>
		<g>
			<g>
				<path class="st153" d="M366.09,175.57c0,12.42,20.91,32.26,20.91,32.26s20.91-19.85,20.91-32.26c0-12.42-9.36-22.48-20.91-22.48
					C375.45,153.09,366.09,163.16,366.09,175.57z M374.67,174.25c0-6.79,5.53-12.32,12.32-12.32c6.82,0,12.32,5.53,12.32,12.32
					c0,6.82-5.5,12.32-12.32,12.32C380.21,186.57,374.67,181.07,374.67,174.25z"/>
			</g>
		</g>
		<path class="st176" d="M374.67,174.25c0-6.8,5.52-12.32,12.32-12.32c6.8,0,12.32,5.52,12.32,12.32s-5.52,12.32-12.32,12.32
			C380.19,186.57,374.67,181.06,374.67,174.25z"/>
	</g>
	<g>
		<path class="st8" d="M394.72,211.06c0,0-0.64-5.59-2-7.73c-1.35-2.14-6.48-3.51-6.8-3.2c-1,0.97,2.96,4.41,3.12,5.67
			c0.16,1.27-2.01,0.39-0.97,2.86c0.88,2.08,3.78,4.79,3.78,4.79L394.72,211.06z"/>
		<path class="st21" d="M392.25,210.43c1.87-1.47,2.26-1.44,2.26-1.44s17.28,14.97,18.96,16.3c1.68,1.33,27.63,8.86,27.63,8.86
			l4.12,21.1c0,0-35.11-16.96-39.31-20.42c-6.93-5.72-15.68-21.73-15.68-21.73S390.79,211.58,392.25,210.43z"/>
		<path class="st1" d="M441.67,413.18c0,0-0.3,7.21-1.68,8.96l-19.26,0.11c0.13-0.74,0.22-2.46,2.88-2.93
			c3.37-0.59,7.32-2.93,9.35-7.38C435.11,407.26,441.67,413.18,441.67,413.18z"/>
		<path class="st1" d="M479.46,412.14c0,0,1.34,9.58-0.48,9.75c-0.24,0.02-7.76,0.14-11.02,0.2c-3.83,0.06-10.12-0.07-10.12-0.07
			c-0.79,0.03-1.31-0.82-0.91-1.51c0.44-0.75,1.29-1.55,2.89-1.86c3.35-0.65,8.94-3.11,10.9-7.59
			C472.8,406.34,479.46,412.14,479.46,412.14z"/>
		<path class="st1" d="M431.65,313.98c0,0,5.35,18.74,20.7,51.28c15.35,32.54,16.01,48.22,16.01,48.22s2.32,0.82,5.41,0.49
			c3.33-0.36,5.69-1.84,5.69-1.84s-0.99-38.73-8.24-55.16c-7.25-16.42-8.73-61.36-8.73-61.36L431.65,313.98z"/>
		<path class="st1" d="M423.06,297.86c0,0-0.43,29.02,4.59,64.64c5.02,35.63,2.67,52.2,2.67,52.2s1.33,0.97,5.42,0.95
			c4.79-0.02,7.25-2,7.25-2s7.19-35.64,5.13-53.47c-2.06-17.83,9.84-61.19,9.84-61.19L423.06,297.86z"/>
		<path class="st8" d="M446.78,229.95l-5.67,4.2l-8.2-1.73c0.11-0.75,0.65-3.85,1.15-6.65c0.03-0.17,0.06-0.33,0.09-0.49
			c0.42-2.39,0.79-4.44,0.79-4.44l7.66-3.82l2.85-1.42c-0.01,0.05-0.22,2.65-0.25,3.03C444.66,225.38,446.78,229.95,446.78,229.95z"
			/>
		<path class="st7" d="M463.03,301.44c-1.85,8.48-41.54,4.76-41.02-0.42c0.02-0.17,0.12-2.57,0.27-5.8
			c0.3-6.99,0.76-17.9,0.82-18.76c0-0.01,0-0.03,0-0.04c0.71-7.21,1.4-14.26,1.44-18.87c0.04-3.99,0.59-8.08,1.32-11.78
			c0.68-3.42,1.5-6.53,2.22-8.95c0.51-1.71,1.45-3.2,2.71-4.38c0.89-0.84,1.94-1.51,3.09-1.97c0.32-0.13,0.64-0.24,0.96-0.34
			c4.67-1.36,11.13-3.03,12.88-2.52c4.74,1.4,8.27,9.75,10.76,20.39C463.16,267.93,464.24,295.91,463.03,301.44z"/>
		<path class="st178" d="M444.62,218.76c-1.68,3.22-7.95,6-10.56,7.02c0.03-0.17,0.06-0.33,0.09-0.49c0.42-2.39,0.79-4.44,0.79-4.44
			l7.66-3.82C444.28,217.01,445.31,217.43,444.62,218.76z"/>
		<path class="st8" d="M431.22,220.4c0,0,13.81,4.31,16.36-4.33c2.55-8.64,6.05-13.91-2.66-17.02c-8.71-3.12-11.4-0.33-12.96,2.35
			C430.41,204.07,427.69,219.06,431.22,220.4z"/>
		<path class="st1" d="M432.5,200.56c0,0,0.88,10.06,2.96,9.62c2.08-0.44,3.97-0.76,3.66,2.27c-0.3,3.03-3.19,6.53,3.22,7.07
			c6.41,0.54,15.62-15.99,13.86-19.12C451.13,191.37,425.16,189.54,432.5,200.56z"/>
		<path class="st21" d="M422.27,295.22c0.3-6.99,0.76-17.9,0.82-18.76c0-0.01,0-0.03,0-0.04l23.45-14.02
			C446.54,262.41,447.45,295.13,422.27,295.22z"/>
		<path class="st8" d="M403.63,265.89c0,0-4.77-3.22-5.67-3.5c-0.9-0.28-3.87-0.59-4-0.35c-0.14,0.23-0.54,0.95-0.03,1.19
			c0.52,0.24,1.16,0.16,0.97,0.33c-0.19,0.17-2.14-0.76-2.59,0.24c-0.45,0.99-0.84,4.4,1.44,5.43c2.29,1.03,7.93,0.1,8.33,0.22
			C405.54,270.43,403.63,265.89,403.63,265.89z"/>
		<path class="st7" d="M403.59,265.02c0,0,23.26,3.95,25.32,2.95c3.29-1.6-1.28-25.2-1.28-25.2s-0.2-5.35,6.05-6.61
			c5.43-1.1,10.66,2.97,10.66,2.97s4.76,4.26,4.15,8.99c-1.35,10.48-3.45,31.79-10.46,35.06c-9.04,4.21-35.2-11.68-35.2-11.68
			s-0.87-1.07-0.75-3.05C402.21,266.7,403.59,265.02,403.59,265.02z"/>
		<path class="st8" d="M387.96,208.38c0,0-1.49-2.96-1.73-3.51s0.34-0.44,0.91-0.13c0.57,0.31,1.35,2.03,2.24,1.82
			C390.09,206.39,387.96,208.38,387.96,208.38z"/>
	</g>
</g>
</svg>
